<svg width="4" height="7" viewBox="0 0 4 7" fill="none" xmlns="http://www.w3.org/2000/svg">
<path opacity="0.9" fill-rule="evenodd" clip-rule="evenodd" d="M3.96678 6.81521C3.9063 6.94801 3.74831 7.02214 3.58542 6.99412C3.51617 6.98221 3.31324 6.79495 1.7676 5.31673C0.221981 3.83849 0.0261796 3.64441 0.0137265 3.57818C-0.0217414 3.3896 -0.123509 3.49914 1.7676 1.6905C3.65817 -0.117622 3.54511 -0.0215254 3.74033 0.0135093C3.84266 0.0318618 3.96703 0.150805 3.98622 0.248672C4.0227 0.434602 4.10869 0.34099 2.38875 1.98756L0.804977 3.50373L2.37877 5.00985C3.2602 5.85338 3.96212 6.54058 3.97428 6.57193C4.00337 6.64681 4.00046 6.74126 3.96678 6.81521Z" fill="white"/>
</svg>
