<svg width="653" height="582" viewBox="0 0 653 582" fill="none" xmlns="http://www.w3.org/2000/svg">
<path opacity="0.2" fill-rule="evenodd" clip-rule="evenodd" d="M137.282 559.324C137.378 559.348 137.656 559.79 137.899 560.305C138.831 562.285 142.019 564.53 145.686 565.789C149.651 567.151 156.406 568.286 163.95 568.858C175.534 569.736 185.673 569.882 235.792 569.896C280.798 569.908 283.179 569.943 291.034 570.709C298.581 571.444 304.794 573.237 308.6 575.777C309.751 576.546 310.787 577.195 310.901 577.22C311.015 577.245 311.768 576.782 312.573 576.191C316.221 573.513 322.296 571.649 330.103 570.811C338.282 569.933 339.888 569.908 387.859 569.897C411.806 569.892 432.243 569.858 433.273 569.822C434.304 569.786 437.251 569.722 439.822 569.681C462.186 569.319 475.519 567.33 481.175 563.512C482.109 562.881 483.329 561.823 483.885 561.161C485.215 559.581 486.178 556.778 485.488 556.498C485.188 556.377 484.929 556.344 484.911 556.425C484.822 556.839 482.846 558.6 481.527 559.442C479.315 560.853 476.401 561.916 472.24 562.829C466.615 564.064 460.189 564.712 448.134 565.26C446.868 565.317 423.293 565.413 395.744 565.472C368.195 565.532 344.603 565.628 343.317 565.685C333.553 566.123 326.312 566.954 321.543 568.184C318.112 569.068 314.404 570.697 312.657 572.086C311.202 573.243 310.767 573.44 310.383 573.114C305.957 569.341 298.167 567.12 286.161 566.207C277.736 565.567 272.503 565.5 229.448 565.482C207.041 565.473 185.102 565.405 180.694 565.331C156.374 564.925 143.227 562.579 138.857 557.865C138.125 557.075 137.383 556.397 137.209 556.359C136.886 556.288 136.958 559.243 137.282 559.324Z" fill="#DCEEFF"/>
<path d="M474.265 541.572H465.898C465.898 540.793 466.015 540.087 466.25 539.454C466.484 538.815 466.789 538.285 467.164 537.863C467.544 537.441 467.96 537.055 468.412 536.703C468.869 536.352 469.323 536.032 469.774 535.745C470.225 535.452 470.638 535.165 471.013 534.884C471.394 534.603 471.702 534.274 471.936 533.899C472.17 533.519 472.288 533.105 472.288 532.66C472.288 532.021 472.088 531.518 471.69 531.148C471.297 530.779 470.747 530.595 470.038 530.595C469.692 530.595 469.367 530.659 469.062 530.788C468.763 530.911 468.529 531.061 468.359 531.236C468.195 531.406 468.048 531.579 467.919 531.755C467.796 531.931 467.711 532.083 467.665 532.212L467.603 532.396L465.986 531.676C466.009 531.594 466.042 531.488 466.083 531.359C466.129 531.23 466.252 531.002 466.452 530.674C466.657 530.346 466.894 530.056 467.164 529.804C467.433 529.552 467.823 529.32 468.333 529.109C468.842 528.898 469.411 528.793 470.038 528.793C471.274 528.793 472.288 529.165 473.079 529.909C473.87 530.653 474.265 531.57 474.265 532.66C474.265 533.234 474.148 533.768 473.914 534.26C473.679 534.752 473.38 535.165 473.017 535.499C472.66 535.827 472.247 536.167 471.778 536.519C471.315 536.864 470.864 537.181 470.424 537.468C469.985 537.755 469.551 538.101 469.124 538.505C468.702 538.903 468.376 539.325 468.148 539.771H474.265V541.572ZM477.974 539.99C476.949 538.812 476.436 537.239 476.436 535.271C476.436 533.302 476.949 531.731 477.974 530.56C479 529.382 480.256 528.793 481.745 528.793C483.233 528.793 484.49 529.382 485.515 530.56C486.541 531.731 487.053 533.302 487.053 535.271C487.053 537.239 486.541 538.812 485.515 539.99C484.49 541.162 483.233 541.748 481.745 541.748C480.256 541.748 479 541.162 477.974 539.99ZM484.091 538.707C484.748 537.869 485.076 536.724 485.076 535.271C485.076 533.817 484.748 532.675 484.091 531.843C483.441 531.011 482.659 530.595 481.745 530.595C480.831 530.595 480.045 531.011 479.389 531.843C478.739 532.675 478.414 533.817 478.414 535.271C478.414 536.724 478.739 537.869 479.389 538.707C480.045 539.539 480.831 539.955 481.745 539.955C482.659 539.955 483.441 539.539 484.091 538.707ZM497.222 541.572H488.855C488.855 540.793 488.972 540.087 489.207 539.454C489.441 538.815 489.746 538.285 490.121 537.863C490.501 537.441 490.917 537.055 491.369 536.703C491.826 536.352 492.28 536.032 492.731 535.745C493.182 535.452 493.595 535.165 493.97 534.884C494.351 534.603 494.659 534.274 494.893 533.899C495.127 533.519 495.245 533.105 495.245 532.66C495.245 532.021 495.045 531.518 494.647 531.148C494.254 530.779 493.704 530.595 492.995 530.595C492.649 530.595 492.324 530.659 492.019 530.788C491.72 530.911 491.486 531.061 491.316 531.236C491.152 531.406 491.005 531.579 490.876 531.755C490.753 531.931 490.668 532.083 490.622 532.212L490.56 532.396L488.943 531.676C488.966 531.594 488.999 531.488 489.04 531.359C489.086 531.23 489.209 531.002 489.409 530.674C489.614 530.346 489.851 530.056 490.121 529.804C490.39 529.552 490.78 529.32 491.29 529.109C491.799 528.898 492.368 528.793 492.995 528.793C494.231 528.793 495.245 529.165 496.036 529.909C496.827 530.653 497.222 531.57 497.222 532.66C497.222 533.234 497.105 533.768 496.871 534.26C496.636 534.752 496.337 535.165 495.974 535.499C495.617 535.827 495.204 536.167 494.735 536.519C494.272 536.864 493.821 537.181 493.381 537.468C492.942 537.755 492.508 538.101 492.081 538.505C491.659 538.903 491.333 539.325 491.105 539.771H497.222V541.572ZM501.731 528.969H503.26V541.572H501.283V532.036H499.033V530.683C499.789 530.601 500.363 530.422 500.755 530.146C501.154 529.865 501.479 529.473 501.731 528.969Z" fill="#00B7F6"/>
<g opacity="0.2" filter="url(#filter0_f_125_16)">
<path d="M489.874 532L324.95 467.915L473.853 100.369L489.874 532Z" fill="#1B4452"/>
<path d="M602.965 460.376L489.874 532L473.853 100.369L602.965 460.376Z" fill="#1B4452"/>
</g>
<path d="M486.218 519.054L324.712 456.298L470.529 96.3691L486.218 519.054Z" fill="url(#paint0_linear_125_16)"/>
<path d="M596.965 448.914L486.218 519.054L470.529 96.3691L596.965 448.914Z" fill="url(#paint1_linear_125_16)"/>
<path d="M448.541 69.418H447.372V65.999H444.041V64.8213H447.372V61.4023H448.541V64.8213H451.872V65.999H448.541V69.418ZM456.003 58.0713H456.996V70.6748H455.643V60.5938H453.305V59.7852C453.715 59.7734 454.084 59.7061 454.412 59.583C454.74 59.4541 455.001 59.3105 455.194 59.1523C455.388 58.9883 455.546 58.8242 455.669 58.6602C455.798 58.4961 455.886 58.3613 455.933 58.2559L456.003 58.0713ZM464.273 62.5713C465.486 62.5713 466.494 62.9697 467.297 63.7666C468.105 64.5576 468.51 65.542 468.51 66.7197C468.51 67.8916 468.1 68.873 467.279 69.6641C466.465 70.4551 465.434 70.8506 464.186 70.8506C462.938 70.8506 461.906 70.4551 461.092 69.6641C460.277 68.873 459.87 67.8887 459.87 66.7109C459.87 66.2539 459.943 65.8027 460.09 65.3574C460.242 64.9062 460.389 64.5664 460.529 64.3379L460.767 64.0127L464.546 58.0713H465.899L462.929 62.7559C463.274 62.6328 463.723 62.5713 464.273 62.5713ZM466.348 68.8027C466.887 68.2754 467.156 67.5811 467.156 66.7197C467.156 65.8525 466.887 65.1553 466.348 64.6279C465.809 64.1006 465.088 63.8369 464.186 63.8369C463.289 63.8369 462.568 64.1006 462.023 64.6279C461.484 65.1553 461.215 65.8525 461.215 66.7197C461.215 67.5811 461.484 68.2754 462.023 68.8027C462.568 69.3301 463.289 69.5938 464.186 69.5938C465.088 69.5938 465.809 69.3301 466.348 68.8027ZM471.111 69.0576L472.377 69.7783L470.303 73.0127L469.494 72.5645L471.111 69.0576ZM478.582 66.1748C477.369 66.1748 476.361 65.7793 475.559 64.9883C474.756 64.1973 474.354 63.2129 474.354 62.0352C474.354 60.8574 474.762 59.873 475.576 59.082C476.391 58.291 477.422 57.8955 478.67 57.8955C479.918 57.8955 480.949 58.291 481.764 59.082C482.584 59.873 482.994 60.8574 482.994 62.0352C482.994 62.4922 482.918 62.9463 482.766 63.3975C482.613 63.8428 482.467 64.1797 482.326 64.4082L482.089 64.7334L478.31 70.6748H476.965L479.936 65.999C479.584 66.1162 479.133 66.1748 478.582 66.1748ZM476.508 59.9521C475.969 60.4795 475.699 61.1738 475.699 62.0352C475.699 62.8965 475.969 63.5938 476.508 64.127C477.053 64.6543 477.773 64.918 478.67 64.918C479.572 64.918 480.293 64.6543 480.832 64.127C481.371 63.5938 481.641 62.8965 481.641 62.0352C481.641 61.1738 481.371 60.4795 480.832 59.9521C480.293 59.4189 479.572 59.1523 478.67 59.1523C477.773 59.1523 477.053 59.4189 476.508 59.9521ZM486.229 70.6748L494.147 58.0713H495.404L487.485 70.6748H486.229ZM489.454 58.7129C490.005 59.2578 490.28 59.9141 490.28 60.6816C490.28 61.4492 490.005 62.1084 489.454 62.6592C488.909 63.2041 488.253 63.4766 487.485 63.4766C486.718 63.4766 486.062 63.2041 485.517 62.6592C484.972 62.1084 484.699 61.4492 484.699 60.6816C484.699 59.9141 484.972 59.2578 485.517 58.7129C486.062 58.168 486.718 57.8955 487.485 57.8955C488.253 57.8955 488.909 58.168 489.454 58.7129ZM488.637 61.9121C488.953 61.584 489.111 61.1738 489.111 60.6816C489.111 60.1895 488.953 59.7822 488.637 59.46C488.326 59.1377 487.942 58.9766 487.485 58.9766C487.034 58.9766 486.65 59.1377 486.334 59.46C486.023 59.7822 485.868 60.1895 485.868 60.6816C485.868 61.1738 486.023 61.584 486.334 61.9121C486.65 62.2344 487.034 62.3955 487.485 62.3955C487.942 62.3955 488.326 62.2344 488.637 61.9121ZM492.179 70.0332C491.634 69.4883 491.361 68.832 491.361 68.0645C491.361 67.2969 491.634 66.6406 492.179 66.0957C492.724 65.5508 493.38 65.2783 494.147 65.2783C494.915 65.2783 495.571 65.5508 496.116 66.0957C496.667 66.6406 496.942 67.2969 496.942 68.0645C496.942 68.832 496.667 69.4883 496.116 70.0332C495.571 70.5781 494.915 70.8506 494.147 70.8506C493.38 70.8506 492.724 70.5781 492.179 70.0332ZM492.996 66.8428C492.686 67.165 492.53 67.5723 492.53 68.0645C492.53 68.5566 492.686 68.9668 492.996 69.2949C493.307 69.6172 493.69 69.7783 494.147 69.7783C494.604 69.7783 494.988 69.6172 495.299 69.2949C495.609 68.9668 495.765 68.5566 495.765 68.0645C495.765 67.5723 495.609 67.165 495.299 66.8428C494.988 66.5146 494.604 66.3506 494.147 66.3506C493.69 66.3506 493.307 66.5146 492.996 66.8428Z" fill="#09C662"/>
<path d="M450.527 25.0742C451.383 25.8477 452.52 26.2344 453.938 26.2344C455.355 26.2344 456.486 25.8477 457.33 25.0742C458.186 24.2891 458.613 23.2988 458.613 22.1035C458.613 20.8965 458.186 19.9062 457.33 19.1328C456.486 18.3477 455.355 17.9551 453.938 17.9551C452.52 17.9551 451.383 18.3477 450.527 19.1328C449.684 19.9062 449.262 20.8965 449.262 22.1035C449.262 23.2988 449.684 24.2891 450.527 25.0742ZM448.717 17.4629C450.158 16.1152 451.898 15.4414 453.938 15.4414C455.977 15.4414 457.717 16.1152 459.158 17.4629C460.6 18.7988 461.32 20.3457 461.32 22.1035C461.32 22.7949 461.203 23.457 460.969 24.0898C460.746 24.7109 460.477 25.209 460.16 25.584C459.855 25.9473 459.545 26.2695 459.229 26.5508C458.924 26.8203 458.66 27.0195 458.438 27.1484L458.086 27.3242C458.203 27.3711 458.355 27.4355 458.543 27.5176C458.742 27.5996 459.088 27.8223 459.58 28.1855C460.072 28.5488 460.506 28.9473 460.881 29.3809C461.268 29.8027 461.613 30.4004 461.918 31.1738C462.234 31.9355 462.393 32.75 462.393 33.6172C462.393 35.7266 461.584 37.543 459.967 39.0664C458.35 40.5898 456.34 41.3516 453.938 41.3516C451.535 41.3516 449.525 40.5898 447.908 39.0664C446.291 37.543 445.482 35.7266 445.482 33.6172C445.482 32.75 445.629 31.9414 445.922 31.1914C446.227 30.4297 446.59 29.8262 447.012 29.3809C447.434 28.9238 447.85 28.5312 448.26 28.2031C448.682 27.875 449.051 27.6523 449.367 27.5352L449.807 27.3242C449.713 27.2773 449.59 27.2188 449.438 27.1484C449.297 27.0664 449.039 26.8789 448.664 26.5859C448.289 26.2812 447.955 25.9473 447.662 25.584C447.381 25.209 447.123 24.7109 446.889 24.0898C446.666 23.457 446.555 22.7949 446.555 22.1035C446.555 20.3457 447.275 18.7988 448.717 17.4629ZM457.998 29.9785C456.873 28.9238 455.52 28.3965 453.938 28.3965C452.355 28.3965 450.996 28.9238 449.859 29.9785C448.734 31.0332 448.172 32.2461 448.172 33.6172C448.172 35.0352 448.699 36.2598 449.754 37.291C450.82 38.3223 452.215 38.8379 453.938 38.8379C455.672 38.8379 457.066 38.3223 458.121 37.291C459.176 36.2598 459.703 35.0352 459.703 33.6172C459.703 32.2461 459.135 31.0332 457.998 29.9785ZM471.586 20.7324C470.133 22.584 469.406 25.1445 469.406 28.4141C469.406 31.6719 470.133 34.2266 471.586 36.0781C473.039 37.918 474.785 38.8379 476.824 38.8379C478.84 38.8379 480.568 37.9121 482.01 36.0605C483.451 34.1973 484.172 31.6426 484.172 28.3965C484.172 25.127 483.445 22.5723 481.992 20.7324C480.539 18.8809 478.805 17.9551 476.789 17.9551C474.773 17.9551 473.039 18.8809 471.586 20.7324ZM483.891 19.0098C485.883 21.377 486.879 24.5059 486.879 28.3965C486.879 32.2871 485.889 35.4219 483.908 37.8008C481.928 40.168 479.566 41.3516 476.824 41.3516C474.059 41.3516 471.68 40.168 469.688 37.8008C467.707 35.4219 466.717 32.2871 466.717 28.3965C466.717 24.5059 467.713 21.377 469.705 19.0098C471.697 16.6309 474.059 15.4414 476.789 15.4414C479.531 15.4414 481.898 16.6309 483.891 19.0098ZM506.672 41H490.465C490.465 39.3477 490.799 37.8359 491.467 36.4648C492.146 35.0938 492.984 33.9922 493.98 33.1602C494.977 32.3164 496.055 31.4727 497.215 30.6289C498.375 29.7852 499.453 29.0352 500.449 28.3789C501.445 27.7227 502.277 26.9082 502.945 25.9355C503.625 24.9629 503.965 23.9258 503.965 22.8242C503.965 21.3594 503.484 20.1816 502.523 19.291C501.562 18.4004 500.244 17.9551 498.568 17.9551C497.725 17.9551 496.957 18.1074 496.266 18.4121C495.586 18.7051 495.059 19.0625 494.684 19.4844C494.32 19.9062 494.016 20.3281 493.77 20.75C493.535 21.1719 493.371 21.5352 493.277 21.8398L493.172 22.2793L490.816 21.207C490.84 21.043 490.893 20.832 490.975 20.5742C491.068 20.3164 491.303 19.8594 491.678 19.2031C492.064 18.5469 492.516 17.9668 493.031 17.4629C493.547 16.959 494.297 16.4961 495.281 16.0742C496.266 15.6523 497.361 15.4414 498.568 15.4414C500.971 15.4414 502.922 16.1445 504.422 17.5508C505.922 18.957 506.672 20.7148 506.672 22.8242C506.672 24.043 506.391 25.1738 505.828 26.2168C505.277 27.2598 504.58 28.1387 503.736 28.8535C502.904 29.5566 501.961 30.2949 500.906 31.0684C499.852 31.8301 498.85 32.5391 497.9 33.1953C496.951 33.8398 496.066 34.625 495.246 35.5508C494.438 36.4766 493.863 37.4551 493.523 38.4863H506.672V41ZM512.051 37.7656L514.582 39.207L510.434 45.6758L508.816 44.7793L512.051 37.7656ZM533.109 33.0723H536.344V35.6035H533.109V41H530.402V35.6035H517.623V32.5449L529.699 15.793H533.109V33.0723ZM530.402 33.0723V18.8516L520.154 33.0723H530.402Z" fill="white"/>
<path d="M122.568 541.572H114.2C114.2 540.793 114.318 540.087 114.552 539.454C114.786 538.815 115.091 538.285 115.466 537.863C115.847 537.441 116.263 537.055 116.714 536.703C117.171 536.352 117.625 536.032 118.076 535.745C118.528 535.452 118.941 535.165 119.316 534.884C119.696 534.603 120.004 534.274 120.238 533.899C120.473 533.519 120.59 533.105 120.59 532.66C120.59 532.021 120.391 531.518 119.992 531.148C119.6 530.779 119.049 530.595 118.34 530.595C117.994 530.595 117.669 530.659 117.364 530.788C117.066 530.911 116.831 531.061 116.661 531.236C116.497 531.406 116.351 531.579 116.222 531.755C116.099 531.931 116.014 532.083 115.967 532.212L115.905 532.396L114.288 531.676C114.312 531.594 114.344 531.488 114.385 531.359C114.432 531.23 114.555 531.002 114.754 530.674C114.959 530.346 115.196 530.056 115.466 529.804C115.736 529.552 116.125 529.32 116.635 529.109C117.145 528.898 117.713 528.793 118.34 528.793C119.576 528.793 120.59 529.165 121.381 529.909C122.172 530.653 122.568 531.57 122.568 532.66C122.568 533.234 122.45 533.768 122.216 534.26C121.982 534.752 121.683 535.165 121.32 535.499C120.962 535.827 120.549 536.167 120.08 536.519C119.617 536.864 119.166 537.181 118.727 537.468C118.287 537.755 117.854 538.101 117.426 538.505C117.004 538.903 116.679 539.325 116.45 539.771H122.568V541.572ZM126.277 539.99C125.251 538.812 124.738 537.239 124.738 535.271C124.738 533.302 125.251 531.731 126.277 530.56C127.302 529.382 128.559 528.793 130.047 528.793C131.535 528.793 132.792 529.382 133.818 530.56C134.843 531.731 135.356 533.302 135.356 535.271C135.356 537.239 134.843 538.812 133.818 539.99C132.792 541.162 131.535 541.748 130.047 541.748C128.559 541.748 127.302 541.162 126.277 539.99ZM132.394 538.707C133.05 537.869 133.378 536.724 133.378 535.271C133.378 533.817 133.05 532.675 132.394 531.843C131.743 531.011 130.961 530.595 130.047 530.595C129.133 530.595 128.348 531.011 127.692 531.843C127.041 532.675 126.716 533.817 126.716 535.271C126.716 536.724 127.041 537.869 127.692 538.707C128.348 539.539 129.133 539.955 130.047 539.955C130.961 539.955 131.743 539.539 132.394 538.707ZM145.525 541.572H137.157C137.157 540.793 137.275 540.087 137.509 539.454C137.743 538.815 138.048 538.285 138.423 537.863C138.804 537.441 139.22 537.055 139.671 536.703C140.128 536.352 140.582 536.032 141.033 535.745C141.485 535.452 141.898 535.165 142.273 534.884C142.654 534.603 142.961 534.274 143.195 533.899C143.43 533.519 143.547 533.105 143.547 532.66C143.547 532.021 143.348 531.518 142.949 531.148C142.557 530.779 142.006 530.595 141.297 530.595C140.951 530.595 140.626 530.659 140.321 530.788C140.023 530.911 139.788 531.061 139.618 531.236C139.454 531.406 139.308 531.579 139.179 531.755C139.056 531.931 138.971 532.083 138.924 532.212L138.862 532.396L137.245 531.676C137.269 531.594 137.301 531.488 137.342 531.359C137.389 531.23 137.512 531.002 137.711 530.674C137.916 530.346 138.154 530.056 138.423 529.804C138.693 529.552 139.082 529.32 139.592 529.109C140.102 528.898 140.67 528.793 141.297 528.793C142.533 528.793 143.547 529.165 144.338 529.909C145.129 530.653 145.525 531.57 145.525 532.66C145.525 533.234 145.407 533.768 145.173 534.26C144.939 534.752 144.64 535.165 144.277 535.499C143.919 535.827 143.506 536.167 143.037 536.519C142.574 536.864 142.123 537.181 141.684 537.468C141.244 537.755 140.811 538.101 140.383 538.505C139.961 538.903 139.636 539.325 139.407 539.771H145.525V541.572ZM149.234 539.99C148.208 538.812 147.695 537.239 147.695 535.271C147.695 533.302 148.208 531.731 149.234 530.56C150.259 529.382 151.516 528.793 153.004 528.793C154.492 528.793 155.749 529.382 156.775 530.56C157.8 531.731 158.313 533.302 158.313 535.271C158.313 537.239 157.8 538.812 156.775 539.99C155.749 541.162 154.492 541.748 153.004 541.748C151.516 541.748 150.259 541.162 149.234 539.99ZM155.351 538.707C156.007 537.869 156.335 536.724 156.335 535.271C156.335 533.817 156.007 532.675 155.351 531.843C154.7 531.011 153.918 530.595 153.004 530.595C152.09 530.595 151.305 531.011 150.649 531.843C149.998 532.675 149.673 533.817 149.673 535.271C149.673 536.724 149.998 537.869 150.649 538.707C151.305 539.539 152.09 539.955 153.004 539.955C153.918 539.955 154.7 539.539 155.351 538.707Z" fill="#00B7F6"/>
<g opacity="0.2" filter="url(#filter1_f_125_16)">
<path d="M264.295 471.2L144.319 530.265L152.625 238.631L264.295 471.2Z" fill="#152C42"/>
<path d="M40.9545 477.66L144.319 530.265L152.625 238.631L40.9545 477.66Z" fill="#152C42"/>
</g>
<path d="M257.34 456.297L137.364 515.363L145.67 223.728L257.34 456.297Z" fill="url(#paint2_linear_125_16)"/>
<path d="M34 462.758L137.364 515.363L145.67 223.728L34 462.758Z" fill="url(#paint3_linear_125_16)"/>
<path d="M114.338 172.824C116.763 172.824 118.779 173.621 120.385 175.215C122.002 176.797 122.81 178.765 122.81 181.121C122.81 183.465 121.99 185.427 120.349 187.01C118.721 188.592 116.658 189.383 114.162 189.383C111.666 189.383 109.603 188.592 107.974 187.01C106.346 185.427 105.531 183.459 105.531 181.103C105.531 180.189 105.678 179.287 105.971 178.396C106.275 177.494 106.568 176.814 106.849 176.357L107.324 175.707L114.883 163.824H117.59L111.648 173.193C112.34 172.947 113.236 172.824 114.338 172.824ZM118.486 185.287C119.564 184.232 120.103 182.844 120.103 181.121C120.103 179.386 119.564 177.992 118.486 176.937C117.408 175.883 115.967 175.355 114.162 175.355C112.369 175.355 110.928 175.883 109.838 176.937C108.76 177.992 108.221 179.386 108.221 181.121C108.221 182.844 108.76 184.232 109.838 185.287C110.928 186.342 112.369 186.869 114.162 186.869C115.967 186.869 117.408 186.342 118.486 185.287ZM135.221 180.031C132.795 180.031 130.779 179.24 129.174 177.658C127.568 176.076 126.765 174.107 126.765 171.752C126.765 169.396 127.58 167.427 129.209 165.845C130.838 164.263 132.9 163.472 135.396 163.472C137.892 163.472 139.955 164.263 141.584 165.845C143.224 167.427 144.045 169.396 144.045 171.752C144.045 172.666 143.892 173.574 143.588 174.476C143.283 175.367 142.99 176.041 142.709 176.498L142.234 177.148L134.676 189.031H131.986L137.928 179.679C137.224 179.914 136.322 180.031 135.221 180.031ZM131.072 167.586C129.994 168.64 129.455 170.029 129.455 171.752C129.455 173.474 129.994 174.869 131.072 175.935C132.162 176.99 133.603 177.517 135.396 177.517C137.201 177.517 138.642 176.99 139.721 175.935C140.799 174.869 141.338 173.474 141.338 171.752C141.338 170.029 140.799 168.64 139.721 167.586C138.642 166.519 137.201 165.986 135.396 165.986C133.603 165.986 132.162 166.519 131.072 167.586ZM152.851 163.824H154.838V189.031H152.131V168.869H147.455V167.252C148.275 167.228 149.013 167.094 149.67 166.847C150.326 166.59 150.847 166.302 151.234 165.986C151.621 165.658 151.937 165.33 152.183 165.002C152.441 164.674 152.617 164.404 152.711 164.193L152.851 163.824ZM161.834 185.797L164.365 187.238L160.217 193.707L158.599 192.81L161.834 185.797ZM177.127 172.824C179.553 172.824 181.568 173.621 183.174 175.215C184.791 176.797 185.599 178.765 185.599 181.121C185.599 183.465 184.779 185.427 183.138 187.01C181.51 188.592 179.447 189.383 176.951 189.383C174.455 189.383 172.392 188.592 170.763 187.01C169.135 185.427 168.32 183.459 168.32 181.103C168.32 180.189 168.467 179.287 168.76 178.396C169.064 177.494 169.357 176.814 169.638 176.357L170.113 175.707L177.672 163.824H180.379L174.437 173.193C175.129 172.947 176.025 172.824 177.127 172.824ZM181.275 185.287C182.353 184.232 182.892 182.844 182.892 181.121C182.892 179.386 182.353 177.992 181.275 176.937C180.197 175.883 178.756 175.355 176.951 175.355C175.158 175.355 173.717 175.883 172.627 176.937C171.549 177.992 171.01 179.386 171.01 181.121C171.01 182.844 171.549 184.232 172.627 185.287C173.717 186.342 175.158 186.869 176.951 186.869C178.756 186.869 180.197 186.342 181.275 185.287Z" fill="white"/>
<rect x="146.265" y="210.012" width="346.989" height="1.98699" transform="rotate(-21.805 146.265 210.012)" fill="#09C662"/>
<circle cx="145.768" cy="211.118" r="3.47724" fill="#09C662"/>
<circle cx="470.641" cy="80.9699" r="3.47724" fill="#09C662"/>
<defs>
<filter id="filter0_f_125_16" x="274.95" y="50.3691" width="378.016" height="531.631" filterUnits="userSpaceOnUse" color-interpolation-filters="sRGB">
<feFlood flood-opacity="0" result="BackgroundImageFix"/>
<feBlend mode="normal" in="SourceGraphic" in2="BackgroundImageFix" result="shape"/>
<feGaussianBlur stdDeviation="25" result="effect1_foregroundBlur_125_16"/>
</filter>
<filter id="filter1_f_125_16" x="0.954468" y="198.631" width="303.34" height="371.634" filterUnits="userSpaceOnUse" color-interpolation-filters="sRGB">
<feFlood flood-opacity="0" result="BackgroundImageFix"/>
<feBlend mode="normal" in="SourceGraphic" in2="BackgroundImageFix" result="shape"/>
<feGaussianBlur stdDeviation="20" result="effect1_foregroundBlur_125_16"/>
</filter>
<linearGradient id="paint0_linear_125_16" x1="465.914" y1="96.3691" x2="405.465" y2="519.054" gradientUnits="userSpaceOnUse">
<stop stop-color="#7ED6FC"/>
<stop offset="1" stop-color="#81E1FF"/>
</linearGradient>
<linearGradient id="paint1_linear_125_16" x1="477.912" y1="111.135" x2="566.51" y2="506.134" gradientUnits="userSpaceOnUse">
<stop stop-color="#77DBFB"/>
<stop offset="1" stop-color="#60C9F6"/>
</linearGradient>
<linearGradient id="paint2_linear_125_16" x1="137.364" y1="214.499" x2="201.967" y2="493.213" gradientUnits="userSpaceOnUse">
<stop stop-color="#64A3ED"/>
<stop offset="1" stop-color="#6BB2F3"/>
</linearGradient>
<linearGradient id="paint3_linear_125_16" x1="128.135" y1="239.417" x2="121.675" y2="509.825" gradientUnits="userSpaceOnUse">
<stop offset="0.0989583" stop-color="#84B8F6"/>
<stop offset="1" stop-color="#418FD8"/>
</linearGradient>
</defs>
</svg>
