<svg width="307" height="284" viewBox="0 0 307 284" fill="none" xmlns="http://www.w3.org/2000/svg">
<path opacity="0.7" d="M83.1621 262.338L87.4805 257.598H88.6172L85.4414 261.078L88.9219 266H87.8379L84.8379 261.74L83.1621 263.539V266H82.2598V257.598H83.1621V262.338ZM93.9375 264.699C94.3516 264.27 94.5586 263.744 94.5586 263.123C94.5586 262.498 94.3516 261.973 93.9375 261.547C93.5273 261.117 93.0332 260.902 92.4551 260.902C91.8809 260.902 91.3867 261.117 90.9727 261.547C90.5625 261.973 90.3574 262.496 90.3574 263.117C90.3574 263.734 90.5625 264.26 90.9727 264.693C91.3867 265.123 91.8809 265.338 92.4551 265.338C93.0332 265.338 93.5273 265.125 93.9375 264.699ZM90.375 265.25C89.8047 264.672 89.5195 263.963 89.5195 263.123C89.5195 262.279 89.8047 261.568 90.375 260.99C90.9492 260.408 91.6445 260.117 92.4609 260.117C93.2773 260.117 93.9707 260.408 94.541 260.99C95.1113 261.568 95.3965 262.279 95.3965 263.123C95.3965 263.963 95.1113 264.672 94.541 265.25C93.9707 265.828 93.2773 266.117 92.4609 266.117C91.6445 266.117 90.9492 265.828 90.375 265.25ZM101.039 266V263.48H97.7402V266H96.9023V260.24H97.7402V262.701H101.039V260.24H101.883V266H101.039ZM104.232 265.244C103.666 264.658 103.383 263.949 103.383 263.117C103.383 262.285 103.666 261.578 104.232 260.996C104.803 260.41 105.479 260.117 106.26 260.117C106.709 260.117 107.127 260.215 107.514 260.41C107.904 260.602 108.184 260.793 108.352 260.984L108.604 261.26L108 261.857C107.984 261.834 107.961 261.801 107.93 261.758C107.898 261.715 107.828 261.637 107.719 261.523C107.613 261.41 107.498 261.312 107.373 261.23C107.248 261.145 107.086 261.068 106.887 261.002C106.688 260.936 106.479 260.902 106.26 260.902C105.709 260.902 105.23 261.117 104.824 261.547C104.422 261.973 104.221 262.498 104.221 263.123C104.221 263.744 104.422 264.27 104.824 264.699C105.23 265.125 105.709 265.338 106.26 265.338C106.596 265.338 106.914 265.258 107.215 265.098C107.516 264.938 107.734 264.777 107.871 264.617L108.064 264.383L108.662 264.922C108.639 264.953 108.602 264.998 108.551 265.057C108.504 265.111 108.402 265.207 108.246 265.344C108.09 265.477 107.926 265.596 107.754 265.701C107.582 265.803 107.359 265.898 107.086 265.988C106.816 266.074 106.541 266.117 106.26 266.117C105.475 266.117 104.799 265.826 104.232 265.244ZM113.977 264.699C114.391 264.27 114.598 263.744 114.598 263.123C114.598 262.498 114.391 261.973 113.977 261.547C113.566 261.117 113.072 260.902 112.494 260.902C111.92 260.902 111.426 261.117 111.012 261.547C110.602 261.973 110.396 262.496 110.396 263.117C110.396 263.734 110.602 264.26 111.012 264.693C111.426 265.123 111.92 265.338 112.494 265.338C113.072 265.338 113.566 265.125 113.977 264.699ZM110.414 265.25C109.844 264.672 109.559 263.963 109.559 263.123C109.559 262.279 109.844 261.568 110.414 260.99C110.988 260.408 111.684 260.117 112.5 260.117C113.316 260.117 114.01 260.408 114.58 260.99C115.15 261.568 115.436 262.279 115.436 263.123C115.436 263.963 115.15 264.672 114.58 265.25C114.01 265.828 113.316 266.117 112.5 266.117C111.684 266.117 110.988 265.828 110.414 265.25ZM117.539 260.24H121.74V266H120.896V261.02H118.377V261.922C118.377 262.77 118.334 263.477 118.248 264.043C118.166 264.605 118.041 265.035 117.873 265.332C117.705 265.625 117.52 265.83 117.316 265.947C117.113 266.061 116.867 266.117 116.578 266.117C116.48 266.117 116.381 266.107 116.279 266.088C116.182 266.068 116.109 266.047 116.062 266.023L115.98 266V265.162C116.141 265.24 116.301 265.279 116.461 265.279C116.707 265.279 116.9 265.209 117.041 265.068C117.182 264.928 117.299 264.604 117.393 264.096C117.49 263.588 117.539 262.863 117.539 261.922V260.24ZM127.975 260.24H128.695V266H127.852V261.682L124.371 266H123.656V260.24H124.494V264.559L127.975 260.24ZM135.955 265.221V267.441H135.117V266H130.494V267.441H129.656V265.221H130.072C130.096 265.197 130.131 265.158 130.178 265.104C130.229 265.045 130.312 264.916 130.43 264.717C130.547 264.518 130.65 264.303 130.74 264.072C130.834 263.838 130.916 263.527 130.986 263.141C131.061 262.75 131.098 262.344 131.098 261.922V260.24H135.053V265.221H135.955ZM131.936 261.02V261.922C131.936 262.578 131.855 263.18 131.695 263.727C131.535 264.273 131.375 264.66 131.215 264.887L130.975 265.221H134.215V261.02H131.936ZM141.592 260.24H142.312V266H141.469V261.682L137.988 266H137.273V260.24H138.111V264.559L141.592 260.24ZM145.699 261.57C145.281 262.012 145.072 262.529 145.072 263.123C145.072 263.713 145.281 264.23 145.699 264.676C146.121 265.117 146.592 265.338 147.111 265.338C147.607 265.338 148.051 265.123 148.441 264.693C148.836 264.26 149.033 263.736 149.033 263.123C149.033 262.506 148.836 261.982 148.441 261.553C148.051 261.119 147.607 260.902 147.111 260.902C146.592 260.902 146.121 261.125 145.699 261.57ZM145.072 265.098V268.52H144.234V260.24H145.072V261.143C145.088 261.119 145.115 261.084 145.154 261.037C145.197 260.986 145.281 260.902 145.406 260.785C145.535 260.668 145.674 260.564 145.822 260.475C145.971 260.381 146.16 260.299 146.391 260.229C146.625 260.154 146.865 260.117 147.111 260.117C147.846 260.117 148.488 260.412 149.039 261.002C149.594 261.592 149.871 262.299 149.871 263.123C149.871 263.943 149.596 264.648 149.045 265.238C148.494 265.824 147.85 266.117 147.111 266.117C146.865 266.117 146.627 266.082 146.396 266.012C146.17 265.941 145.979 265.857 145.822 265.76C145.666 265.662 145.529 265.564 145.412 265.467C145.299 265.365 145.213 265.279 145.154 265.209L145.072 265.098ZM155.367 264.699C155.781 264.27 155.988 263.744 155.988 263.123C155.988 262.498 155.781 261.973 155.367 261.547C154.957 261.117 154.463 260.902 153.885 260.902C153.311 260.902 152.816 261.117 152.402 261.547C151.992 261.973 151.787 262.496 151.787 263.117C151.787 263.734 151.992 264.26 152.402 264.693C152.816 265.123 153.311 265.338 153.885 265.338C154.463 265.338 154.957 265.125 155.367 264.699ZM151.805 265.25C151.234 264.672 150.949 263.963 150.949 263.123C150.949 262.279 151.234 261.568 151.805 260.99C152.379 260.408 153.074 260.117 153.891 260.117C154.707 260.117 155.4 260.408 155.971 260.99C156.541 261.568 156.826 262.279 156.826 263.123C156.826 263.963 156.541 264.672 155.971 265.25C155.4 265.828 154.707 266.117 153.891 266.117C153.074 266.117 152.379 265.828 151.805 265.25ZM158.332 260.24H160.969C161.496 260.24 161.918 260.383 162.234 260.668C162.551 260.949 162.709 261.307 162.709 261.74C162.709 261.986 162.648 262.211 162.527 262.414C162.41 262.613 162.291 262.752 162.17 262.83L161.988 262.941C162.012 262.949 162.045 262.961 162.088 262.977C162.135 262.992 162.213 263.035 162.322 263.105C162.436 263.172 162.533 263.252 162.615 263.346C162.701 263.436 162.777 263.566 162.844 263.738C162.914 263.91 162.949 264.104 162.949 264.318C162.949 264.838 162.787 265.248 162.463 265.549C162.139 265.85 161.682 266 161.092 266H158.332V260.24ZM161.092 263.299H159.17V265.221H161.092C161.42 265.221 161.672 265.137 161.848 264.969C162.023 264.801 162.111 264.564 162.111 264.26C162.111 263.955 162.023 263.719 161.848 263.551C161.672 263.383 161.42 263.299 161.092 263.299ZM160.969 262.578C161.57 262.578 161.871 262.318 161.871 261.799C161.871 261.279 161.57 261.02 160.969 261.02H159.17V262.578H160.969ZM165.826 262.701L168.047 262.338C168.047 261.912 167.912 261.566 167.643 261.301C167.373 261.035 167.027 260.902 166.605 260.902C166.301 260.902 166.014 260.973 165.744 261.113C165.479 261.25 165.285 261.391 165.164 261.535L164.982 261.74L164.443 261.201C164.467 261.17 164.498 261.131 164.537 261.084C164.58 261.033 164.67 260.947 164.807 260.826C164.947 260.701 165.094 260.59 165.246 260.492C165.398 260.395 165.598 260.309 165.844 260.234C166.094 260.156 166.348 260.117 166.605 260.117C167.262 260.117 167.805 260.33 168.234 260.756C168.668 261.182 168.885 261.709 168.885 262.338V266H168.047V265.221C168.031 265.244 168.006 265.277 167.971 265.32C167.939 265.359 167.865 265.432 167.748 265.537C167.635 265.639 167.512 265.73 167.379 265.812C167.246 265.891 167.07 265.961 166.852 266.023C166.637 266.086 166.414 266.117 166.184 266.117C165.609 266.117 165.125 265.947 164.73 265.607C164.34 265.268 164.145 264.879 164.145 264.441C164.145 263.961 164.289 263.574 164.578 263.281C164.867 262.984 165.283 262.791 165.826 262.701ZM166.184 265.338C166.727 265.338 167.172 265.16 167.52 264.805C167.871 264.449 168.047 263.988 168.047 263.422V263.059L166.066 263.422C165.348 263.559 164.986 263.898 164.982 264.441C164.982 264.699 165.088 264.914 165.299 265.086C165.514 265.254 165.809 265.338 166.184 265.338ZM174.938 266V263.48H171.639V266H170.801V260.24H171.639V262.701H174.938V260.24H175.781V266H174.938ZM181.84 266V263.48H178.541V266H177.703V260.24H178.541V262.701H181.84V260.24H182.684V266H181.84ZM185.865 262.701L188.086 262.338C188.086 261.912 187.951 261.566 187.682 261.301C187.412 261.035 187.066 260.902 186.645 260.902C186.34 260.902 186.053 260.973 185.783 261.113C185.518 261.25 185.324 261.391 185.203 261.535L185.021 261.74L184.482 261.201C184.506 261.17 184.537 261.131 184.576 261.084C184.619 261.033 184.709 260.947 184.846 260.826C184.986 260.701 185.133 260.59 185.285 260.492C185.438 260.395 185.637 260.309 185.883 260.234C186.133 260.156 186.387 260.117 186.645 260.117C187.301 260.117 187.844 260.33 188.273 260.756C188.707 261.182 188.924 261.709 188.924 262.338V266H188.086V265.221C188.07 265.244 188.045 265.277 188.01 265.32C187.979 265.359 187.904 265.432 187.787 265.537C187.674 265.639 187.551 265.73 187.418 265.812C187.285 265.891 187.109 265.961 186.891 266.023C186.676 266.086 186.453 266.117 186.223 266.117C185.648 266.117 185.164 265.947 184.77 265.607C184.379 265.268 184.184 264.879 184.184 264.441C184.184 263.961 184.328 263.574 184.617 263.281C184.906 262.984 185.322 262.791 185.865 262.701ZM186.223 265.338C186.766 265.338 187.211 265.16 187.559 264.805C187.91 264.449 188.086 263.988 188.086 263.422V263.059L186.105 263.422C185.387 263.559 185.025 263.898 185.021 264.441C185.021 264.699 185.127 264.914 185.338 265.086C185.553 265.254 185.848 265.338 186.223 265.338ZM190.477 262.162C190.477 261.611 190.67 261.154 191.057 260.791C191.447 260.424 191.955 260.24 192.58 260.24H195.035V266H194.197V264.078H192.516L191.32 266H190.359L191.678 263.902C191.646 263.895 191.602 263.881 191.543 263.861C191.488 263.838 191.393 263.785 191.256 263.703C191.119 263.617 190.998 263.516 190.893 263.398C190.791 263.277 190.695 263.109 190.605 262.895C190.52 262.68 190.477 262.436 190.477 262.162ZM194.197 261.02H192.58C192.197 261.02 191.891 261.127 191.66 261.342C191.434 261.553 191.32 261.826 191.32 262.162C191.32 262.498 191.434 262.771 191.66 262.982C191.887 263.193 192.193 263.299 192.58 263.299H194.197V261.02ZM81.9023 275.24H84.5391C85.0664 275.24 85.4883 275.383 85.8047 275.668C86.1211 275.949 86.2793 276.307 86.2793 276.74C86.2793 276.986 86.2188 277.211 86.0977 277.414C85.9805 277.613 85.8613 277.752 85.7402 277.83L85.5586 277.941C85.582 277.949 85.6152 277.961 85.6582 277.977C85.7051 277.992 85.7832 278.035 85.8926 278.105C86.0059 278.172 86.1035 278.252 86.1855 278.346C86.2715 278.436 86.3477 278.566 86.4141 278.738C86.4844 278.91 86.5195 279.104 86.5195 279.318C86.5195 279.838 86.3574 280.248 86.0332 280.549C85.709 280.85 85.252 281 84.6621 281H81.9023V275.24ZM84.6621 278.299H82.7402V280.221H84.6621C84.9902 280.221 85.2422 280.137 85.418 279.969C85.5938 279.801 85.6816 279.564 85.6816 279.26C85.6816 278.955 85.5938 278.719 85.418 278.551C85.2422 278.383 84.9902 278.299 84.6621 278.299ZM84.5391 277.578C85.1406 277.578 85.4414 277.318 85.4414 276.799C85.4414 276.279 85.1406 276.02 84.5391 276.02H82.7402V277.578H84.5391ZM94.4355 275.24V281H93.5918V275.24H94.4355ZM88.9746 280.221H90.4277C90.8027 280.221 91.1035 280.115 91.3301 279.904C91.5605 279.689 91.6758 279.414 91.6758 279.078C91.6758 278.742 91.5605 278.469 91.3301 278.258C91.1035 278.047 90.7988 277.941 90.416 277.941H88.9746V280.221ZM91.9512 277.689C92.3262 278.041 92.5137 278.506 92.5137 279.084C92.5137 279.658 92.3281 280.121 91.957 280.473C91.5859 280.824 91.0762 281 90.4277 281H88.1367V275.24H88.9746V277.162H90.416C91.0645 277.162 91.5762 277.338 91.9512 277.689ZM97.8164 276.57C97.3984 277.012 97.1895 277.529 97.1895 278.123C97.1895 278.713 97.3984 279.23 97.8164 279.676C98.2383 280.117 98.709 280.338 99.2285 280.338C99.7246 280.338 100.168 280.123 100.559 279.693C100.953 279.26 101.15 278.736 101.15 278.123C101.15 277.506 100.953 276.982 100.559 276.553C100.168 276.119 99.7246 275.902 99.2285 275.902C98.709 275.902 98.2383 276.125 97.8164 276.57ZM97.1895 280.098V283.52H96.3516V275.24H97.1895V276.143C97.2051 276.119 97.2324 276.084 97.2715 276.037C97.3145 275.986 97.3984 275.902 97.5234 275.785C97.6523 275.668 97.791 275.564 97.9395 275.475C98.0879 275.381 98.2773 275.299 98.5078 275.229C98.7422 275.154 98.9824 275.117 99.2285 275.117C99.9629 275.117 100.605 275.412 101.156 276.002C101.711 276.592 101.988 277.299 101.988 278.123C101.988 278.943 101.713 279.648 101.162 280.238C100.611 280.824 99.9668 281.117 99.2285 281.117C98.9824 281.117 98.7441 281.082 98.5137 281.012C98.2871 280.941 98.0957 280.857 97.9395 280.76C97.7832 280.662 97.6465 280.564 97.5293 280.467C97.416 280.365 97.3301 280.279 97.2715 280.209L97.1895 280.098ZM104.748 281.838L105.047 281L102.703 275.24H103.605L105.469 279.922L107.326 275.24H108.229L105.586 281.838C105.348 282.447 105.092 282.879 104.818 283.133C104.545 283.391 104.201 283.52 103.787 283.52C103.658 283.52 103.533 283.51 103.412 283.49C103.295 283.471 103.207 283.449 103.148 283.426L103.066 283.402V282.617C103.266 282.695 103.465 282.736 103.664 282.74C104.172 282.74 104.533 282.439 104.748 281.838ZM113.086 281V278.662C112.645 278.982 112.105 279.143 111.469 279.143C110.812 279.143 110.277 278.938 109.863 278.527C109.453 278.113 109.248 277.578 109.248 276.922V275.24H110.086V276.922C110.086 277.336 110.221 277.68 110.49 277.953C110.76 278.223 111.105 278.357 111.527 278.357C111.816 278.357 112.09 278.314 112.348 278.229C112.609 278.139 112.797 278.047 112.91 277.953L113.086 277.818V275.24H113.93V281H113.086ZM116.689 279.383V281H115.852V275.24H116.689V278.299L119.566 275.24H120.592L118.371 277.578L120.832 281H119.871L117.832 278.182L116.689 279.383ZM123.17 277.701L125.391 277.338C125.391 276.912 125.256 276.566 124.986 276.301C124.717 276.035 124.371 275.902 123.949 275.902C123.645 275.902 123.357 275.973 123.088 276.113C122.822 276.25 122.629 276.391 122.508 276.535L122.326 276.74L121.787 276.201C121.811 276.17 121.842 276.131 121.881 276.084C121.924 276.033 122.014 275.947 122.15 275.826C122.291 275.701 122.438 275.59 122.59 275.492C122.742 275.395 122.941 275.309 123.188 275.234C123.438 275.156 123.691 275.117 123.949 275.117C124.605 275.117 125.148 275.33 125.578 275.756C126.012 276.182 126.229 276.709 126.229 277.338V281H125.391V280.221C125.375 280.244 125.35 280.277 125.314 280.32C125.283 280.359 125.209 280.432 125.092 280.537C124.979 280.639 124.855 280.73 124.723 280.812C124.59 280.891 124.414 280.961 124.195 281.023C123.98 281.086 123.758 281.117 123.527 281.117C122.953 281.117 122.469 280.947 122.074 280.607C121.684 280.268 121.488 279.879 121.488 279.441C121.488 278.961 121.633 278.574 121.922 278.281C122.211 277.984 122.627 277.791 123.17 277.701ZM123.527 280.338C124.07 280.338 124.516 280.16 124.863 279.805C125.215 279.449 125.391 278.988 125.391 278.422V278.059L123.41 278.422C122.691 278.559 122.33 278.898 122.326 279.441C122.326 279.699 122.432 279.914 122.643 280.086C122.857 280.254 123.152 280.338 123.527 280.338ZM128.32 279.922L129.164 280.402L127.781 282.559L127.242 282.26L128.32 279.922ZM138.047 276.74L135.943 279.383L133.846 276.74V281H133.008V275.24H133.664L135.943 278.117L138.223 275.24H138.885V281H138.047V276.74ZM141.41 275.24H145.611V281H144.768V276.02H142.248V276.922C142.248 277.77 142.205 278.477 142.119 279.043C142.037 279.605 141.912 280.035 141.744 280.332C141.576 280.625 141.391 280.83 141.188 280.947C140.984 281.061 140.738 281.117 140.449 281.117C140.352 281.117 140.252 281.107 140.15 281.088C140.053 281.068 139.98 281.047 139.934 281.023L139.852 281V280.162C140.012 280.24 140.172 280.279 140.332 280.279C140.578 280.279 140.771 280.209 140.912 280.068C141.053 279.928 141.17 279.604 141.264 279.096C141.361 278.588 141.41 277.863 141.41 276.922V275.24ZM148.992 276.57C148.574 277.012 148.365 277.529 148.365 278.123C148.365 278.713 148.574 279.23 148.992 279.676C149.414 280.117 149.885 280.338 150.404 280.338C150.9 280.338 151.344 280.123 151.734 279.693C152.129 279.26 152.326 278.736 152.326 278.123C152.326 277.506 152.129 276.982 151.734 276.553C151.344 276.119 150.9 275.902 150.404 275.902C149.885 275.902 149.414 276.125 148.992 276.57ZM148.365 280.098V283.52H147.527V275.24H148.365V276.143C148.381 276.119 148.408 276.084 148.447 276.037C148.49 275.986 148.574 275.902 148.699 275.785C148.828 275.668 148.967 275.564 149.115 275.475C149.264 275.381 149.453 275.299 149.684 275.229C149.918 275.154 150.158 275.117 150.404 275.117C151.139 275.117 151.781 275.412 152.332 276.002C152.887 276.592 153.164 277.299 153.164 278.123C153.164 278.943 152.889 279.648 152.338 280.238C151.787 280.824 151.143 281.117 150.404 281.117C150.158 281.117 149.92 281.082 149.689 281.012C149.463 280.941 149.271 280.857 149.115 280.76C148.959 280.662 148.822 280.564 148.705 280.467C148.592 280.365 148.506 280.279 148.447 280.209L148.365 280.098ZM160.002 280.221V282.441H159.164V281H154.541V282.441H153.703V280.221H154.119C154.143 280.197 154.178 280.158 154.225 280.104C154.275 280.045 154.359 279.916 154.477 279.717C154.594 279.518 154.697 279.303 154.787 279.072C154.881 278.838 154.963 278.527 155.033 278.141C155.107 277.75 155.145 277.344 155.145 276.922V275.24H159.1V280.221H160.002ZM155.982 276.02V276.922C155.982 277.578 155.902 278.18 155.742 278.727C155.582 279.273 155.422 279.66 155.262 279.887L155.021 280.221H158.262V276.02H155.982ZM163.301 277.643V276.799H164.262V272.598H167.385C168.162 272.598 168.795 272.836 169.283 273.312C169.775 273.789 170.021 274.393 170.021 275.123C170.021 275.85 169.775 276.451 169.283 276.928C168.791 277.404 168.158 277.643 167.385 277.643H165.164V278.662H168.105V279.5H165.164V281H164.262V279.5H163.301V278.662H164.262V277.643H163.301ZM167.385 273.441H165.164V276.799H167.385C167.889 276.799 168.305 276.639 168.633 276.318C168.961 275.998 169.125 275.6 169.125 275.123C169.125 274.643 168.961 274.242 168.633 273.922C168.305 273.602 167.889 273.441 167.385 273.441Z" fill="white"/>
<path opacity="0.2" fill-rule="evenodd" clip-rule="evenodd" d="M67.7696 243.377C67.8088 243.387 67.9211 243.565 68.0192 243.774C68.3962 244.575 69.6854 245.482 71.1685 245.992C72.7721 246.542 75.5041 247.001 78.5551 247.233C83.2399 247.588 87.3403 247.647 107.61 247.653C125.811 247.658 126.774 247.672 129.951 247.981C133.003 248.279 135.516 249.004 137.055 250.031C137.521 250.342 137.939 250.605 137.985 250.615C138.032 250.625 138.336 250.438 138.662 250.199C140.137 249.116 142.594 248.362 145.751 248.023C149.059 247.668 149.709 247.658 169.109 247.653C178.794 247.651 187.059 247.637 187.476 247.623C187.893 247.608 189.085 247.582 190.124 247.566C199.169 247.42 204.561 246.615 206.848 245.071C207.226 244.816 207.719 244.388 207.945 244.12C208.482 243.481 208.872 242.348 208.593 242.234C208.471 242.185 208.366 242.172 208.359 242.205C208.323 242.372 207.524 243.084 206.991 243.425C206.096 243.996 204.918 244.426 203.235 244.795C200.96 245.294 198.361 245.556 193.486 245.778C192.974 245.801 183.439 245.84 172.298 245.864C161.156 245.888 151.615 245.926 151.095 245.95C147.147 246.127 144.218 246.463 142.289 246.96C140.902 247.318 139.402 247.977 138.695 248.539C138.107 249.006 137.931 249.086 137.776 248.954C135.986 247.428 132.835 246.53 127.98 246.161C124.573 245.902 122.456 245.875 105.044 245.868C95.982 245.864 87.1094 245.836 85.3267 245.807C75.4909 245.642 70.174 244.693 68.4067 242.787C68.1107 242.468 67.8106 242.194 67.7401 242.178C67.6097 242.149 67.6389 243.344 67.7696 243.377Z" fill="#DCEEFF"/>
<g opacity="0.2" filter="url(#filter0_f_821_5790)">
<path d="M210.366 232.328L143.667 206.41L203.887 57.7656L210.366 232.328Z" fill="#1B4452"/>
<path d="M256.103 203.361L210.367 232.328L203.887 57.7656L256.103 203.361Z" fill="#1B4452"/>
</g>
<path d="M208.888 227.093L143.571 201.712L202.543 56.1484L208.888 227.093Z" fill="url(#paint0_linear_821_5790)"/>
<path d="M253.677 198.726L208.888 227.093L202.543 56.1484L253.677 198.726Z" fill="url(#paint1_linear_821_5790)"/>
<g opacity="0.2" filter="url(#filter1_f_821_5790)">
<path d="M119.137 207.736L70.6155 231.624L73.9746 113.68L119.137 207.736Z" fill="#152C42"/>
<path d="M28.8126 210.349L70.6155 231.624L73.9747 113.68L28.8126 210.349Z" fill="#152C42"/>
</g>
<path d="M116.324 201.711L67.8029 225.598L71.1621 107.654L116.324 201.711Z" fill="url(#paint2_linear_821_5790)"/>
<path d="M26 204.324L67.8029 225.598L71.1621 107.654L26 204.324Z" fill="url(#paint3_linear_821_5790)"/>
<path d="M69.606 86H58.0296C58.0296 84.8198 58.2681 83.74 58.7453 82.7606C59.2307 81.7813 59.8292 80.9944 60.5407 80.4001C61.2522 79.7974 62.0223 79.1948 62.851 78.5921C63.6797 77.9894 64.4498 77.4537 65.1613 76.9849C65.8728 76.5162 66.4671 75.9344 66.9442 75.2397C67.4297 74.5449 67.6724 73.8041 67.6724 73.0173C67.6724 71.971 67.3292 71.1297 66.6429 70.4936C65.9565 69.8574 65.0148 69.5393 63.8178 69.5393C63.2151 69.5393 62.6669 69.6482 62.173 69.8658C61.6875 70.0751 61.3108 70.3304 61.043 70.6317C60.7835 70.933 60.5658 71.2344 60.3901 71.5357C60.2227 71.8371 60.1055 72.0965 60.0385 72.3142L59.9632 72.6281L58.2807 71.8622C58.2974 71.745 58.3351 71.5943 58.3937 71.4102C58.4607 71.226 58.6281 70.8996 58.8959 70.4308C59.1722 69.9621 59.4944 69.5477 59.8627 69.1878C60.231 68.8278 60.7667 68.4972 61.4699 68.1959C62.173 67.8945 62.9556 67.7439 63.8178 67.7439C65.5338 67.7439 66.9275 68.2461 67.9989 69.2506C69.0703 70.255 69.606 71.5106 69.606 73.0173C69.606 73.8878 69.4051 74.6956 69.0033 75.4406C68.6099 76.1855 68.1119 76.8133 67.5092 77.3239C66.9149 77.8262 66.2411 78.3535 65.4877 78.906C64.7344 79.4501 64.0187 79.9565 63.3407 80.4252C62.6627 80.8856 62.0307 81.4464 61.4448 82.1077C60.8672 82.769 60.457 83.4679 60.2143 84.2045H69.606V86ZM80.6551 76.4827C80.7388 76.4994 80.856 76.5371 81.0067 76.5957C81.1657 76.6459 81.4378 76.784 81.8228 77.01C82.2079 77.2277 82.5469 77.4872 82.8398 77.7885C83.1328 78.0898 83.3965 78.5251 83.6309 79.0943C83.8736 79.6551 83.995 80.2871 83.995 80.9902C83.995 82.4132 83.4383 83.6479 82.3251 84.6942C81.2118 85.7321 79.7553 86.2511 77.9556 86.2511C77.1855 86.2511 76.4531 86.159 75.7584 85.9749C75.0636 85.7824 74.4902 85.5605 74.0382 85.3094C73.5946 85.0499 73.2012 84.7863 72.858 84.5184C72.5148 84.2506 72.2679 84.0246 72.1172 83.8404L71.9037 83.5516L73.197 82.2709C73.2305 82.3211 73.2891 82.4007 73.3728 82.5095C73.4565 82.6099 73.6448 82.7857 73.9378 83.0368C74.2307 83.2796 74.5488 83.5014 74.892 83.7023C75.2352 83.8948 75.6789 84.0706 76.2229 84.2296C76.7754 84.3803 77.353 84.4556 77.9556 84.4556C79.2614 84.4556 80.2952 84.125 81.0569 83.4637C81.8186 82.8025 82.1995 81.978 82.1995 80.9902C82.1995 80.0276 81.8061 79.2073 81.0193 78.5293C80.2408 77.8513 79.2196 77.5123 77.9556 77.5123H76.1476V75.7168H77.9556C79.0354 75.7168 79.8809 75.428 80.4919 74.8504C81.1113 74.2645 81.421 73.4819 81.421 72.5025C81.421 71.6487 81.1071 70.9414 80.4794 70.3806C79.8599 69.8198 79.0187 69.5393 77.9556 69.5393C77.4618 69.5393 76.9763 69.6105 76.4992 69.7528C76.0304 69.8867 75.6412 70.0583 75.3315 70.2676C75.0218 70.4685 74.7497 70.6735 74.5153 70.8828C74.2893 71.0837 74.1219 71.2553 74.0131 71.3976L73.8373 71.5985L72.5566 70.1797C72.6069 70.1127 72.678 70.0248 72.7701 69.916C72.8622 69.8072 73.0756 69.6147 73.4104 69.3384C73.7453 69.0622 74.1052 68.8195 74.4902 68.6102C74.8753 68.3926 75.3817 68.1959 76.0095 68.0201C76.6373 67.8359 77.286 67.7439 77.9556 67.7439C79.5293 67.7439 80.8225 68.2084 81.8354 69.1376C82.8482 70.0583 83.3546 71.18 83.3546 72.5025C83.3546 73.0884 83.2584 73.62 83.0658 74.0971C82.8817 74.5742 82.6557 74.9551 82.3878 75.2397C82.12 75.5243 81.8563 75.767 81.5968 75.9679C81.3457 76.1604 81.1239 76.2985 80.9314 76.3823L80.6551 76.4827ZM97.3544 80.3373H99.6646V82.1454H97.3544V86H95.4208V82.1454H86.2927V79.9607L94.9185 67.995H97.3544V80.3373ZM95.4208 80.3373V70.1797L88.1007 80.3373H95.4208Z" fill="white"/>
<path d="M196.828 20.3373H199.138V22.1454H196.828V26H194.894V22.1454H185.766V19.9607L194.392 7.99498H196.828V20.3373ZM194.894 20.3373V10.1797L187.574 20.3373H194.894ZM205.064 11.5232C204.026 12.8457 203.507 14.6747 203.507 17.01C203.507 19.3371 204.026 21.1618 205.064 22.4844C206.102 23.7985 207.349 24.4556 208.806 24.4556C210.246 24.4556 211.48 23.7944 212.51 22.4718C213.539 21.1409 214.054 19.3161 214.054 16.9975C214.054 14.6621 213.535 12.8373 212.497 11.5232C211.459 10.2006 210.22 9.53934 208.781 9.53934C207.341 9.53934 206.102 10.2006 205.064 11.5232ZM213.853 10.2927C215.276 11.9835 215.988 14.2185 215.988 16.9975C215.988 19.7765 215.28 22.0156 213.866 23.7148C212.451 25.4057 210.765 26.2511 208.806 26.2511C206.83 26.2511 205.131 25.4057 203.708 23.7148C202.294 22.0156 201.586 19.7765 201.586 16.9975C201.586 14.2185 202.298 11.9835 203.721 10.2927C205.144 8.59347 206.83 7.74386 208.781 7.74386C210.739 7.74386 212.43 8.59347 213.853 10.2927ZM222.542 11.5232C221.504 12.8457 220.985 14.6747 220.985 17.01C220.985 19.3371 221.504 21.1618 222.542 22.4844C223.58 23.7985 224.827 24.4556 226.283 24.4556C227.723 24.4556 228.958 23.7944 229.987 22.4718C231.017 21.1409 231.532 19.3161 231.532 16.9975C231.532 14.6621 231.013 12.8373 229.975 11.5232C228.937 10.2006 227.698 9.53934 226.258 9.53934C224.819 9.53934 223.58 10.2006 222.542 11.5232ZM231.331 10.2927C232.754 11.9835 233.465 14.2185 233.465 16.9975C233.465 19.7765 232.758 22.0156 231.343 23.7148C229.929 25.4057 228.242 26.2511 226.283 26.2511C224.308 26.2511 222.609 25.4057 221.186 23.7148C219.771 22.0156 219.064 19.7765 219.064 16.9975C219.064 14.2185 219.775 11.9835 221.198 10.2927C222.621 8.59347 224.308 7.74386 226.258 7.74386C228.217 7.74386 229.908 8.59347 231.331 10.2927Z" fill="white"/>
<path d="M188.962 43.0462H188.075V40.4514H185.547V39.5576H188.075V36.9629H188.962V39.5576H191.49V40.4514H188.962V43.0462ZM192.437 34.4348H198.454V35.3953L194.218 44H193.191L197.427 35.3953H192.437V34.4348ZM201.182 36.3092C200.631 37.0118 200.355 37.9834 200.355 39.2241C200.355 40.4603 200.631 41.4297 201.182 42.1323C201.733 42.8305 202.396 43.1796 203.17 43.1796C203.935 43.1796 204.591 42.8283 205.138 42.1257C205.685 41.4186 205.958 40.4492 205.958 39.2174C205.958 37.9767 205.682 37.0073 205.131 36.3092C204.579 35.6066 203.921 35.2553 203.156 35.2553C202.392 35.2553 201.733 35.6066 201.182 36.3092ZM205.851 35.6555C206.607 36.5538 206.985 37.7411 206.985 39.2174C206.985 40.6938 206.609 41.8833 205.858 42.786C205.106 43.6843 204.21 44.1334 203.17 44.1334C202.12 44.1334 201.218 43.6843 200.462 42.786C199.71 41.8833 199.334 40.6938 199.334 39.2174C199.334 37.7411 199.712 36.5538 200.468 35.6555C201.224 34.7528 202.12 34.3014 203.156 34.3014C204.197 34.3014 205.095 34.7528 205.851 35.6555ZM209.026 42.7727L209.987 43.3196L208.413 45.7743L207.799 45.4341L209.026 42.7727ZM214.696 40.5848C213.776 40.5848 213.011 40.2847 212.401 39.6843C211.792 39.084 211.488 38.3369 211.488 37.4431C211.488 36.5493 211.797 35.8022 212.415 35.2019C213.033 34.6016 213.816 34.3014 214.763 34.3014C215.71 34.3014 216.493 34.6016 217.111 35.2019C217.733 35.8022 218.045 36.5493 218.045 37.4431C218.045 37.79 217.987 38.1346 217.871 38.477C217.755 38.815 217.644 39.0707 217.538 39.2441L217.357 39.4909L214.489 44H213.469L215.723 40.4514C215.456 40.5404 215.114 40.5848 214.696 40.5848ZM213.122 35.8623C212.713 36.2625 212.508 36.7894 212.508 37.4431C212.508 38.0968 212.713 38.626 213.122 39.0306C213.535 39.4309 214.082 39.631 214.763 39.631C215.448 39.631 215.995 39.4309 216.404 39.0306C216.813 38.626 217.017 38.0968 217.017 37.4431C217.017 36.7894 216.813 36.2625 216.404 35.8623C215.995 35.4576 215.448 35.2553 214.763 35.2553C214.082 35.2553 213.535 35.4576 213.122 35.8623Z" fill="#09C662"/>
<rect x="71.4027" y="102.109" width="140.331" height="0.803588" transform="rotate(-21.805 71.4027 102.109)" fill="#09C662"/>
<circle cx="71.2019" cy="102.557" r="1.40628" fill="#09C662"/>
<circle cx="202.588" cy="49.9219" r="1.40628" fill="#09C662"/>
<defs>
<filter id="filter0_f_821_5790" x="93.6671" y="7.76562" width="212.436" height="274.562" filterUnits="userSpaceOnUse" color-interpolation-filters="sRGB">
<feFlood flood-opacity="0" result="BackgroundImageFix"/>
<feBlend mode="normal" in="SourceGraphic" in2="BackgroundImageFix" result="shape"/>
<feGaussianBlur stdDeviation="25" result="effect1_foregroundBlur_821_5790"/>
</filter>
<filter id="filter1_f_821_5790" x="-11.1874" y="73.6797" width="170.324" height="197.943" filterUnits="userSpaceOnUse" color-interpolation-filters="sRGB">
<feFlood flood-opacity="0" result="BackgroundImageFix"/>
<feBlend mode="normal" in="SourceGraphic" in2="BackgroundImageFix" result="shape"/>
<feGaussianBlur stdDeviation="20" result="effect1_foregroundBlur_821_5790"/>
</filter>
<linearGradient id="paint0_linear_821_5790" x1="200.677" y1="56.1484" x2="176.229" y2="227.093" gradientUnits="userSpaceOnUse">
<stop stop-color="#7ED6FC"/>
<stop offset="1" stop-color="#81E1FF"/>
</linearGradient>
<linearGradient id="paint1_linear_821_5790" x1="205.529" y1="62.1203" x2="241.36" y2="221.867" gradientUnits="userSpaceOnUse">
<stop stop-color="#77DBFB"/>
<stop offset="1" stop-color="#60C9F6"/>
</linearGradient>
<linearGradient id="paint2_linear_821_5790" x1="67.8029" y1="103.922" x2="93.9297" y2="216.641" gradientUnits="userSpaceOnUse">
<stop stop-color="#64A3ED"/>
<stop offset="1" stop-color="#6BB2F3"/>
</linearGradient>
<linearGradient id="paint3_linear_821_5790" x1="64.0705" y1="113.999" x2="61.4578" y2="223.359" gradientUnits="userSpaceOnUse">
<stop offset="0.0989583" stop-color="#84B8F6"/>
<stop offset="1" stop-color="#418FD8"/>
</linearGradient>
</defs>
</svg>
