<svg width="505" height="495" viewBox="0 0 505 495" fill="none" xmlns="http://www.w3.org/2000/svg">
<path opacity="0.7" d="M160.066 458.812L166.184 452.097H167.794L163.295 457.027L168.226 464H166.69L162.44 457.965L160.066 460.514V464H158.788V452.097H160.066V458.812ZM175.331 462.157C175.918 461.549 176.211 460.804 176.211 459.924C176.211 459.039 175.918 458.295 175.331 457.691C174.75 457.083 174.05 456.778 173.231 456.778C172.417 456.778 171.717 457.083 171.131 457.691C170.55 458.295 170.259 459.036 170.259 459.916C170.259 460.79 170.55 461.535 171.131 462.149C171.717 462.758 172.417 463.062 173.231 463.062C174.05 463.062 174.75 462.76 175.331 462.157ZM170.284 462.938C169.476 462.118 169.072 461.114 169.072 459.924C169.072 458.729 169.476 457.722 170.284 456.903C171.098 456.078 172.083 455.666 173.239 455.666C174.396 455.666 175.378 456.078 176.186 456.903C176.994 457.722 177.398 458.729 177.398 459.924C177.398 461.114 176.994 462.118 176.186 462.938C175.378 463.757 174.396 464.166 173.239 464.166C172.083 464.166 171.098 463.757 170.284 462.938ZM185.392 464V460.431H180.718V464H179.531V455.84H180.718V459.327H185.392V455.84H186.587V464H185.392ZM189.916 462.929C189.113 462.099 188.712 461.095 188.712 459.916C188.712 458.737 189.113 457.736 189.916 456.911C190.723 456.081 191.681 455.666 192.788 455.666C193.424 455.666 194.016 455.804 194.564 456.081C195.117 456.352 195.513 456.623 195.751 456.895L196.108 457.285L195.253 458.131C195.231 458.098 195.198 458.051 195.153 457.99C195.109 457.929 195.009 457.819 194.854 457.658C194.705 457.498 194.542 457.359 194.365 457.243C194.188 457.121 193.958 457.014 193.676 456.919C193.394 456.825 193.097 456.778 192.788 456.778C192.007 456.778 191.329 457.083 190.754 457.691C190.184 458.295 189.899 459.039 189.899 459.924C189.899 460.804 190.184 461.549 190.754 462.157C191.329 462.76 192.007 463.062 192.788 463.062C193.264 463.062 193.715 462.949 194.141 462.722C194.567 462.495 194.877 462.268 195.07 462.041L195.344 461.709L196.191 462.473C196.158 462.517 196.105 462.581 196.033 462.664C195.967 462.741 195.823 462.877 195.602 463.07C195.38 463.258 195.148 463.427 194.904 463.577C194.661 463.721 194.345 463.856 193.958 463.983C193.576 464.105 193.186 464.166 192.788 464.166C191.675 464.166 190.718 463.754 189.916 462.929ZM203.72 462.157C204.306 461.549 204.6 460.804 204.6 459.924C204.6 459.039 204.306 458.295 203.72 457.691C203.139 457.083 202.439 456.778 201.62 456.778C200.806 456.778 200.106 457.083 199.52 457.691C198.938 458.295 198.648 459.036 198.648 459.916C198.648 460.79 198.938 461.535 199.52 462.149C200.106 462.758 200.806 463.062 201.62 463.062C202.439 463.062 203.139 462.76 203.72 462.157ZM198.673 462.938C197.865 462.118 197.461 461.114 197.461 459.924C197.461 458.729 197.865 457.722 198.673 456.903C199.486 456.078 200.471 455.666 201.628 455.666C202.785 455.666 203.767 456.078 204.575 456.903C205.383 457.722 205.787 458.729 205.787 459.924C205.787 461.114 205.383 462.118 204.575 462.938C203.767 463.757 202.785 464.166 201.628 464.166C200.471 464.166 199.486 463.757 198.673 462.938ZM208.767 455.84H214.718V464H213.523V456.944H209.954V458.223C209.954 459.424 209.893 460.425 209.771 461.228C209.655 462.024 209.478 462.633 209.24 463.054C209.002 463.469 208.739 463.759 208.451 463.925C208.163 464.086 207.815 464.166 207.405 464.166C207.267 464.166 207.126 464.152 206.982 464.125C206.844 464.097 206.741 464.066 206.675 464.033L206.559 464V462.813C206.785 462.924 207.012 462.979 207.239 462.979C207.588 462.979 207.862 462.879 208.061 462.68C208.26 462.481 208.426 462.022 208.559 461.302C208.697 460.583 208.767 459.556 208.767 458.223V455.84ZM223.55 455.84H224.571V464H223.376V457.882L218.445 464H217.433V455.84H218.62V461.958L223.55 455.84ZM234.856 462.896V466.042H233.669V464H227.12V466.042H225.933V462.896H226.522C226.555 462.863 226.605 462.807 226.671 462.73C226.743 462.647 226.862 462.464 227.028 462.182C227.194 461.9 227.341 461.596 227.468 461.269C227.601 460.937 227.717 460.497 227.817 459.949C227.922 459.396 227.975 458.82 227.975 458.223V455.84H233.578V462.896H234.856ZM229.162 456.944V458.223C229.162 459.152 229.048 460.005 228.821 460.779C228.594 461.554 228.368 462.102 228.141 462.423L227.8 462.896H232.391V456.944H229.162ZM242.841 455.84H243.862V464H242.667V457.882L237.736 464H236.724V455.84H237.911V461.958L242.841 455.84ZM248.66 457.725C248.068 458.35 247.772 459.083 247.772 459.924C247.772 460.76 248.068 461.493 248.66 462.124C249.258 462.749 249.925 463.062 250.661 463.062C251.363 463.062 251.992 462.758 252.545 462.149C253.104 461.535 253.383 460.793 253.383 459.924C253.383 459.05 253.104 458.308 252.545 457.7C251.992 457.085 251.363 456.778 250.661 456.778C249.925 456.778 249.258 457.094 248.66 457.725ZM247.772 462.722V467.569H246.585V455.84H247.772V457.119C247.794 457.085 247.833 457.036 247.888 456.969C247.949 456.897 248.068 456.778 248.245 456.612C248.428 456.446 248.624 456.3 248.834 456.172C249.045 456.04 249.313 455.923 249.64 455.824C249.972 455.719 250.312 455.666 250.661 455.666C251.701 455.666 252.611 456.084 253.392 456.919C254.177 457.755 254.57 458.757 254.57 459.924C254.57 461.086 254.18 462.085 253.4 462.921C252.62 463.751 251.707 464.166 250.661 464.166C250.312 464.166 249.974 464.116 249.648 464.017C249.327 463.917 249.056 463.798 248.834 463.66C248.613 463.521 248.419 463.383 248.253 463.245C248.093 463.101 247.971 462.979 247.888 462.879L247.772 462.722ZM262.356 462.157C262.943 461.549 263.236 460.804 263.236 459.924C263.236 459.039 262.943 458.295 262.356 457.691C261.775 457.083 261.075 456.778 260.256 456.778C259.443 456.778 258.743 457.083 258.156 457.691C257.575 458.295 257.285 459.036 257.285 459.916C257.285 460.79 257.575 461.535 258.156 462.149C258.743 462.758 259.443 463.062 260.256 463.062C261.075 463.062 261.775 462.76 262.356 462.157ZM257.31 462.938C256.502 462.118 256.098 461.114 256.098 459.924C256.098 458.729 256.502 457.722 257.31 456.903C258.123 456.078 259.108 455.666 260.265 455.666C261.421 455.666 262.403 456.078 263.211 456.903C264.019 457.722 264.423 458.729 264.423 459.924C264.423 461.114 264.019 462.118 263.211 462.938C262.403 463.757 261.421 464.166 260.265 464.166C259.108 464.166 258.123 463.757 257.31 462.938ZM266.557 455.84H270.292C271.039 455.84 271.637 456.042 272.085 456.446C272.533 456.845 272.757 457.351 272.757 457.965C272.757 458.314 272.672 458.632 272.5 458.92C272.334 459.202 272.165 459.399 271.994 459.509L271.736 459.667C271.77 459.678 271.817 459.695 271.877 459.717C271.944 459.739 272.055 459.8 272.209 459.899C272.37 459.993 272.508 460.107 272.625 460.24C272.746 460.367 272.854 460.552 272.948 460.796C273.048 461.039 273.098 461.313 273.098 461.618C273.098 462.354 272.868 462.935 272.409 463.361C271.949 463.787 271.302 464 270.466 464H266.557V455.84ZM270.466 460.173H267.744V462.896H270.466C270.931 462.896 271.288 462.777 271.537 462.539C271.786 462.301 271.911 461.966 271.911 461.535C271.911 461.103 271.786 460.768 271.537 460.53C271.288 460.292 270.931 460.173 270.466 460.173ZM270.292 459.152C271.144 459.152 271.57 458.784 271.57 458.048C271.57 457.312 271.144 456.944 270.292 456.944H267.744V459.152H270.292ZM277.173 459.327L280.319 458.812C280.319 458.209 280.128 457.719 279.747 457.343C279.365 456.966 278.875 456.778 278.277 456.778C277.846 456.778 277.439 456.878 277.057 457.077C276.681 457.271 276.407 457.47 276.235 457.675L275.978 457.965L275.214 457.202C275.248 457.157 275.292 457.102 275.347 457.036C275.408 456.964 275.535 456.842 275.729 456.67C275.928 456.493 276.136 456.336 276.352 456.197C276.567 456.059 276.85 455.937 277.198 455.832C277.552 455.721 277.912 455.666 278.277 455.666C279.207 455.666 279.976 455.968 280.585 456.571C281.199 457.174 281.506 457.921 281.506 458.812V464H280.319V462.896C280.297 462.929 280.261 462.976 280.211 463.037C280.167 463.092 280.062 463.195 279.896 463.344C279.736 463.488 279.561 463.618 279.373 463.734C279.185 463.845 278.936 463.945 278.626 464.033C278.322 464.122 278.006 464.166 277.68 464.166C276.866 464.166 276.18 463.925 275.621 463.444C275.068 462.962 274.791 462.412 274.791 461.792C274.791 461.111 274.996 460.563 275.405 460.148C275.815 459.728 276.404 459.454 277.173 459.327ZM277.68 463.062C278.449 463.062 279.08 462.81 279.572 462.307C280.07 461.803 280.319 461.15 280.319 460.348V459.833L277.514 460.348C276.495 460.541 275.984 461.023 275.978 461.792C275.978 462.157 276.127 462.462 276.426 462.705C276.731 462.943 277.148 463.062 277.68 463.062ZM290.081 464V460.431H285.408V464H284.221V455.84H285.408V459.327H290.081V455.84H291.276V464H290.081ZM299.859 464V460.431H295.186V464H293.999V455.84H295.186V459.327H299.859V455.84H301.055V464H299.859ZM305.562 459.327L308.708 458.812C308.708 458.209 308.517 457.719 308.135 457.343C307.753 456.966 307.264 456.778 306.666 456.778C306.234 456.778 305.828 456.878 305.446 457.077C305.069 457.271 304.796 457.47 304.624 457.675L304.367 457.965L303.603 457.202C303.636 457.157 303.681 457.102 303.736 457.036C303.797 456.964 303.924 456.842 304.118 456.67C304.317 456.493 304.524 456.336 304.74 456.197C304.956 456.059 305.238 455.937 305.587 455.832C305.941 455.721 306.301 455.666 306.666 455.666C307.596 455.666 308.365 455.968 308.974 456.571C309.588 457.174 309.895 457.921 309.895 458.812V464H308.708V462.896C308.686 462.929 308.65 462.976 308.6 463.037C308.556 463.092 308.451 463.195 308.285 463.344C308.124 463.488 307.95 463.618 307.762 463.734C307.574 463.845 307.325 463.945 307.015 464.033C306.71 464.122 306.395 464.166 306.068 464.166C305.255 464.166 304.569 463.925 304.01 463.444C303.456 462.962 303.18 462.412 303.18 461.792C303.18 461.111 303.384 460.563 303.794 460.148C304.203 459.728 304.793 459.454 305.562 459.327ZM306.068 463.062C306.838 463.062 307.468 462.81 307.961 462.307C308.459 461.803 308.708 461.15 308.708 460.348V459.833L305.902 460.348C304.884 460.541 304.372 461.023 304.367 461.792C304.367 462.157 304.516 462.462 304.815 462.705C305.119 462.943 305.537 463.062 306.068 463.062ZM312.095 458.563C312.095 457.783 312.369 457.135 312.917 456.621C313.47 456.1 314.189 455.84 315.075 455.84H318.553V464H317.366V461.277H314.983L313.29 464H311.929L313.796 461.028C313.752 461.017 313.688 460.998 313.605 460.97C313.528 460.937 313.392 460.862 313.199 460.746C313.005 460.624 312.833 460.48 312.684 460.314C312.54 460.143 312.405 459.905 312.277 459.601C312.156 459.296 312.095 458.95 312.095 458.563ZM317.366 456.944H315.075C314.532 456.944 314.098 457.097 313.771 457.401C313.451 457.7 313.29 458.087 313.29 458.563C313.29 459.039 313.451 459.426 313.771 459.725C314.092 460.024 314.527 460.173 315.075 460.173H317.366V456.944ZM176.211 482.84H179.946C180.693 482.84 181.291 483.042 181.739 483.446C182.188 483.845 182.412 484.351 182.412 484.965C182.412 485.314 182.326 485.632 182.154 485.92C181.988 486.202 181.819 486.399 181.648 486.509L181.391 486.667C181.424 486.678 181.471 486.695 181.532 486.717C181.598 486.739 181.709 486.8 181.864 486.899C182.024 486.993 182.163 487.107 182.279 487.24C182.401 487.367 182.508 487.552 182.603 487.796C182.702 488.039 182.752 488.313 182.752 488.618C182.752 489.354 182.522 489.935 182.063 490.361C181.604 490.787 180.956 491 180.121 491H176.211V482.84ZM180.121 487.173H177.398V489.896H180.121C180.585 489.896 180.942 489.777 181.191 489.539C181.44 489.301 181.565 488.966 181.565 488.535C181.565 488.103 181.44 487.768 181.191 487.53C180.942 487.292 180.585 487.173 180.121 487.173ZM179.946 486.152C180.799 486.152 181.225 485.784 181.225 485.048C181.225 484.312 180.799 483.944 179.946 483.944H177.398V486.152H179.946ZM193.966 482.84V491H192.771V482.84H193.966ZM186.23 489.896H188.289C188.82 489.896 189.246 489.747 189.567 489.448C189.893 489.143 190.057 488.753 190.057 488.277C190.057 487.801 189.893 487.414 189.567 487.115C189.246 486.816 188.814 486.667 188.272 486.667H186.23V489.896ZM190.447 486.31C190.978 486.808 191.244 487.467 191.244 488.286C191.244 489.099 190.981 489.755 190.455 490.253C189.929 490.751 189.207 491 188.289 491H185.043V482.84H186.23V485.563H188.272C189.191 485.563 189.916 485.812 190.447 486.31ZM198.756 484.725C198.164 485.35 197.868 486.083 197.868 486.924C197.868 487.76 198.164 488.493 198.756 489.124C199.354 489.749 200.02 490.062 200.756 490.062C201.459 490.062 202.087 489.758 202.641 489.149C203.2 488.535 203.479 487.793 203.479 486.924C203.479 486.05 203.2 485.308 202.641 484.7C202.087 484.085 201.459 483.778 200.756 483.778C200.02 483.778 199.354 484.094 198.756 484.725ZM197.868 489.722V494.569H196.681V482.84H197.868V484.119C197.89 484.085 197.929 484.036 197.984 483.969C198.045 483.897 198.164 483.778 198.341 483.612C198.523 483.446 198.72 483.3 198.93 483.172C199.14 483.04 199.409 482.923 199.735 482.824C200.067 482.719 200.408 482.666 200.756 482.666C201.797 482.666 202.707 483.084 203.487 483.919C204.273 484.755 204.666 485.757 204.666 486.924C204.666 488.086 204.276 489.085 203.496 489.921C202.715 490.751 201.802 491.166 200.756 491.166C200.408 491.166 200.07 491.116 199.744 491.017C199.423 490.917 199.152 490.798 198.93 490.66C198.709 490.521 198.515 490.383 198.349 490.245C198.189 490.101 198.067 489.979 197.984 489.879L197.868 489.722ZM208.576 492.187L208.999 491L205.679 482.84H206.957L209.597 489.473L212.228 482.84H213.506L209.763 492.187C209.425 493.05 209.063 493.662 208.675 494.021C208.288 494.387 207.801 494.569 207.214 494.569C207.032 494.569 206.855 494.556 206.683 494.528C206.517 494.5 206.393 494.47 206.31 494.437L206.193 494.403V493.291C206.476 493.402 206.758 493.46 207.04 493.465C207.759 493.465 208.271 493.039 208.576 492.187ZM220.388 491V487.688C219.762 488.142 218.999 488.369 218.097 488.369C217.167 488.369 216.409 488.078 215.822 487.497C215.241 486.91 214.951 486.152 214.951 485.223V482.84H216.138V485.223C216.138 485.809 216.329 486.296 216.71 486.684C217.092 487.065 217.582 487.256 218.18 487.256C218.589 487.256 218.977 487.195 219.342 487.074C219.713 486.946 219.978 486.816 220.139 486.684L220.388 486.493V482.84H221.583V491H220.388ZM225.493 488.709V491H224.306V482.84H225.493V487.173L229.568 482.84H231.021L227.875 486.152L231.361 491H230L227.111 487.007L225.493 488.709ZM234.673 486.327L237.819 485.812C237.819 485.209 237.628 484.719 237.247 484.343C236.865 483.966 236.375 483.778 235.777 483.778C235.346 483.778 234.939 483.878 234.557 484.077C234.181 484.271 233.907 484.47 233.735 484.675L233.478 484.965L232.714 484.202C232.748 484.157 232.792 484.102 232.847 484.036C232.908 483.964 233.035 483.842 233.229 483.67C233.428 483.493 233.636 483.336 233.852 483.197C234.067 483.059 234.35 482.937 234.698 482.832C235.052 482.721 235.412 482.666 235.777 482.666C236.707 482.666 237.476 482.968 238.085 483.571C238.699 484.174 239.006 484.921 239.006 485.812V491H237.819V489.896C237.797 489.929 237.761 489.976 237.711 490.037C237.667 490.092 237.562 490.195 237.396 490.344C237.236 490.488 237.061 490.618 236.873 490.734C236.685 490.845 236.436 490.945 236.126 491.033C235.822 491.122 235.506 491.166 235.18 491.166C234.366 491.166 233.68 490.925 233.121 490.444C232.568 489.962 232.291 489.412 232.291 488.792C232.291 488.111 232.496 487.563 232.905 487.148C233.315 486.728 233.904 486.454 234.673 486.327ZM235.18 490.062C235.949 490.062 236.58 489.81 237.072 489.307C237.57 488.803 237.819 488.15 237.819 487.348V486.833L235.014 487.348C233.995 487.541 233.484 488.023 233.478 488.792C233.478 489.157 233.627 489.462 233.926 489.705C234.231 489.943 234.648 490.062 235.18 490.062ZM241.97 489.473L243.165 490.153L241.206 493.208L240.442 492.785L241.97 489.473ZM255.749 484.965L252.769 488.709L249.797 484.965V491H248.61V482.84H249.54L252.769 486.916L255.998 482.84H256.936V491H255.749V484.965ZM260.514 482.84H266.465V491H265.27V483.944H261.701V485.223C261.701 486.424 261.64 487.425 261.518 488.228C261.402 489.024 261.225 489.633 260.987 490.054C260.749 490.469 260.486 490.759 260.198 490.925C259.91 491.086 259.562 491.166 259.152 491.166C259.014 491.166 258.873 491.152 258.729 491.125C258.591 491.097 258.488 491.066 258.422 491.033L258.306 491V489.813C258.533 489.924 258.759 489.979 258.986 489.979C259.335 489.979 259.609 489.879 259.808 489.68C260.007 489.481 260.173 489.022 260.306 488.302C260.444 487.583 260.514 486.556 260.514 485.223V482.84ZM271.255 484.725C270.663 485.35 270.367 486.083 270.367 486.924C270.367 487.76 270.663 488.493 271.255 489.124C271.853 489.749 272.519 490.062 273.255 490.062C273.958 490.062 274.586 489.758 275.14 489.149C275.699 488.535 275.978 487.793 275.978 486.924C275.978 486.05 275.699 485.308 275.14 484.7C274.586 484.085 273.958 483.778 273.255 483.778C272.519 483.778 271.853 484.094 271.255 484.725ZM270.367 489.722V494.569H269.18V482.84H270.367V484.119C270.389 484.085 270.428 484.036 270.483 483.969C270.544 483.897 270.663 483.778 270.84 483.612C271.022 483.446 271.219 483.3 271.429 483.172C271.639 483.04 271.908 482.923 272.234 482.824C272.566 482.719 272.907 482.666 273.255 482.666C274.296 482.666 275.206 483.084 275.986 483.919C276.772 484.755 277.165 485.757 277.165 486.924C277.165 488.086 276.775 489.085 275.995 489.921C275.214 490.751 274.301 491.166 273.255 491.166C272.907 491.166 272.569 491.116 272.243 491.017C271.922 490.917 271.651 490.798 271.429 490.66C271.208 490.521 271.014 490.383 270.848 490.245C270.688 490.101 270.566 489.979 270.483 489.879L270.367 489.722ZM286.852 489.896V493.042H285.665V491H279.116V493.042H277.929V489.896H278.518C278.551 489.863 278.601 489.807 278.667 489.73C278.739 489.647 278.858 489.464 279.024 489.182C279.19 488.9 279.337 488.596 279.464 488.269C279.597 487.937 279.713 487.497 279.813 486.949C279.918 486.396 279.971 485.82 279.971 485.223V482.84H285.574V489.896H286.852ZM281.158 483.944V485.223C281.158 486.152 281.044 487.005 280.817 487.779C280.59 488.554 280.364 489.102 280.137 489.423L279.796 489.896H284.387V483.944H281.158ZM291.525 486.244V485.048H292.887V479.097H297.311C298.412 479.097 299.309 479.434 300 480.109C300.698 480.785 301.046 481.639 301.046 482.674C301.046 483.704 300.698 484.556 300 485.231C299.303 485.906 298.407 486.244 297.311 486.244H294.165V487.688H298.332V488.875H294.165V491H292.887V488.875H291.525V487.688H292.887V486.244H291.525ZM297.311 480.292H294.165V485.048H297.311C298.025 485.048 298.614 484.821 299.079 484.368C299.544 483.914 299.776 483.349 299.776 482.674C299.776 481.994 299.544 481.426 299.079 480.973C298.614 480.519 298.025 480.292 297.311 480.292Z" fill="white"/>
<path opacity="0.2" fill-rule="evenodd" clip-rule="evenodd" d="M111.879 427.339C111.951 427.357 112.157 427.685 112.338 428.069C113.032 429.543 115.405 431.213 118.134 432.151C121.086 433.165 126.114 434.009 131.73 434.435C140.352 435.089 147.899 435.198 185.206 435.208C218.706 435.217 220.479 435.243 226.326 435.813C231.943 436.36 236.568 437.695 239.401 439.586C240.258 440.158 241.029 440.641 241.114 440.66C241.199 440.679 241.759 440.334 242.359 439.894C245.074 437.901 249.596 436.513 255.407 435.889C261.496 435.236 262.691 435.217 298.399 435.209C316.224 435.205 331.436 435.18 332.203 435.153C332.97 435.126 335.164 435.079 337.078 435.048C353.724 434.779 363.649 433.298 367.859 430.456C368.555 429.987 369.462 429.199 369.877 428.706C370.866 427.53 371.583 425.444 371.07 425.235C370.846 425.145 370.653 425.12 370.641 425.18C370.574 425.489 369.103 426.8 368.121 427.426C366.475 428.477 364.306 429.268 361.209 429.948C357.021 430.867 352.238 431.349 343.265 431.757C342.323 431.8 324.774 431.871 304.268 431.915C283.761 431.959 266.2 432.031 265.243 432.074C257.975 432.4 252.585 433.018 249.036 433.933C246.482 434.592 243.722 435.804 242.421 436.839C241.338 437.7 241.014 437.846 240.729 437.603C237.434 434.795 231.635 433.142 222.699 432.462C216.427 431.985 212.532 431.936 180.483 431.922C163.805 431.915 147.474 431.865 144.193 431.81C126.09 431.508 116.304 429.761 113.051 426.253C112.506 425.665 111.954 425.16 111.824 425.132C111.584 425.079 111.638 427.278 111.879 427.339Z" fill="#DCEEFF"/>
<g opacity="0.2" filter="url(#filter0_f_850_1746)">
<path d="M374.335 407L251.571 359.298L362.409 85.7109L374.335 407Z" fill="#1B4452"/>
<path d="M458.515 353.686L374.335 407L362.409 85.7109L458.515 353.686Z" fill="#1B4452"/>
</g>
<path d="M371.614 397.364L251.395 350.65L359.935 82.7334L371.614 397.364Z" fill="url(#paint0_linear_850_1746)"/>
<path d="M454.05 345.154L371.614 397.364L359.936 82.7334L454.05 345.154Z" fill="url(#paint1_linear_850_1746)"/>
<path d="M345.221 56.7432H344.052V53.3242H340.721V52.1465H344.052V48.7275H345.221V52.1465H348.552V53.3242H345.221V56.7432ZM352.683 45.3965H353.676V58H352.322V47.9189H349.984V47.1104C350.395 47.0986 350.764 47.0312 351.092 46.9082C351.42 46.7793 351.681 46.6357 351.874 46.4775C352.067 46.3135 352.226 46.1494 352.349 45.9854C352.478 45.8213 352.565 45.6865 352.612 45.5811L352.683 45.3965ZM360.953 49.8965C362.166 49.8965 363.174 50.2949 363.977 51.0918C364.785 51.8828 365.189 52.8672 365.189 54.0449C365.189 55.2168 364.779 56.1982 363.959 56.9893C363.145 57.7803 362.113 58.1758 360.865 58.1758C359.617 58.1758 358.586 57.7803 357.771 56.9893C356.957 56.1982 356.55 55.2139 356.55 54.0361C356.55 53.5791 356.623 53.1279 356.77 52.6826C356.922 52.2314 357.068 51.8916 357.209 51.6631L357.446 51.3379L361.226 45.3965H362.579L359.608 50.0811C359.954 49.958 360.402 49.8965 360.953 49.8965ZM363.027 56.1279C363.566 55.6006 363.836 54.9062 363.836 54.0449C363.836 53.1777 363.566 52.4805 363.027 51.9531C362.488 51.4258 361.768 51.1621 360.865 51.1621C359.969 51.1621 359.248 51.4258 358.703 51.9531C358.164 52.4805 357.895 53.1777 357.895 54.0449C357.895 54.9062 358.164 55.6006 358.703 56.1279C359.248 56.6553 359.969 56.9189 360.865 56.9189C361.768 56.9189 362.488 56.6553 363.027 56.1279ZM367.791 56.3828L369.057 57.1035L366.982 60.3379L366.174 59.8896L367.791 56.3828ZM375.262 53.5C374.049 53.5 373.041 53.1045 372.238 52.3135C371.436 51.5225 371.034 50.5381 371.034 49.3604C371.034 48.1826 371.441 47.1982 372.256 46.4072C373.07 45.6162 374.102 45.2207 375.35 45.2207C376.598 45.2207 377.629 45.6162 378.443 46.4072C379.264 47.1982 379.674 48.1826 379.674 49.3604C379.674 49.8174 379.598 50.2715 379.445 50.7227C379.293 51.168 379.146 51.5049 379.006 51.7334L378.769 52.0586L374.989 58H373.645L376.615 53.3242C376.264 53.4414 375.812 53.5 375.262 53.5ZM373.188 47.2773C372.648 47.8047 372.379 48.499 372.379 49.3604C372.379 50.2217 372.648 50.9189 373.188 51.4521C373.732 51.9795 374.453 52.2432 375.35 52.2432C376.252 52.2432 376.973 51.9795 377.512 51.4521C378.051 50.9189 378.32 50.2217 378.32 49.3604C378.32 48.499 378.051 47.8047 377.512 47.2773C376.973 46.7441 376.252 46.4775 375.35 46.4775C374.453 46.4775 373.732 46.7441 373.188 47.2773ZM382.908 58L390.827 45.3965H392.084L384.165 58H382.908ZM386.134 46.0381C386.685 46.583 386.96 47.2393 386.96 48.0068C386.96 48.7744 386.685 49.4336 386.134 49.9844C385.589 50.5293 384.933 50.8018 384.165 50.8018C383.397 50.8018 382.741 50.5293 382.196 49.9844C381.651 49.4336 381.379 48.7744 381.379 48.0068C381.379 47.2393 381.651 46.583 382.196 46.0381C382.741 45.4932 383.397 45.2207 384.165 45.2207C384.933 45.2207 385.589 45.4932 386.134 46.0381ZM385.316 49.2373C385.633 48.9092 385.791 48.499 385.791 48.0068C385.791 47.5146 385.633 47.1074 385.316 46.7852C385.006 46.4629 384.622 46.3018 384.165 46.3018C383.714 46.3018 383.33 46.4629 383.014 46.7852C382.703 47.1074 382.548 47.5146 382.548 48.0068C382.548 48.499 382.703 48.9092 383.014 49.2373C383.33 49.5596 383.714 49.7207 384.165 49.7207C384.622 49.7207 385.006 49.5596 385.316 49.2373ZM388.858 57.3584C388.313 56.8135 388.041 56.1572 388.041 55.3896C388.041 54.6221 388.313 53.9658 388.858 53.4209C389.403 52.876 390.06 52.6035 390.827 52.6035C391.595 52.6035 392.251 52.876 392.796 53.4209C393.347 53.9658 393.622 54.6221 393.622 55.3896C393.622 56.1572 393.347 56.8135 392.796 57.3584C392.251 57.9033 391.595 58.1758 390.827 58.1758C390.06 58.1758 389.403 57.9033 388.858 57.3584ZM389.676 54.168C389.365 54.4902 389.21 54.8975 389.21 55.3896C389.21 55.8818 389.365 56.292 389.676 56.6201C389.986 56.9424 390.37 57.1035 390.827 57.1035C391.284 57.1035 391.668 56.9424 391.979 56.6201C392.289 56.292 392.444 55.8818 392.444 55.3896C392.444 54.8975 392.289 54.4902 391.979 54.168C391.668 53.8398 391.284 53.6758 390.827 53.6758C390.37 53.6758 389.986 53.8398 389.676 54.168Z" fill="#09C662"/>
<path d="M347.207 25.0742C348.062 25.8477 349.199 26.2344 350.617 26.2344C352.035 26.2344 353.166 25.8477 354.01 25.0742C354.865 24.2891 355.293 23.2988 355.293 22.1035C355.293 20.8965 354.865 19.9062 354.01 19.1328C353.166 18.3477 352.035 17.9551 350.617 17.9551C349.199 17.9551 348.062 18.3477 347.207 19.1328C346.363 19.9062 345.941 20.8965 345.941 22.1035C345.941 23.2988 346.363 24.2891 347.207 25.0742ZM345.396 17.4629C346.838 16.1152 348.578 15.4414 350.617 15.4414C352.656 15.4414 354.396 16.1152 355.838 17.4629C357.279 18.7988 358 20.3457 358 22.1035C358 22.7949 357.883 23.457 357.648 24.0898C357.426 24.7109 357.156 25.209 356.84 25.584C356.535 25.9473 356.225 26.2695 355.908 26.5508C355.604 26.8203 355.34 27.0195 355.117 27.1484L354.766 27.3242C354.883 27.3711 355.035 27.4355 355.223 27.5176C355.422 27.5996 355.768 27.8223 356.26 28.1855C356.752 28.5488 357.186 28.9473 357.561 29.3809C357.947 29.8027 358.293 30.4004 358.598 31.1738C358.914 31.9355 359.072 32.75 359.072 33.6172C359.072 35.7266 358.264 37.543 356.646 39.0664C355.029 40.5898 353.02 41.3516 350.617 41.3516C348.215 41.3516 346.205 40.5898 344.588 39.0664C342.971 37.543 342.162 35.7266 342.162 33.6172C342.162 32.75 342.309 31.9414 342.602 31.1914C342.906 30.4297 343.27 29.8262 343.691 29.3809C344.113 28.9238 344.529 28.5312 344.939 28.2031C345.361 27.875 345.73 27.6523 346.047 27.5352L346.486 27.3242C346.393 27.2773 346.27 27.2188 346.117 27.1484C345.977 27.0664 345.719 26.8789 345.344 26.5859C344.969 26.2812 344.635 25.9473 344.342 25.584C344.061 25.209 343.803 24.7109 343.568 24.0898C343.346 23.457 343.234 22.7949 343.234 22.1035C343.234 20.3457 343.955 18.7988 345.396 17.4629ZM354.678 29.9785C353.553 28.9238 352.199 28.3965 350.617 28.3965C349.035 28.3965 347.676 28.9238 346.539 29.9785C345.414 31.0332 344.852 32.2461 344.852 33.6172C344.852 35.0352 345.379 36.2598 346.434 37.291C347.5 38.3223 348.895 38.8379 350.617 38.8379C352.352 38.8379 353.746 38.3223 354.801 37.291C355.855 36.2598 356.383 35.0352 356.383 33.6172C356.383 32.2461 355.814 31.0332 354.678 29.9785ZM368.266 20.7324C366.812 22.584 366.086 25.1445 366.086 28.4141C366.086 31.6719 366.812 34.2266 368.266 36.0781C369.719 37.918 371.465 38.8379 373.504 38.8379C375.52 38.8379 377.248 37.9121 378.689 36.0605C380.131 34.1973 380.852 31.6426 380.852 28.3965C380.852 25.127 380.125 22.5723 378.672 20.7324C377.219 18.8809 375.484 17.9551 373.469 17.9551C371.453 17.9551 369.719 18.8809 368.266 20.7324ZM380.57 19.0098C382.562 21.377 383.559 24.5059 383.559 28.3965C383.559 32.2871 382.568 35.4219 380.588 37.8008C378.607 40.168 376.246 41.3516 373.504 41.3516C370.738 41.3516 368.359 40.168 366.367 37.8008C364.387 35.4219 363.396 32.2871 363.396 28.3965C363.396 24.5059 364.393 21.377 366.385 19.0098C368.377 16.6309 370.738 15.4414 373.469 15.4414C376.211 15.4414 378.578 16.6309 380.57 19.0098ZM403.352 41H387.145C387.145 39.3477 387.479 37.8359 388.146 36.4648C388.826 35.0938 389.664 33.9922 390.66 33.1602C391.656 32.3164 392.734 31.4727 393.895 30.6289C395.055 29.7852 396.133 29.0352 397.129 28.3789C398.125 27.7227 398.957 26.9082 399.625 25.9355C400.305 24.9629 400.645 23.9258 400.645 22.8242C400.645 21.3594 400.164 20.1816 399.203 19.291C398.242 18.4004 396.924 17.9551 395.248 17.9551C394.404 17.9551 393.637 18.1074 392.945 18.4121C392.266 18.7051 391.738 19.0625 391.363 19.4844C391 19.9062 390.695 20.3281 390.449 20.75C390.215 21.1719 390.051 21.5352 389.957 21.8398L389.852 22.2793L387.496 21.207C387.52 21.043 387.572 20.832 387.654 20.5742C387.748 20.3164 387.982 19.8594 388.357 19.2031C388.744 18.5469 389.195 17.9668 389.711 17.4629C390.227 16.959 390.977 16.4961 391.961 16.0742C392.945 15.6523 394.041 15.4414 395.248 15.4414C397.65 15.4414 399.602 16.1445 401.102 17.5508C402.602 18.957 403.352 20.7148 403.352 22.8242C403.352 24.043 403.07 25.1738 402.508 26.2168C401.957 27.2598 401.26 28.1387 400.416 28.8535C399.584 29.5566 398.641 30.2949 397.586 31.0684C396.531 31.8301 395.529 32.5391 394.58 33.1953C393.631 33.8398 392.746 34.625 391.926 35.5508C391.117 36.4766 390.543 37.4551 390.203 38.4863H403.352V41ZM408.73 37.7656L411.262 39.207L407.113 45.6758L405.496 44.7793L408.73 37.7656ZM429.789 33.0723H433.023V35.6035H429.789V41H427.082V35.6035H414.303V32.5449L426.379 15.793H429.789V33.0723ZM427.082 33.0723V18.8516L416.834 33.0723H427.082Z" fill="black"/>
<g opacity="0.2" filter="url(#filter1_f_850_1746)">
<path d="M206.423 361.742L117.117 405.708L123.3 188.627L206.423 361.742Z" fill="#152C42"/>
<path d="M40.1768 366.551L117.117 405.708L123.3 188.627L40.1768 366.551Z" fill="#152C42"/>
</g>
<path d="M201.246 350.65L111.94 394.615L118.123 177.534L201.246 350.65Z" fill="url(#paint2_linear_850_1746)"/>
<path d="M35 355.458L111.94 394.615L118.123 177.534L35 355.458Z" fill="url(#paint3_linear_850_1746)"/>
<path d="M97.793 124.793C100.219 124.793 102.234 125.59 103.84 127.184C105.457 128.766 106.266 130.734 106.266 133.09C106.266 135.434 105.445 137.396 103.805 138.979C102.176 140.561 100.113 141.352 97.6172 141.352C95.1211 141.352 93.0586 140.561 91.4297 138.979C89.8008 137.396 88.9863 135.428 88.9863 133.072C88.9863 132.158 89.1328 131.256 89.4258 130.365C89.7305 129.463 90.0234 128.783 90.3047 128.326L90.7793 127.676L98.3379 115.793H101.045L95.1035 125.162C95.7949 124.916 96.6914 124.793 97.793 124.793ZM101.941 137.256C103.02 136.201 103.559 134.812 103.559 133.09C103.559 131.355 103.02 129.961 101.941 128.906C100.863 127.852 99.4219 127.324 97.6172 127.324C95.8242 127.324 94.3828 127.852 93.293 128.906C92.2148 129.961 91.6758 131.355 91.6758 133.09C91.6758 134.812 92.2148 136.201 93.293 137.256C94.3828 138.311 95.8242 138.838 97.6172 138.838C99.4219 138.838 100.863 138.311 101.941 137.256ZM118.676 132C116.25 132 114.234 131.209 112.629 129.627C111.023 128.045 110.221 126.076 110.221 123.721C110.221 121.365 111.035 119.396 112.664 117.814C114.293 116.232 116.355 115.441 118.852 115.441C121.348 115.441 123.41 116.232 125.039 117.814C126.68 119.396 127.5 121.365 127.5 123.721C127.5 124.635 127.348 125.543 127.043 126.445C126.738 127.336 126.445 128.01 126.164 128.467L125.689 129.117L118.131 141H115.441L121.383 131.648C120.68 131.883 119.777 132 118.676 132ZM114.527 119.555C113.449 120.609 112.91 121.998 112.91 123.721C112.91 125.443 113.449 126.838 114.527 127.904C115.617 128.959 117.059 129.486 118.852 129.486C120.656 129.486 122.098 128.959 123.176 127.904C124.254 126.838 124.793 125.443 124.793 123.721C124.793 121.998 124.254 120.609 123.176 119.555C122.098 118.488 120.656 117.955 118.852 117.955C117.059 117.955 115.617 118.488 114.527 119.555ZM136.307 115.793H138.293V141H135.586V120.838H130.91V119.221C131.73 119.197 132.469 119.062 133.125 118.816C133.781 118.559 134.303 118.271 134.689 117.955C135.076 117.627 135.393 117.299 135.639 116.971C135.896 116.643 136.072 116.373 136.166 116.162L136.307 115.793ZM145.289 137.766L147.82 139.207L143.672 145.676L142.055 144.779L145.289 137.766ZM160.582 124.793C163.008 124.793 165.023 125.59 166.629 127.184C168.246 128.766 169.055 130.734 169.055 133.09C169.055 135.434 168.234 137.396 166.594 138.979C164.965 140.561 162.902 141.352 160.406 141.352C157.91 141.352 155.848 140.561 154.219 138.979C152.59 137.396 151.775 135.428 151.775 133.072C151.775 132.158 151.922 131.256 152.215 130.365C152.52 129.463 152.812 128.783 153.094 128.326L153.568 127.676L161.127 115.793H163.834L157.893 125.162C158.584 124.916 159.48 124.793 160.582 124.793ZM164.73 137.256C165.809 136.201 166.348 134.812 166.348 133.09C166.348 131.355 165.809 129.961 164.73 128.906C163.652 127.852 162.211 127.324 160.406 127.324C158.613 127.324 157.172 127.852 156.082 128.906C155.004 129.961 154.465 131.355 154.465 133.09C154.465 134.812 155.004 136.201 156.082 137.256C157.172 138.311 158.613 138.838 160.406 138.838C162.211 138.838 163.652 138.311 164.73 137.256Z" fill="black"/>
<rect x="118.565" y="167.325" width="258.285" height="1.47904" transform="rotate(-21.805 118.565 167.325)" fill="#09C662"/>
<circle cx="118.196" cy="168.148" r="2.58832" fill="#09C662"/>
<circle cx="360.019" cy="71.2704" r="2.58832" fill="#09C662"/>
<defs>
<filter id="filter0_f_850_1746" x="201.571" y="35.7109" width="306.944" height="421.289" filterUnits="userSpaceOnUse" color-interpolation-filters="sRGB">
<feFlood flood-opacity="0" result="BackgroundImageFix"/>
<feBlend mode="normal" in="SourceGraphic" in2="BackgroundImageFix" result="shape"/>
<feGaussianBlur stdDeviation="25" result="effect1_foregroundBlur_850_1746"/>
</filter>
<filter id="filter1_f_850_1746" x="0.176758" y="148.627" width="246.246" height="297.081" filterUnits="userSpaceOnUse" color-interpolation-filters="sRGB">
<feFlood flood-opacity="0" result="BackgroundImageFix"/>
<feBlend mode="normal" in="SourceGraphic" in2="BackgroundImageFix" result="shape"/>
<feGaussianBlur stdDeviation="20" result="effect1_foregroundBlur_850_1746"/>
</filter>
<linearGradient id="paint0_linear_850_1746" x1="356.5" y1="82.7334" x2="311.504" y2="397.364" gradientUnits="userSpaceOnUse">
<stop stop-color="#7ED6FC"/>
<stop offset="1" stop-color="#81E1FF"/>
</linearGradient>
<linearGradient id="paint1_linear_850_1746" x1="365.431" y1="93.7249" x2="431.38" y2="387.746" gradientUnits="userSpaceOnUse">
<stop stop-color="#77DBFB"/>
<stop offset="1" stop-color="#60C9F6"/>
</linearGradient>
<linearGradient id="paint2_linear_850_1746" x1="111.94" y1="170.665" x2="160.028" y2="378.128" gradientUnits="userSpaceOnUse">
<stop stop-color="#64A3ED"/>
<stop offset="1" stop-color="#6BB2F3"/>
</linearGradient>
<linearGradient id="paint3_linear_850_1746" x1="105.071" y1="189.213" x2="100.262" y2="390.494" gradientUnits="userSpaceOnUse">
<stop offset="0.0989583" stop-color="#84B8F6"/>
<stop offset="1" stop-color="#418FD8"/>
</linearGradient>
</defs>
</svg>
