<svg width="362" height="344" viewBox="0 0 362 344" fill="none" xmlns="http://www.w3.org/2000/svg">
<path opacity="0.7" d="M108.988 317.524L114.386 311.599H115.807L111.837 315.949L116.188 322.102H114.833L111.083 316.777L108.988 319.025V322.102H107.86V311.599H108.988V317.524ZM122.457 320.476C122.975 319.938 123.233 319.282 123.233 318.505C123.233 317.724 122.975 317.067 122.457 316.535C121.944 315.998 121.327 315.729 120.604 315.729C119.886 315.729 119.269 315.998 118.751 316.535C118.238 317.067 117.982 317.722 117.982 318.498C117.982 319.27 118.238 319.926 118.751 320.468C119.269 321.005 119.886 321.274 120.604 321.274C121.327 321.274 121.944 321.008 122.457 320.476ZM118.004 321.164C117.291 320.441 116.935 319.555 116.935 318.505C116.935 317.451 117.291 316.562 118.004 315.839C118.722 315.112 119.591 314.748 120.611 314.748C121.632 314.748 122.499 315.112 123.211 315.839C123.924 316.562 124.281 317.451 124.281 318.505C124.281 319.555 123.924 320.441 123.211 321.164C122.499 321.887 121.632 322.248 120.611 322.248C119.591 322.248 118.722 321.887 118.004 321.164ZM131.334 322.102V318.952H127.21V322.102H126.163V314.902H127.21V317.978H131.334V314.902H132.389V322.102H131.334ZM135.326 321.157C134.618 320.424 134.264 319.538 134.264 318.498C134.264 317.458 134.618 316.574 135.326 315.847C136.039 315.114 136.883 314.748 137.86 314.748C138.421 314.748 138.944 314.87 139.427 315.114C139.916 315.354 140.265 315.593 140.475 315.832L140.79 316.176L140.035 316.923C140.016 316.894 139.986 316.853 139.947 316.799C139.908 316.745 139.82 316.647 139.684 316.506C139.552 316.364 139.408 316.242 139.251 316.14C139.095 316.032 138.893 315.937 138.644 315.854C138.395 315.771 138.133 315.729 137.86 315.729C137.171 315.729 136.573 315.998 136.065 316.535C135.562 317.067 135.311 317.724 135.311 318.505C135.311 319.282 135.562 319.938 136.065 320.476C136.573 321.008 137.171 321.274 137.86 321.274C138.28 321.274 138.678 321.174 139.054 320.974C139.43 320.773 139.703 320.573 139.874 320.373L140.116 320.08L140.863 320.754C140.833 320.793 140.787 320.849 140.724 320.922C140.665 320.991 140.538 321.11 140.343 321.281C140.147 321.447 139.942 321.596 139.728 321.728C139.513 321.855 139.234 321.975 138.893 322.087C138.556 322.194 138.211 322.248 137.86 322.248C136.878 322.248 136.034 321.884 135.326 321.157ZM147.506 320.476C148.023 319.938 148.282 319.282 148.282 318.505C148.282 317.724 148.023 317.067 147.506 316.535C146.993 315.998 146.375 315.729 145.653 315.729C144.935 315.729 144.317 315.998 143.8 316.535C143.287 317.067 143.031 317.722 143.031 318.498C143.031 319.27 143.287 319.926 143.8 320.468C144.317 321.005 144.935 321.274 145.653 321.274C146.375 321.274 146.993 321.008 147.506 320.476ZM143.053 321.164C142.34 320.441 141.983 319.555 141.983 318.505C141.983 317.451 142.34 316.562 143.053 315.839C143.771 315.112 144.64 314.748 145.66 314.748C146.681 314.748 147.547 315.112 148.26 315.839C148.973 316.562 149.33 317.451 149.33 318.505C149.33 319.555 148.973 320.441 148.26 321.164C147.547 321.887 146.681 322.248 145.66 322.248C144.64 322.248 143.771 321.887 143.053 321.164ZM151.959 314.902H157.21V322.102H156.156V315.876H153.006V317.004C153.006 318.063 152.953 318.947 152.845 319.655C152.743 320.358 152.586 320.896 152.376 321.267C152.167 321.633 151.935 321.889 151.681 322.036C151.427 322.177 151.119 322.248 150.758 322.248C150.636 322.248 150.511 322.236 150.384 322.211C150.262 322.187 150.172 322.16 150.113 322.131L150.011 322.102V321.054C150.211 321.152 150.411 321.201 150.611 321.201C150.919 321.201 151.161 321.113 151.336 320.937C151.512 320.761 151.659 320.356 151.776 319.721C151.898 319.086 151.959 318.181 151.959 317.004V314.902ZM165.003 314.902H165.904V322.102H164.85V316.704L160.499 322.102H159.605V314.902H160.653V320.3L165.003 314.902ZM174.979 321.127V323.903H173.932V322.102H168.153V323.903H167.105V321.127H167.625C167.655 321.098 167.699 321.049 167.757 320.981C167.821 320.908 167.926 320.747 168.072 320.498C168.219 320.249 168.348 319.98 168.46 319.692C168.578 319.399 168.68 319.011 168.768 318.527C168.861 318.039 168.907 317.531 168.907 317.004V314.902H173.851V321.127H174.979ZM169.955 315.876V317.004C169.955 317.824 169.854 318.576 169.654 319.26C169.454 319.943 169.254 320.427 169.054 320.71L168.753 321.127H172.804V315.876H169.955ZM182.025 314.902H182.926V322.102H181.871V316.704L177.521 322.102H176.627V314.902H177.674V320.3L182.025 314.902ZM187.159 316.564C186.637 317.116 186.375 317.763 186.375 318.505C186.375 319.243 186.637 319.89 187.159 320.446C187.687 320.998 188.275 321.274 188.924 321.274C189.544 321.274 190.099 321.005 190.587 320.468C191.08 319.926 191.327 319.272 191.327 318.505C191.327 317.734 191.08 317.08 190.587 316.542C190.099 316 189.544 315.729 188.924 315.729C188.275 315.729 187.687 316.008 187.159 316.564ZM186.375 320.974V325.251H185.328V314.902H186.375V316.03C186.395 316 186.429 315.957 186.478 315.898C186.532 315.834 186.637 315.729 186.793 315.583C186.954 315.437 187.127 315.307 187.313 315.195C187.499 315.078 187.735 314.975 188.023 314.887C188.316 314.794 188.617 314.748 188.924 314.748C189.842 314.748 190.646 315.117 191.334 315.854C192.027 316.591 192.374 317.475 192.374 318.505C192.374 319.531 192.03 320.412 191.341 321.149C190.653 321.882 189.847 322.248 188.924 322.248C188.617 322.248 188.319 322.204 188.031 322.116C187.748 322.028 187.508 321.923 187.313 321.801C187.118 321.679 186.947 321.557 186.8 321.435C186.659 321.308 186.551 321.201 186.478 321.113L186.375 320.974ZM199.244 320.476C199.762 319.938 200.021 319.282 200.021 318.505C200.021 317.724 199.762 317.067 199.244 316.535C198.731 315.998 198.114 315.729 197.391 315.729C196.673 315.729 196.056 315.998 195.538 316.535C195.025 317.067 194.769 317.722 194.769 318.498C194.769 319.27 195.025 319.926 195.538 320.468C196.056 321.005 196.673 321.274 197.391 321.274C198.114 321.274 198.731 321.008 199.244 320.476ZM194.791 321.164C194.078 320.441 193.722 319.555 193.722 318.505C193.722 317.451 194.078 316.562 194.791 315.839C195.509 315.112 196.378 314.748 197.398 314.748C198.419 314.748 199.286 315.112 199.999 315.839C200.711 316.562 201.068 317.451 201.068 318.505C201.068 319.555 200.711 320.441 199.999 321.164C199.286 321.887 198.419 322.248 197.398 322.248C196.378 322.248 195.509 321.887 194.791 321.164ZM202.95 314.902H206.246C206.905 314.902 207.433 315.08 207.828 315.437C208.224 315.788 208.421 316.235 208.421 316.777C208.421 317.084 208.346 317.365 208.194 317.619C208.048 317.868 207.899 318.042 207.748 318.139L207.521 318.278C207.55 318.288 207.591 318.303 207.645 318.322C207.704 318.342 207.801 318.396 207.938 318.483C208.08 318.566 208.202 318.667 208.304 318.784C208.412 318.896 208.507 319.06 208.59 319.274C208.678 319.489 208.722 319.731 208.722 320C208.722 320.649 208.519 321.162 208.114 321.538C207.708 321.914 207.137 322.102 206.4 322.102H202.95V314.902ZM206.4 318.725H203.998V321.127H206.4C206.81 321.127 207.125 321.022 207.345 320.812C207.564 320.603 207.674 320.307 207.674 319.926C207.674 319.545 207.564 319.25 207.345 319.04C207.125 318.83 206.81 318.725 206.4 318.725ZM206.246 317.824C206.998 317.824 207.374 317.5 207.374 316.85C207.374 316.201 206.998 315.876 206.246 315.876H203.998V317.824H206.246ZM212.318 317.978L215.094 317.524C215.094 316.992 214.925 316.56 214.588 316.228C214.251 315.896 213.819 315.729 213.292 315.729C212.911 315.729 212.552 315.817 212.215 315.993C211.883 316.164 211.642 316.34 211.49 316.521L211.263 316.777L210.589 316.103C210.619 316.064 210.658 316.015 210.707 315.957C210.76 315.893 210.873 315.786 211.043 315.634C211.219 315.478 211.402 315.339 211.593 315.217C211.783 315.095 212.032 314.987 212.34 314.895C212.652 314.797 212.97 314.748 213.292 314.748C214.112 314.748 214.791 315.014 215.328 315.546C215.87 316.079 216.141 316.738 216.141 317.524V322.102H215.094V321.127C215.074 321.157 215.042 321.198 214.999 321.252C214.959 321.301 214.867 321.391 214.72 321.523C214.579 321.65 214.425 321.765 214.259 321.867C214.093 321.965 213.873 322.053 213.6 322.131C213.331 322.209 213.053 322.248 212.765 322.248C212.047 322.248 211.441 322.036 210.948 321.611C210.46 321.186 210.216 320.7 210.216 320.153C210.216 319.553 210.396 319.069 210.758 318.703C211.119 318.332 211.639 318.09 212.318 317.978ZM212.765 321.274C213.443 321.274 214 321.052 214.435 320.607C214.874 320.163 215.094 319.587 215.094 318.879V318.425L212.618 318.879C211.72 319.05 211.268 319.475 211.263 320.153C211.263 320.476 211.395 320.744 211.659 320.959C211.927 321.169 212.296 321.274 212.765 321.274ZM223.707 322.102V318.952H219.583V322.102H218.536V314.902H219.583V317.978H223.707V314.902H224.762V322.102H223.707ZM232.335 322.102V318.952H228.211V322.102H227.164V314.902H228.211V317.978H232.335V314.902H233.39V322.102H232.335ZM237.367 317.978L240.143 317.524C240.143 316.992 239.974 316.56 239.637 316.228C239.3 315.896 238.868 315.729 238.341 315.729C237.96 315.729 237.601 315.817 237.264 315.993C236.932 316.164 236.69 316.34 236.539 316.521L236.312 316.777L235.638 316.103C235.667 316.064 235.707 316.015 235.755 315.957C235.809 315.893 235.921 315.786 236.092 315.634C236.268 315.478 236.451 315.339 236.642 315.217C236.832 315.095 237.081 314.987 237.389 314.895C237.701 314.797 238.019 314.748 238.341 314.748C239.161 314.748 239.84 315.014 240.377 315.546C240.919 316.079 241.19 316.738 241.19 317.524V322.102H240.143V321.127C240.123 321.157 240.091 321.198 240.047 321.252C240.008 321.301 239.916 321.391 239.769 321.523C239.627 321.65 239.474 321.765 239.308 321.867C239.142 321.965 238.922 322.053 238.648 322.131C238.38 322.209 238.102 322.248 237.813 322.248C237.096 322.248 236.49 322.036 235.997 321.611C235.509 321.186 235.265 320.7 235.265 320.153C235.265 319.553 235.445 319.069 235.807 318.703C236.168 318.332 236.688 318.09 237.367 317.978ZM237.813 321.274C238.492 321.274 239.049 321.052 239.483 320.607C239.923 320.163 240.143 319.587 240.143 318.879V318.425L237.667 318.879C236.769 319.05 236.317 319.475 236.312 320.153C236.312 320.476 236.444 320.744 236.708 320.959C236.976 321.169 237.345 321.274 237.813 321.274ZM243.131 317.304C243.131 316.616 243.373 316.044 243.856 315.59C244.344 315.131 244.979 314.902 245.76 314.902H248.829V322.102H247.782V319.699H245.68L244.186 322.102H242.984L244.632 319.479C244.593 319.47 244.537 319.453 244.464 319.428C244.396 319.399 244.276 319.333 244.105 319.23C243.934 319.123 243.783 318.996 243.651 318.85C243.524 318.698 243.404 318.488 243.292 318.22C243.185 317.951 243.131 317.646 243.131 317.304ZM247.782 315.876H245.76C245.282 315.876 244.898 316.01 244.61 316.279C244.327 316.542 244.186 316.884 244.186 317.304C244.186 317.724 244.327 318.066 244.61 318.33C244.894 318.593 245.277 318.725 245.76 318.725H247.782V315.876ZM107.413 332.902H110.709C111.368 332.902 111.896 333.08 112.291 333.437C112.687 333.788 112.884 334.235 112.884 334.777C112.884 335.084 112.809 335.365 112.657 335.619C112.511 335.868 112.362 336.042 112.21 336.139L111.983 336.278C112.013 336.288 112.054 336.303 112.108 336.322C112.167 336.342 112.264 336.396 112.401 336.483C112.542 336.566 112.665 336.667 112.767 336.784C112.875 336.896 112.97 337.06 113.053 337.274C113.141 337.489 113.185 337.731 113.185 338C113.185 338.649 112.982 339.162 112.577 339.538C112.171 339.914 111.6 340.102 110.863 340.102H107.413V332.902ZM110.863 336.725H108.46V339.127H110.863C111.273 339.127 111.588 339.022 111.808 338.812C112.027 338.603 112.137 338.307 112.137 337.926C112.137 337.545 112.027 337.25 111.808 337.04C111.588 336.83 111.273 336.725 110.863 336.725ZM110.709 335.824C111.461 335.824 111.837 335.5 111.837 334.85C111.837 334.201 111.461 333.876 110.709 333.876H108.46V335.824H110.709ZM123.08 332.902V340.102H122.025V332.902H123.08ZM116.253 339.127H118.07C118.539 339.127 118.915 338.996 119.198 338.732C119.486 338.463 119.63 338.119 119.63 337.699C119.63 337.279 119.486 336.938 119.198 336.674C118.915 336.41 118.534 336.278 118.055 336.278H116.253V339.127ZM119.974 335.963C120.443 336.403 120.677 336.984 120.677 337.707C120.677 338.424 120.445 339.003 119.981 339.442C119.518 339.882 118.88 340.102 118.07 340.102H115.206V332.902H116.253V335.304H118.055C118.866 335.304 119.505 335.524 119.974 335.963ZM127.306 334.564C126.783 335.116 126.522 335.763 126.522 336.505C126.522 337.243 126.783 337.89 127.306 338.446C127.833 338.998 128.421 339.274 129.071 339.274C129.691 339.274 130.245 339.005 130.733 338.468C131.227 337.926 131.473 337.272 131.473 336.505C131.473 335.734 131.227 335.08 130.733 334.542C130.245 334 129.691 333.729 129.071 333.729C128.421 333.729 127.833 334.008 127.306 334.564ZM126.522 338.974V343.251H125.475V332.902H126.522V334.03C126.542 334 126.576 333.957 126.625 333.898C126.678 333.834 126.783 333.729 126.939 333.583C127.101 333.437 127.274 333.307 127.459 333.195C127.645 333.078 127.882 332.975 128.17 332.887C128.463 332.794 128.763 332.748 129.071 332.748C129.989 332.748 130.792 333.117 131.48 333.854C132.174 334.591 132.521 335.475 132.521 336.505C132.521 337.531 132.176 338.412 131.488 339.149C130.799 339.882 129.994 340.248 129.071 340.248C128.763 340.248 128.465 340.204 128.177 340.116C127.894 340.028 127.655 339.923 127.459 339.801C127.264 339.679 127.093 339.557 126.947 339.435C126.805 339.308 126.698 339.201 126.625 339.113L126.522 338.974ZM135.97 341.149L136.344 340.102L133.414 332.902H134.542L136.871 338.754L139.193 332.902H140.321L137.018 341.149C136.72 341.911 136.4 342.45 136.058 342.768C135.716 343.09 135.287 343.251 134.769 343.251C134.608 343.251 134.452 343.239 134.3 343.214C134.154 343.19 134.044 343.163 133.971 343.134L133.868 343.104V342.123C134.117 342.221 134.366 342.272 134.615 342.277C135.25 342.277 135.702 341.901 135.97 341.149ZM146.393 340.102V337.179C145.841 337.58 145.167 337.78 144.371 337.78C143.551 337.78 142.882 337.523 142.364 337.011C141.852 336.493 141.595 335.824 141.595 335.004V332.902H142.643V335.004C142.643 335.521 142.811 335.951 143.148 336.293C143.485 336.63 143.917 336.798 144.444 336.798C144.806 336.798 145.147 336.745 145.47 336.637C145.797 336.525 146.031 336.41 146.173 336.293L146.393 336.125V332.902H147.447V340.102H146.393ZM150.897 338.08V340.102H149.85V332.902H150.897V336.725L154.493 332.902H155.775L152.999 335.824L156.075 340.102H154.874L152.325 336.579L150.897 338.08ZM158.998 335.978L161.773 335.524C161.773 334.992 161.605 334.56 161.268 334.228C160.931 333.896 160.499 333.729 159.972 333.729C159.591 333.729 159.232 333.817 158.895 333.993C158.563 334.164 158.321 334.34 158.17 334.521L157.943 334.777L157.269 334.103C157.298 334.064 157.337 334.015 157.386 333.957C157.44 333.893 157.552 333.786 157.723 333.634C157.899 333.478 158.082 333.339 158.272 333.217C158.463 333.095 158.712 332.987 159.02 332.895C159.332 332.797 159.649 332.748 159.972 332.748C160.792 332.748 161.471 333.014 162.008 333.546C162.55 334.079 162.821 334.738 162.821 335.524V340.102H161.773V339.127C161.754 339.157 161.722 339.198 161.678 339.252C161.639 339.301 161.546 339.391 161.4 339.523C161.258 339.65 161.104 339.765 160.938 339.867C160.772 339.965 160.553 340.053 160.279 340.131C160.011 340.209 159.732 340.248 159.444 340.248C158.727 340.248 158.121 340.036 157.628 339.611C157.14 339.186 156.896 338.7 156.896 338.153C156.896 337.553 157.076 337.069 157.438 336.703C157.799 336.332 158.319 336.09 158.998 335.978ZM159.444 339.274C160.123 339.274 160.68 339.052 161.114 338.607C161.554 338.163 161.773 337.587 161.773 336.879V336.425L159.298 336.879C158.399 337.05 157.948 337.475 157.943 338.153C157.943 338.476 158.075 338.744 158.338 338.959C158.607 339.169 158.976 339.274 159.444 339.274ZM165.436 338.754L166.49 339.354L164.762 342.05L164.088 341.676L165.436 338.754ZM177.594 334.777L174.964 338.08L172.342 334.777V340.102H171.295V332.902H172.115L174.964 336.498L177.813 332.902H178.641V340.102H177.594V334.777ZM181.798 332.902H187.049V340.102H185.995V333.876H182.845V335.004C182.845 336.063 182.792 336.947 182.684 337.655C182.582 338.358 182.425 338.896 182.215 339.267C182.005 339.633 181.773 339.889 181.52 340.036C181.266 340.177 180.958 340.248 180.597 340.248C180.475 340.248 180.35 340.236 180.223 340.211C180.101 340.187 180.011 340.16 179.952 340.131L179.85 340.102V339.054C180.05 339.152 180.25 339.201 180.45 339.201C180.758 339.201 181 339.113 181.175 338.937C181.351 338.761 181.498 338.356 181.615 337.721C181.737 337.086 181.798 336.181 181.798 335.004V332.902ZM191.275 334.564C190.753 335.116 190.492 335.763 190.492 336.505C190.492 337.243 190.753 337.89 191.275 338.446C191.803 338.998 192.391 339.274 193.041 339.274C193.661 339.274 194.215 339.005 194.703 338.468C195.196 337.926 195.443 337.272 195.443 336.505C195.443 335.734 195.196 335.08 194.703 334.542C194.215 334 193.661 333.729 193.041 333.729C192.391 333.729 191.803 334.008 191.275 334.564ZM190.492 338.974V343.251H189.444V332.902H190.492V334.03C190.511 334 190.545 333.957 190.594 333.898C190.648 333.834 190.753 333.729 190.909 333.583C191.07 333.437 191.244 333.307 191.429 333.195C191.615 333.078 191.852 332.975 192.14 332.887C192.433 332.794 192.733 332.748 193.041 332.748C193.958 332.748 194.762 333.117 195.45 333.854C196.144 334.591 196.49 335.475 196.49 336.505C196.49 337.531 196.146 338.412 195.458 339.149C194.769 339.882 193.963 340.248 193.041 340.248C192.733 340.248 192.435 340.204 192.147 340.116C191.864 340.028 191.625 339.923 191.429 339.801C191.234 339.679 191.063 339.557 190.917 339.435C190.775 339.308 190.667 339.201 190.594 339.113L190.492 338.974ZM205.038 339.127V341.903H203.99V340.102H198.211V341.903H197.164V339.127H197.684C197.713 339.098 197.757 339.049 197.816 338.981C197.879 338.908 197.984 338.747 198.131 338.498C198.277 338.249 198.407 337.98 198.519 337.692C198.636 337.399 198.739 337.011 198.827 336.527C198.919 336.039 198.966 335.531 198.966 335.004V332.902H203.91V339.127H205.038ZM200.013 333.876V335.004C200.013 335.824 199.913 336.576 199.713 337.26C199.513 337.943 199.312 338.427 199.112 338.71L198.812 339.127H202.862V333.876H200.013ZM209.161 335.905V334.85H210.362V329.599H214.266C215.238 329.599 216.029 329.896 216.639 330.492C217.254 331.088 217.562 331.842 217.562 332.755C217.562 333.664 217.254 334.416 216.639 335.011C216.024 335.607 215.233 335.905 214.266 335.905H211.49V337.179H215.167V338.227H211.49V340.102H210.362V338.227H209.161V337.179H210.362V335.905H209.161ZM214.266 330.653H211.49V334.85H214.266C214.896 334.85 215.416 334.65 215.826 334.25C216.236 333.849 216.441 333.351 216.441 332.755C216.441 332.155 216.236 331.654 215.826 331.254C215.416 330.854 214.896 330.653 214.266 330.653Z" fill="black"/>
<g opacity="0.2" filter="url(#filter0_f_856_246)">
<path d="M256.759 282.306L177.256 251.413L249.036 74.2344L256.759 282.306Z" fill="#1B4452"/>
<path d="M311.276 247.779L256.759 282.306L249.036 74.2344L311.276 247.779Z" fill="#1B4452"/>
</g>
<path d="M254.996 276.066L177.141 245.814L247.433 72.3066L254.996 276.066Z" fill="url(#paint0_linear_856_246)"/>
<path d="M308.383 242.254L254.997 276.066L247.434 72.3066L308.383 242.254Z" fill="url(#paint1_linear_856_246)"/>
<path d="M230.415 58.1318H229.246V54.7129H225.915V53.5352H229.246V50.1162H230.415V53.5352H233.746V54.7129H230.415V58.1318ZM237.877 46.7852H238.87V59.3887H237.517V49.3076H235.179V48.499C235.589 48.4873 235.958 48.4199 236.286 48.2969C236.614 48.168 236.875 48.0244 237.068 47.8662C237.262 47.7021 237.42 47.5381 237.543 47.374C237.672 47.21 237.76 47.0752 237.807 46.9697L237.877 46.7852ZM246.147 51.2852C247.36 51.2852 248.368 51.6836 249.171 52.4805C249.979 53.2715 250.384 54.2559 250.384 55.4336C250.384 56.6055 249.974 57.5869 249.153 58.3779C248.339 59.1689 247.308 59.5645 246.06 59.5645C244.812 59.5645 243.78 59.1689 242.966 58.3779C242.151 57.5869 241.744 56.6025 241.744 55.4248C241.744 54.9678 241.817 54.5166 241.964 54.0713C242.116 53.6201 242.263 53.2803 242.403 53.0518L242.641 52.7266L246.42 46.7852H247.773L244.803 51.4697C245.148 51.3467 245.597 51.2852 246.147 51.2852ZM248.222 57.5166C248.761 56.9893 249.03 56.2949 249.03 55.4336C249.03 54.5664 248.761 53.8691 248.222 53.3418C247.683 52.8145 246.962 52.5508 246.06 52.5508C245.163 52.5508 244.442 52.8145 243.897 53.3418C243.358 53.8691 243.089 54.5664 243.089 55.4336C243.089 56.2949 243.358 56.9893 243.897 57.5166C244.442 58.0439 245.163 58.3076 246.06 58.3076C246.962 58.3076 247.683 58.0439 248.222 57.5166ZM252.985 57.7715L254.251 58.4922L252.177 61.7266L251.368 61.2783L252.985 57.7715ZM260.456 54.8887C259.243 54.8887 258.235 54.4932 257.433 53.7021C256.63 52.9111 256.229 51.9268 256.229 50.749C256.229 49.5713 256.636 48.5869 257.45 47.7959C258.265 47.0049 259.296 46.6094 260.544 46.6094C261.792 46.6094 262.823 47.0049 263.638 47.7959C264.458 48.5869 264.868 49.5713 264.868 50.749C264.868 51.2061 264.792 51.6602 264.64 52.1113C264.487 52.5566 264.341 52.8936 264.2 53.1221L263.963 53.4473L260.184 59.3887H258.839L261.81 54.7129C261.458 54.8301 261.007 54.8887 260.456 54.8887ZM258.382 48.666C257.843 49.1934 257.573 49.8877 257.573 50.749C257.573 51.6104 257.843 52.3076 258.382 52.8408C258.927 53.3682 259.647 53.6318 260.544 53.6318C261.446 53.6318 262.167 53.3682 262.706 52.8408C263.245 52.3076 263.515 51.6104 263.515 50.749C263.515 49.8877 263.245 49.1934 262.706 48.666C262.167 48.1328 261.446 47.8662 260.544 47.8662C259.647 47.8662 258.927 48.1328 258.382 48.666ZM268.103 59.3887L276.021 46.7852H277.278L269.359 59.3887H268.103ZM271.328 47.4268C271.879 47.9717 272.154 48.6279 272.154 49.3955C272.154 50.1631 271.879 50.8223 271.328 51.373C270.783 51.918 270.127 52.1904 269.359 52.1904C268.592 52.1904 267.936 51.918 267.391 51.373C266.846 50.8223 266.573 50.1631 266.573 49.3955C266.573 48.6279 266.846 47.9717 267.391 47.4268C267.936 46.8818 268.592 46.6094 269.359 46.6094C270.127 46.6094 270.783 46.8818 271.328 47.4268ZM270.511 50.626C270.827 50.2979 270.985 49.8877 270.985 49.3955C270.985 48.9033 270.827 48.4961 270.511 48.1738C270.2 47.8516 269.816 47.6904 269.359 47.6904C268.908 47.6904 268.524 47.8516 268.208 48.1738C267.897 48.4961 267.742 48.9033 267.742 49.3955C267.742 49.8877 267.897 50.2979 268.208 50.626C268.524 50.9482 268.908 51.1094 269.359 51.1094C269.816 51.1094 270.2 50.9482 270.511 50.626ZM274.053 58.7471C273.508 58.2021 273.235 57.5459 273.235 56.7783C273.235 56.0107 273.508 55.3545 274.053 54.8096C274.598 54.2646 275.254 53.9922 276.021 53.9922C276.789 53.9922 277.445 54.2646 277.99 54.8096C278.541 55.3545 278.816 56.0107 278.816 56.7783C278.816 57.5459 278.541 58.2021 277.99 58.7471C277.445 59.292 276.789 59.5645 276.021 59.5645C275.254 59.5645 274.598 59.292 274.053 58.7471ZM274.87 55.5566C274.56 55.8789 274.404 56.2861 274.404 56.7783C274.404 57.2705 274.56 57.6807 274.87 58.0088C275.181 58.3311 275.564 58.4922 276.021 58.4922C276.479 58.4922 276.862 58.3311 277.173 58.0088C277.483 57.6807 277.639 57.2705 277.639 56.7783C277.639 56.2861 277.483 55.8789 277.173 55.5566C276.862 55.2285 276.479 55.0645 276.021 55.0645C275.564 55.0645 275.181 55.2285 274.87 55.5566Z" fill="#09C662"/>
<path d="M227.72 25.0742C228.575 25.8477 229.712 26.2344 231.13 26.2344C232.548 26.2344 233.679 25.8477 234.522 25.0742C235.378 24.2891 235.806 23.2988 235.806 22.1035C235.806 20.8965 235.378 19.9062 234.522 19.1328C233.679 18.3477 232.548 17.9551 231.13 17.9551C229.712 17.9551 228.575 18.3477 227.72 19.1328C226.876 19.9062 226.454 20.8965 226.454 22.1035C226.454 23.2988 226.876 24.2891 227.72 25.0742ZM225.909 17.4629C227.351 16.1152 229.091 15.4414 231.13 15.4414C233.169 15.4414 234.909 16.1152 236.351 17.4629C237.792 18.7988 238.513 20.3457 238.513 22.1035C238.513 22.7949 238.396 23.457 238.161 24.0898C237.938 24.7109 237.669 25.209 237.353 25.584C237.048 25.9473 236.737 26.2695 236.421 26.5508C236.116 26.8203 235.853 27.0195 235.63 27.1484L235.278 27.3242C235.396 27.3711 235.548 27.4355 235.735 27.5176C235.935 27.5996 236.28 27.8223 236.772 28.1855C237.265 28.5488 237.698 28.9473 238.073 29.3809C238.46 29.8027 238.806 30.4004 239.11 31.1738C239.427 31.9355 239.585 32.75 239.585 33.6172C239.585 35.7266 238.776 37.543 237.159 39.0664C235.542 40.5898 233.532 41.3516 231.13 41.3516C228.728 41.3516 226.718 40.5898 225.101 39.0664C223.483 37.543 222.675 35.7266 222.675 33.6172C222.675 32.75 222.821 31.9414 223.114 31.1914C223.419 30.4297 223.782 29.8262 224.204 29.3809C224.626 28.9238 225.042 28.5312 225.452 28.2031C225.874 27.875 226.243 27.6523 226.56 27.5352L226.999 27.3242C226.905 27.2773 226.782 27.2188 226.63 27.1484C226.489 27.0664 226.231 26.8789 225.856 26.5859C225.481 26.2812 225.147 25.9473 224.854 25.584C224.573 25.209 224.315 24.7109 224.081 24.0898C223.858 23.457 223.747 22.7949 223.747 22.1035C223.747 20.3457 224.468 18.7988 225.909 17.4629ZM235.19 29.9785C234.065 28.9238 232.712 28.3965 231.13 28.3965C229.548 28.3965 228.188 28.9238 227.052 29.9785C225.927 31.0332 225.364 32.2461 225.364 33.6172C225.364 35.0352 225.892 36.2598 226.946 37.291C228.013 38.3223 229.407 38.8379 231.13 38.8379C232.864 38.8379 234.259 38.3223 235.313 37.291C236.368 36.2598 236.896 35.0352 236.896 33.6172C236.896 32.2461 236.327 31.0332 235.19 29.9785ZM248.778 20.7324C247.325 22.584 246.599 25.1445 246.599 28.4141C246.599 31.6719 247.325 34.2266 248.778 36.0781C250.231 37.918 251.978 38.8379 254.017 38.8379C256.032 38.8379 257.761 37.9121 259.202 36.0605C260.644 34.1973 261.364 31.6426 261.364 28.3965C261.364 25.127 260.638 22.5723 259.185 20.7324C257.731 18.8809 255.997 17.9551 253.981 17.9551C251.966 17.9551 250.231 18.8809 248.778 20.7324ZM261.083 19.0098C263.075 21.377 264.071 24.5059 264.071 28.3965C264.071 32.2871 263.081 35.4219 261.101 37.8008C259.12 40.168 256.759 41.3516 254.017 41.3516C251.251 41.3516 248.872 40.168 246.88 37.8008C244.899 35.4219 243.909 32.2871 243.909 28.3965C243.909 24.5059 244.905 21.377 246.897 19.0098C248.89 16.6309 251.251 15.4414 253.981 15.4414C256.724 15.4414 259.091 16.6309 261.083 19.0098ZM283.864 41H267.657C267.657 39.3477 267.991 37.8359 268.659 36.4648C269.339 35.0938 270.177 33.9922 271.173 33.1602C272.169 32.3164 273.247 31.4727 274.407 30.6289C275.567 29.7852 276.646 29.0352 277.642 28.3789C278.638 27.7227 279.47 26.9082 280.138 25.9355C280.817 24.9629 281.157 23.9258 281.157 22.8242C281.157 21.3594 280.677 20.1816 279.716 19.291C278.755 18.4004 277.437 17.9551 275.761 17.9551C274.917 17.9551 274.149 18.1074 273.458 18.4121C272.778 18.7051 272.251 19.0625 271.876 19.4844C271.513 19.9062 271.208 20.3281 270.962 20.75C270.728 21.1719 270.563 21.5352 270.47 21.8398L270.364 22.2793L268.009 21.207C268.032 21.043 268.085 20.832 268.167 20.5742C268.261 20.3164 268.495 19.8594 268.87 19.2031C269.257 18.5469 269.708 17.9668 270.224 17.4629C270.739 16.959 271.489 16.4961 272.474 16.0742C273.458 15.6523 274.554 15.4414 275.761 15.4414C278.163 15.4414 280.114 16.1445 281.614 17.5508C283.114 18.957 283.864 20.7148 283.864 22.8242C283.864 24.043 283.583 25.1738 283.021 26.2168C282.47 27.2598 281.772 28.1387 280.929 28.8535C280.097 29.5566 279.153 30.2949 278.099 31.0684C277.044 31.8301 276.042 32.5391 275.093 33.1953C274.144 33.8398 273.259 34.625 272.438 35.5508C271.63 36.4766 271.056 37.4551 270.716 38.4863H283.864V41ZM289.243 37.7656L291.774 39.207L287.626 45.6758L286.009 44.7793L289.243 37.7656ZM310.302 33.0723H313.536V35.6035H310.302V41H307.595V35.6035H294.815V32.5449L306.892 15.793H310.302V33.0723ZM307.595 33.0723V18.8516L297.347 33.0723H307.595Z" fill="black"/>
<g opacity="0.2" filter="url(#filter1_f_856_246)">
<path d="M148.015 252.995L90.1797 281.468L94.1837 140.883L148.015 252.995Z" fill="#152C42"/>
<path d="M40.3525 256.109L90.1802 281.468L94.1842 140.883L40.3525 256.109Z" fill="#152C42"/>
</g>
<path d="M144.664 245.813L86.8281 274.286L90.8321 133.701L144.664 245.813Z" fill="url(#paint2_linear_856_246)"/>
<path d="M37 248.928L86.8276 274.286L90.8316 133.701L37 248.928Z" fill="url(#paint3_linear_856_246)"/>
<path d="M74.9453 91.2695C77.3711 91.2695 79.3867 92.0664 80.9922 93.6602C82.6094 95.2422 83.418 97.2109 83.418 99.5664C83.418 101.91 82.5977 103.873 80.957 105.455C79.3281 107.037 77.2656 107.828 74.7695 107.828C72.2734 107.828 70.2109 107.037 68.582 105.455C66.9531 103.873 66.1387 101.904 66.1387 99.5488C66.1387 98.6348 66.2852 97.7324 66.5781 96.8418C66.8828 95.9395 67.1758 95.2598 67.457 94.8027L67.9316 94.1523L75.4902 82.2695H78.1973L72.2559 91.6387C72.9473 91.3926 73.8438 91.2695 74.9453 91.2695ZM79.0938 103.732C80.1719 102.678 80.7109 101.289 80.7109 99.5664C80.7109 97.832 80.1719 96.4375 79.0938 95.3828C78.0156 94.3281 76.5742 93.8008 74.7695 93.8008C72.9766 93.8008 71.5352 94.3281 70.4453 95.3828C69.3672 96.4375 68.8281 97.832 68.8281 99.5664C68.8281 101.289 69.3672 102.678 70.4453 103.732C71.5352 104.787 72.9766 105.314 74.7695 105.314C76.5742 105.314 78.0156 104.787 79.0938 103.732ZM95.8281 98.4766C93.4023 98.4766 91.3867 97.6855 89.7812 96.1035C88.1758 94.5215 87.373 92.5527 87.373 90.1973C87.373 87.8418 88.1875 85.873 89.8164 84.291C91.4453 82.709 93.5078 81.918 96.0039 81.918C98.5 81.918 100.562 82.709 102.191 84.291C103.832 85.873 104.652 87.8418 104.652 90.1973C104.652 91.1113 104.5 92.0195 104.195 92.9219C103.891 93.8125 103.598 94.4863 103.316 94.9434L102.842 95.5938L95.2832 107.477H92.5938L98.5352 98.125C97.832 98.3594 96.9297 98.4766 95.8281 98.4766ZM91.6797 86.0312C90.6016 87.0859 90.0625 88.4746 90.0625 90.1973C90.0625 91.9199 90.6016 93.3145 91.6797 94.3809C92.7695 95.4355 94.2109 95.9629 96.0039 95.9629C97.8086 95.9629 99.25 95.4355 100.328 94.3809C101.406 93.3145 101.945 91.9199 101.945 90.1973C101.945 88.4746 101.406 87.0859 100.328 86.0312C99.25 84.9648 97.8086 84.4316 96.0039 84.4316C94.2109 84.4316 92.7695 84.9648 91.6797 86.0312ZM113.459 82.2695H115.445V107.477H112.738V87.3145H108.062V85.6973C108.883 85.6738 109.621 85.5391 110.277 85.293C110.934 85.0352 111.455 84.748 111.842 84.4316C112.229 84.1035 112.545 83.7754 112.791 83.4473C113.049 83.1191 113.225 82.8496 113.318 82.6387L113.459 82.2695ZM122.441 104.242L124.973 105.684L120.824 112.152L119.207 111.256L122.441 104.242ZM137.734 91.2695C140.16 91.2695 142.176 92.0664 143.781 93.6602C145.398 95.2422 146.207 97.2109 146.207 99.5664C146.207 101.91 145.387 103.873 143.746 105.455C142.117 107.037 140.055 107.828 137.559 107.828C135.062 107.828 133 107.037 131.371 105.455C129.742 103.873 128.928 101.904 128.928 99.5488C128.928 98.6348 129.074 97.7324 129.367 96.8418C129.672 95.9395 129.965 95.2598 130.246 94.8027L130.721 94.1523L138.279 82.2695H140.986L135.045 91.6387C135.736 91.3926 136.633 91.2695 137.734 91.2695ZM141.883 103.732C142.961 102.678 143.5 101.289 143.5 99.5664C143.5 97.832 142.961 96.4375 141.883 95.3828C140.805 94.3281 139.363 93.8008 137.559 93.8008C135.766 93.8008 134.324 94.3281 133.234 95.3828C132.156 96.4375 131.617 97.832 131.617 99.5664C131.617 101.289 132.156 102.678 133.234 103.732C134.324 104.787 135.766 105.314 137.559 105.314C139.363 105.314 140.805 104.787 141.883 103.732Z" fill="black"/>
<path opacity="0.2" fill-rule="evenodd" clip-rule="evenodd" d="M93.1357 283.267C93.1824 283.277 93.3164 283.466 93.4332 283.686C93.8827 284.532 95.4193 285.491 97.1871 286.029C99.0985 286.61 102.355 287.095 105.992 287.339C111.576 287.715 116.463 287.777 140.624 287.783C162.319 287.788 163.467 287.803 167.254 288.13C170.892 288.444 173.887 289.21 175.721 290.295C176.276 290.624 176.775 290.901 176.83 290.912C176.886 290.922 177.248 290.725 177.637 290.472C179.395 289.328 182.324 288.532 186.087 288.174C190.03 287.799 190.804 287.788 213.929 287.784C225.473 287.781 235.325 287.767 235.821 287.751C236.318 287.736 237.739 287.709 238.978 287.691C249.759 287.537 256.186 286.687 258.913 285.056C259.363 284.787 259.951 284.335 260.219 284.052C260.86 283.377 261.324 282.179 260.992 282.06C260.847 282.008 260.722 281.994 260.714 282.028C260.671 282.205 259.718 282.958 259.082 283.317C258.016 283.92 256.611 284.374 254.606 284.764C251.894 285.292 248.796 285.568 242.985 285.802C242.375 285.827 231.01 285.868 217.73 285.893C204.45 285.919 193.077 285.96 192.457 285.984C187.75 286.171 184.259 286.526 181.961 287.052C180.307 287.429 178.519 288.125 177.677 288.719C176.976 289.213 176.766 289.297 176.581 289.157C174.447 287.546 170.692 286.597 164.905 286.207C160.843 285.934 158.321 285.905 137.565 285.897C126.764 285.893 116.188 285.864 114.063 285.833C102.339 285.659 96.0017 284.657 93.8952 282.644C93.5424 282.306 93.1847 282.017 93.1007 282C92.9452 281.97 92.9799 283.232 93.1357 283.267Z" fill="#DCEEFF"/>
<rect x="91.1191" y="127.09" width="167.269" height="0.957848" transform="rotate(-21.805 91.1191 127.09)" fill="#09C662"/>
<circle cx="90.8794" cy="127.622" r="1.67623" fill="#09C662"/>
<circle cx="247.488" cy="64.8833" r="1.67623" fill="#09C662"/>
<defs>
<filter id="filter0_f_856_246" x="127.256" y="24.2344" width="234.021" height="308.071" filterUnits="userSpaceOnUse" color-interpolation-filters="sRGB">
<feFlood flood-opacity="0" result="BackgroundImageFix"/>
<feBlend mode="normal" in="SourceGraphic" in2="BackgroundImageFix" result="shape"/>
<feGaussianBlur stdDeviation="25" result="effect1_foregroundBlur_856_246"/>
</filter>
<filter id="filter1_f_856_246" x="0.352539" y="100.883" width="187.663" height="220.585" filterUnits="userSpaceOnUse" color-interpolation-filters="sRGB">
<feFlood flood-opacity="0" result="BackgroundImageFix"/>
<feBlend mode="normal" in="SourceGraphic" in2="BackgroundImageFix" result="shape"/>
<feGaussianBlur stdDeviation="20" result="effect1_foregroundBlur_856_246"/>
</filter>
<linearGradient id="paint0_linear_856_246" x1="245.209" y1="72.3066" x2="216.068" y2="276.066" gradientUnits="userSpaceOnUse">
<stop stop-color="#7ED6FC"/>
<stop offset="1" stop-color="#81E1FF"/>
</linearGradient>
<linearGradient id="paint1_linear_856_246" x1="250.993" y1="79.4249" x2="293.702" y2="269.838" gradientUnits="userSpaceOnUse">
<stop stop-color="#77DBFB"/>
<stop offset="1" stop-color="#60C9F6"/>
</linearGradient>
<linearGradient id="paint2_linear_856_246" x1="86.8281" y1="129.252" x2="117.97" y2="263.609" gradientUnits="userSpaceOnUse">
<stop stop-color="#64A3ED"/>
<stop offset="1" stop-color="#6BB2F3"/>
</linearGradient>
<linearGradient id="paint3_linear_856_246" x1="82.3787" y1="141.264" x2="79.2645" y2="271.617" gradientUnits="userSpaceOnUse">
<stop offset="0.0989583" stop-color="#84B8F6"/>
<stop offset="1" stop-color="#418FD8"/>
</linearGradient>
</defs>
</svg>
