<svg width="307" height="290" viewBox="0 0 307 290" fill="none" xmlns="http://www.w3.org/2000/svg">
<path opacity="0.7" d="M83.1621 268.338L87.4805 263.598H88.6172L85.4414 267.078L88.9219 272H87.8379L84.8379 267.74L83.1621 269.539V272H82.2598V263.598H83.1621V268.338ZM93.9375 270.699C94.3516 270.27 94.5586 269.744 94.5586 269.123C94.5586 268.498 94.3516 267.973 93.9375 267.547C93.5273 267.117 93.0332 266.902 92.4551 266.902C91.8809 266.902 91.3867 267.117 90.9727 267.547C90.5625 267.973 90.3574 268.496 90.3574 269.117C90.3574 269.734 90.5625 270.26 90.9727 270.693C91.3867 271.123 91.8809 271.338 92.4551 271.338C93.0332 271.338 93.5273 271.125 93.9375 270.699ZM90.375 271.25C89.8047 270.672 89.5195 269.963 89.5195 269.123C89.5195 268.279 89.8047 267.568 90.375 266.99C90.9492 266.408 91.6445 266.117 92.4609 266.117C93.2773 266.117 93.9707 266.408 94.541 266.99C95.1113 267.568 95.3965 268.279 95.3965 269.123C95.3965 269.963 95.1113 270.672 94.541 271.25C93.9707 271.828 93.2773 272.117 92.4609 272.117C91.6445 272.117 90.9492 271.828 90.375 271.25ZM101.039 272V269.48H97.7402V272H96.9023V266.24H97.7402V268.701H101.039V266.24H101.883V272H101.039ZM104.232 271.244C103.666 270.658 103.383 269.949 103.383 269.117C103.383 268.285 103.666 267.578 104.232 266.996C104.803 266.41 105.479 266.117 106.26 266.117C106.709 266.117 107.127 266.215 107.514 266.41C107.904 266.602 108.184 266.793 108.352 266.984L108.604 267.26L108 267.857C107.984 267.834 107.961 267.801 107.93 267.758C107.898 267.715 107.828 267.637 107.719 267.523C107.613 267.41 107.498 267.312 107.373 267.23C107.248 267.145 107.086 267.068 106.887 267.002C106.688 266.936 106.479 266.902 106.26 266.902C105.709 266.902 105.23 267.117 104.824 267.547C104.422 267.973 104.221 268.498 104.221 269.123C104.221 269.744 104.422 270.27 104.824 270.699C105.23 271.125 105.709 271.338 106.26 271.338C106.596 271.338 106.914 271.258 107.215 271.098C107.516 270.938 107.734 270.777 107.871 270.617L108.064 270.383L108.662 270.922C108.639 270.953 108.602 270.998 108.551 271.057C108.504 271.111 108.402 271.207 108.246 271.344C108.09 271.477 107.926 271.596 107.754 271.701C107.582 271.803 107.359 271.898 107.086 271.988C106.816 272.074 106.541 272.117 106.26 272.117C105.475 272.117 104.799 271.826 104.232 271.244ZM113.977 270.699C114.391 270.27 114.598 269.744 114.598 269.123C114.598 268.498 114.391 267.973 113.977 267.547C113.566 267.117 113.072 266.902 112.494 266.902C111.92 266.902 111.426 267.117 111.012 267.547C110.602 267.973 110.396 268.496 110.396 269.117C110.396 269.734 110.602 270.26 111.012 270.693C111.426 271.123 111.92 271.338 112.494 271.338C113.072 271.338 113.566 271.125 113.977 270.699ZM110.414 271.25C109.844 270.672 109.559 269.963 109.559 269.123C109.559 268.279 109.844 267.568 110.414 266.99C110.988 266.408 111.684 266.117 112.5 266.117C113.316 266.117 114.01 266.408 114.58 266.99C115.15 267.568 115.436 268.279 115.436 269.123C115.436 269.963 115.15 270.672 114.58 271.25C114.01 271.828 113.316 272.117 112.5 272.117C111.684 272.117 110.988 271.828 110.414 271.25ZM117.539 266.24H121.74V272H120.896V267.02H118.377V267.922C118.377 268.77 118.334 269.477 118.248 270.043C118.166 270.605 118.041 271.035 117.873 271.332C117.705 271.625 117.52 271.83 117.316 271.947C117.113 272.061 116.867 272.117 116.578 272.117C116.48 272.117 116.381 272.107 116.279 272.088C116.182 272.068 116.109 272.047 116.062 272.023L115.98 272V271.162C116.141 271.24 116.301 271.279 116.461 271.279C116.707 271.279 116.9 271.209 117.041 271.068C117.182 270.928 117.299 270.604 117.393 270.096C117.49 269.588 117.539 268.863 117.539 267.922V266.24ZM127.975 266.24H128.695V272H127.852V267.682L124.371 272H123.656V266.24H124.494V270.559L127.975 266.24ZM135.955 271.221V273.441H135.117V272H130.494V273.441H129.656V271.221H130.072C130.096 271.197 130.131 271.158 130.178 271.104C130.229 271.045 130.312 270.916 130.43 270.717C130.547 270.518 130.65 270.303 130.74 270.072C130.834 269.838 130.916 269.527 130.986 269.141C131.061 268.75 131.098 268.344 131.098 267.922V266.24H135.053V271.221H135.955ZM131.936 267.02V267.922C131.936 268.578 131.855 269.18 131.695 269.727C131.535 270.273 131.375 270.66 131.215 270.887L130.975 271.221H134.215V267.02H131.936ZM141.592 266.24H142.312V272H141.469V267.682L137.988 272H137.273V266.24H138.111V270.559L141.592 266.24ZM145.699 267.57C145.281 268.012 145.072 268.529 145.072 269.123C145.072 269.713 145.281 270.23 145.699 270.676C146.121 271.117 146.592 271.338 147.111 271.338C147.607 271.338 148.051 271.123 148.441 270.693C148.836 270.26 149.033 269.736 149.033 269.123C149.033 268.506 148.836 267.982 148.441 267.553C148.051 267.119 147.607 266.902 147.111 266.902C146.592 266.902 146.121 267.125 145.699 267.57ZM145.072 271.098V274.52H144.234V266.24H145.072V267.143C145.088 267.119 145.115 267.084 145.154 267.037C145.197 266.986 145.281 266.902 145.406 266.785C145.535 266.668 145.674 266.564 145.822 266.475C145.971 266.381 146.16 266.299 146.391 266.229C146.625 266.154 146.865 266.117 147.111 266.117C147.846 266.117 148.488 266.412 149.039 267.002C149.594 267.592 149.871 268.299 149.871 269.123C149.871 269.943 149.596 270.648 149.045 271.238C148.494 271.824 147.85 272.117 147.111 272.117C146.865 272.117 146.627 272.082 146.396 272.012C146.17 271.941 145.979 271.857 145.822 271.76C145.666 271.662 145.529 271.564 145.412 271.467C145.299 271.365 145.213 271.279 145.154 271.209L145.072 271.098ZM155.367 270.699C155.781 270.27 155.988 269.744 155.988 269.123C155.988 268.498 155.781 267.973 155.367 267.547C154.957 267.117 154.463 266.902 153.885 266.902C153.311 266.902 152.816 267.117 152.402 267.547C151.992 267.973 151.787 268.496 151.787 269.117C151.787 269.734 151.992 270.26 152.402 270.693C152.816 271.123 153.311 271.338 153.885 271.338C154.463 271.338 154.957 271.125 155.367 270.699ZM151.805 271.25C151.234 270.672 150.949 269.963 150.949 269.123C150.949 268.279 151.234 267.568 151.805 266.99C152.379 266.408 153.074 266.117 153.891 266.117C154.707 266.117 155.4 266.408 155.971 266.99C156.541 267.568 156.826 268.279 156.826 269.123C156.826 269.963 156.541 270.672 155.971 271.25C155.4 271.828 154.707 272.117 153.891 272.117C153.074 272.117 152.379 271.828 151.805 271.25ZM158.332 266.24H160.969C161.496 266.24 161.918 266.383 162.234 266.668C162.551 266.949 162.709 267.307 162.709 267.74C162.709 267.986 162.648 268.211 162.527 268.414C162.41 268.613 162.291 268.752 162.17 268.83L161.988 268.941C162.012 268.949 162.045 268.961 162.088 268.977C162.135 268.992 162.213 269.035 162.322 269.105C162.436 269.172 162.533 269.252 162.615 269.346C162.701 269.436 162.777 269.566 162.844 269.738C162.914 269.91 162.949 270.104 162.949 270.318C162.949 270.838 162.787 271.248 162.463 271.549C162.139 271.85 161.682 272 161.092 272H158.332V266.24ZM161.092 269.299H159.17V271.221H161.092C161.42 271.221 161.672 271.137 161.848 270.969C162.023 270.801 162.111 270.564 162.111 270.26C162.111 269.955 162.023 269.719 161.848 269.551C161.672 269.383 161.42 269.299 161.092 269.299ZM160.969 268.578C161.57 268.578 161.871 268.318 161.871 267.799C161.871 267.279 161.57 267.02 160.969 267.02H159.17V268.578H160.969ZM165.826 268.701L168.047 268.338C168.047 267.912 167.912 267.566 167.643 267.301C167.373 267.035 167.027 266.902 166.605 266.902C166.301 266.902 166.014 266.973 165.744 267.113C165.479 267.25 165.285 267.391 165.164 267.535L164.982 267.74L164.443 267.201C164.467 267.17 164.498 267.131 164.537 267.084C164.58 267.033 164.67 266.947 164.807 266.826C164.947 266.701 165.094 266.59 165.246 266.492C165.398 266.395 165.598 266.309 165.844 266.234C166.094 266.156 166.348 266.117 166.605 266.117C167.262 266.117 167.805 266.33 168.234 266.756C168.668 267.182 168.885 267.709 168.885 268.338V272H168.047V271.221C168.031 271.244 168.006 271.277 167.971 271.32C167.939 271.359 167.865 271.432 167.748 271.537C167.635 271.639 167.512 271.73 167.379 271.812C167.246 271.891 167.07 271.961 166.852 272.023C166.637 272.086 166.414 272.117 166.184 272.117C165.609 272.117 165.125 271.947 164.73 271.607C164.34 271.268 164.145 270.879 164.145 270.441C164.145 269.961 164.289 269.574 164.578 269.281C164.867 268.984 165.283 268.791 165.826 268.701ZM166.184 271.338C166.727 271.338 167.172 271.16 167.52 270.805C167.871 270.449 168.047 269.988 168.047 269.422V269.059L166.066 269.422C165.348 269.559 164.986 269.898 164.982 270.441C164.982 270.699 165.088 270.914 165.299 271.086C165.514 271.254 165.809 271.338 166.184 271.338ZM174.938 272V269.48H171.639V272H170.801V266.24H171.639V268.701H174.938V266.24H175.781V272H174.938ZM181.84 272V269.48H178.541V272H177.703V266.24H178.541V268.701H181.84V266.24H182.684V272H181.84ZM185.865 268.701L188.086 268.338C188.086 267.912 187.951 267.566 187.682 267.301C187.412 267.035 187.066 266.902 186.645 266.902C186.34 266.902 186.053 266.973 185.783 267.113C185.518 267.25 185.324 267.391 185.203 267.535L185.021 267.74L184.482 267.201C184.506 267.17 184.537 267.131 184.576 267.084C184.619 267.033 184.709 266.947 184.846 266.826C184.986 266.701 185.133 266.59 185.285 266.492C185.438 266.395 185.637 266.309 185.883 266.234C186.133 266.156 186.387 266.117 186.645 266.117C187.301 266.117 187.844 266.33 188.273 266.756C188.707 267.182 188.924 267.709 188.924 268.338V272H188.086V271.221C188.07 271.244 188.045 271.277 188.01 271.32C187.979 271.359 187.904 271.432 187.787 271.537C187.674 271.639 187.551 271.73 187.418 271.812C187.285 271.891 187.109 271.961 186.891 272.023C186.676 272.086 186.453 272.117 186.223 272.117C185.648 272.117 185.164 271.947 184.77 271.607C184.379 271.268 184.184 270.879 184.184 270.441C184.184 269.961 184.328 269.574 184.617 269.281C184.906 268.984 185.322 268.791 185.865 268.701ZM186.223 271.338C186.766 271.338 187.211 271.16 187.559 270.805C187.91 270.449 188.086 269.988 188.086 269.422V269.059L186.105 269.422C185.387 269.559 185.025 269.898 185.021 270.441C185.021 270.699 185.127 270.914 185.338 271.086C185.553 271.254 185.848 271.338 186.223 271.338ZM190.477 268.162C190.477 267.611 190.67 267.154 191.057 266.791C191.447 266.424 191.955 266.24 192.58 266.24H195.035V272H194.197V270.078H192.516L191.32 272H190.359L191.678 269.902C191.646 269.895 191.602 269.881 191.543 269.861C191.488 269.838 191.393 269.785 191.256 269.703C191.119 269.617 190.998 269.516 190.893 269.398C190.791 269.277 190.695 269.109 190.605 268.895C190.52 268.68 190.477 268.436 190.477 268.162ZM194.197 267.02H192.58C192.197 267.02 191.891 267.127 191.66 267.342C191.434 267.553 191.32 267.826 191.32 268.162C191.32 268.498 191.434 268.771 191.66 268.982C191.887 269.193 192.193 269.299 192.58 269.299H194.197V267.02ZM81.9023 281.24H84.5391C85.0664 281.24 85.4883 281.383 85.8047 281.668C86.1211 281.949 86.2793 282.307 86.2793 282.74C86.2793 282.986 86.2188 283.211 86.0977 283.414C85.9805 283.613 85.8613 283.752 85.7402 283.83L85.5586 283.941C85.582 283.949 85.6152 283.961 85.6582 283.977C85.7051 283.992 85.7832 284.035 85.8926 284.105C86.0059 284.172 86.1035 284.252 86.1855 284.346C86.2715 284.436 86.3477 284.566 86.4141 284.738C86.4844 284.91 86.5195 285.104 86.5195 285.318C86.5195 285.838 86.3574 286.248 86.0332 286.549C85.709 286.85 85.252 287 84.6621 287H81.9023V281.24ZM84.6621 284.299H82.7402V286.221H84.6621C84.9902 286.221 85.2422 286.137 85.418 285.969C85.5938 285.801 85.6816 285.564 85.6816 285.26C85.6816 284.955 85.5938 284.719 85.418 284.551C85.2422 284.383 84.9902 284.299 84.6621 284.299ZM84.5391 283.578C85.1406 283.578 85.4414 283.318 85.4414 282.799C85.4414 282.279 85.1406 282.02 84.5391 282.02H82.7402V283.578H84.5391ZM94.4355 281.24V287H93.5918V281.24H94.4355ZM88.9746 286.221H90.4277C90.8027 286.221 91.1035 286.115 91.3301 285.904C91.5605 285.689 91.6758 285.414 91.6758 285.078C91.6758 284.742 91.5605 284.469 91.3301 284.258C91.1035 284.047 90.7988 283.941 90.416 283.941H88.9746V286.221ZM91.9512 283.689C92.3262 284.041 92.5137 284.506 92.5137 285.084C92.5137 285.658 92.3281 286.121 91.957 286.473C91.5859 286.824 91.0762 287 90.4277 287H88.1367V281.24H88.9746V283.162H90.416C91.0645 283.162 91.5762 283.338 91.9512 283.689ZM97.8164 282.57C97.3984 283.012 97.1895 283.529 97.1895 284.123C97.1895 284.713 97.3984 285.23 97.8164 285.676C98.2383 286.117 98.709 286.338 99.2285 286.338C99.7246 286.338 100.168 286.123 100.559 285.693C100.953 285.26 101.15 284.736 101.15 284.123C101.15 283.506 100.953 282.982 100.559 282.553C100.168 282.119 99.7246 281.902 99.2285 281.902C98.709 281.902 98.2383 282.125 97.8164 282.57ZM97.1895 286.098V289.52H96.3516V281.24H97.1895V282.143C97.2051 282.119 97.2324 282.084 97.2715 282.037C97.3145 281.986 97.3984 281.902 97.5234 281.785C97.6523 281.668 97.791 281.564 97.9395 281.475C98.0879 281.381 98.2773 281.299 98.5078 281.229C98.7422 281.154 98.9824 281.117 99.2285 281.117C99.9629 281.117 100.605 281.412 101.156 282.002C101.711 282.592 101.988 283.299 101.988 284.123C101.988 284.943 101.713 285.648 101.162 286.238C100.611 286.824 99.9668 287.117 99.2285 287.117C98.9824 287.117 98.7441 287.082 98.5137 287.012C98.2871 286.941 98.0957 286.857 97.9395 286.76C97.7832 286.662 97.6465 286.564 97.5293 286.467C97.416 286.365 97.3301 286.279 97.2715 286.209L97.1895 286.098ZM104.748 287.838L105.047 287L102.703 281.24H103.605L105.469 285.922L107.326 281.24H108.229L105.586 287.838C105.348 288.447 105.092 288.879 104.818 289.133C104.545 289.391 104.201 289.52 103.787 289.52C103.658 289.52 103.533 289.51 103.412 289.49C103.295 289.471 103.207 289.449 103.148 289.426L103.066 289.402V288.617C103.266 288.695 103.465 288.736 103.664 288.74C104.172 288.74 104.533 288.439 104.748 287.838ZM113.086 287V284.662C112.645 284.982 112.105 285.143 111.469 285.143C110.812 285.143 110.277 284.938 109.863 284.527C109.453 284.113 109.248 283.578 109.248 282.922V281.24H110.086V282.922C110.086 283.336 110.221 283.68 110.49 283.953C110.76 284.223 111.105 284.357 111.527 284.357C111.816 284.357 112.09 284.314 112.348 284.229C112.609 284.139 112.797 284.047 112.91 283.953L113.086 283.818V281.24H113.93V287H113.086ZM116.689 285.383V287H115.852V281.24H116.689V284.299L119.566 281.24H120.592L118.371 283.578L120.832 287H119.871L117.832 284.182L116.689 285.383ZM123.17 283.701L125.391 283.338C125.391 282.912 125.256 282.566 124.986 282.301C124.717 282.035 124.371 281.902 123.949 281.902C123.645 281.902 123.357 281.973 123.088 282.113C122.822 282.25 122.629 282.391 122.508 282.535L122.326 282.74L121.787 282.201C121.811 282.17 121.842 282.131 121.881 282.084C121.924 282.033 122.014 281.947 122.15 281.826C122.291 281.701 122.438 281.59 122.59 281.492C122.742 281.395 122.941 281.309 123.188 281.234C123.438 281.156 123.691 281.117 123.949 281.117C124.605 281.117 125.148 281.33 125.578 281.756C126.012 282.182 126.229 282.709 126.229 283.338V287H125.391V286.221C125.375 286.244 125.35 286.277 125.314 286.32C125.283 286.359 125.209 286.432 125.092 286.537C124.979 286.639 124.855 286.73 124.723 286.812C124.59 286.891 124.414 286.961 124.195 287.023C123.98 287.086 123.758 287.117 123.527 287.117C122.953 287.117 122.469 286.947 122.074 286.607C121.684 286.268 121.488 285.879 121.488 285.441C121.488 284.961 121.633 284.574 121.922 284.281C122.211 283.984 122.627 283.791 123.17 283.701ZM123.527 286.338C124.07 286.338 124.516 286.16 124.863 285.805C125.215 285.449 125.391 284.988 125.391 284.422V284.059L123.41 284.422C122.691 284.559 122.33 284.898 122.326 285.441C122.326 285.699 122.432 285.914 122.643 286.086C122.857 286.254 123.152 286.338 123.527 286.338ZM128.32 285.922L129.164 286.402L127.781 288.559L127.242 288.26L128.32 285.922ZM138.047 282.74L135.943 285.383L133.846 282.74V287H133.008V281.24H133.664L135.943 284.117L138.223 281.24H138.885V287H138.047V282.74ZM141.41 281.24H145.611V287H144.768V282.02H142.248V282.922C142.248 283.77 142.205 284.477 142.119 285.043C142.037 285.605 141.912 286.035 141.744 286.332C141.576 286.625 141.391 286.83 141.188 286.947C140.984 287.061 140.738 287.117 140.449 287.117C140.352 287.117 140.252 287.107 140.15 287.088C140.053 287.068 139.98 287.047 139.934 287.023L139.852 287V286.162C140.012 286.24 140.172 286.279 140.332 286.279C140.578 286.279 140.771 286.209 140.912 286.068C141.053 285.928 141.17 285.604 141.264 285.096C141.361 284.588 141.41 283.863 141.41 282.922V281.24ZM148.992 282.57C148.574 283.012 148.365 283.529 148.365 284.123C148.365 284.713 148.574 285.23 148.992 285.676C149.414 286.117 149.885 286.338 150.404 286.338C150.9 286.338 151.344 286.123 151.734 285.693C152.129 285.26 152.326 284.736 152.326 284.123C152.326 283.506 152.129 282.982 151.734 282.553C151.344 282.119 150.9 281.902 150.404 281.902C149.885 281.902 149.414 282.125 148.992 282.57ZM148.365 286.098V289.52H147.527V281.24H148.365V282.143C148.381 282.119 148.408 282.084 148.447 282.037C148.49 281.986 148.574 281.902 148.699 281.785C148.828 281.668 148.967 281.564 149.115 281.475C149.264 281.381 149.453 281.299 149.684 281.229C149.918 281.154 150.158 281.117 150.404 281.117C151.139 281.117 151.781 281.412 152.332 282.002C152.887 282.592 153.164 283.299 153.164 284.123C153.164 284.943 152.889 285.648 152.338 286.238C151.787 286.824 151.143 287.117 150.404 287.117C150.158 287.117 149.92 287.082 149.689 287.012C149.463 286.941 149.271 286.857 149.115 286.76C148.959 286.662 148.822 286.564 148.705 286.467C148.592 286.365 148.506 286.279 148.447 286.209L148.365 286.098ZM160.002 286.221V288.441H159.164V287H154.541V288.441H153.703V286.221H154.119C154.143 286.197 154.178 286.158 154.225 286.104C154.275 286.045 154.359 285.916 154.477 285.717C154.594 285.518 154.697 285.303 154.787 285.072C154.881 284.838 154.963 284.527 155.033 284.141C155.107 283.75 155.145 283.344 155.145 282.922V281.24H159.1V286.221H160.002ZM155.982 282.02V282.922C155.982 283.578 155.902 284.18 155.742 284.727C155.582 285.273 155.422 285.66 155.262 285.887L155.021 286.221H158.262V282.02H155.982ZM163.301 283.643V282.799H164.262V278.598H167.385C168.162 278.598 168.795 278.836 169.283 279.312C169.775 279.789 170.021 280.393 170.021 281.123C170.021 281.85 169.775 282.451 169.283 282.928C168.791 283.404 168.158 283.643 167.385 283.643H165.164V284.662H168.105V285.5H165.164V287H164.262V285.5H163.301V284.662H164.262V283.643H163.301ZM167.385 279.441H165.164V282.799H167.385C167.889 282.799 168.305 282.639 168.633 282.318C168.961 281.998 169.125 281.6 169.125 281.123C169.125 280.643 168.961 280.242 168.633 279.922C168.305 279.602 167.889 279.441 167.385 279.441Z" fill="black"/>
<g opacity="0.2" filter="url(#filter0_f_856_685)">
<path d="M210.366 238.326L143.667 212.408L203.887 63.7637L210.366 238.326Z" fill="#1B4452"/>
<path d="M256.103 209.359L210.366 238.326L203.887 63.7637L256.103 209.359Z" fill="#1B4452"/>
</g>
<path d="M208.887 233.091L143.57 207.71L202.542 62.1465L208.887 233.091Z" fill="url(#paint0_linear_856_685)"/>
<path d="M253.676 204.724L208.887 233.091L202.542 62.1465L253.676 204.724Z" fill="url(#paint1_linear_856_685)"/>
<g opacity="0.2" filter="url(#filter1_f_856_685)">
<path d="M119.136 213.734L70.6152 237.622L73.9744 119.678L119.136 213.734Z" fill="#152C42"/>
<path d="M28.8125 216.347L70.6154 237.622L73.9746 119.678L28.8125 216.347Z" fill="#152C42"/>
</g>
<path d="M116.324 207.711L67.8027 231.598L71.1619 113.654L116.324 207.711Z" fill="url(#paint2_linear_856_685)"/>
<path d="M26 210.324L67.8029 231.598L71.1621 113.654L26 210.324Z" fill="url(#paint3_linear_856_685)"/>
<path d="M62.9371 94.0176H50.1383C50.1383 92.7127 50.402 91.5189 50.9295 90.4361C51.4663 89.3534 52.128 88.4835 52.9146 87.8264C53.7012 87.1601 54.5526 86.4938 55.4688 85.8275C56.385 85.1611 57.2364 84.5689 58.023 84.0506C58.8096 83.5324 59.4667 82.8892 59.9942 82.1211C60.5309 81.353 60.7993 80.534 60.7993 79.6641C60.7993 78.5073 60.4199 77.5772 59.661 76.8739C58.9022 76.1705 57.8611 75.8189 56.5377 75.8189C55.8714 75.8189 55.2652 75.9392 54.7192 76.1798C54.1824 76.4111 53.766 76.6934 53.4699 77.0266C53.183 77.3597 52.9424 77.6929 52.748 78.026C52.5629 78.3592 52.4334 78.6461 52.3593 78.8867L52.276 79.2337L50.4159 78.387C50.4344 78.2574 50.4761 78.0908 50.5409 77.8872C50.6149 77.6836 50.8 77.3227 51.0961 76.8045C51.4015 76.2862 51.7578 75.8281 52.165 75.4302C52.5722 75.0322 53.1645 74.6667 53.9418 74.3335C54.7192 74.0004 55.5845 73.8338 56.5377 73.8338C58.4348 73.8338 59.9757 74.3891 61.1602 75.4996C62.3448 76.6101 62.9371 77.9983 62.9371 79.6641C62.9371 80.6265 62.715 81.5196 62.2708 82.3432C61.8358 83.1668 61.2852 83.8609 60.6189 84.4254C59.9618 84.9807 59.2168 85.5637 58.3839 86.1745C57.551 86.776 56.7598 87.3359 56.0102 87.8542C55.2606 88.3632 54.5619 88.9832 53.9141 89.7143C53.2755 90.4454 52.8221 91.2181 52.5537 92.0325H62.9371V94.0176ZM75.1528 83.4954C75.2454 83.5139 75.3749 83.5555 75.5415 83.6203C75.7174 83.6758 76.0181 83.8285 76.4438 84.0784C76.8695 84.319 77.2443 84.6059 77.5682 84.939C77.8921 85.2722 78.1836 85.7534 78.4428 86.3827C78.7111 87.0028 78.8453 87.7015 78.8453 88.4788C78.8453 90.0521 78.2299 91.4171 76.9991 92.5739C75.7683 93.7214 74.158 94.2952 72.1683 94.2952C71.3169 94.2952 70.5071 94.1934 69.739 93.9898C68.9709 93.777 68.337 93.5317 67.8373 93.2541C67.3468 92.9672 66.9118 92.6757 66.5324 92.3796C66.153 92.0834 65.88 91.8335 65.7134 91.63L65.4774 91.3107L66.9072 89.8948C66.9442 89.9503 67.009 90.0382 67.1015 90.1585C67.1941 90.2696 67.4023 90.4639 67.7262 90.7415C68.0501 91.0099 68.4018 91.2551 68.7812 91.4773C69.1606 91.6901 69.6511 91.8844 70.2527 92.0603C70.8634 92.2269 71.502 92.3101 72.1683 92.3101C73.612 92.3101 74.7549 91.9446 75.597 91.2135C76.4392 90.4824 76.8603 89.5709 76.8603 88.4788C76.8603 87.4146 76.4253 86.5077 75.5554 85.7581C74.6947 85.0085 73.5657 84.6337 72.1683 84.6337H70.1694V82.6486H72.1683C73.3621 82.6486 74.2968 82.3293 74.9724 81.6908C75.6572 81.043 75.9996 80.1777 75.9996 79.0949C75.9996 78.151 75.6526 77.369 74.9585 76.7489C74.2737 76.1289 73.3436 75.8189 72.1683 75.8189C71.6223 75.8189 71.0855 75.8975 70.558 76.0549C70.0398 76.2029 69.6095 76.3926 69.2671 76.624C68.9247 76.8461 68.6239 77.0728 68.3648 77.3042C68.1149 77.5263 67.9298 77.716 67.8095 77.8733L67.6152 78.0954L66.1992 76.5268C66.2548 76.4528 66.3334 76.3556 66.4352 76.2353C66.537 76.115 66.773 75.9022 67.1432 75.5968C67.5134 75.2914 67.9113 75.023 68.337 74.7916C68.7627 74.551 69.3226 74.3335 70.0167 74.1392C70.7107 73.9356 71.428 73.8338 72.1683 73.8338C73.9081 73.8338 75.3379 74.3474 76.4577 75.3747C77.5775 76.3926 78.1374 77.6327 78.1374 79.0949C78.1374 79.7427 78.0309 80.3304 77.8181 80.8579C77.6145 81.3854 77.3646 81.8064 77.0685 82.1211C76.7724 82.4357 76.4808 82.7041 76.194 82.9262C75.9163 83.1391 75.6711 83.2918 75.4582 83.3843L75.1528 83.4954ZM93.6153 87.757H96.1695V89.7559H93.6153V94.0176H91.4775V89.7559H81.3857V87.3406L90.9223 74.1114H93.6153V87.757ZM91.4775 87.757V76.5268L83.3846 87.757H91.4775Z" fill="black"/>
<path d="M195.492 27.2316H198.047V29.2306H195.492V33.4922H193.355V29.2306H183.263V26.8152L192.799 13.586H195.492V27.2316ZM193.355 27.2316V16.0014L185.262 27.2316H193.355ZM204.599 17.4868C203.451 18.949 202.877 20.971 202.877 23.553C202.877 26.1257 203.451 28.1432 204.599 29.6054C205.746 31.0583 207.125 31.7848 208.735 31.7848C210.327 31.7848 211.692 31.0537 212.83 29.5915C213.969 28.12 214.538 26.1026 214.538 23.5391C214.538 20.9571 213.964 18.9397 212.817 17.4868C211.669 16.0246 210.299 15.2935 208.708 15.2935C207.116 15.2935 205.746 16.0246 204.599 17.4868ZM214.316 16.1264C215.889 17.9958 216.676 20.4667 216.676 23.5391C216.676 26.6116 215.894 29.0871 214.33 30.9657C212.766 32.8351 210.901 33.7698 208.735 33.7698C206.551 33.7698 204.673 32.8351 203.1 30.9657C201.536 29.0871 200.754 26.6116 200.754 23.5391C200.754 20.4667 201.54 17.9958 203.113 16.1264C204.687 14.2477 206.551 13.3084 208.708 13.3084C210.873 13.3084 212.743 14.2477 214.316 16.1264ZM223.922 17.4868C222.774 18.949 222.201 20.971 222.201 23.553C222.201 26.1257 222.774 28.1432 223.922 29.6054C225.069 31.0583 226.448 31.7848 228.059 31.7848C229.65 31.7848 231.015 31.0537 232.154 29.5915C233.292 28.12 233.861 26.1026 233.861 23.5391C233.861 20.9571 233.287 18.9397 232.14 17.4868C230.992 16.0246 229.623 15.2935 228.031 15.2935C226.439 15.2935 225.069 16.0246 223.922 17.4868ZM233.639 16.1264C235.212 17.9958 235.999 20.4667 235.999 23.5391C235.999 26.6116 235.217 29.0871 233.653 30.9657C232.089 32.8351 230.224 33.7698 228.059 33.7698C225.875 33.7698 223.996 32.8351 222.423 30.9657C220.859 29.0871 220.077 26.6116 220.077 23.5391C220.077 20.4667 220.863 17.9958 222.437 16.1264C224.01 14.2477 225.875 13.3084 228.031 13.3084C230.196 13.3084 232.066 14.2477 233.639 16.1264Z" fill="black"/>
<path d="M187.942 47.0511H187.059V44.4697H184.544V43.5805H187.059V40.9991H187.942V43.5805H190.457V44.4697H187.942V47.0511ZM193.576 38.4841H194.325V48H193.304V40.3886H191.538V39.7781C191.848 39.7692 192.127 39.7184 192.375 39.6255C192.622 39.5281 192.819 39.4197 192.965 39.3003C193.111 39.1764 193.231 39.0526 193.323 38.9287C193.421 38.8048 193.487 38.7031 193.523 38.6234L193.576 38.4841ZM199.82 41.8817C200.736 41.8817 201.497 42.1825 202.103 42.7842C202.713 43.3814 203.019 44.1246 203.019 45.0138C203.019 45.8986 202.709 46.6396 202.09 47.2369C201.475 47.8341 200.696 48.1327 199.754 48.1327C198.811 48.1327 198.033 47.8341 197.418 47.2369C196.803 46.6396 196.495 45.8964 196.495 45.0072C196.495 44.6621 196.551 44.3215 196.661 43.9853C196.776 43.6446 196.887 43.388 196.993 43.2155L197.172 42.97L200.026 38.4841H201.048L198.805 42.021C199.066 41.9281 199.404 41.8817 199.82 41.8817ZM201.386 46.5865C201.793 46.1884 201.997 45.6642 201.997 45.0138C201.997 44.3591 201.793 43.8326 201.386 43.4345C200.979 43.0363 200.435 42.8373 199.754 42.8373C199.077 42.8373 198.533 43.0363 198.121 43.4345C197.714 43.8326 197.511 44.3591 197.511 45.0138C197.511 45.6642 197.714 46.1884 198.121 46.5865C198.533 46.9847 199.077 47.1838 199.754 47.1838C200.435 47.1838 200.979 46.9847 201.386 46.5865ZM204.983 46.779L205.938 47.3231L204.372 49.7652L203.762 49.4267L204.983 46.779ZM210.623 44.6024C209.708 44.6024 208.947 44.3038 208.341 43.7066C207.734 43.1093 207.431 42.3661 207.431 41.4769C207.431 40.5877 207.739 39.8444 208.354 39.2472C208.969 38.65 209.747 38.3514 210.69 38.3514C211.632 38.3514 212.411 38.65 213.026 39.2472C213.645 39.8444 213.955 40.5877 213.955 41.4769C213.955 41.822 213.897 42.1648 213.782 42.5055C213.667 42.8417 213.556 43.0961 213.45 43.2686L213.271 43.5141L210.418 48H209.402L211.645 44.4697C211.38 44.5582 211.039 44.6024 210.623 44.6024ZM209.057 39.9042C208.65 40.3023 208.447 40.8266 208.447 41.4769C208.447 42.1272 208.65 42.6537 209.057 43.0562C209.469 43.4544 210.013 43.6535 210.69 43.6535C211.371 43.6535 211.915 43.4544 212.322 43.0562C212.729 42.6537 212.933 42.1272 212.933 41.4769C212.933 40.8266 212.729 40.3023 212.322 39.9042C211.915 39.5016 211.371 39.3003 210.69 39.3003C210.013 39.3003 209.469 39.5016 209.057 39.9042ZM216.397 48L222.376 38.4841H223.324L217.346 48H216.397ZM218.832 38.9685C219.248 39.3799 219.456 39.8754 219.456 40.455C219.456 41.0345 219.248 41.5322 218.832 41.948C218.421 42.3595 217.925 42.5652 217.346 42.5652C216.766 42.5652 216.27 42.3595 215.859 41.948C215.448 41.5322 215.242 41.0345 215.242 40.455C215.242 39.8754 215.448 39.3799 215.859 38.9685C216.27 38.5571 216.766 38.3514 217.346 38.3514C217.925 38.3514 218.421 38.5571 218.832 38.9685ZM218.215 41.384C218.454 41.1362 218.573 40.8266 218.573 40.455C218.573 40.0833 218.454 39.7759 218.215 39.5326C217.98 39.2892 217.691 39.1676 217.346 39.1676C217.005 39.1676 216.715 39.2892 216.476 39.5326C216.242 39.7759 216.125 40.0833 216.125 40.455C216.125 40.8266 216.242 41.1362 216.476 41.384C216.715 41.6273 217.005 41.749 217.346 41.749C217.691 41.749 217.98 41.6273 218.215 41.384ZM220.889 47.5156C220.478 47.1042 220.272 46.6087 220.272 46.0291C220.272 45.4496 220.478 44.9541 220.889 44.5427C221.301 44.1313 221.796 43.9255 222.376 43.9255C222.955 43.9255 223.451 44.1313 223.862 44.5427C224.278 44.9541 224.486 45.4496 224.486 46.0291C224.486 46.6087 224.278 47.1042 223.862 47.5156C223.451 47.927 222.955 48.1327 222.376 48.1327C221.796 48.1327 221.301 47.927 220.889 47.5156ZM221.506 45.1067C221.272 45.3501 221.155 45.6575 221.155 46.0291C221.155 46.4007 221.272 46.7104 221.506 46.9582C221.741 47.2015 222.03 47.3231 222.376 47.3231C222.721 47.3231 223.01 47.2015 223.245 46.9582C223.479 46.7104 223.597 46.4007 223.597 46.0291C223.597 45.6575 223.479 45.3501 223.245 45.1067C223.01 44.859 222.721 44.7351 222.376 44.7351C222.03 44.7351 221.741 44.859 221.506 45.1067Z" fill="#09C662"/>
<rect x="71.4033" y="108.107" width="140.331" height="0.803588" transform="rotate(-21.805 71.4033 108.107)" fill="#09C662"/>
<circle cx="71.2022" cy="108.555" r="1.40628" fill="#09C662"/>
<circle cx="202.589" cy="55.9199" r="1.40628" fill="#09C662"/>
<defs>
<filter id="filter0_f_856_685" x="93.667" y="13.7637" width="212.436" height="274.562" filterUnits="userSpaceOnUse" color-interpolation-filters="sRGB">
<feFlood flood-opacity="0" result="BackgroundImageFix"/>
<feBlend mode="normal" in="SourceGraphic" in2="BackgroundImageFix" result="shape"/>
<feGaussianBlur stdDeviation="25" result="effect1_foregroundBlur_856_685"/>
</filter>
<filter id="filter1_f_856_685" x="-11.1875" y="79.6777" width="170.324" height="197.943" filterUnits="userSpaceOnUse" color-interpolation-filters="sRGB">
<feFlood flood-opacity="0" result="BackgroundImageFix"/>
<feBlend mode="normal" in="SourceGraphic" in2="BackgroundImageFix" result="shape"/>
<feGaussianBlur stdDeviation="20" result="effect1_foregroundBlur_856_685"/>
</filter>
<linearGradient id="paint0_linear_856_685" x1="200.676" y1="62.1465" x2="176.229" y2="233.091" gradientUnits="userSpaceOnUse">
<stop stop-color="#7ED6FC"/>
<stop offset="1" stop-color="#81E1FF"/>
</linearGradient>
<linearGradient id="paint1_linear_856_685" x1="205.528" y1="68.1183" x2="241.359" y2="227.865" gradientUnits="userSpaceOnUse">
<stop stop-color="#77DBFB"/>
<stop offset="1" stop-color="#60C9F6"/>
</linearGradient>
<linearGradient id="paint2_linear_856_685" x1="67.8027" y1="109.922" x2="93.9296" y2="222.641" gradientUnits="userSpaceOnUse">
<stop stop-color="#64A3ED"/>
<stop offset="1" stop-color="#6BB2F3"/>
</linearGradient>
<linearGradient id="paint3_linear_856_685" x1="64.0705" y1="119.999" x2="61.4578" y2="229.359" gradientUnits="userSpaceOnUse">
<stop offset="0.0989583" stop-color="#84B8F6"/>
<stop offset="1" stop-color="#418FD8"/>
</linearGradient>
</defs>
</svg>
