<svg width="112" height="79" viewBox="0 0 112 79" fill="none" xmlns="http://www.w3.org/2000/svg">
<path d="M41.6423 15.9139L56.0202 7.61101L70.2874 15.9139L76.9297 12.0946L56.0202 0L35 12.0946L41.6423 15.9139Z" fill="url(#paint0_linear_802_3067)"/>
<mask id="mask0_802_3067" style="mask-type:alpha" maskUnits="userSpaceOnUse" x="35" y="0" width="42" height="16">
<path d="M41.6423 15.9139L56.0202 7.61101L70.2874 15.9139L76.9297 12.0946L56.0202 0L35 12.0946L41.6423 15.9139Z" fill="url(#paint1_linear_802_3067)"/>
</mask>
<g mask="url(#mask0_802_3067)">
<rect opacity="0.3" x="34.7246" y="1.66058" width="44.2822" height="8.85645" fill="white"/>
</g>
<path d="M56.0195 40.7812L70.3827 32.5583L70.2867 15.9139L76.929 12.0946L76.9983 36.3672L56.0195 48.4807L56.0195 40.7812Z" fill="url(#paint2_linear_802_3067)"/>
<mask id="mask1_802_3067" style="mask-type:alpha" maskUnits="userSpaceOnUse" x="56" y="12" width="21" height="37">
<path d="M56.0195 40.7812L70.3827 32.5583L70.2867 15.9139L76.929 12.0946L76.9983 36.3672L56.0195 48.4807L56.0195 40.7812Z" fill="url(#paint3_linear_802_3067)"/>
</mask>
<g mask="url(#mask1_802_3067)">
<path opacity="0.25" d="M56.0195 40.7812L70.3827 32.5583L70.2867 15.9139L76.929 12.0946L76.9872 29.0602L69.8716 40.5459L56.0195 48.8488V40.7812Z" fill="white"/>
</g>
<path d="M56.0195 40.78L41.6582 32.4891L41.6416 15.9139L34.9993 12.0946L35.0435 36.3792L56.0195 48.48L56.0195 40.78Z" fill="url(#paint4_linear_802_3067)"/>
<mask id="mask2_802_3067" style="mask-type:alpha" maskUnits="userSpaceOnUse" x="35" y="12" width="22" height="37">
<path d="M56.0195 40.78L41.6582 32.4891L41.6416 15.9139L34.9993 12.0946L35.0435 36.3792L56.0195 48.48L56.0195 40.78Z" fill="url(#paint5_linear_802_3067)"/>
</mask>
<g mask="url(#mask2_802_3067)">
<path opacity="0.18" d="M61.5723 39.3888L43.4197 33.5238V23.9401L35.0029 19.0967L35.0588 36.2756L57.4208 50.6478L61.5723 39.3888Z" fill="url(#paint6_linear_802_3067)"/>
</g>
<path d="M44.8278 30.5935L56.0229 24.1421V11.0705L44.6895 17.6039V30.671L44.8278 30.5935Z" fill="url(#paint7_linear_802_3067)"/>
<mask id="mask3_802_3067" style="mask-type:alpha" maskUnits="userSpaceOnUse" x="44" y="11" width="13" height="20">
<path d="M44.8278 30.5935L56.0229 24.1421V11.0705L44.6895 17.6039V30.671L44.8278 30.5935Z" fill="url(#paint8_linear_802_3067)"/>
</mask>
<g mask="url(#mask3_802_3067)">
<path opacity="0.32" d="M56.0229 24.1421V12.4544L44.6895 27.6764V30.7208L56.0229 24.1421Z" fill="white"/>
</g>
<path d="M67.2425 30.6046L56.0474 24.1421V11.0706L67.3809 17.604L67.3587 30.671L67.2425 30.6046Z" fill="url(#paint9_linear_802_3067)"/>
<mask id="mask4_802_3067" style="mask-type:alpha" maskUnits="userSpaceOnUse" x="56" y="11" width="12" height="20">
<path d="M67.2425 30.6046L56.0474 24.1421V11.0706L67.3809 17.604L67.3587 30.671L67.2425 30.6046Z" fill="url(#paint10_linear_802_3067)"/>
</mask>
<g mask="url(#mask4_802_3067)">
<path opacity="0.17" d="M67.2425 30.6046L56.0474 24.1421V11.0706L67.3809 17.604L67.3587 30.671L67.2425 30.6046Z" fill="white"/>
</g>
<path d="M44.6895 30.6682L56.0229 24.1421L67.3343 30.6682L56.0229 37.2137L44.6895 30.6682Z" fill="url(#paint11_linear_802_3067)"/>
<mask id="mask5_802_3067" style="mask-type:alpha" maskUnits="userSpaceOnUse" x="44" y="24" width="24" height="14">
<path d="M44.6895 30.6682L56.0229 24.1421L67.3343 30.6682L56.0229 37.2137L44.6895 30.6682Z" fill="url(#paint12_linear_802_3067)"/>
</mask>
<g mask="url(#mask5_802_3067)">
<path opacity="0.17" d="M44.6895 30.6682L56.0229 24.1421L67.3343 30.6682L56.0229 37.2137L44.6895 30.6682Z" fill="white"/>
</g>
<path d="M0.0920078 68.0149L0 67.9309V67.3763L0.0920078 67.2888C0.59404 67.2814 0.919472 67.2559 1.06442 67.2085C1.20947 67.1647 1.34026 67.0698 1.45335 66.9313C1.56659 66.7925 1.7964 66.3365 2.14301 65.5703L3.23213 63.133L6.05061 56.5475C6.58098 55.256 7.10802 53.968 7.63491 52.6765H8.30671L12.7307 63.4105L13.3213 64.8406C13.4945 65.2493 13.6925 65.6908 13.9189 66.1687C14.1416 66.643 14.2973 66.9275 14.3822 67.0115C14.4705 67.0955 14.5766 67.1647 14.704 67.2085C14.8313 67.2559 15.1176 67.2814 15.5597 67.2888L15.6411 67.3763V67.9309L15.5597 68.0149C14.8277 67.9528 14.1665 67.9199 13.5794 67.9199C12.4336 67.9564 11.2879 67.9892 10.1421 68.0149L10.0573 67.9309V67.3763L10.1421 67.2888C10.9166 67.2742 11.3974 67.2414 11.592 67.1867C11.7865 67.1355 11.882 67.0115 11.882 66.818C11.882 66.6612 11.8325 66.4569 11.737 66.1978L10.4639 62.9397H4.46283L3.33475 65.6761C3.13313 66.1687 3.03419 66.5262 3.03419 66.7561C3.03419 66.9349 3.12604 67.0662 3.31352 67.15C3.50089 67.2376 3.97122 67.2814 4.72444 67.2888L4.81645 67.3763V67.9309L4.73158 68.0149C3.8404 67.9601 3.06238 67.9309 2.39059 67.9309C1.63027 67.9309 0.866421 67.9601 0.0920078 68.0149ZM4.81645 62.0203H10.0573L7.45802 55.5733L4.81645 62.0203ZM19.0289 64.2532L19.1138 64.1693H19.6194L19.7043 64.2532C19.7396 65.1653 19.7857 65.7236 19.8422 65.9279C19.9024 66.1285 20.0897 66.3438 20.4045 66.5664C20.7156 66.7925 21.1366 66.9751 21.6563 67.1172C22.1798 67.2595 22.7066 67.3326 23.237 67.3326C23.9691 67.3326 24.6269 67.1939 25.2103 66.9166C25.7938 66.6357 26.2464 66.2306 26.5718 65.6908C26.8972 65.1544 27.0599 64.5486 27.0599 63.881C27.0599 63.4105 26.9821 62.9981 26.8264 62.6515C26.6709 62.3012 26.455 62.0203 26.1722 61.8123C25.8928 61.6007 25.5745 61.4439 25.2139 61.3418C24.8567 61.2359 24.3228 61.1264 23.6084 61.006C22.9188 60.8893 22.3777 60.7872 21.9888 60.6958C21.5998 60.6011 21.2108 60.4587 20.8217 60.2653C20.4363 60.0756 20.1144 59.8312 19.8528 59.5356C19.5947 59.2402 19.3896 58.8753 19.2339 58.4448C19.0784 58.0142 19.0007 57.5509 19.0007 57.062C19.0007 55.7266 19.4496 54.6358 20.3479 53.7856C21.2427 52.9319 22.4485 52.505 23.962 52.505C24.5632 52.505 25.2174 52.5816 25.9246 52.7348C26.6319 52.8881 27.279 53.1143 27.859 53.4134L27.9297 53.5448C27.7777 54.1979 27.6857 55.132 27.6504 56.3432L27.5584 56.4308H27.0174L26.936 56.3541C26.9219 55.5004 26.9007 54.9605 26.8723 54.7415C26.8442 54.5189 26.533 54.2453 25.9318 53.917C25.3306 53.5886 24.6764 53.4244 23.9726 53.4244C23.3855 53.4244 22.8375 53.5484 22.3247 53.7892C21.8155 54.03 21.4265 54.4132 21.1648 54.9312C20.9031 55.453 20.7723 55.9857 20.7723 56.5256C20.7723 56.9452 20.8501 57.3174 21.0092 57.642C21.1684 57.9669 21.3735 58.2222 21.6245 58.4119C21.8791 58.6017 22.1726 58.7404 22.505 58.8351C22.8411 58.9263 23.4528 59.0395 24.344 59.1781C25.5675 59.3532 26.4587 59.5684 27.0139 59.8238C27.569 60.0756 28.0146 60.4769 28.3505 61.0243C28.683 61.5752 28.8527 62.2355 28.8527 63.0128C28.8527 64.5305 28.2515 65.7965 27.0562 66.8071C25.8575 67.8214 24.404 68.325 22.6995 68.325C21.2674 68.325 20.0155 68.0623 18.937 67.5368L18.8768 67.3946C18.9439 66.9458 18.997 65.8986 19.0289 64.2532ZM35.9889 60.1924C37.7217 58.5762 38.9735 57.3685 39.7445 56.5731C40.5154 55.7777 41.1484 55.1246 41.6506 54.6065C42.1528 54.0921 42.4497 53.7564 42.5487 53.6069V52.9136L42.6513 52.826C43.1747 52.8553 43.7476 52.8698 44.3699 52.8698C44.5079 52.8698 45.056 52.8588 46.0073 52.837L46.1098 52.9355V53.4353L46.0285 53.5229C45.3849 53.5229 44.9464 53.5593 44.713 53.636C44.476 53.709 44.133 53.9389 43.6804 54.3183C43.2278 54.7014 42.7079 55.1684 42.1209 55.723L37.9269 59.6779L44.1648 65.6323C45.1656 66.5955 45.7244 67.1172 45.8481 67.2048C45.9683 67.2888 46.2195 67.3399 46.5978 67.3545L46.6721 67.4383V67.8871L46.5978 67.9747C46.1983 67.9454 45.7845 67.9309 45.3531 67.9309C45.0984 67.9309 44.5397 67.9454 43.6769 67.9747C43.0474 67.3618 42.4958 66.818 42.0255 66.3475C41.5515 65.8767 39.5394 63.9686 35.9889 60.6192V62.8959L35.9996 64.9792C36.0067 65.7855 36.0279 66.3073 36.0632 66.5407C36.095 66.778 36.1445 66.9349 36.2117 67.0115C36.2789 67.0917 36.4027 67.1574 36.5901 67.2085C36.7775 67.2633 37.2372 67.3033 37.9693 67.3326L38.0506 67.3946V67.9309L37.9693 68.0149C37.9338 68.0149 37.3257 67.9966 36.1444 67.9528C35.653 67.9382 35.271 67.9309 34.9952 67.9309C34.7795 67.9309 33.7929 67.9601 32.0318 68.0149L31.9469 67.9309V67.3946L32.0318 67.3326C32.6754 67.3033 33.1033 67.2669 33.3156 67.2267C33.5312 67.1829 33.6726 67.1282 33.7469 67.0589C33.8177 66.9932 33.8777 66.8473 33.9237 66.6283C33.9661 66.4058 33.9944 65.9133 33.998 65.1508L34.0085 62.8959V57.9485L33.991 55.8615C33.9839 55.0516 33.9626 54.5263 33.9308 54.2928C33.9024 54.0555 33.853 53.8987 33.7859 53.8221C33.7222 53.7419 33.5949 53.6797 33.411 53.6288C33.2235 53.5776 32.7638 53.5412 32.0318 53.5119L31.9469 53.4353V52.9027L32.0318 52.826L33.3261 52.8698C34.1748 52.899 34.7336 52.9136 34.9952 52.9136C35.2286 52.9136 36.2187 52.8843 37.9693 52.826L38.0506 52.9027V53.4353L37.9693 53.5119C37.4919 53.5265 37.1241 53.5484 36.866 53.574C36.6042 53.6031 36.4168 53.6579 36.3001 53.7345C36.1834 53.8149 36.1056 53.9972 36.0667 54.2855C36.0279 54.5737 36.0102 54.975 36.0102 55.4895L35.9889 57.9485V60.1924ZM49.6532 52.9027L49.7345 52.826C52.1038 52.8698 53.6209 52.8917 54.2822 52.8917C56.5489 52.8917 58.5646 52.8698 60.3328 52.826L60.3858 52.9027C60.2126 53.585 60.0853 54.6577 60.0039 56.1207L59.9403 56.2045H59.431L59.3392 56.1207C59.3461 56.055 59.3497 55.9966 59.3497 55.9491C59.3497 55.3436 59.3037 54.7671 59.2153 54.2161C58.7803 54.0155 58.1792 53.8878 57.4084 53.8258C56.6374 53.7673 56.0575 53.7345 55.672 53.7345C55.1274 53.7345 54.4272 53.7747 53.5784 53.8549L53.5396 55.5624L53.5078 57.518L53.4759 59.6889C54.222 59.7327 54.9081 59.7545 55.5376 59.7545C56.1741 59.7545 56.7046 59.7327 57.1325 59.6889C57.5604 59.6488 57.8114 59.6013 57.8857 59.5575C57.9564 59.5101 58.013 59.4189 58.0483 59.2876C58.0873 59.1562 58.1191 58.9227 58.1473 58.5871L58.1898 57.9267L58.2712 57.8391H58.7485L58.8334 57.9267C58.8193 58.7037 58.8015 59.4846 58.7803 60.2653L58.8334 62.6734L58.7485 62.7574H58.2712L58.1898 62.6734L58.1155 62.0313C58.0554 61.5314 58.0095 61.2359 57.9812 61.1374C57.9565 61.0426 57.8892 60.9586 57.7902 60.8856C57.6912 60.8163 57.4331 60.7579 57.0193 60.7142C56.6056 60.674 56.0362 60.6521 55.3113 60.6521C54.9081 60.6521 54.2963 60.6703 53.4759 60.7068C53.4406 61.3051 53.4229 62.3012 53.4229 63.6987C53.4229 65.1946 53.4406 66.2963 53.4759 67.0005H55.382C57.0617 67.0005 58.1085 66.9786 58.5328 66.9384C58.9537 66.8947 59.3533 66.7889 59.7351 66.6283C59.7953 66.4641 59.8979 66.0847 60.0393 65.49C60.1807 64.8916 60.2621 64.5196 60.2834 64.3699L60.3858 64.297H60.8845L60.9658 64.3699C60.9057 64.6764 60.8421 65.2127 60.7854 65.9753C60.7254 66.7378 60.697 67.3909 60.697 67.9309L60.6228 68.0149C59.3037 67.9747 57.578 67.9528 55.4457 67.9528L52.6273 67.9309C51.9694 67.9309 51.2869 67.9601 50.5762 68.0149L50.4913 67.9309V67.577L50.5762 67.4711C50.9829 67.2559 51.2162 67.1245 51.2729 67.0698C51.3329 67.0188 51.3825 66.3948 51.4178 65.1981C51.4568 64.005 51.4743 63.0966 51.4743 62.469V58.5469L51.4673 56.1207C51.4673 55.5916 51.4602 55.1611 51.4461 54.8327C51.4319 54.5006 51.4072 54.2636 51.3718 54.1212C51.3364 53.9789 51.2976 53.8768 51.2551 53.8221C51.2092 53.7637 51.135 53.7164 51.0358 53.6762C50.9368 53.636 50.7636 53.6031 50.5232 53.574L49.7345 53.5119L49.6532 53.4353V52.9027ZM64.3111 52.9027L64.3961 52.826C66.1075 52.8843 67.0977 52.9136 67.3594 52.9136C67.5929 52.9136 68.583 52.8843 70.3334 52.826L70.4148 52.9027V53.4353L70.3334 53.5119C69.8561 53.5265 69.4882 53.5484 69.2301 53.574C68.9685 53.6031 68.7809 53.6579 68.6642 53.7345C68.5477 53.8149 68.4697 53.9972 68.4309 54.2855C68.392 54.5737 68.3743 54.975 68.3743 55.4895L68.353 57.9485V62.6734C68.353 63.8555 68.3602 64.68 68.3743 65.1508L68.4273 67.0005H70.5385C72.2253 67.0005 73.2755 66.9786 73.6929 66.9384C74.1101 66.8947 74.5133 66.7889 74.9023 66.6283C74.9766 66.4496 75.0862 66.0373 75.2276 65.3988C75.369 64.7567 75.4433 64.3846 75.4504 64.2861L75.5424 64.2021H76.0516L76.1224 64.2861C76.0693 64.5706 76.0092 65.1215 75.9526 65.9424C75.8925 66.7635 75.8642 67.4237 75.8642 67.9309L75.7828 68.0149C74.4709 67.9747 72.7452 67.9528 70.6128 67.9528L67.5857 67.9309C66.8962 67.9309 66.1924 67.9601 65.4746 68.0149L65.3896 67.9309V67.577L65.4746 67.4711C65.9025 67.2414 66.1359 67.1027 66.1783 67.0553C66.2171 67.0041 66.2632 66.5445 66.3056 65.6761C66.3516 64.8078 66.3728 63.757 66.3728 62.5347V57.9485L66.3551 55.8615C66.3479 55.0516 66.3269 54.5263 66.295 54.2928C66.2667 54.0555 66.2171 53.8987 66.15 53.8221C66.0863 53.7419 65.959 53.6797 65.7717 53.6288C65.5878 53.5776 65.128 53.5412 64.3961 53.5119L64.3111 53.4353V52.9027ZM79.3439 52.9027L79.4288 52.826C81.1403 52.8843 82.1304 52.9136 82.3922 52.9136C82.6256 52.9136 83.6158 52.8843 85.3662 52.826L85.4476 52.9027V53.4353L85.3662 53.5119C84.8888 53.5265 84.521 53.5484 84.2628 53.574C84.0012 53.6031 83.8137 53.6579 83.697 53.7345C83.5804 53.8149 83.5025 53.9972 83.4637 54.2855C83.4248 54.5737 83.407 54.975 83.407 55.4895L83.3858 57.9485V62.6734C83.3858 63.8555 83.3929 64.68 83.407 65.1508L83.4601 67.0005H85.5713C87.2581 67.0005 88.3083 66.9786 88.7257 66.9384C89.1429 66.8947 89.5461 66.7889 89.9351 66.6283C90.0094 66.4496 90.119 66.0373 90.2604 65.3988C90.4018 64.7567 90.4761 64.3846 90.4832 64.2861L90.5752 64.2021H91.0844L91.1551 64.2861C91.1021 64.5706 91.0419 65.1215 90.9854 65.9424C90.9252 66.7635 90.897 67.4237 90.897 67.9309L90.8156 68.0149C89.5037 67.9747 87.778 67.9528 85.6455 67.9528L82.6185 67.9309C81.9289 67.9309 81.2252 67.9601 80.5073 68.0149L80.4224 67.9309V67.577L80.5073 67.4711C80.9352 67.2414 81.1686 67.1027 81.2111 67.0553C81.2499 67.0041 81.2959 66.5445 81.3384 65.6761C81.3843 64.8078 81.4056 63.757 81.4056 62.5347V57.9485L81.3878 55.8615C81.3807 55.0516 81.3596 54.5263 81.3278 54.2928C81.2994 54.0555 81.2499 53.8987 81.1828 53.8221C81.1191 53.7419 80.9917 53.6797 80.8044 53.6288C80.6205 53.5776 80.1608 53.5412 79.4288 53.5119L79.3439 53.4353V52.9027ZM94.451 68.0149L94.3589 67.9309V67.3763L94.451 67.2888C94.953 67.2814 95.2784 67.2559 95.4234 67.2085C95.5684 67.1647 95.6992 67.0698 95.8123 66.9313C95.9255 66.7925 96.1553 66.3365 96.502 65.5703L97.5911 63.133L100.41 56.5475C100.94 55.256 101.467 53.968 101.994 52.6765H102.666L107.09 63.4105L107.68 64.8406C107.853 65.2493 108.051 65.6908 108.278 66.1687C108.501 66.643 108.656 66.9275 108.741 67.0115C108.829 67.0955 108.936 67.1647 109.063 67.2085C109.19 67.2559 109.477 67.2814 109.919 67.2888L110 67.3763V67.9309L109.919 68.0149C109.187 67.9528 108.525 67.9199 107.938 67.9199C106.793 67.9564 105.647 67.9892 104.501 68.0149L104.416 67.9309V67.3763L104.501 67.2888C105.276 67.2742 105.756 67.2414 105.951 67.1867C106.145 67.1355 106.241 67.0115 106.241 66.818C106.241 66.6612 106.191 66.4569 106.096 66.1978L104.823 62.9397H98.8218L97.6937 65.6761C97.4921 66.1687 97.3931 66.5262 97.3931 66.7561C97.3931 66.9349 97.485 67.0662 97.6725 67.15C97.8598 67.2376 98.3302 67.2814 99.0834 67.2888L99.1754 67.3763V67.9309L99.0905 68.0149C98.1993 67.9601 97.4213 67.9309 96.7495 67.9309C95.9892 67.9309 95.2254 67.9601 94.451 68.0149ZM99.1754 62.0203H104.416L101.817 55.5733L99.1754 62.0203Z" fill="#006293"/>
<path d="M0 74.0246L0.0218491 74.0046C0.658347 74.016 1.06573 74.0216 1.24347 74.0216C1.85228 74.0216 2.39376 74.016 2.86874 74.0046L2.88289 74.0246C2.83651 74.2021 2.80219 74.4815 2.7804 74.8623L2.76327 74.8841H2.62647L2.60171 74.8623C2.60373 74.8452 2.60467 74.8301 2.60467 74.8176C2.60467 74.66 2.59221 74.5099 2.56852 74.3665C2.45171 74.3141 2.29014 74.281 2.08314 74.2648C1.87609 74.2497 1.72029 74.2411 1.61668 74.2411C1.47044 74.2411 1.28244 74.2515 1.05433 74.2724L1.04393 74.717L1.03533 75.2261L1.02675 75.7913C1.22729 75.8028 1.41153 75.8084 1.58057 75.8084C1.75163 75.8084 1.89416 75.8028 2.00895 75.7913C2.12396 75.7808 2.1914 75.7685 2.21134 75.7572C2.23032 75.7448 2.24559 75.721 2.25508 75.6869C2.26553 75.6526 2.27414 75.5918 2.2816 75.5045L2.29312 75.3325L2.3149 75.3097H2.4431L2.46585 75.3325C2.46215 75.5348 2.45749 75.7381 2.4517 75.9414L2.46585 76.5683L2.4431 76.5903H2.3149L2.29312 76.5683L2.27318 76.4011C2.25695 76.2711 2.24464 76.1941 2.23701 76.1684C2.23032 76.1438 2.21223 76.1218 2.18578 76.1028C2.15911 76.0849 2.08982 76.0696 1.97857 76.0583C1.86754 76.0478 1.71456 76.0421 1.5198 76.0421C1.41153 76.0421 1.24723 76.0469 1.02675 76.0564C1.01743 76.2122 1.01258 76.4714 1.01258 76.8353C1.01258 77.2247 1.01743 77.5115 1.02675 77.6949H1.53885C1.99013 77.6949 2.27114 77.6893 2.38515 77.6787C2.49825 77.6673 2.60563 77.6398 2.70812 77.598C2.7243 77.5554 2.75186 77.4566 2.78988 77.3017C2.8279 77.146 2.8497 77.049 2.85532 77.0101L2.88289 76.9911H3.01688L3.03867 77.0101C3.02266 77.0899 3.00547 77.2294 2.99025 77.428C2.97419 77.6265 2.96656 77.7966 2.96656 77.9372L2.94662 77.959C2.5922 77.9485 2.12879 77.9429 1.55598 77.9429L0.798851 77.9372C0.622177 77.9372 0.43888 77.9448 0.247886 77.959L0.225138 77.9372V77.8451L0.247886 77.8175C0.357226 77.7614 0.419842 77.7271 0.435117 77.713C0.451178 77.6997 0.464542 77.5373 0.474033 77.2257C0.484478 76.9151 0.489191 76.6786 0.489191 76.5152V75.494L0.487282 74.8623C0.487282 74.7246 0.485432 74.6125 0.481557 74.527C0.477794 74.4405 0.471107 74.3788 0.461616 74.3417C0.452069 74.3048 0.441635 74.2782 0.430291 74.2638C0.417992 74.2487 0.398043 74.2362 0.371368 74.2258C0.344749 74.2154 0.298309 74.2068 0.233671 74.1993L0.0218491 74.1831L0 74.1632V74.0246ZM3.9184 74.0246L3.94018 74.0046C4.40085 74.0197 4.6658 74.0274 4.73622 74.0274C4.7998 74.0274 5.06587 74.0197 5.53508 74.0046L5.55782 74.0246V74.1632L5.53508 74.1831C5.40687 74.1869 5.30798 74.1927 5.23862 74.1993C5.16932 74.2068 5.11899 74.2211 5.08675 74.2411C5.05542 74.262 5.03441 74.3095 5.02397 74.3845C5.01442 74.4595 5.00888 74.564 5.00888 74.698L5.00309 75.3382V76.2226C5.00309 76.5142 5.00976 76.728 5.02206 76.8648C5.03346 77.0006 5.06009 77.1156 5.09996 77.2095C5.13989 77.3026 5.2006 77.3833 5.28146 77.4517C5.36312 77.5192 5.47992 77.5743 5.63289 77.617C5.78497 77.6597 5.95675 77.6808 6.15056 77.6808C6.35385 77.6808 6.54485 77.6532 6.72243 77.5961C6.8991 77.5401 7.03399 77.4575 7.12716 77.3501C7.2192 77.2428 7.27997 77.1012 7.30946 76.9255C7.33793 76.7498 7.35223 76.5066 7.35223 76.195V75.3382C7.35223 75.1929 7.35023 74.9943 7.34556 74.7406C7.34073 74.488 7.32939 74.3417 7.31237 74.3037C7.29429 74.2658 7.26195 74.2374 7.21438 74.2174C7.16704 74.1984 7.03585 74.1869 6.82121 74.1831L6.79846 74.1604V74.0301L6.82121 74.0046C7.09571 74.0197 7.31518 74.0274 7.48045 74.0274C7.62102 74.0274 7.84049 74.0197 8.13678 74.0046L8.16249 74.0274V74.1604L8.13678 74.1831C7.96291 74.1869 7.84907 74.1936 7.79577 74.204C7.7436 74.2144 7.7065 74.2297 7.68471 74.2497C7.66382 74.2705 7.64764 74.3018 7.63719 74.3447C7.6277 74.3874 7.62005 74.5099 7.61629 74.7112L7.60865 75.3382V76.1837C7.60865 76.5217 7.59546 76.7878 7.56974 76.9825C7.54312 77.1772 7.48516 77.3377 7.39586 77.4622C7.30568 77.5876 7.19925 77.6931 7.07576 77.7776C6.95238 77.8611 6.79363 77.9267 6.60079 77.9723C6.40805 78.0169 6.20756 78.0398 5.99961 78.0398C5.74021 78.0398 5.5103 78.0113 5.31088 77.9543C5.11135 77.8963 4.95461 77.8203 4.83966 77.7253C4.72487 77.6313 4.64215 77.5315 4.59184 77.426C4.54152 77.3217 4.50913 77.1981 4.49402 77.0565C4.47964 76.9141 4.47217 76.6976 4.47217 76.4069V75.3382L4.46644 74.7949C4.46454 74.584 4.45969 74.4472 4.45116 74.3864C4.44273 74.3247 4.42932 74.2837 4.4122 74.2638C4.39428 74.243 4.36097 74.2269 4.31065 74.2135C4.26033 74.2003 4.13679 74.1907 3.94018 74.1831L3.9184 74.1632V74.0246ZM8.9414 74.0246L8.96415 74.0046C9.30329 74.0197 9.56728 74.0274 9.75642 74.0274C9.96628 74.0274 10.2493 74.0206 10.6056 74.0074C10.7377 74.0037 10.8326 74.0017 10.8926 74.0017C11.3618 74.0017 11.68 74.0872 11.8472 74.2582C12.0134 74.4291 12.0969 74.6305 12.0969 74.8651C12.0969 75.0209 12.056 75.1739 11.9745 75.3239C11.8926 75.4741 11.773 75.6023 11.6135 75.7097C11.4538 75.816 11.2336 75.8967 10.9533 75.95C11.0055 76.0221 11.0996 76.1475 11.2345 76.326L11.6295 76.8485C11.7579 77.0215 11.8947 77.2039 12.0419 77.3956C12.1882 77.5876 12.2832 77.6968 12.3259 77.7215C12.3676 77.7462 12.4047 77.7614 12.4351 77.7672C12.4664 77.7728 12.5149 77.7756 12.5814 77.7756L12.6043 77.7976V77.9286L12.5785 77.9543C12.4893 77.9429 12.3838 77.9372 12.2613 77.9372C12.1302 77.9372 11.9858 77.9429 11.83 77.9543C11.7018 77.7976 11.5004 77.5278 11.2259 77.1439C10.9067 76.6985 10.581 76.2862 10.2465 75.9053L10.2741 75.8198C10.371 75.8246 10.4461 75.8274 10.5001 75.8274C10.8212 75.8274 11.072 75.7504 11.2544 75.5966C11.4357 75.4428 11.5271 75.2291 11.5271 74.9564C11.5271 74.7112 11.4453 74.527 11.282 74.4016C11.1186 74.2763 10.8981 74.2135 10.6199 74.2135C10.4252 74.2135 10.2409 74.2402 10.069 74.2942C10.0404 74.3352 10.0272 74.6827 10.0272 75.3382V76.6263L10.03 77.1687C10.0318 77.3787 10.0367 77.5145 10.0462 77.5753C10.0557 77.6369 10.069 77.6778 10.087 77.6977C10.1042 77.7187 10.1383 77.7357 10.1886 77.7491C10.2379 77.7633 10.3615 77.7737 10.5581 77.7814L10.581 77.7976V77.9372L10.5581 77.959C10.5486 77.959 10.3862 77.9543 10.069 77.9429C9.93681 77.939 9.83431 77.9372 9.75923 77.9372C9.70223 77.9372 9.43723 77.9448 8.96415 77.959L8.9414 77.9372V77.7976L8.96415 77.7814C9.13611 77.7737 9.25106 77.7642 9.30902 77.7538C9.36602 77.7424 9.40499 77.7283 9.42397 77.7102C9.4439 77.6931 9.45997 77.655 9.47148 77.598C9.48384 77.5401 9.49035 77.4119 9.49237 77.2134L9.49517 76.6263V75.3382L9.4894 74.7949C9.48755 74.584 9.48288 74.4472 9.47429 74.3864C9.46575 74.3247 9.45346 74.2837 9.43537 74.2638C9.41825 74.243 9.3841 74.2269 9.33361 74.2135C9.28335 74.2003 9.16087 74.1907 8.96415 74.1831L8.9414 74.1632V74.0246ZM13.311 77.959L13.2863 77.9372V77.7927L13.311 77.77C13.4458 77.7681 13.5332 77.7614 13.5722 77.7491C13.6111 77.7376 13.6463 77.713 13.6767 77.6768C13.707 77.6408 13.7689 77.522 13.8619 77.3226L14.1545 76.6881L14.9115 74.9734C15.0541 74.6373 15.1955 74.3018 15.3371 73.9657H15.5175L16.706 76.7602L16.8645 77.1325C16.9112 77.239 16.9643 77.3539 17.0251 77.4784C17.085 77.6019 17.1268 77.6759 17.1495 77.6977C17.1733 77.7197 17.2018 77.7376 17.236 77.7491C17.2702 77.7614 17.3472 77.7681 17.4659 77.77L17.4877 77.7927V77.9372L17.4659 77.959C17.2693 77.9429 17.0915 77.9344 16.9339 77.9344C16.626 77.9439 16.3184 77.9524 16.0105 77.959L15.9878 77.9372V77.7927L16.0105 77.77C16.2187 77.7661 16.3478 77.7577 16.4 77.7434C16.4523 77.7301 16.4779 77.6977 16.4779 77.6474C16.4779 77.6066 16.4647 77.5534 16.439 77.486L16.097 76.6376H14.485L14.182 77.3501C14.128 77.4784 14.1013 77.5714 14.1013 77.6313C14.1013 77.6778 14.1259 77.712 14.1764 77.7338C14.2267 77.7566 14.353 77.7681 14.5554 77.77L14.58 77.7927V77.9372L14.5573 77.959C14.3179 77.9448 14.109 77.9372 13.9284 77.9372C13.7242 77.9372 13.519 77.9448 13.311 77.959ZM14.58 76.3983H15.9878L15.2897 74.7198L14.58 76.3983ZM18.3978 76.9797L18.4205 76.9578H18.5564L18.5791 76.9797C18.5886 77.2171 18.6009 77.3624 18.6162 77.4156C18.6323 77.4679 18.6827 77.524 18.7673 77.5818C18.8507 77.6408 18.9638 77.6882 19.1035 77.7253C19.2441 77.7623 19.3855 77.7814 19.5281 77.7814C19.7247 77.7814 19.9014 77.7452 20.0581 77.6731C20.2148 77.5999 20.3365 77.4944 20.4239 77.3539C20.5112 77.2143 20.5549 77.0565 20.5549 76.8828C20.5549 76.7602 20.534 76.6529 20.4923 76.5627C20.4505 76.4714 20.3925 76.3983 20.3165 76.3441C20.2415 76.2892 20.1559 76.2482 20.059 76.2217C19.9632 76.1941 19.8198 76.1656 19.6278 76.1343C19.4426 76.1039 19.2973 76.0773 19.1927 76.0535C19.0884 76.0288 18.9838 75.9917 18.8793 75.9414C18.7757 75.8921 18.6894 75.8283 18.619 75.7514C18.5496 75.6744 18.4947 75.5795 18.4528 75.4674C18.411 75.3554 18.3901 75.2347 18.3901 75.1074C18.3901 74.7597 18.5107 74.4757 18.752 74.2543C18.9924 74.032 19.3163 73.921 19.7228 73.921C19.8842 73.921 20.0599 73.9409 20.25 73.9808C20.44 74.0206 20.6137 74.0796 20.7695 74.1574L20.7886 74.1917C20.7477 74.3616 20.7231 74.6049 20.7136 74.9203L20.6889 74.943H20.5435L20.5217 74.9231C20.5179 74.7008 20.5122 74.5603 20.5046 74.5033C20.4969 74.4453 20.4134 74.3741 20.2519 74.2886C20.0905 74.2031 19.9148 74.1604 19.7256 74.1604C19.568 74.1604 19.4208 74.1927 19.2831 74.2553C19.1463 74.3181 19.0417 74.4177 18.9715 74.5526C18.9011 74.6885 18.866 74.8271 18.866 74.9678C18.866 75.077 18.8869 75.1739 18.9296 75.2585C18.9725 75.3429 19.0274 75.4094 19.0949 75.4588C19.1633 75.5082 19.2421 75.5443 19.3315 75.5691C19.4217 75.5928 19.5861 75.6222 19.8253 75.6584C20.154 75.7039 20.3935 75.76 20.5426 75.8265C20.6916 75.8921 20.8115 75.9964 20.9017 76.139C20.9909 76.2824 21.0365 76.4544 21.0365 76.6566C21.0365 77.0518 20.875 77.3815 20.5539 77.6446C20.2319 77.9086 19.8416 78.0398 19.3837 78.0398C18.999 78.0398 18.6627 77.9714 18.373 77.8345L18.3568 77.7976C18.3749 77.6808 18.3892 77.4081 18.3978 76.9797ZM21.8905 74.0046L22.2382 74.016C22.4662 74.0236 22.6163 74.0274 22.6866 74.0274C22.7492 74.0274 23.0153 74.0197 23.4854 74.0046L23.5072 74.0246V74.1632L23.4854 74.1831C23.3572 74.1869 23.2584 74.1927 23.189 74.1993C23.1187 74.2068 23.0684 74.2211 23.0371 74.2411C23.0058 74.262 22.9847 74.3095 22.9743 74.3845C22.9639 74.4595 22.9592 74.564 22.9592 74.698L22.9535 75.3382V76.6263L22.9563 77.1687C22.9583 77.3787 22.9639 77.5145 22.9734 77.5753C22.9819 77.6369 22.9952 77.6778 23.0133 77.6977C23.0313 77.7187 23.0646 77.7357 23.115 77.7491C23.1653 77.7633 23.2888 77.7737 23.4854 77.7814L23.5072 77.7976V77.9372L23.4854 77.959C23.476 77.959 23.3125 77.9543 22.9952 77.9429C22.8633 77.939 22.7606 77.9372 22.6866 77.9372C22.6286 77.9372 22.3636 77.9448 21.8905 77.959L21.8678 77.9372V77.7976L21.8905 77.7814C22.0635 77.7737 22.1783 77.7642 22.2353 77.7538C22.2933 77.7424 22.3312 77.7283 22.3512 77.7102C22.3702 77.6931 22.3864 77.655 22.3987 77.598C22.4101 77.5401 22.4177 77.4119 22.4187 77.2134L22.4215 76.6263V75.3382L22.4167 74.7949C22.4149 74.584 22.4091 74.4472 22.4006 74.3864C22.3931 74.3247 22.3797 74.2837 22.3616 74.2638C22.3446 74.243 22.3104 74.2269 22.261 74.2135C22.2106 74.2003 22.0872 74.1907 21.8905 74.1831L21.8678 74.1632V74.0246L21.8905 74.0046ZM24.3252 77.959L24.3005 77.9372V77.7927L24.3252 77.77C24.46 77.7681 24.5474 77.7614 24.5863 77.7491C24.6253 77.7376 24.6605 77.713 24.6909 77.6768C24.7213 77.6408 24.7831 77.522 24.8761 77.3226L25.1686 76.6881L25.9257 74.9734C26.0683 74.6373 26.2097 74.3018 26.3513 73.9657H26.5317L27.7202 76.7602L27.8788 77.1325C27.9254 77.239 27.9785 77.3539 28.0392 77.4784C28.0992 77.6019 28.1409 77.6759 28.1637 77.6977C28.1875 77.7197 28.216 77.7376 28.2501 77.7491C28.2844 77.7614 28.3614 77.7681 28.4801 77.77L28.5019 77.7927V77.9372L28.4801 77.959C28.2835 77.9429 28.1058 77.9344 27.9481 77.9344C27.6403 77.9439 27.3326 77.9524 27.0248 77.959L27.002 77.9372V77.7927L27.0248 77.77C27.2329 77.7661 27.362 77.7577 27.4142 77.7434C27.4666 77.7301 27.4921 77.6977 27.4921 77.6474C27.4921 77.6066 27.4788 77.5534 27.4532 77.486L27.1112 76.6376H25.4992L25.1962 77.3501C25.1422 77.4784 25.1155 77.5714 25.1155 77.6313C25.1155 77.6778 25.1402 77.712 25.1906 77.7338C25.241 77.7566 25.3672 77.7681 25.5696 77.77L25.5942 77.7927V77.9372L25.5715 77.959C25.332 77.9448 25.1231 77.9372 24.9426 77.9372C24.7384 77.9372 24.5332 77.9448 24.3252 77.959ZM25.5942 76.3983H27.002L26.3038 74.7198L25.5942 76.3983ZM29.3758 77.9571L29.3511 77.9314V77.8032L29.3758 77.7814C29.4899 77.7795 29.5801 77.7728 29.6475 77.7614C29.715 77.751 29.7586 77.732 29.7785 77.7063C29.7975 77.6808 29.8109 77.6388 29.8174 77.5808C29.8241 77.5229 29.8299 77.3938 29.8365 77.1914C29.8432 76.9892 29.8469 76.8448 29.8469 76.7574V74.509C29.8469 74.414 29.8289 74.3437 29.7947 74.2981C29.7605 74.2534 29.714 74.2239 29.654 74.2126C29.5952 74.2003 29.4936 74.1935 29.3511 74.1917L29.3293 74.169V74.0387L29.3511 74.0132C29.6076 74.0227 29.7748 74.0274 29.8545 74.0274C30.0426 74.0274 30.1965 74.0227 30.3172 74.0132L31.2044 75.1653L32.5095 76.802C32.6671 77.0006 32.8277 77.1886 32.9912 77.3662V75.2128C32.9912 75.1454 32.9883 75.0038 32.9817 74.7854C32.975 74.5679 32.9674 74.4291 32.9579 74.3712C32.9483 74.3123 32.9323 74.2734 32.9094 74.2525C32.8857 74.2325 32.842 74.2163 32.7784 74.2068C32.7146 74.1964 32.6273 74.1907 32.5181 74.1889L32.4963 74.166V74.0387L32.5181 74.0132C32.6681 74.0227 32.8828 74.0274 33.1612 74.0274C33.4148 74.0274 33.6 74.0227 33.7149 74.0132L33.7397 74.0387V74.166L33.7177 74.1889C33.5953 74.1907 33.5003 74.1973 33.4338 74.2098C33.3673 74.2211 33.3255 74.2411 33.3084 74.2696C33.2912 74.2972 33.2798 74.338 33.2733 74.3922C33.2675 74.4453 33.2608 74.5735 33.2543 74.7759C33.2476 74.9783 33.2448 75.1236 33.2448 75.2128V76.5342L33.2476 77.2997C33.2504 77.5505 33.2543 77.8013 33.258 78.054C33.166 78.0226 33.0054 77.9837 32.7764 77.9372L32.5789 77.7035L31.9861 76.9797L30.0996 74.6229V76.7574C30.0996 76.8428 30.1035 76.9948 30.1091 77.2134C30.1157 77.4327 30.1234 77.5648 30.1329 77.6114C30.1424 77.6578 30.1547 77.6902 30.1689 77.7072C30.1842 77.7253 30.2164 77.7415 30.2649 77.7566C30.3142 77.7709 30.416 77.7795 30.5698 77.7814L30.5926 77.8032V77.9344L30.5698 77.9571C30.4739 77.9439 30.3181 77.9372 30.1026 77.9372C29.826 77.9372 29.5838 77.9439 29.3758 77.9571ZM36.0744 74.0046L36.4221 74.016C36.65 74.0236 36.8002 74.0274 36.8705 74.0274C36.9331 74.0274 37.1992 74.0197 37.6693 74.0046L37.6911 74.0246V74.1632L37.6693 74.1831C37.541 74.1869 37.4423 74.1927 37.3729 74.1993C37.3026 74.2068 37.2523 74.2211 37.221 74.2411C37.1896 74.262 37.1686 74.3095 37.1582 74.3845C37.1477 74.4595 37.1431 74.564 37.1431 74.698L37.1373 75.3382V76.6263L37.1401 77.1687C37.1421 77.3787 37.1477 77.5145 37.1572 77.5753C37.1658 77.6369 37.1791 77.6778 37.1971 77.6977C37.2152 77.7187 37.2485 77.7357 37.2989 77.7491C37.3492 77.7633 37.4727 77.7737 37.6693 77.7814L37.6911 77.7976V77.9372L37.6693 77.959C37.6598 77.959 37.4964 77.9543 37.1791 77.9429C37.0471 77.939 36.9444 77.9372 36.8705 77.9372C36.8125 77.9372 36.5475 77.9448 36.0744 77.959L36.0517 77.9372V77.7976L36.0744 77.7814C36.2473 77.7737 36.3621 77.7642 36.4191 77.7538C36.4771 77.7424 36.5151 77.7283 36.535 77.7102C36.5541 77.6931 36.5703 77.655 36.5826 77.598C36.594 77.5401 36.6016 77.4119 36.6025 77.2134L36.6053 76.6263V75.3382L36.6006 74.7949C36.5988 74.584 36.593 74.4472 36.5845 74.3864C36.5769 74.3247 36.5636 74.2837 36.5455 74.2638C36.5285 74.243 36.4942 74.2269 36.4449 74.2135C36.3945 74.2003 36.271 74.1907 36.0744 74.1831L36.0517 74.1632V74.0246L36.0744 74.0046ZM38.5699 77.9571L38.5451 77.9314V77.8032L38.5699 77.7814C38.6839 77.7795 38.7741 77.7728 38.8416 77.7614C38.909 77.751 38.9526 77.732 38.9725 77.7063C38.9916 77.6808 39.0049 77.6388 39.0115 77.5808C39.0182 77.5229 39.024 77.3938 39.0305 77.1914C39.0372 76.9892 39.0409 76.8448 39.0409 76.7574V74.509C39.0409 74.414 39.0229 74.3437 38.9888 74.2981C38.9545 74.2534 38.9081 74.2239 38.8481 74.2126C38.7892 74.2003 38.6876 74.1935 38.5451 74.1917L38.5233 74.169V74.0387L38.5451 74.0132C38.8016 74.0227 38.9688 74.0274 39.0486 74.0274C39.2366 74.0274 39.3905 74.0227 39.5112 74.0132L40.3984 75.1653L41.7036 76.802C41.8612 77.0006 42.0218 77.1886 42.1852 77.3662V75.2128C42.1852 75.1454 42.1823 75.0038 42.1757 74.7854C42.169 74.5679 42.1614 74.4291 42.1519 74.3712C42.1424 74.3123 42.1263 74.2734 42.1035 74.2525C42.0798 74.2325 42.036 74.2163 41.9725 74.2068C41.9087 74.1964 41.8213 74.1907 41.7121 74.1889L41.6903 74.166V74.0387L41.7121 74.0132C41.8622 74.0227 42.0768 74.0274 42.3552 74.0274C42.6088 74.0274 42.794 74.0227 42.909 74.0132L42.9338 74.0387V74.166L42.9118 74.1889C42.7893 74.1907 42.6943 74.1973 42.6278 74.2098C42.5613 74.2211 42.5196 74.2411 42.5024 74.2696C42.4853 74.2972 42.4739 74.338 42.4674 74.3922C42.4616 74.4453 42.4549 74.5735 42.4483 74.7759C42.4416 74.9783 42.4389 75.1236 42.4389 75.2128V76.5342L42.4417 77.2997C42.4445 77.5505 42.4483 77.8013 42.4521 78.054C42.36 78.0226 42.1994 77.9837 41.9704 77.9372L41.7729 77.7035L41.1801 76.9797L39.2936 74.6229V76.7574C39.2936 76.8428 39.2975 76.9948 39.3031 77.2134C39.3098 77.4327 39.3174 77.5648 39.3269 77.6114C39.3364 77.6578 39.3488 77.6902 39.3629 77.7072C39.3782 77.7253 39.4104 77.7415 39.4589 77.7566C39.5083 77.7709 39.61 77.7795 39.7639 77.7814L39.7867 77.8032V77.9344L39.7639 77.9571C39.6679 77.9439 39.5121 77.9372 39.2966 77.9372C39.0201 77.9372 38.7778 77.9439 38.5699 77.9571ZM43.763 74.0246L43.7848 74.0046C44.1058 74.0197 44.3252 74.0274 44.442 74.0274L45.7444 73.9988C46.1159 73.9988 46.4199 74.0341 46.6572 74.1034C46.8948 74.1736 47.1056 74.2942 47.2898 74.4652C47.4751 74.6373 47.6148 74.8366 47.7106 75.0638C47.8057 75.2907 47.8541 75.5339 47.8541 75.7913C47.8541 76.0421 47.8105 76.29 47.7231 76.5342C47.6357 76.7792 47.5122 76.9987 47.3517 77.1923C47.1911 77.3861 47.0078 77.5429 46.8035 77.6617C46.5984 77.7804 46.3923 77.8593 46.1871 77.8991C45.981 77.939 45.7701 77.959 45.5554 77.959C45.4101 77.959 45.1374 77.9543 44.7366 77.9429C44.6054 77.939 44.5181 77.9372 44.4754 77.9372C44.3472 77.9372 44.1923 77.9448 44.0108 77.959L43.9881 77.9372V77.8451L44.0108 77.8175C44.12 77.7614 44.1828 77.7271 44.1979 77.713C44.2141 77.6997 44.2274 77.5373 44.2369 77.2257C44.2473 76.9151 44.2531 76.6786 44.2531 76.5152V75.494L44.2503 74.8623C44.2503 74.7246 44.2484 74.6125 44.2445 74.527C44.2407 74.4405 44.2341 74.3788 44.2246 74.3417C44.2151 74.3048 44.2046 74.2782 44.1932 74.2638C44.1809 74.2487 44.161 74.2362 44.1344 74.2258C44.1077 74.2154 44.0611 74.2068 43.9967 74.1993L43.7848 74.1831L43.763 74.1632V74.0246ZM44.7925 77.656C44.9816 77.693 45.2001 77.712 45.4462 77.712C45.8783 77.712 46.2242 77.6398 46.4834 77.4944C46.7418 77.3502 46.9356 77.1355 47.0638 76.8514C47.1911 76.5683 47.2558 76.2482 47.2558 75.8921C47.2558 75.3668 47.1151 74.9592 46.8349 74.6695C46.5547 74.3807 46.1139 74.2353 45.5107 74.2353C45.2619 74.2353 45.0224 74.2543 44.7925 74.2914C44.7774 74.5953 44.7698 74.9393 44.7698 75.3211V76.195L44.7756 77.0129C44.7756 77.1724 44.7811 77.3871 44.7925 77.656ZM48.7301 74.0246L48.7519 74.0046C49.2125 74.0197 49.4775 74.0274 49.5479 74.0274C49.6115 74.0274 49.8776 74.0197 50.3468 74.0046L50.3695 74.0246V74.1632L50.3468 74.1831C50.2186 74.1869 50.1196 74.1927 50.0503 74.1993C49.981 74.2068 49.9307 74.2211 49.8984 74.2411C49.8671 74.262 49.8461 74.3095 49.8357 74.3845C49.8261 74.4595 49.8205 74.564 49.8205 74.698L49.8148 75.3382V76.2226C49.8148 76.5142 49.8215 76.728 49.8338 76.8648C49.8451 77.0006 49.8718 77.1156 49.9116 77.2095C49.9515 77.3026 50.0123 77.3833 50.0932 77.4517C50.1748 77.5192 50.2916 77.5743 50.4446 77.617C50.5966 77.6597 50.7685 77.6808 50.9623 77.6808C51.1656 77.6808 51.3565 77.6532 51.5341 77.5961C51.7108 77.5401 51.8457 77.4575 51.9389 77.3501C52.0309 77.2428 52.0917 77.1012 52.1211 76.9255C52.1496 76.7498 52.1639 76.5066 52.1639 76.195V75.3382C52.1639 75.1929 52.1619 74.9943 52.1573 74.7406C52.1524 74.488 52.141 74.3417 52.1241 74.3037C52.106 74.2658 52.0736 74.2374 52.0261 74.2174C51.9787 74.1984 51.8475 74.1869 51.6329 74.1831L51.6101 74.1604V74.0301L51.6329 74.0046C51.9073 74.0197 52.1269 74.0274 52.2921 74.0274C52.4327 74.0274 52.6522 74.0197 52.9485 74.0046L52.9742 74.0274V74.1604L52.9485 74.1831C52.7746 74.1869 52.6607 74.1936 52.6075 74.204C52.5552 74.2144 52.5182 74.2297 52.4964 74.2497C52.4755 74.2705 52.4593 74.3018 52.4489 74.3447C52.4394 74.3874 52.4318 74.5099 52.428 74.7112L52.4204 75.3382V76.1837C52.4204 76.5217 52.4071 76.7878 52.3814 76.9825C52.3548 77.1772 52.2968 77.3377 52.2076 77.4622C52.1174 77.5876 52.011 77.6931 51.8874 77.7776C51.764 77.8611 51.6053 77.9267 51.4125 77.9723C51.2197 78.0169 51.0193 78.0398 50.8113 78.0398C50.5519 78.0398 50.322 78.0113 50.1226 77.9543C49.9231 77.8963 49.7663 77.8203 49.6514 77.7253C49.5365 77.6313 49.4538 77.5315 49.4035 77.426C49.3532 77.3217 49.3208 77.1981 49.3056 77.0565C49.2913 76.9141 49.2839 76.6976 49.2839 76.4069V75.3382L49.2781 74.7949C49.2762 74.584 49.2714 74.4472 49.2629 74.3864C49.2544 74.3247 49.241 74.2837 49.2239 74.2638C49.206 74.243 49.1727 74.2269 49.1223 74.2135C49.072 74.2003 48.9485 74.1907 48.7519 74.1831L48.7301 74.1632V74.0246ZM53.8557 76.9797L53.8784 76.9578H54.0143L54.037 76.9797C54.0466 77.2171 54.0589 77.3624 54.0742 77.4156C54.0903 77.4679 54.1406 77.524 54.2252 77.5818C54.3087 77.6408 54.4218 77.6882 54.5614 77.7253C54.7021 77.7623 54.8435 77.7814 54.986 77.7814C55.1827 77.7814 55.3593 77.7452 55.516 77.6731C55.6728 77.5999 55.7945 77.4944 55.8818 77.3539C55.9692 77.2143 56.0128 77.0565 56.0128 76.8828C56.0128 76.7602 55.992 76.6529 55.9502 76.5627C55.9084 76.4714 55.8505 76.3983 55.7745 76.3441C55.6994 76.2892 55.6138 76.2482 55.517 76.2217C55.4212 76.1941 55.2777 76.1656 55.0858 76.1343C54.9005 76.1039 54.7552 76.0773 54.6507 76.0535C54.5463 76.0288 54.4418 75.9917 54.3373 75.9414C54.2337 75.8921 54.1473 75.8283 54.077 75.7514C54.0076 75.6744 53.9526 75.5795 53.9107 75.4674C53.8689 75.3554 53.8481 75.2347 53.8481 75.1074C53.8481 74.7597 53.9687 74.4757 54.21 74.2543C54.4504 74.032 54.7742 73.921 55.1808 73.921C55.3422 73.921 55.5179 73.9409 55.708 73.9808C55.898 74.0206 56.0717 74.0796 56.2275 74.1574L56.2465 74.1917C56.2057 74.3616 56.1811 74.6049 56.1716 74.9203L56.1468 74.943H56.0015L55.9797 74.9231C55.9759 74.7008 55.9702 74.5603 55.9625 74.5033C55.9549 74.4453 55.8714 74.3741 55.7098 74.2886C55.5484 74.2031 55.3727 74.1604 55.1836 74.1604C55.026 74.1604 54.8787 74.1927 54.741 74.2553C54.6042 74.3181 54.4997 74.4177 54.4295 74.5526C54.359 74.6885 54.324 74.8271 54.324 74.9678C54.324 75.077 54.3449 75.1739 54.3876 75.2585C54.4304 75.3429 54.4854 75.4094 54.5528 75.4588C54.6212 75.5082 54.7 75.5443 54.7895 75.5691C54.8797 75.5928 55.044 75.6222 55.2833 75.6584C55.612 75.7039 55.8515 75.76 56.0005 75.8265C56.1496 75.8921 56.2694 75.9964 56.3596 76.139C56.4489 76.2824 56.4945 76.4544 56.4945 76.6566C56.4945 77.0518 56.333 77.3815 56.0119 77.6446C55.6899 77.9086 55.2995 78.0398 54.8417 78.0398C54.4569 78.0398 54.1207 77.9714 53.8309 77.8345L53.8148 77.7976C53.8328 77.6808 53.8472 77.4081 53.8557 76.9797ZM60.543 74.0046L60.5686 74.0301C60.5515 74.1964 60.543 74.488 60.543 74.9041L60.5211 74.9259H60.3901L60.3682 74.9013L60.3369 74.6447C60.3227 74.5079 60.3102 74.4235 60.3027 74.3931C60.2942 74.3626 60.2808 74.3398 60.2618 74.3266C60.2439 74.3123 60.1829 74.3009 60.0814 74.2914C59.9787 74.2819 59.8649 74.2772 59.7394 74.2772H59.2132C59.1979 74.6971 59.1903 74.9393 59.1903 75.0038V76.6263L59.1961 77.1687C59.1979 77.3787 59.2027 77.5145 59.2112 77.5771C59.2198 77.6388 59.2331 77.6798 59.2501 77.6987C59.2682 77.7187 59.3024 77.7357 59.3518 77.7491C59.4022 77.7633 59.5266 77.7737 59.7251 77.7814L59.7441 77.7976V77.9372L59.7251 77.959C59.2501 77.9448 58.9851 77.9372 58.929 77.9372C58.8692 77.9372 58.6052 77.9448 58.136 77.959L58.1142 77.9372V77.7976L58.136 77.7814C58.3107 77.7737 58.4258 77.7642 58.4828 77.7538C58.5387 77.7424 58.5767 77.7283 58.5966 77.7102C58.6156 77.6931 58.6318 77.655 58.645 77.598C58.6585 77.5401 58.665 77.4119 58.665 77.2134L58.6708 76.6263V75.0038C58.6708 74.9743 58.6631 74.7321 58.648 74.2772H58.2329C58.0627 74.2772 57.9155 74.281 57.791 74.2886C57.6668 74.2962 57.5945 74.3152 57.5755 74.3456C57.5555 74.376 57.5374 74.4757 57.5205 74.6447L57.4929 74.9013L57.4681 74.9259H57.3399L57.3181 74.9041C57.3142 74.4567 57.3058 74.1651 57.2924 74.0301L57.3181 74.0046C57.641 74.0197 58.1777 74.0274 58.929 74.0274C59.6957 74.0274 60.2334 74.0197 60.543 74.0046ZM61.3504 74.0246L61.3731 74.0046C61.7122 74.0197 61.9763 74.0274 62.1654 74.0274C62.3752 74.0274 62.6583 74.0206 63.0145 74.0074C63.1467 74.0037 63.2416 74.0017 63.3015 74.0017C63.7707 74.0017 64.089 74.0872 64.2561 74.2582C64.4224 74.4291 64.5059 74.6305 64.5059 74.8651C64.5059 75.0209 64.4651 75.1739 64.3834 75.3239C64.3016 75.4741 64.182 75.6023 64.0225 75.7097C63.8628 75.816 63.6425 75.8967 63.3623 75.95C63.4144 76.0221 63.5086 76.1475 63.6435 76.326L64.0385 76.8485C64.1669 77.0215 64.3037 77.2039 64.4509 77.3956C64.5972 77.5876 64.6922 77.6968 64.7348 77.7215C64.7766 77.7462 64.8137 77.7614 64.8441 77.7672C64.8754 77.7728 64.9238 77.7756 64.9904 77.7756L65.0132 77.7976V77.9286L64.9875 77.9543C64.8983 77.9429 64.7928 77.9372 64.6702 77.9372C64.5392 77.9372 64.3948 77.9429 64.239 77.9543C64.1108 77.7976 63.9094 77.5278 63.6349 77.1439C63.3157 76.6985 62.9899 76.2862 62.6555 75.9053L62.683 75.8198C62.78 75.8246 62.8551 75.8274 62.9091 75.8274C63.2302 75.8274 63.481 75.7504 63.6634 75.5966C63.8447 75.4428 63.936 75.2291 63.936 74.9564C63.936 74.7112 63.8542 74.527 63.691 74.4016C63.5276 74.2763 63.3071 74.2135 63.0289 74.2135C62.8342 74.2135 62.6499 74.2402 62.4779 74.2942C62.4494 74.3352 62.4362 74.6827 62.4362 75.3382V76.6263L62.439 77.1687C62.4408 77.3787 62.4457 77.5145 62.4552 77.5753C62.4647 77.6369 62.4779 77.6778 62.496 77.6977C62.5131 77.7187 62.5472 77.7357 62.5975 77.7491C62.6469 77.7633 62.7705 77.7737 62.967 77.7814L62.99 77.7976V77.9372L62.967 77.959C62.9575 77.959 62.7953 77.9543 62.4779 77.9429C62.3458 77.939 62.2433 77.9372 62.1682 77.9372C62.1112 77.9372 61.8462 77.9448 61.3731 77.959L61.3504 77.9372V77.7976L61.3731 77.7814C61.5451 77.7737 61.6601 77.7642 61.718 77.7538C61.775 77.7424 61.814 77.7283 61.833 77.7102C61.8529 77.6931 61.869 77.655 61.8805 77.598C61.8928 77.5401 61.8994 77.4119 61.9014 77.2134L61.9042 76.6263V75.3382L61.8984 74.7949C61.8966 74.584 61.8918 74.4472 61.8833 74.3864C61.8747 74.3247 61.8624 74.2837 61.8443 74.2638C61.8272 74.243 61.7931 74.2269 61.7426 74.2135C61.6923 74.2003 61.5699 74.1907 61.3731 74.1831L61.3504 74.1632V74.0246ZM65.7618 74.0046L66.1095 74.016C66.3374 74.0236 66.4876 74.0274 66.5578 74.0274C66.6204 74.0274 66.8865 74.0197 67.3567 74.0046L67.3784 74.0246V74.1632L67.3567 74.1831C67.2284 74.1869 67.1296 74.1927 67.0602 74.1993C66.9899 74.2068 66.9396 74.2211 66.9083 74.2411C66.877 74.262 66.856 74.3095 66.8456 74.3845C66.8351 74.4595 66.8304 74.564 66.8304 74.698L66.8247 75.3382V76.6263L66.8275 77.1687C66.8295 77.3787 66.8351 77.5145 66.8446 77.5753C66.8532 77.6369 66.8664 77.6778 66.8845 77.6977C66.9025 77.7187 66.9359 77.7357 66.9862 77.7491C67.0366 77.7633 67.16 77.7737 67.3567 77.7814L67.3784 77.7976V77.9372L67.3567 77.959C67.3472 77.959 67.1837 77.9543 66.8664 77.9429C66.7345 77.939 66.6318 77.9372 66.5578 77.9372C66.4999 77.9372 66.2349 77.9448 65.7618 77.959L65.739 77.9372V77.7976L65.7618 77.7814C65.9347 77.7737 66.0495 77.7642 66.1065 77.7538C66.1645 77.7424 66.2025 77.7283 66.2224 77.7102C66.2414 77.6931 66.2576 77.655 66.2699 77.598C66.2813 77.5401 66.2889 77.4119 66.2899 77.2134L66.2927 76.6263V75.3382L66.288 74.7949C66.2861 74.584 66.2804 74.4472 66.2718 74.3864C66.2643 74.3247 66.2509 74.2837 66.2329 74.2638C66.2158 74.243 66.1816 74.2269 66.1322 74.2135C66.0819 74.2003 65.9584 74.1907 65.7618 74.1831L65.739 74.1632V74.0246L65.7618 74.0046Z" fill="#2B2A29"/>
<path d="M68.1966 77.959L68.1719 77.9372V77.7927L68.1966 77.77C68.3314 77.7681 68.4188 77.7614 68.4577 77.7491C68.4967 77.7376 68.5319 77.713 68.5622 77.6768C68.5926 77.6408 68.6545 77.522 68.7475 77.3226L69.04 76.6881L69.7971 74.9734C69.9396 74.6373 70.0811 74.3018 70.2227 73.9657H70.4031L71.5916 76.7602L71.7502 77.1325C71.7967 77.239 71.8498 77.3539 71.9106 77.4784C71.9706 77.6019 72.0123 77.6759 72.0351 77.6977C72.0589 77.7197 72.0874 77.7376 72.1216 77.7491C72.1558 77.7614 72.2327 77.7681 72.3515 77.77L72.3733 77.7927V77.9372L72.3515 77.959C72.1548 77.9429 71.9771 77.9344 71.8195 77.9344C71.5117 77.9439 71.204 77.9524 70.8962 77.959L70.8734 77.9372V77.7927L70.8962 77.77C71.1043 77.7661 71.2334 77.7577 71.2856 77.7434C71.338 77.7301 71.3635 77.6977 71.3635 77.6474C71.3635 77.6066 71.3503 77.5534 71.3245 77.486L70.9826 76.6376H69.3706L69.0676 77.3501C69.0135 77.4784 68.9869 77.5714 68.9869 77.6313C68.9869 77.6778 69.0115 77.712 69.062 77.7338C69.1123 77.7566 69.2387 77.7681 69.441 77.77L69.4656 77.7927V77.9372L69.4429 77.959C69.2034 77.9447 68.9945 77.9372 68.814 77.9372C68.6097 77.9372 68.4046 77.9447 68.1966 77.959ZM69.4656 76.3983H70.8734L70.1752 74.7198L69.4656 76.3983ZM73.1665 74.0246L73.1892 74.0046C73.649 74.0197 73.915 74.0274 73.9853 74.0274C74.048 74.0274 74.314 74.0197 74.7841 74.0046L74.806 74.0246V74.1632L74.7841 74.1831C74.6559 74.1869 74.5572 74.1926 74.4877 74.1993C74.4174 74.2068 74.3671 74.2211 74.3358 74.2411C74.3045 74.2619 74.2835 74.3095 74.273 74.3845C74.2626 74.4595 74.2579 74.564 74.2579 74.698L74.2521 75.3382V76.5683C74.2521 76.8761 74.254 77.0908 74.2579 77.2134L74.2721 77.6949H74.8393C75.2923 77.6949 75.5744 77.6893 75.6866 77.6787C75.7986 77.6673 75.9068 77.6398 76.0114 77.598C76.0313 77.5514 76.0608 77.4441 76.0988 77.2779C76.1368 77.1107 76.1568 77.0138 76.1586 76.9881L76.1834 76.9663H76.3202L76.3391 76.9881C76.3248 77.0623 76.3088 77.2058 76.2935 77.4195C76.2773 77.6332 76.2699 77.805 76.2699 77.9372L76.2479 77.959C75.8955 77.9485 75.4318 77.9429 74.8592 77.9429L74.046 77.9372C73.8608 77.9372 73.6719 77.9447 73.479 77.959L73.4561 77.9372V77.8451L73.479 77.8175C73.5938 77.7577 73.6566 77.7215 73.668 77.7092C73.6784 77.6959 73.6907 77.5762 73.7022 77.3501C73.7145 77.1239 73.7202 76.8504 73.7202 76.5323V75.3382L73.7155 74.7949C73.7136 74.584 73.7078 74.4472 73.6993 74.3864C73.6918 74.3247 73.6784 74.2837 73.6603 74.2638C73.6434 74.243 73.6091 74.2269 73.5587 74.2135C73.5094 74.2003 73.3859 74.1907 73.1892 74.1831L73.1665 74.1632V74.0246ZM82.4088 77.467L82.3034 77.7253C81.8912 77.9353 81.4514 78.0398 80.984 78.0398C80.3144 78.0398 79.7701 77.8497 79.3521 77.4698C78.9332 77.0889 78.7241 76.5921 78.7241 75.9776C78.7241 75.5548 78.8287 75.1852 79.0377 74.869C79.2457 74.5526 79.5211 74.3161 79.8642 74.1595C80.2061 74.0025 80.5907 73.9238 81.0172 73.9238C81.2642 73.9238 81.5085 73.9504 81.7496 74.0017C81.99 74.054 82.1914 74.1157 82.3528 74.1889L82.3727 74.2163C82.3301 74.3199 82.2901 74.5774 82.2531 74.9877L82.2331 75.0095H82.1031L82.0801 74.9877L82.0527 74.5137C81.9169 74.4064 81.7535 74.3227 81.5616 74.2619C81.3696 74.2021 81.1693 74.1718 80.9621 74.1718C80.6477 74.1718 80.3675 74.2392 80.1187 74.3741C79.8698 74.5079 79.6769 74.7027 79.5392 74.9583C79.4024 75.2128 79.3341 75.5253 79.3341 75.8949C79.3341 76.2653 79.4147 76.5912 79.5763 76.8713C79.7367 77.1515 79.9571 77.3662 80.2365 77.5173C80.5158 77.6673 80.8425 77.7424 81.2148 77.7424C81.3801 77.7424 81.5388 77.7262 81.6907 77.6949C81.8428 77.6636 81.97 77.6246 82.0707 77.5781C82.1715 77.5315 82.2683 77.4755 82.3613 77.4081L82.4088 77.467ZM83.2582 76.0193C83.2582 75.7409 83.298 75.4817 83.3778 75.2404C83.4575 74.9991 83.5934 74.7759 83.7853 74.5717C83.9772 74.3665 84.209 74.2079 84.4796 74.0957C84.7504 73.9826 85.0564 73.9267 85.3983 73.9267C86.0309 73.9267 86.5344 74.0985 86.9086 74.4435C87.2839 74.7873 87.4709 75.2574 87.4709 75.8531C87.4709 76.272 87.3798 76.6491 87.1955 76.9825C87.0122 77.3168 86.7491 77.5762 86.4071 77.7614C86.0641 77.9476 85.6795 78.0398 85.2529 78.0398C84.9509 78.0398 84.6725 77.9893 84.4179 77.8887C84.1643 77.7871 83.9478 77.6369 83.7682 77.4366C83.5897 77.2361 83.4595 77.0043 83.3788 76.7403C83.2981 76.4772 83.2582 76.2368 83.2582 76.0193ZM83.8366 75.8359C83.8366 76.062 83.8737 76.3061 83.9469 76.5664C84.02 76.8276 84.1291 77.0509 84.2745 77.237C84.4208 77.4232 84.589 77.5619 84.7789 77.6532C84.969 77.7443 85.1855 77.7899 85.4286 77.7899C85.7166 77.7899 85.972 77.7234 86.1962 77.5924C86.4213 77.4603 86.5913 77.2561 86.7081 76.9786C86.826 76.7013 86.884 76.3898 86.884 76.0449C86.884 75.6697 86.8174 75.3315 86.6835 75.0286C86.5495 74.7265 86.3596 74.507 86.1125 74.3693C85.8666 74.2325 85.593 74.1632 85.2919 74.1632C84.8417 74.1632 84.4864 74.3048 84.226 74.5869C83.9668 74.869 83.8366 75.285 83.8366 75.8359ZM88.3449 77.9571L88.3201 77.9314V77.8032L88.3449 77.7814C88.4589 77.7795 88.5491 77.7728 88.6166 77.7614C88.684 77.751 88.7277 77.732 88.7476 77.7063C88.7666 77.6807 88.78 77.6388 88.7865 77.5808C88.7933 77.5229 88.799 77.3938 88.8056 77.1914C88.8122 76.9892 88.816 76.8448 88.816 76.7574V74.509C88.816 74.414 88.7979 74.3437 88.7638 74.2981C88.7295 74.2534 88.6831 74.2239 88.6231 74.2126C88.5642 74.2003 88.4626 74.1935 88.3201 74.1917L88.2983 74.1689V74.0387L88.3201 74.0132C88.5767 74.0227 88.7438 74.0274 88.8236 74.0274C89.0117 74.0274 89.1655 74.0227 89.2863 74.0132L90.1734 75.1653L91.4786 76.802C91.6363 77.0006 91.7968 77.1886 91.9602 77.3662V75.2128C91.9602 75.1454 91.9573 75.0038 91.9507 74.7854C91.9441 74.5679 91.9364 74.4291 91.9269 74.3712C91.9175 74.3123 91.9014 74.2733 91.8785 74.2525C91.8548 74.2325 91.811 74.2163 91.7475 74.2068C91.6838 74.1964 91.5963 74.1907 91.4872 74.1889L91.4653 74.166V74.0387L91.4872 74.0132C91.6372 74.0227 91.8519 74.0274 92.1302 74.0274C92.3838 74.0274 92.569 74.0227 92.684 74.0132L92.7088 74.0387V74.166L92.6868 74.1889C92.5644 74.1907 92.4694 74.1973 92.4028 74.2098C92.3363 74.2211 92.2946 74.2411 92.2774 74.2696C92.2603 74.2972 92.2489 74.338 92.2424 74.3922C92.2366 74.4453 92.2299 74.5735 92.2234 74.7759C92.2167 74.9782 92.2139 75.1236 92.2139 75.2128V76.5342L92.2167 77.2997C92.2195 77.5505 92.2234 77.8013 92.2271 78.054C92.1351 78.0226 91.9745 77.9837 91.7454 77.9372L91.5479 77.7035L90.9552 76.9797L89.0686 74.6229V76.7574C89.0686 76.8428 89.0725 76.9948 89.0781 77.2134C89.0848 77.4327 89.0925 77.5648 89.102 77.6114C89.1115 77.6578 89.1238 77.6902 89.1379 77.7072C89.1532 77.7253 89.1855 77.7415 89.2339 77.7566C89.2833 77.7709 89.385 77.7795 89.539 77.7814L89.5617 77.8032V77.9344L89.539 77.9571C89.443 77.9438 89.2872 77.9372 89.0716 77.9372C88.7951 77.9372 88.5528 77.9438 88.3449 77.9571ZM97.3366 77.467L97.2311 77.7253C96.8189 77.9353 96.3792 78.0398 95.9118 78.0398C95.2421 78.0398 94.6978 77.8497 94.2798 77.4698C93.861 77.0889 93.6519 76.5921 93.6519 75.9776C93.6519 75.5548 93.7564 75.1852 93.9655 74.869C94.1734 74.5526 94.4489 74.3161 94.7919 74.1595C95.1339 74.0025 95.5185 73.9238 95.945 73.9238C96.1919 73.9238 96.4362 73.9504 96.6773 74.0017C96.9177 74.054 97.1191 74.1157 97.2805 74.1889L97.3004 74.2163C97.2578 74.3199 97.2179 74.5774 97.1808 74.9877L97.1608 75.0095H97.0308L97.0079 74.9877L96.9804 74.5137C96.8446 74.4064 96.6812 74.3227 96.4893 74.2619C96.2973 74.2021 96.097 74.1718 95.8899 74.1718C95.5755 74.1718 95.2952 74.2392 95.0464 74.3741C94.7975 74.5079 94.6046 74.7027 94.4669 74.9583C94.3302 75.2128 94.2618 75.5253 94.2618 75.8949C94.2618 76.2653 94.3425 76.5912 94.504 76.8713C94.6645 77.1515 94.8849 77.3662 95.1642 77.5173C95.4435 77.6673 95.7702 77.7424 96.1425 77.7424C96.3078 77.7424 96.4666 77.7262 96.6185 77.6949C96.7705 77.6636 96.8977 77.6246 96.9984 77.5781C97.0992 77.5315 97.196 77.4755 97.289 77.4081L97.3366 77.467ZM98.2552 74.0246L98.277 74.0046C98.9135 74.016 99.3209 74.0216 99.4986 74.0216C100.107 74.0216 100.649 74.016 101.124 74.0046L101.138 74.0246C101.092 74.2021 101.057 74.4815 101.036 74.8623L101.018 74.8841H100.882L100.857 74.8623C100.859 74.8452 100.86 74.8301 100.86 74.8176C100.86 74.66 100.847 74.5099 100.824 74.3665C100.707 74.3141 100.545 74.281 100.338 74.2648C100.131 74.2496 99.9755 74.2411 99.8719 74.2411C99.7256 74.2411 99.5376 74.2515 99.3096 74.2724L99.2991 74.717L99.2905 75.2261L99.282 75.7912C99.4825 75.8028 99.6668 75.8084 99.8358 75.8084C100.007 75.8084 100.149 75.8028 100.264 75.7912C100.379 75.7808 100.447 75.7685 100.467 75.7572C100.486 75.7448 100.501 75.721 100.51 75.6869C100.521 75.6526 100.529 75.5918 100.537 75.5044L100.548 75.3325L100.57 75.3097H100.698L100.721 75.3325C100.717 75.5348 100.713 75.7381 100.707 75.9414L100.721 76.5683L100.698 76.5903H100.57L100.548 76.5683L100.528 76.4011C100.512 76.2711 100.5 76.1941 100.492 76.1684C100.486 76.1438 100.467 76.1218 100.441 76.1028C100.414 76.0849 100.345 76.0696 100.234 76.0583C100.123 76.0478 99.9697 76.0421 99.775 76.0421C99.6668 76.0421 99.5024 76.0469 99.282 76.0564C99.2726 76.2122 99.2678 76.4714 99.2678 76.8353C99.2678 77.2247 99.2726 77.5115 99.282 77.6949H99.794C100.245 77.6949 100.526 77.6893 100.64 77.6787C100.754 77.6673 100.861 77.6398 100.963 77.598C100.98 77.5553 101.007 77.4566 101.045 77.3017C101.083 77.146 101.105 77.049 101.111 77.0101L101.138 76.9911H101.272L101.294 77.0101C101.278 77.0899 101.261 77.2294 101.245 77.428C101.229 77.6265 101.222 77.7966 101.222 77.9372L101.202 77.959C100.847 77.9485 100.384 77.9429 99.8112 77.9429L99.0541 77.9372C98.8774 77.9372 98.6941 77.9447 98.5031 77.959L98.4803 77.9372V77.8451L98.5031 77.8175C98.6124 77.7614 98.675 77.7271 98.6903 77.713C98.7064 77.6997 98.7198 77.5373 98.7293 77.2257C98.7397 76.9151 98.7444 76.6786 98.7444 76.5152V75.494L98.7425 74.8623C98.7425 74.7246 98.7406 74.6125 98.7367 74.527C98.733 74.4405 98.7263 74.3788 98.7168 74.3417C98.7073 74.3048 98.6969 74.2782 98.6855 74.2638C98.6732 74.2487 98.6532 74.2362 98.6266 74.2258C98.5999 74.2154 98.5535 74.2068 98.4889 74.1993L98.277 74.1831L98.2552 74.1632V74.0246ZM102.207 74.0246L102.23 74.0046C102.569 74.0197 102.833 74.0274 103.022 74.0274C103.232 74.0274 103.515 74.0206 103.871 74.0074C104.003 74.0037 104.098 74.0017 104.158 74.0017C104.627 74.0017 104.945 74.0872 105.113 74.2582C105.279 74.4291 105.362 74.6305 105.362 74.8651C105.362 75.0209 105.321 75.1739 105.24 75.3239C105.158 75.4741 105.038 75.6023 104.879 75.7096C104.719 75.816 104.499 75.8967 104.219 75.95C104.271 76.0221 104.365 76.1475 104.5 76.326L104.895 76.8485C105.023 77.0215 105.16 77.2039 105.307 77.3956C105.454 77.5876 105.549 77.6968 105.591 77.7215C105.633 77.7462 105.67 77.7614 105.7 77.7672C105.732 77.7728 105.78 77.7756 105.847 77.7756L105.87 77.7976V77.9286L105.844 77.9543C105.755 77.9429 105.649 77.9372 105.527 77.9372C105.396 77.9372 105.251 77.9429 105.095 77.9543C104.967 77.7976 104.766 77.5278 104.491 77.1439C104.172 76.6985 103.846 76.2862 103.512 75.9053L103.539 75.8198C103.636 75.8246 103.711 75.8274 103.765 75.8274C104.087 75.8274 104.337 75.7504 104.52 75.5965C104.701 75.4428 104.792 75.229 104.792 74.9564C104.792 74.7112 104.711 74.527 104.547 74.4016C104.384 74.2763 104.164 74.2135 103.885 74.2135C103.691 74.2135 103.506 74.2402 103.334 74.2942C103.306 74.3352 103.293 74.6827 103.293 75.3382V76.6263L103.295 77.1687C103.297 77.3787 103.302 77.5145 103.312 77.5753C103.321 77.6369 103.334 77.6778 103.352 77.6977C103.37 77.7187 103.404 77.7357 103.454 77.7491C103.503 77.7633 103.627 77.7737 103.823 77.7814L103.846 77.7976V77.9372L103.823 77.959C103.814 77.959 103.652 77.9543 103.334 77.9429C103.202 77.939 103.1 77.9372 103.025 77.9372C102.968 77.9372 102.703 77.9447 102.23 77.959L102.207 77.9372V77.7976L102.23 77.7814C102.402 77.7737 102.516 77.7642 102.574 77.7538C102.631 77.7424 102.67 77.7283 102.689 77.7102C102.709 77.693 102.725 77.655 102.737 77.598C102.749 77.5401 102.756 77.4119 102.758 77.2134L102.761 76.6263V75.3382L102.755 74.7949C102.753 74.584 102.748 74.4472 102.74 74.3864C102.731 74.3247 102.719 74.2837 102.701 74.2638C102.684 74.243 102.65 74.2269 102.599 74.2135C102.549 74.2003 102.426 74.1907 102.23 74.1831L102.207 74.1632V74.0246ZM106.637 77.9571L106.612 77.9314V77.8032L106.637 77.7814C106.751 77.7795 106.841 77.7728 106.909 77.7614C106.976 77.751 107.02 77.732 107.04 77.7063C107.059 77.6807 107.072 77.6388 107.079 77.5808C107.085 77.5229 107.091 77.3938 107.098 77.1914C107.105 76.9892 107.108 76.8448 107.108 76.7574V74.509C107.108 74.414 107.09 74.3437 107.056 74.2981C107.022 74.2534 106.975 74.2239 106.915 74.2126C106.856 74.2003 106.755 74.1935 106.612 74.1917L106.591 74.1689V74.0387L106.612 74.0132C106.869 74.0227 107.036 74.0274 107.116 74.0274C107.304 74.0274 107.458 74.0227 107.579 74.0132L108.466 75.1653L109.771 76.802C109.929 77.0006 110.089 77.1886 110.253 77.3662V75.2128C110.253 75.1454 110.25 75.0038 110.243 74.7854C110.236 74.5679 110.229 74.4291 110.219 74.3712C110.21 74.3123 110.194 74.2733 110.171 74.2525C110.147 74.2325 110.103 74.2163 110.04 74.2068C109.976 74.1964 109.889 74.1907 109.779 74.1889L109.758 74.166V74.0387L109.779 74.0132C109.929 74.0227 110.144 74.0274 110.422 74.0274C110.676 74.0274 110.861 74.0227 110.976 74.0132L111.001 74.0387V74.166L110.979 74.1889C110.857 74.1907 110.762 74.1973 110.695 74.2098C110.629 74.2211 110.587 74.2411 110.57 74.2696C110.553 74.2972 110.541 74.338 110.535 74.3922C110.529 74.4453 110.522 74.5735 110.516 74.7759C110.509 74.9782 110.506 75.1236 110.506 75.2128V76.5342L110.509 77.2997C110.512 77.5505 110.516 77.8013 110.519 78.054C110.427 78.0226 110.267 77.9837 110.038 77.9372L109.84 77.7035L109.247 76.9797L107.361 74.6229V76.7574C107.361 76.8428 107.365 76.9948 107.37 77.2134C107.377 77.4327 107.385 77.5648 107.394 77.6114C107.404 77.6578 107.416 77.6902 107.43 77.7072C107.446 77.7253 107.478 77.7415 107.526 77.7566C107.576 77.7709 107.677 77.7795 107.831 77.7814L107.854 77.8032V77.9344L107.831 77.9571C107.735 77.9438 107.579 77.9372 107.364 77.9372C107.087 77.9372 106.845 77.9438 106.637 77.9571Z" fill="#2B2A29"/>
<defs>
<linearGradient id="paint0_linear_802_3067" x1="55.9649" y1="0" x2="55.9649" y2="15.9139" gradientUnits="userSpaceOnUse">
<stop stop-color="#F59F0D"/>
<stop offset="0.338542" stop-color="#F7AC04"/>
<stop offset="0.625" stop-color="#F9B200"/>
<stop offset="1" stop-color="#FBBE00"/>
</linearGradient>
<linearGradient id="paint1_linear_802_3067" x1="55.9649" y1="0" x2="55.9649" y2="15.9139" gradientUnits="userSpaceOnUse">
<stop stop-color="#F59F0D"/>
<stop offset="0.338542" stop-color="#F7AC04"/>
<stop offset="0.625" stop-color="#F9B200"/>
<stop offset="1" stop-color="#FBBE00"/>
</linearGradient>
<linearGradient id="paint2_linear_802_3067" x1="62.6766" y1="23.242" x2="79.1361" y2="38.0519" gradientUnits="userSpaceOnUse">
<stop offset="0.110164" stop-color="#00B3E4"/>
<stop offset="0.249772" stop-color="#00B3E4"/>
<stop offset="0.368234" stop-color="#00AEEA"/>
<stop offset="0.489583" stop-color="#00A2E1"/>
<stop offset="0.609375" stop-color="#009ADA"/>
<stop offset="0.677083" stop-color="#0093D4"/>
</linearGradient>
<linearGradient id="paint3_linear_802_3067" x1="62.6766" y1="23.242" x2="79.1361" y2="38.0519" gradientUnits="userSpaceOnUse">
<stop offset="0.110164" stop-color="#00B3E4"/>
<stop offset="0.249772" stop-color="#00B3E4"/>
<stop offset="0.368234" stop-color="#00AEEA"/>
<stop offset="0.489583" stop-color="#00A2E1"/>
<stop offset="0.609375" stop-color="#009ADA"/>
<stop offset="0.677083" stop-color="#0093D4"/>
</linearGradient>
<linearGradient id="paint4_linear_802_3067" x1="36.9809" y1="14.8054" x2="47.6363" y2="57.1503" gradientUnits="userSpaceOnUse">
<stop stop-color="#006293"/>
<stop offset="0.167721" stop-color="#005F8D"/>
<stop offset="0.294828" stop-color="#115072"/>
<stop offset="0.479167" stop-color="#1A4660"/>
<stop offset="0.704386" stop-color="#115072"/>
<stop offset="0.839961" stop-color="#005F8D"/>
<stop offset="0.998977" stop-color="#006293"/>
</linearGradient>
<linearGradient id="paint5_linear_802_3067" x1="36.9809" y1="14.8054" x2="61.707" y2="67.6688" gradientUnits="userSpaceOnUse">
<stop stop-color="#006293"/>
<stop offset="0.329955" stop-color="#005F8D"/>
<stop offset="0.445984" stop-color="#115072"/>
<stop offset="0.564113" stop-color="#1A4660"/>
<stop offset="0.704386" stop-color="#115072"/>
<stop offset="0.839961" stop-color="#005F8D"/>
<stop offset="0.998977" stop-color="#006293"/>
</linearGradient>
<linearGradient id="paint6_linear_802_3067" x1="35.0029" y1="25.6007" x2="53.9613" y2="53.969" gradientUnits="userSpaceOnUse">
<stop stop-color="white"/>
<stop offset="1" stop-color="white" stop-opacity="0.9"/>
</linearGradient>
<linearGradient id="paint7_linear_802_3067" x1="44.6895" y1="17.9896" x2="57.559" y2="25.3239" gradientUnits="userSpaceOnUse">
<stop stop-color="#00B3E4"/>
<stop offset="0.223958" stop-color="#00B3E4"/>
<stop offset="0.447917" stop-color="#00AEEA"/>
<stop offset="0.65625" stop-color="#00A2E1"/>
<stop offset="0.817708" stop-color="#009ADA"/>
<stop offset="1" stop-color="#0093D4"/>
</linearGradient>
<linearGradient id="paint8_linear_802_3067" x1="58.9428" y1="28.2299" x2="44.6895" y2="17.2977" gradientUnits="userSpaceOnUse">
<stop stop-color="#00B3E4"/>
<stop offset="0.223958" stop-color="#00B3E4"/>
<stop offset="0.447917" stop-color="#00AEEA"/>
<stop offset="0.65625" stop-color="#00A2E1"/>
<stop offset="0.817708" stop-color="#009ADA"/>
<stop offset="1" stop-color="#0093D4"/>
</linearGradient>
<linearGradient id="paint9_linear_802_3067" x1="72.667" y1="13.6998" x2="56.0612" y2="24.2168" gradientUnits="userSpaceOnUse">
<stop stop-color="#006293"/>
<stop offset="0.286458" stop-color="#005F8D"/>
<stop offset="0.648377" stop-color="#115072"/>
<stop offset="0.91175" stop-color="#1A4660"/>
</linearGradient>
<linearGradient id="paint10_linear_802_3067" x1="72.667" y1="13.6998" x2="56.0612" y2="24.2168" gradientUnits="userSpaceOnUse">
<stop stop-color="#006293"/>
<stop offset="0.286458" stop-color="#005F8D"/>
<stop offset="0.648377" stop-color="#115072"/>
<stop offset="0.91175" stop-color="#1A4660"/>
</linearGradient>
<linearGradient id="paint11_linear_802_3067" x1="56.0119" y1="24.1421" x2="56.0368" y2="42.4085" gradientUnits="userSpaceOnUse">
<stop stop-color="#FFC40E"/>
<stop offset="0.1875" stop-color="#FFBC01"/>
<stop offset="0.395833" stop-color="#F9B200"/>
<stop offset="0.644361" stop-color="#F7AC04"/>
<stop offset="1" stop-color="#F59F0D"/>
</linearGradient>
<linearGradient id="paint12_linear_802_3067" x1="56.0119" y1="24.1421" x2="56.0368" y2="42.4085" gradientUnits="userSpaceOnUse">
<stop stop-color="#FFC40E"/>
<stop offset="0.1875" stop-color="#FFBC01"/>
<stop offset="0.395833" stop-color="#F9B200"/>
<stop offset="0.644361" stop-color="#F7AC04"/>
<stop offset="1" stop-color="#F59F0D"/>
</linearGradient>
</defs>
</svg>
