<svg width="83" height="59" viewBox="0 0 83 59" fill="none" xmlns="http://www.w3.org/2000/svg">
<path d="M0.486084 56.0624L0.502213 56.0481C0.972091 56.0562 1.27283 56.0602 1.40404 56.0602C1.85348 56.0602 2.25321 56.0562 2.60386 56.0481L2.6143 56.0624C2.58006 56.1893 2.55473 56.389 2.53865 56.6613L2.526 56.6768H2.42501L2.40673 56.6613C2.40822 56.649 2.40891 56.6382 2.40891 56.6293C2.40891 56.5166 2.39972 56.4093 2.38222 56.3068C2.29599 56.2694 2.17672 56.2457 2.02391 56.2341C1.87106 56.2233 1.75604 56.2171 1.67955 56.2171C1.5716 56.2171 1.43281 56.2246 1.26441 56.2395L1.25674 56.5574L1.25039 56.9213L1.24406 57.3253C1.3921 57.3336 1.52811 57.3376 1.6529 57.3376C1.77918 57.3376 1.8844 57.3336 1.96914 57.3253C2.05405 57.3179 2.10383 57.3091 2.11855 57.301C2.13256 57.2921 2.14383 57.2751 2.15084 57.2507C2.15855 57.2262 2.16491 57.1828 2.17042 57.1203L2.17892 56.9974L2.195 56.9811H2.28964L2.30644 56.9974C2.3037 57.142 2.30026 57.2874 2.29599 57.4327L2.30644 57.8809L2.28964 57.8965H2.195L2.17892 57.8809L2.1642 57.7613C2.15222 57.6684 2.14313 57.6134 2.1375 57.595C2.13256 57.5774 2.11921 57.5616 2.09968 57.5481C2.07999 57.5353 2.02884 57.5243 1.94671 57.5162C1.86475 57.5088 1.75181 57.5046 1.60804 57.5046C1.52811 57.5046 1.40682 57.5081 1.24406 57.5149C1.23718 57.6262 1.2336 57.8116 1.2336 58.0717C1.2336 58.3501 1.23718 58.5552 1.24406 58.6862H1.6221C1.95525 58.6862 2.1627 58.6822 2.24686 58.6747C2.33035 58.6665 2.40963 58.6468 2.48528 58.617C2.49722 58.5865 2.51757 58.5159 2.54564 58.4052C2.57371 58.2938 2.5898 58.2245 2.59395 58.1967L2.6143 58.1831H2.71322L2.7293 58.1967C2.71748 58.2537 2.70479 58.3535 2.69356 58.4955C2.6817 58.6373 2.67607 58.7589 2.67607 58.8594L2.66135 58.875C2.39971 58.8675 2.05761 58.8635 1.63474 58.8635L1.07582 58.8594C0.94539 58.8594 0.810076 58.8649 0.669079 58.875L0.652286 58.8594V58.7936L0.669079 58.7739C0.749797 58.7338 0.796021 58.7093 0.807298 58.6992C0.819154 58.6897 0.82902 58.5735 0.836026 58.3508C0.843737 58.1288 0.847217 57.9597 0.847217 57.8429V57.1128L0.845808 56.6613C0.845808 56.5628 0.844442 56.4827 0.841581 56.4215C0.838803 56.3597 0.833867 56.3156 0.82686 56.2891C0.819813 56.2627 0.812109 56.2437 0.803735 56.2334C0.794656 56.2226 0.779929 56.2137 0.760237 56.2062C0.740586 56.1988 0.706303 56.1926 0.658586 56.1873L0.502213 56.1757L0.486084 56.1614V56.0624ZM3.37874 56.0624L3.39482 56.0481C3.7349 56.0589 3.93049 56.0644 3.98248 56.0644C4.02941 56.0644 4.22583 56.0589 4.57221 56.0481L4.589 56.0624V56.1614L4.57221 56.1757C4.47756 56.1784 4.40456 56.1825 4.35336 56.1873C4.3022 56.1926 4.26504 56.2029 4.24125 56.2171C4.21811 56.2321 4.20261 56.266 4.1949 56.3197C4.18785 56.3732 4.18376 56.448 4.18376 56.5438L4.17948 57.0015V57.6337C4.17948 57.8422 4.18441 57.995 4.19349 58.0928C4.20191 58.1899 4.22156 58.2721 4.251 58.3392C4.28047 58.4058 4.32529 58.4635 4.38499 58.5124C4.44527 58.5606 4.53149 58.6 4.64442 58.6306C4.75669 58.6611 4.8835 58.6761 5.02657 58.6761C5.17665 58.6761 5.31765 58.6564 5.44874 58.6156C5.57917 58.5756 5.67875 58.5165 5.74753 58.4398C5.81548 58.3631 5.86034 58.2618 5.8821 58.1362C5.90312 58.0106 5.91368 57.8367 5.91368 57.614V57.0015C5.91368 56.8976 5.9122 56.7556 5.90876 56.5743C5.90519 56.3936 5.89682 56.2891 5.88425 56.2619C5.87091 56.2348 5.84703 56.2145 5.81191 56.2002C5.77697 56.1866 5.68011 56.1784 5.52167 56.1757L5.50487 56.1594V56.0663L5.52167 56.0481C5.72431 56.0589 5.88633 56.0644 6.00834 56.0644C6.1121 56.0644 6.27412 56.0589 6.49285 56.0481L6.51183 56.0644V56.1594L6.49285 56.1757C6.3645 56.1784 6.28046 56.1832 6.24111 56.1906C6.2026 56.1981 6.17521 56.209 6.15912 56.2233C6.1437 56.2382 6.13175 56.2606 6.12404 56.2912C6.11704 56.3217 6.11139 56.4093 6.10861 56.5532L6.10297 57.0015V57.6059C6.10297 57.8475 6.09323 58.0377 6.07425 58.177C6.0546 58.3162 6.01181 58.4309 5.94589 58.5199C5.87931 58.6095 5.80075 58.6849 5.70958 58.7454C5.6185 58.8051 5.50131 58.852 5.35894 58.8846C5.21666 58.9164 5.06866 58.9328 4.91514 58.9328C4.72365 58.9328 4.55392 58.9124 4.4067 58.8717C4.25941 58.8302 4.1437 58.7759 4.05884 58.708C3.9741 58.6408 3.91303 58.5694 3.87589 58.494C3.83874 58.4194 3.81483 58.3311 3.80368 58.2298C3.79306 58.1281 3.78755 57.9733 3.78755 57.7655V57.0015L3.78332 56.613C3.78191 56.4623 3.77834 56.3645 3.77203 56.321C3.76582 56.2769 3.75592 56.2476 3.74327 56.2334C3.73005 56.2185 3.70546 56.207 3.66831 56.1974C3.63116 56.188 3.53996 56.1811 3.39482 56.1757L3.37874 56.1614V56.0624ZM7.08684 56.0624L7.10364 56.0481C7.354 56.0589 7.54888 56.0644 7.68851 56.0644C7.84344 56.0644 8.05238 56.0595 8.31539 56.0501C8.4129 56.0474 8.48297 56.046 8.52724 56.046C8.87362 56.046 9.10856 56.1071 9.23194 56.2294C9.35465 56.3516 9.41629 56.4955 9.41629 56.6633C9.41629 56.7746 9.38615 56.884 9.32591 56.9912C9.26551 57.0986 9.17721 57.1902 9.05947 57.267C8.94156 57.343 8.77897 57.4007 8.57205 57.4388C8.61061 57.4904 8.68005 57.58 8.77963 57.7077L9.07129 58.0812C9.16606 58.2048 9.26705 58.3352 9.37571 58.4723C9.48371 58.6095 9.55385 58.6876 9.58536 58.7053C9.61617 58.7229 9.64352 58.7338 9.66595 58.7379C9.68908 58.7419 9.72486 58.7439 9.77394 58.7439L9.79087 58.7596V58.8533L9.77187 58.8717C9.706 58.8635 9.62814 58.8594 9.53764 58.8594C9.44092 58.8594 9.33429 58.8635 9.21929 58.8717C9.12464 58.7596 8.97598 58.5668 8.77333 58.2923C8.53769 57.974 8.29724 57.6791 8.05032 57.4069L8.07068 57.3457C8.14219 57.3492 8.19762 57.3512 8.23754 57.3512C8.47456 57.3512 8.65969 57.2961 8.79438 57.1861C8.92821 57.0762 8.99563 56.9234 8.99563 56.7285C8.99563 56.5532 8.93526 56.4215 8.81474 56.3319C8.6941 56.2423 8.53134 56.1974 8.32596 56.1974C8.18223 56.1974 8.04617 56.2165 7.91923 56.2551C7.89817 56.2844 7.88838 56.5329 7.88838 57.0015V57.9223L7.89045 58.3101C7.89182 58.4602 7.89539 58.5573 7.90244 58.6007C7.90944 58.6448 7.91923 58.674 7.93254 58.6882C7.94523 58.7033 7.97039 58.7154 8.00754 58.725C8.04398 58.7351 8.13517 58.7426 8.28031 58.7481L8.29724 58.7596V58.8594L8.28031 58.875C8.27331 58.875 8.15346 58.8717 7.91923 58.8635C7.82168 58.8608 7.74601 58.8594 7.69058 58.8594C7.6485 58.8594 7.45287 58.8649 7.10364 58.875L7.08684 58.8594V58.7596L7.10364 58.7481C7.23058 58.7426 7.31544 58.7358 7.35823 58.7284C7.40031 58.7202 7.42907 58.7101 7.44308 58.6972C7.4578 58.6849 7.46966 58.6577 7.47816 58.617C7.48728 58.5756 7.49209 58.4839 7.49358 58.342L7.49565 57.9223V57.0015L7.49139 56.613C7.49002 56.4623 7.48658 56.3645 7.48023 56.321C7.47393 56.2769 7.46485 56.2476 7.45151 56.2334C7.43886 56.2185 7.41365 56.207 7.37638 56.1974C7.33928 56.188 7.24886 56.1811 7.10364 56.1757L7.08684 56.1614V56.0624ZM10.3126 58.875L10.2943 58.8594V58.7562L10.3126 58.7399C10.4121 58.7386 10.4766 58.7338 10.5054 58.725C10.5341 58.7167 10.5601 58.6992 10.5825 58.6733C10.605 58.6476 10.6506 58.5626 10.7193 58.4201L10.9353 57.9665L11.4941 56.7407C11.5994 56.5004 11.7038 56.2606 11.8083 56.0202H11.9415L12.8188 58.018L12.9359 58.2842C12.9703 58.3603 13.0095 58.4425 13.0544 58.5314C13.0987 58.6198 13.1295 58.6727 13.1463 58.6882C13.1638 58.7039 13.1849 58.7167 13.2101 58.725C13.2354 58.7338 13.2922 58.7386 13.3798 58.7399L13.3959 58.7562V58.8594L13.3798 58.875C13.2347 58.8635 13.1035 58.8574 12.9871 58.8574C12.7598 58.8642 12.5327 58.8703 12.3055 58.875L12.2887 58.8594V58.7562L12.3055 58.7399C12.4591 58.7371 12.5545 58.7311 12.593 58.7209C12.6316 58.7114 12.6505 58.6882 12.6505 58.6523C12.6505 58.6231 12.6407 58.5851 12.6217 58.5369L12.3693 57.9304H11.1793L10.9556 58.4398C10.9157 58.5314 10.896 58.5979 10.896 58.6408C10.896 58.674 10.9142 58.6985 10.9515 58.7141C10.9886 58.7303 11.0818 58.7386 11.2313 58.7399L11.2494 58.7562V58.8594L11.2326 58.875C11.0559 58.8649 10.9017 58.8594 10.7684 58.8594C10.6176 58.8594 10.4662 58.8649 10.3126 58.875ZM11.2494 57.7593H12.2887L11.7733 56.5594L11.2494 57.7593ZM14.0678 58.175L14.0846 58.1593H14.1848L14.2016 58.175C14.2086 58.3447 14.2177 58.4486 14.229 58.4865C14.2409 58.524 14.2781 58.5641 14.3406 58.6054C14.4022 58.6476 14.4857 58.6815 14.5887 58.708C14.6926 58.7345 14.797 58.7481 14.9022 58.7481C15.0473 58.7481 15.1778 58.7222 15.2935 58.6707C15.4091 58.6183 15.499 58.5429 15.5635 58.4425C15.628 58.3427 15.6602 58.2298 15.6602 58.1057C15.6602 58.018 15.6448 57.9413 15.614 57.8768C15.5831 57.8116 15.5403 57.7593 15.4842 57.7206C15.4288 57.6813 15.3657 57.652 15.2941 57.6331C15.2234 57.6134 15.1175 57.593 14.9758 57.5706C14.8391 57.5488 14.7318 57.5298 14.6546 57.5128C14.5776 57.4952 14.5004 57.4687 14.4232 57.4327C14.3467 57.3974 14.2831 57.3518 14.2311 57.2968C14.1799 57.2418 14.1393 57.174 14.1084 57.0938C14.0776 57.0138 14.0621 56.9274 14.0621 56.8364C14.0621 56.5879 14.1511 56.3849 14.3293 56.2266C14.5067 56.0677 14.7458 55.9883 15.046 55.9883C15.1651 55.9883 15.2948 56.0025 15.4351 56.031C15.5754 56.0595 15.7036 56.1017 15.8186 56.1573L15.8327 56.1818C15.8026 56.3033 15.7844 56.4772 15.7774 56.7027L15.7591 56.719H15.6518L15.6357 56.7047C15.6329 56.5458 15.6287 56.4453 15.623 56.4046C15.6174 56.3631 15.5558 56.3122 15.4365 56.2511C15.3174 56.19 15.1877 56.1594 15.048 56.1594C14.9317 56.1594 14.823 56.1825 14.7213 56.2273C14.6203 56.2722 14.5432 56.3434 14.4913 56.4399C14.4393 56.537 14.4134 56.6361 14.4134 56.7367C14.4134 56.8147 14.4289 56.884 14.4604 56.9445C14.492 57.0048 14.5326 57.0524 14.5824 57.0877C14.6329 57.123 14.6911 57.1488 14.7571 57.1665C14.8237 57.1835 14.945 57.2045 15.1216 57.2303C15.3643 57.2629 15.541 57.303 15.6511 57.3505C15.7611 57.3974 15.8496 57.472 15.9162 57.5739C15.9821 57.6765 16.0158 57.7994 16.0158 57.944C16.0158 58.2265 15.8965 58.4622 15.6595 58.6503C15.4218 58.839 15.1336 58.9328 14.7956 58.9328C14.5116 58.9328 14.2634 58.8839 14.0495 58.786L14.0375 58.7596C14.0509 58.6761 14.0614 58.4812 14.0678 58.175ZM16.6462 56.0481L16.9029 56.0562C17.0712 56.0617 17.182 56.0644 17.2339 56.0644C17.2801 56.0644 17.4765 56.0589 17.8236 56.0481L17.8397 56.0624V56.1614L17.8236 56.1757C17.729 56.1784 17.656 56.1825 17.6047 56.1873C17.5529 56.1926 17.5157 56.2029 17.4926 56.2171C17.4695 56.2321 17.454 56.266 17.4463 56.3197C17.4386 56.3732 17.4351 56.448 17.4351 56.5438L17.4309 57.0015V57.9223L17.433 58.3101C17.4344 58.4602 17.4386 58.5573 17.4456 58.6007C17.4519 58.6448 17.4617 58.674 17.475 58.6882C17.4884 58.7033 17.513 58.7154 17.5501 58.725C17.5872 58.7351 17.6785 58.7426 17.8236 58.7481L17.8397 58.7596V58.8594L17.8236 58.875C17.8166 58.875 17.696 58.8717 17.4617 58.8635C17.3643 58.8608 17.2885 58.8594 17.2339 58.8594C17.1911 58.8594 16.9955 58.8649 16.6462 58.875L16.6294 58.8594V58.7596L16.6462 58.7481C16.7739 58.7426 16.8586 58.7358 16.9007 58.7284C16.9435 58.7202 16.9715 58.7101 16.9863 58.6972C17.0003 58.6849 17.0122 58.6577 17.0214 58.617C17.0297 58.5756 17.0354 58.4839 17.0361 58.342L17.0382 57.9223V57.0015L17.0347 56.613C17.0333 56.4623 17.029 56.3645 17.0227 56.321C17.0172 56.2769 17.0073 56.2476 16.994 56.2334C16.9814 56.2185 16.9561 56.207 16.9197 56.1974C16.8825 56.188 16.7914 56.1811 16.6462 56.1757L16.6294 56.1614V56.0624L16.6462 56.0481ZM18.4436 58.875L18.4253 58.8594V58.7562L18.4436 58.7399C18.5431 58.7386 18.6076 58.7338 18.6363 58.725C18.6651 58.7167 18.6911 58.6992 18.7135 58.6733C18.7359 58.6476 18.7816 58.5626 18.8502 58.4201L19.0662 57.9665L19.6251 56.7407C19.7303 56.5004 19.8347 56.2606 19.9393 56.0202H20.0725L20.9498 58.018L21.0669 58.2842C21.1013 58.3603 21.1405 58.4425 21.1853 58.5314C21.2296 58.6198 21.2604 58.6727 21.2772 58.6882C21.2948 58.7039 21.3158 58.7167 21.341 58.725C21.3663 58.7338 21.4231 58.7386 21.5108 58.7399L21.5269 58.7562V58.8594L21.5108 58.875C21.3656 58.8635 21.2344 58.8574 21.1181 58.8574C20.8908 58.8642 20.6637 58.8703 20.4364 58.875L20.4196 58.8594V58.7562L20.4364 58.7399C20.59 58.7371 20.6854 58.7311 20.7239 58.7209C20.7626 58.7114 20.7814 58.6882 20.7814 58.6523C20.7814 58.6231 20.7716 58.5851 20.7527 58.5369L20.5003 57.9304H19.3102L19.0865 58.4398C19.0466 58.5314 19.027 58.5979 19.027 58.6408C19.027 58.674 19.0452 58.6985 19.0824 58.7141C19.1196 58.7303 19.2128 58.7386 19.3622 58.7399L19.3804 58.7562V58.8594L19.3636 58.875C19.1868 58.8649 19.0326 58.8594 18.8993 58.8594C18.7486 58.8594 18.5971 58.8649 18.4436 58.875ZM19.3804 57.7593H20.4196L19.9042 56.5594L19.3804 57.7593ZM22.172 58.8737L22.1537 58.8553V58.7636L22.172 58.7481C22.2562 58.7467 22.3228 58.7419 22.3726 58.7338C22.4224 58.7263 22.4546 58.7127 22.4693 58.6944C22.4833 58.6761 22.4932 58.6461 22.498 58.6047C22.503 58.5633 22.5072 58.471 22.5121 58.3263C22.517 58.1818 22.5198 58.0785 22.5198 58.016V56.4087C22.5198 56.3407 22.5065 56.2905 22.4813 56.2579C22.456 56.226 22.4217 56.2049 22.3774 56.1968C22.334 56.188 22.259 56.1832 22.1537 56.1818L22.1376 56.1656V56.0725L22.1537 56.0542C22.3432 56.061 22.4665 56.0644 22.5254 56.0644C22.6642 56.0644 22.7778 56.061 22.867 56.0542L23.5219 56.8779L24.4854 58.0479C24.6018 58.1899 24.7203 58.3243 24.841 58.4513V56.9118C24.841 56.8636 24.8388 56.7624 24.834 56.6063C24.829 56.4508 24.8234 56.3516 24.8164 56.3101C24.8093 56.268 24.7975 56.2402 24.7806 56.2253C24.7631 56.211 24.7308 56.1994 24.6839 56.1926C24.6368 56.1852 24.5723 56.1811 24.4917 56.1798L24.4756 56.1634V56.0725L24.4917 56.0542C24.6025 56.061 24.7609 56.0644 24.9665 56.0644C25.1537 56.0644 25.2904 56.061 25.3753 56.0542L25.3935 56.0725V56.1634L25.3773 56.1798C25.287 56.1811 25.2168 56.1858 25.1677 56.1948C25.1186 56.2029 25.0878 56.2171 25.0751 56.2375C25.0625 56.2572 25.0541 56.2864 25.0493 56.3252C25.045 56.3631 25.04 56.4548 25.0352 56.5994C25.0303 56.7441 25.0282 56.848 25.0282 56.9118V57.8564L25.0303 58.4037C25.0323 58.583 25.0352 58.7623 25.038 58.9429C24.97 58.9205 24.8515 58.8927 24.6824 58.8594L24.5366 58.6924L24.099 58.175L22.7063 56.4901V58.016C22.7063 58.077 22.7092 58.1858 22.7133 58.342C22.7183 58.4988 22.7239 58.5933 22.7309 58.6265C22.738 58.6597 22.747 58.6829 22.7575 58.695C22.7688 58.708 22.7926 58.7195 22.8283 58.7303C22.8648 58.7406 22.9399 58.7467 23.0535 58.7481L23.0703 58.7636V58.8574L23.0535 58.8737C22.9827 58.8642 22.8677 58.8594 22.7085 58.8594C22.5044 58.8594 22.3255 58.8642 22.172 58.8737ZM27.1171 56.0481L27.3738 56.0562C27.542 56.0617 27.6529 56.0644 27.7048 56.0644C27.751 56.0644 27.9474 56.0589 28.2944 56.0481L28.3106 56.0624V56.1614L28.2944 56.1757C28.1998 56.1784 28.1269 56.1825 28.0756 56.1873C28.0238 56.1926 27.9866 56.2029 27.9635 56.2171C27.9404 56.2321 27.9249 56.266 27.9171 56.3197C27.9094 56.3732 27.906 56.448 27.906 56.5438L27.9017 57.0015V57.9223L27.9038 58.3101C27.9053 58.4602 27.9094 58.5573 27.9164 58.6007C27.9228 58.6448 27.9326 58.674 27.9459 58.6882C27.9592 58.7033 27.9839 58.7154 28.021 58.725C28.0581 58.7351 28.1493 58.7426 28.2944 58.7481L28.3106 58.7596V58.8594L28.2944 58.875C28.2874 58.875 28.1668 58.8717 27.9326 58.8635C27.8351 58.8608 27.7594 58.8594 27.7048 58.8594C27.662 58.8594 27.4663 58.8649 27.1171 58.875L27.1003 58.8594V58.7596L27.1171 58.7481C27.2447 58.7426 27.3295 58.7358 27.3716 58.7284C27.4143 58.7202 27.4424 58.7101 27.4571 58.6972C27.4712 58.6849 27.4831 58.6577 27.4922 58.617C27.5006 58.5756 27.5063 58.4839 27.5069 58.342L27.509 57.9223V57.0015L27.5056 56.613C27.5042 56.4623 27.4999 56.3645 27.4936 56.321C27.4881 56.2769 27.4782 56.2476 27.4648 56.2334C27.4523 56.2185 27.427 56.207 27.3906 56.1974C27.3534 56.188 27.2622 56.1811 27.1171 56.1757L27.1003 56.1614V56.0624L27.1171 56.0481ZM28.9593 58.8737L28.941 58.8553V58.7636L28.9593 58.7481C29.0435 58.7467 29.11 58.7419 29.1599 58.7338C29.2097 58.7263 29.2418 58.7127 29.2565 58.6944C29.2706 58.6761 29.2805 58.6461 29.2853 58.6047C29.2903 58.5633 29.2945 58.471 29.2993 58.3263C29.3043 58.1818 29.307 58.0785 29.307 58.016V56.4087C29.307 56.3407 29.2937 56.2905 29.2685 56.2579C29.2432 56.226 29.209 56.2049 29.1647 56.1968C29.1212 56.188 29.0462 56.1832 28.941 56.1818L28.9249 56.1656V56.0725L28.941 56.0542C29.1304 56.061 29.2538 56.0644 29.3127 56.0644C29.4515 56.0644 29.5651 56.061 29.6542 56.0542L30.3092 56.8779L31.2727 58.0479C31.389 58.1899 31.5076 58.3243 31.6282 58.4513V56.9118C31.6282 56.8636 31.626 56.7624 31.6212 56.6063C31.6163 56.4508 31.6107 56.3516 31.6036 56.3101C31.5966 56.268 31.5847 56.2402 31.5679 56.2253C31.5504 56.211 31.5181 56.1994 31.4712 56.1926C31.4241 56.1852 31.3596 56.1811 31.279 56.1798L31.2629 56.1634V56.0725L31.279 56.0542C31.3897 56.061 31.5482 56.0644 31.7537 56.0644C31.9409 56.0644 32.0777 56.061 32.1625 56.0542L32.1808 56.0725V56.1634L32.1646 56.1798C32.0742 56.1811 32.0041 56.1858 31.955 56.1948C31.9058 56.2029 31.875 56.2171 31.8624 56.2375C31.8498 56.2572 31.8413 56.2864 31.8365 56.3252C31.8323 56.3631 31.8273 56.4548 31.8225 56.5994C31.8175 56.7441 31.8155 56.848 31.8155 56.9118V57.8564L31.8175 58.4037C31.8196 58.583 31.8225 58.7623 31.8253 58.9429C31.7573 58.9205 31.6387 58.8927 31.4697 58.8594L31.3238 58.6924L30.8862 58.175L29.4936 56.4901V58.016C29.4936 58.077 29.4965 58.1858 29.5006 58.342C29.5055 58.4988 29.5112 58.5933 29.5182 58.6265C29.5252 58.6597 29.5343 58.6829 29.5448 58.695C29.556 58.708 29.5798 58.7195 29.6156 58.7303C29.652 58.7406 29.7272 58.7467 29.8408 58.7481L29.8576 58.7636V58.8574L29.8408 58.8737C29.7699 58.8642 29.6549 58.8594 29.4958 58.8594C29.2917 58.8594 29.1128 58.8642 28.9593 58.8737ZM32.793 56.0624L32.8091 56.0481C33.0461 56.0589 33.208 56.0644 33.2943 56.0644L34.2557 56.044C34.53 56.044 34.7543 56.0691 34.9296 56.1187C35.105 56.1689 35.2606 56.2551 35.3966 56.3774C35.5334 56.5004 35.6365 56.6429 35.7072 56.8053C35.7774 56.9675 35.8132 57.1414 35.8132 57.3253C35.8132 57.5046 35.7809 57.6819 35.7164 57.8564C35.6519 58.0316 35.5607 58.1885 35.4423 58.327C35.3237 58.4655 35.1883 58.5776 35.0376 58.6625C34.8861 58.7474 34.734 58.8037 34.5825 58.8323C34.4303 58.8608 34.2747 58.875 34.1162 58.875C34.0089 58.875 33.8076 58.8717 33.5117 58.8635C33.4149 58.8608 33.3504 58.8594 33.3189 58.8594C33.2242 58.8594 33.1099 58.8649 32.9759 58.875L32.9591 58.8594V58.7936L32.9759 58.7739C33.0566 58.7338 33.1029 58.7093 33.1141 58.6992C33.126 58.6897 33.1358 58.5735 33.1428 58.3508C33.1505 58.1288 33.1548 57.9597 33.1548 57.8429V57.1128L33.1527 56.6613C33.1527 56.5628 33.1513 56.4827 33.1484 56.4215C33.1457 56.3597 33.1407 56.3156 33.1337 56.2891C33.1267 56.2627 33.119 56.2437 33.1106 56.2334C33.1015 56.2226 33.0868 56.2137 33.0671 56.2062C33.0475 56.1988 33.0131 56.1926 32.9655 56.1873L32.8091 56.1757L32.793 56.1614V56.0624ZM33.553 58.6584C33.6926 58.6849 33.8539 58.6985 34.0355 58.6985C34.3546 58.6985 34.6099 58.6468 34.8013 58.5429C34.992 58.4398 35.1351 58.2863 35.2297 58.0832C35.3237 57.8809 35.3714 57.652 35.3714 57.3974C35.3714 57.0219 35.2676 56.7305 35.0607 56.5234C34.8539 56.3169 34.5285 56.213 34.0832 56.213C33.8995 56.213 33.7227 56.2266 33.553 56.2531C33.5419 56.4704 33.5362 56.7163 33.5362 56.9892V57.614L33.5405 58.1987C33.5405 58.3127 33.5446 58.4662 33.553 58.6584ZM36.4598 56.0624L36.4759 56.0481C36.816 56.0589 37.0116 56.0644 37.0636 56.0644C37.1105 56.0644 37.3069 56.0589 37.6533 56.0481L37.6701 56.0624V56.1614L37.6533 56.1757C37.5586 56.1784 37.4856 56.1825 37.4344 56.1873C37.3833 56.1926 37.3461 56.2029 37.3223 56.2171C37.2992 56.2321 37.2837 56.266 37.276 56.3197C37.2689 56.3732 37.2648 56.448 37.2648 56.5438L37.2606 57.0015V57.6337C37.2606 57.8422 37.2655 57.995 37.2746 58.0928C37.283 58.1899 37.3026 58.2721 37.3321 58.3392C37.3615 58.4058 37.4064 58.4635 37.4661 58.5124C37.5263 58.5606 37.6126 58.6 37.7255 58.6306C37.8377 58.6611 37.9646 58.6761 38.1077 58.6761C38.2577 58.6761 38.3987 58.6564 38.5298 58.6156C38.6602 58.5756 38.7598 58.5165 38.8286 58.4398C38.8965 58.3631 38.9414 58.2618 38.9631 58.1362C38.9842 58.0106 38.9948 57.8367 38.9948 57.614V57.0015C38.9948 56.8976 38.9933 56.7556 38.9898 56.5743C38.9863 56.3936 38.9778 56.2891 38.9653 56.2619C38.952 56.2348 38.9281 56.2145 38.893 56.2002C38.858 56.1866 38.7612 56.1784 38.6027 56.1757L38.5859 56.1594V56.0663L38.6027 56.0481C38.8053 56.0589 38.9674 56.0644 39.0894 56.0644C39.1931 56.0644 39.3552 56.0589 39.5739 56.0481L39.5929 56.0644V56.1594L39.5739 56.1757C39.4456 56.1784 39.3615 56.1832 39.3222 56.1906C39.2836 56.1981 39.2563 56.209 39.2402 56.2233C39.2248 56.2382 39.2128 56.2606 39.2051 56.2912C39.1981 56.3217 39.1925 56.4093 39.1897 56.5532L39.1841 57.0015V57.6059C39.1841 57.8475 39.1743 58.0377 39.1553 58.177C39.1356 58.3162 39.0929 58.4309 39.027 58.5199C38.9604 58.6095 38.8818 58.6849 38.7906 58.7454C38.6995 58.8051 38.5824 58.852 38.44 58.8846C38.2977 58.9164 38.1497 58.9328 37.9962 58.9328C37.8047 58.9328 37.635 58.9124 37.4878 58.8717C37.3405 58.8302 37.2248 58.7759 37.1399 58.708C37.0551 58.6408 36.9941 58.5694 36.957 58.494C36.9198 58.4194 36.8959 58.3311 36.8847 58.2298C36.8741 58.1281 36.8686 57.9733 36.8686 57.7655V57.0015L36.8643 56.613C36.863 56.4623 36.8594 56.3645 36.8531 56.321C36.8469 56.2769 36.837 56.2476 36.8243 56.2334C36.8111 56.2185 36.7865 56.207 36.7494 56.1974C36.7122 56.188 36.621 56.1811 36.4759 56.1757L36.4598 56.1614V56.0624ZM40.2437 58.175L40.2604 58.1593H40.3607L40.3775 58.175C40.3846 58.3447 40.3937 58.4486 40.4049 58.4865C40.4169 58.524 40.454 58.5641 40.5164 58.6054C40.5781 58.6476 40.6616 58.6815 40.7647 58.708C40.8685 58.7345 40.9729 58.7481 41.0781 58.7481C41.2233 58.7481 41.3537 58.7222 41.4694 58.6707C41.5851 58.6183 41.6749 58.5429 41.7394 58.4425C41.8039 58.3427 41.8361 58.2298 41.8361 58.1057C41.8361 58.018 41.8207 57.9413 41.7899 57.8768C41.7591 57.8116 41.7163 57.7593 41.6601 57.7206C41.6047 57.6813 41.5416 57.652 41.4701 57.6331C41.3993 57.6134 41.2934 57.593 41.1517 57.5706C41.015 57.5488 40.9077 57.5298 40.8305 57.5128C40.7535 57.4952 40.6763 57.4687 40.5992 57.4327C40.5227 57.3974 40.459 57.3518 40.407 57.2968C40.3558 57.2418 40.3152 57.174 40.2843 57.0938C40.2534 57.0138 40.2381 56.9274 40.2381 56.8364C40.2381 56.5879 40.3271 56.3849 40.5052 56.2266C40.6827 56.0677 40.9217 55.9883 41.2219 55.9883C41.341 55.9883 41.4708 56.0025 41.6111 56.031C41.7513 56.0595 41.8796 56.1017 41.9946 56.1573L42.0086 56.1818C41.9785 56.3033 41.9603 56.4772 41.9533 56.7027L41.935 56.719H41.8277L41.8116 56.7047C41.8088 56.5458 41.8046 56.4453 41.799 56.4046C41.7934 56.3631 41.7317 56.3122 41.6124 56.2511C41.4933 56.19 41.3635 56.1594 41.224 56.1594C41.1076 56.1594 40.9989 56.1825 40.8972 56.2273C40.7962 56.2722 40.7191 56.3434 40.6672 56.4399C40.6152 56.537 40.5894 56.6361 40.5894 56.7367C40.5894 56.8147 40.6048 56.884 40.6363 56.9445C40.6679 57.0048 40.7085 57.0524 40.7583 57.0877C40.8088 57.123 40.867 57.1488 40.933 57.1665C40.9996 57.1835 41.1209 57.2045 41.2975 57.2303C41.5402 57.2629 41.717 57.303 41.827 57.3505C41.9371 57.3974 42.0255 57.472 42.0921 57.5739C42.158 57.6765 42.1917 57.7994 42.1917 57.944C42.1917 58.2265 42.0724 58.4622 41.8354 58.6503C41.5977 58.839 41.3095 58.9328 40.9715 58.9328C40.6875 58.9328 40.4393 58.8839 40.2254 58.786L40.2134 58.7596C40.2268 58.6761 40.2374 58.4812 40.2437 58.175ZM45.1804 56.0481L45.1993 56.0663C45.1867 56.1852 45.1804 56.3936 45.1804 56.6911L45.1642 56.7067H45.0675L45.0513 56.6891L45.0282 56.5057C45.0177 56.4079 45.0085 56.3476 45.003 56.3258C44.9967 56.304 44.9868 56.2877 44.9728 56.2783C44.9596 56.268 44.9146 56.2599 44.8396 56.2531C44.7638 56.2463 44.6798 56.243 44.5872 56.243H44.1987C44.1874 56.5431 44.1818 56.7163 44.1818 56.7624V57.9223L44.1861 58.3101C44.1874 58.4602 44.191 58.5573 44.1972 58.602C44.2035 58.6461 44.2134 58.6754 44.2259 58.6889C44.2393 58.7033 44.2646 58.7154 44.3011 58.725C44.3382 58.7351 44.4301 58.7426 44.5766 58.7481L44.5906 58.7596V58.8594L44.5766 58.875C44.2259 58.8649 44.0303 58.8594 43.9889 58.8594C43.9448 58.8594 43.7498 58.8649 43.4035 58.875L43.3874 58.8594V58.7596L43.4035 58.7481C43.5325 58.7426 43.6174 58.7358 43.6595 58.7284C43.7008 58.7202 43.7288 58.7101 43.7435 58.6972C43.7575 58.6849 43.7695 58.6577 43.7793 58.617C43.7892 58.5756 43.794 58.4839 43.794 58.342L43.7983 57.9223V56.7624C43.7983 56.7413 43.7926 56.5682 43.7815 56.243H43.475C43.3494 56.243 43.2407 56.2457 43.1488 56.2511C43.0571 56.2565 43.0037 56.2702 42.9897 56.2919C42.975 56.3136 42.9616 56.3849 42.9491 56.5057L42.9287 56.6891L42.9104 56.7067H42.8158L42.7997 56.6911C42.7968 56.3713 42.7906 56.1628 42.7807 56.0663L42.7997 56.0481C43.0381 56.0589 43.4343 56.0644 43.9889 56.0644C44.5549 56.0644 44.9519 56.0589 45.1804 56.0481ZM45.7764 56.0624L45.7932 56.0481C46.0436 56.0589 46.2385 56.0644 46.3781 56.0644C46.533 56.0644 46.7419 56.0595 47.0049 56.0501C47.1025 56.0474 47.1725 56.046 47.2168 56.046C47.5632 56.046 47.7981 56.1071 47.9215 56.2294C48.0442 56.3516 48.1059 56.4955 48.1059 56.6633C48.1059 56.7746 48.0758 56.884 48.0155 56.9912C47.9551 57.0986 47.8668 57.1902 47.749 57.267C47.6312 57.343 47.4685 57.4007 47.2616 57.4388C47.3002 57.4904 47.3696 57.58 47.4692 57.7077L47.7609 58.0812C47.8556 58.2048 47.9566 58.3352 48.0653 58.4723C48.1733 58.6095 48.2434 58.6876 48.2749 58.7053C48.3057 58.7229 48.3331 58.7338 48.3556 58.7379C48.3786 58.7419 48.4144 58.7439 48.4635 58.7439L48.4804 58.7596V58.8533L48.4615 58.8717C48.3955 58.8635 48.3177 58.8594 48.2272 58.8594C48.1305 58.8594 48.0239 58.8635 47.9089 58.8717C47.8142 58.7596 47.6655 58.5668 47.4629 58.2923C47.2272 57.974 46.9868 57.6791 46.7399 57.4069L46.7602 57.3457C46.8318 57.3492 46.8872 57.3512 46.9271 57.3512C47.1641 57.3512 47.3493 57.2961 47.4839 57.1861C47.6178 57.0762 47.6852 56.9234 47.6852 56.7285C47.6852 56.5532 47.6248 56.4215 47.5043 56.3319C47.3837 56.2423 47.2209 56.1974 47.0156 56.1974C46.8718 56.1974 46.7357 56.2165 46.6088 56.2551C46.5877 56.2844 46.578 56.5329 46.578 57.0015V57.9223L46.5801 58.3101C46.5814 58.4602 46.585 58.5573 46.592 58.6007C46.599 58.6448 46.6088 58.674 46.6221 58.6882C46.6348 58.7033 46.6599 58.7154 46.6971 58.725C46.7336 58.7351 46.8248 58.7426 46.9699 58.7481L46.9868 58.7596V58.8594L46.9699 58.875C46.9629 58.875 46.8431 58.8717 46.6088 58.8635C46.5113 58.8608 46.4356 58.8594 46.3801 58.8594C46.3381 58.8594 46.1425 58.8649 45.7932 58.875L45.7764 58.8594V58.7596L45.7932 58.7481C45.9202 58.7426 46.005 58.7358 46.0478 58.7284C46.0899 58.7202 46.1186 58.7101 46.1327 58.6972C46.1474 58.6849 46.1593 58.6577 46.1678 58.617C46.1768 58.5756 46.1817 58.4839 46.1832 58.342L46.1853 57.9223V57.0015L46.181 56.613C46.1796 56.4623 46.1761 56.3645 46.1698 56.321C46.1635 56.2769 46.1544 56.2476 46.1411 56.2334C46.1284 56.2185 46.1033 56.207 46.066 56.1974C46.0288 56.188 45.9385 56.1811 45.7932 56.1757L45.7764 56.1614V56.0624ZM49.033 56.0481L49.2897 56.0562C49.4579 56.0617 49.5688 56.0644 49.6207 56.0644C49.6669 56.0644 49.8633 56.0589 50.2104 56.0481L50.2265 56.0624V56.1614L50.2104 56.1757C50.1157 56.1784 50.0428 56.1825 49.9915 56.1873C49.9397 56.1926 49.9025 56.2029 49.8794 56.2171C49.8563 56.2321 49.8408 56.266 49.8331 56.3197C49.8254 56.3732 49.8219 56.448 49.8219 56.5438L49.8177 57.0015V57.9223L49.8197 58.3101C49.8212 58.4602 49.8254 58.5573 49.8324 58.6007C49.8387 58.6448 49.8485 58.674 49.8618 58.6882C49.8752 58.7033 49.8998 58.7154 49.9369 58.725C49.9741 58.7351 50.0653 58.7426 50.2104 58.7481L50.2265 58.7596V58.8594L50.2104 58.875C50.2034 58.875 50.0827 58.8717 49.8485 58.8635C49.7511 58.8608 49.6753 58.8594 49.6207 58.8594C49.5779 58.8594 49.3823 58.8649 49.033 58.875L49.0162 58.8594V58.7596L49.033 58.7481C49.1607 58.7426 49.2454 58.7358 49.2875 58.7284C49.3303 58.7202 49.3584 58.7101 49.3731 58.6972C49.3871 58.6849 49.3991 58.6577 49.4081 58.617C49.4165 58.5756 49.4222 58.4839 49.4229 58.342L49.4249 57.9223V57.0015L49.4215 56.613C49.4201 56.4623 49.4159 56.3645 49.4095 56.321C49.404 56.2769 49.3941 56.2476 49.3808 56.2334C49.3682 56.2185 49.3429 56.207 49.3065 56.1974C49.2694 56.188 49.1782 56.1811 49.033 56.1757L49.0162 56.1614V56.0624L49.033 56.0481Z" fill="white"/>
<path d="M50.8303 58.875L50.812 58.8594V58.7561L50.8303 58.7399C50.9298 58.7385 50.9943 58.7337 51.023 58.7249C51.0518 58.7167 51.0778 58.6991 51.1002 58.6733C51.1226 58.6475 51.1683 58.5626 51.2369 58.42L51.4529 57.9664L52.0118 56.7406C52.117 56.5003 52.2214 56.2605 52.326 56.0202H52.4592L53.3365 58.018L53.4536 58.2842C53.488 58.3602 53.5272 58.4424 53.572 58.5314C53.6163 58.6197 53.6471 58.6726 53.6639 58.6882C53.6815 58.7039 53.7026 58.7167 53.7278 58.7249C53.753 58.7337 53.8098 58.7385 53.8975 58.7399L53.9136 58.7561V58.8594L53.8975 58.875C53.7523 58.8635 53.6211 58.8574 53.5048 58.8574C53.2775 58.8642 53.0504 58.8703 52.8232 58.875L52.8064 58.8594V58.7561L52.8232 58.7399C52.9768 58.7371 53.0721 58.7311 53.1107 58.7208C53.1493 58.7114 53.1682 58.6882 53.1682 58.6522C53.1682 58.623 53.1584 58.5851 53.1394 58.5368L52.887 57.9303H51.6969L51.4733 58.4397C51.4333 58.5314 51.4137 58.5979 51.4137 58.6407C51.4137 58.6739 51.4318 58.6984 51.4691 58.714C51.5063 58.7303 51.5995 58.7385 51.7489 58.7399L51.7671 58.7561V58.8594L51.7503 58.875C51.5735 58.8648 51.4193 58.8594 51.286 58.8594C51.1353 58.8594 50.9838 58.8648 50.8303 58.875ZM51.7671 57.7593H52.8064L52.2909 56.5593L51.7671 57.7593ZM54.4992 56.0623L54.516 56.048C54.8553 56.0588 55.0517 56.0643 55.1036 56.0643C55.1499 56.0643 55.3463 56.0588 55.6933 56.048L55.7095 56.0623V56.1614L55.6933 56.1756C55.5987 56.1783 55.5258 56.1825 55.4745 56.1872C55.4226 56.1926 55.3855 56.2028 55.3624 56.2171C55.3392 56.232 55.3237 56.266 55.316 56.3196C55.3083 56.3732 55.3049 56.448 55.3049 56.5437L55.3006 57.0014V57.8808C55.3006 58.1008 55.302 58.2543 55.3049 58.342L55.3153 58.6862H55.734C56.0685 58.6862 56.2768 58.6822 56.3596 58.6746C56.4422 58.6665 56.5222 58.6468 56.5993 58.6169C56.6141 58.5836 56.6358 58.5069 56.6639 58.3881C56.6919 58.2686 56.7066 58.1993 56.708 58.1809L56.7263 58.1653H56.8273L56.8413 58.1809C56.8307 58.2339 56.8189 58.3365 56.8076 58.4893C56.7957 58.6421 56.7901 58.7649 56.7901 58.8594L56.7739 58.875C56.5138 58.8675 56.1715 58.8635 55.7488 58.8635L55.1485 58.8594C55.0117 58.8594 54.8722 58.8648 54.7299 58.875L54.713 58.8594V58.7935L54.7299 58.7738C54.8146 58.7311 54.861 58.7052 54.8694 58.6964C54.8771 58.6869 54.8862 58.6013 54.8947 58.4397C54.9037 58.278 54.9079 58.0825 54.9079 57.8551V57.0014L54.9044 56.613C54.9031 56.4622 54.8988 56.3644 54.8925 56.321C54.8869 56.2769 54.8771 56.2476 54.8637 56.2333C54.8512 56.2184 54.8259 56.2069 54.7887 56.1974C54.7523 56.1879 54.6611 56.1811 54.516 56.1756L54.4992 56.1614V56.0623ZM61.3221 58.5233L61.2442 58.7079C60.9399 58.858 60.6153 58.9328 60.2703 58.9328C59.7759 58.9328 59.3741 58.7969 59.0655 58.5253C58.7563 58.253 58.602 57.8978 58.602 57.4585C58.602 57.1562 58.6791 56.8921 58.8334 56.666C58.987 56.4398 59.1903 56.2707 59.4435 56.1587C59.696 56.0466 59.9799 55.9902 60.2948 55.9902C60.4771 55.9902 60.6574 56.0093 60.8354 56.0459C61.0129 56.0833 61.1616 56.1274 61.2807 56.1798L61.2954 56.1994C61.2639 56.2734 61.2344 56.4575 61.2071 56.7509L61.1924 56.7664H61.0964L61.0794 56.7509L61.0592 56.412C60.9589 56.3353 60.8383 56.2754 60.6966 56.232C60.5549 56.1892 60.407 56.1675 60.2541 56.1675C60.022 56.1675 59.8151 56.2157 59.6315 56.3122C59.4477 56.4078 59.3053 56.5471 59.2036 56.7298C59.1027 56.9118 59.0522 57.1352 59.0522 57.3994C59.0522 57.6642 59.1117 57.8971 59.231 58.0974C59.3495 58.2977 59.5122 58.4512 59.7184 58.5592C59.9246 58.6665 60.1658 58.7202 60.4406 58.7202C60.5626 58.7202 60.6798 58.7086 60.7919 58.6862C60.9042 58.6638 60.9981 58.636 61.0724 58.6027C61.1469 58.5694 61.2184 58.5294 61.287 58.4812L61.3221 58.5233ZM61.9491 57.4883C61.9491 57.2893 61.9785 57.104 62.0374 56.9315C62.0963 56.759 62.1965 56.5994 62.3382 56.4534C62.4799 56.3067 62.651 56.1934 62.8508 56.1132C63.0507 56.0323 63.2765 55.9924 63.529 55.9924C63.996 55.9924 64.3677 56.1152 64.6439 56.3618C64.921 56.6075 65.0591 56.9436 65.0591 57.3695C65.0591 57.669 64.9918 57.9386 64.8557 58.1769C64.7204 58.4159 64.5262 58.6013 64.2737 58.7337C64.0205 58.8668 63.7366 58.9328 63.4216 58.9328C63.1987 58.9328 62.9932 58.8967 62.8053 58.8247C62.618 58.7521 62.4582 58.6448 62.3256 58.5015C62.1938 58.3582 62.0977 58.1925 62.0381 58.0037C61.9785 57.8156 61.9491 57.6438 61.9491 57.4883ZM62.3761 57.3572C62.3761 57.5188 62.4035 57.6934 62.4575 57.8794C62.5115 58.0662 62.5921 58.2258 62.6993 58.3589C62.8073 58.492 62.9316 58.5911 63.0717 58.6564C63.2121 58.7215 63.3719 58.7541 63.5514 58.7541C63.7639 58.7541 63.9525 58.7066 64.118 58.6129C64.2842 58.5185 64.4097 58.3725 64.4959 58.1741C64.583 57.9759 64.6257 57.7532 64.6257 57.5066C64.6257 57.2384 64.5766 56.9966 64.4777 56.78C64.3788 56.5641 64.2386 56.4072 64.0562 56.3087C63.8747 56.211 63.6727 56.1614 63.4504 56.1614C63.1181 56.1614 62.8558 56.2626 62.6636 56.4643C62.4722 56.666 62.3761 56.9634 62.3761 57.3572ZM65.7042 58.8736L65.6859 58.8552V58.7636L65.7042 58.748C65.7884 58.7466 65.855 58.7419 65.9048 58.7337C65.9546 58.7263 65.9868 58.7127 66.0015 58.6943C66.0155 58.6761 66.0254 58.6461 66.0302 58.6046C66.0352 58.5633 66.0394 58.4709 66.0443 58.3263C66.0492 58.1817 66.052 58.0784 66.052 58.016V56.4086C66.052 56.3407 66.0387 56.2905 66.0134 56.2579C65.9882 56.2259 65.9539 56.2048 65.9096 56.1967C65.8661 56.1879 65.7912 56.1831 65.6859 56.1818L65.6699 56.1655V56.0724L65.6859 56.0541C65.8753 56.0609 65.9987 56.0643 66.0576 56.0643C66.1964 56.0643 66.31 56.0609 66.3992 56.0541L67.0541 56.8778L68.0176 58.0478C68.134 58.1898 68.2525 58.3243 68.3732 58.4512V56.9118C68.3732 56.8636 68.371 56.7623 68.3661 56.6062C68.3612 56.4507 68.3556 56.3515 68.3486 56.3101C68.3416 56.268 68.3297 56.2402 68.3128 56.2252C68.2953 56.211 68.263 56.1994 68.2161 56.1926C68.1691 56.1851 68.1045 56.1811 68.0239 56.1798L68.0078 56.1634V56.0724L68.0239 56.0541C68.1346 56.0609 68.2931 56.0643 68.4987 56.0643C68.6859 56.0643 68.8226 56.0609 68.9075 56.0541L68.9257 56.0724V56.1634L68.9095 56.1798C68.8192 56.1811 68.749 56.1858 68.6999 56.1947C68.6508 56.2028 68.62 56.2171 68.6073 56.2375C68.5947 56.2572 68.5863 56.2864 68.5814 56.3251C68.5772 56.3631 68.5722 56.4547 68.5674 56.5994C68.5625 56.7441 68.5604 56.848 68.5604 56.9118V57.8564L68.5625 58.4036C68.5645 58.583 68.5674 58.7623 68.5702 58.9429C68.5022 58.9205 68.3837 58.8927 68.2146 58.8594L68.0688 58.6923L67.6312 58.1749L66.2385 56.49V58.016C66.2385 58.077 66.2414 58.1857 66.2455 58.342C66.2505 58.4987 66.2561 58.5932 66.2631 58.6265C66.2702 58.6597 66.2792 58.6829 66.2897 58.695C66.3009 58.7079 66.3247 58.7195 66.3605 58.7303C66.397 58.7405 66.4721 58.7466 66.5857 58.748L66.6025 58.7636V58.8574L66.5857 58.8736C66.5149 58.8642 66.3999 58.8594 66.2407 58.8594C66.0366 58.8594 65.8577 58.8642 65.7042 58.8736ZM72.3421 58.5233L72.2643 58.7079C71.96 58.858 71.6353 58.9328 71.2903 58.9328C70.7959 58.9328 70.3941 58.7969 70.0855 58.5253C69.7763 58.253 69.622 57.8978 69.622 57.4585C69.622 57.1562 69.6991 56.8921 69.8535 56.666C70.007 56.4398 70.2104 56.2707 70.4636 56.1587C70.716 56.0466 70.9999 55.9902 71.3148 55.9902C71.4971 55.9902 71.6774 56.0093 71.8554 56.0459C72.0328 56.0833 72.1816 56.1274 72.3007 56.1798L72.3154 56.1994C72.2839 56.2734 72.2545 56.4575 72.2271 56.7509L72.2124 56.7664H72.1163L72.0994 56.7509L72.0792 56.412C71.9789 56.3353 71.8583 56.2754 71.7166 56.232C71.5749 56.1892 71.427 56.1675 71.2741 56.1675C71.042 56.1675 70.8351 56.2157 70.6514 56.3122C70.4677 56.4078 70.3253 56.5471 70.2236 56.7298C70.1227 56.9118 70.0722 57.1352 70.0722 57.3994C70.0722 57.6642 70.1318 57.8971 70.251 58.0974C70.3695 58.2977 70.5322 58.4512 70.7384 58.5592C70.9446 58.6665 71.1858 58.7202 71.4606 58.7202C71.5826 58.7202 71.6998 58.7086 71.812 58.6862C71.9242 58.6638 72.0181 58.636 72.0924 58.6027C72.1668 58.5694 72.2383 58.5294 72.307 58.4812L72.3421 58.5233ZM73.0203 56.0623L73.0364 56.048C73.5063 56.0562 73.807 56.0602 73.9382 56.0602C74.3876 56.0602 74.7874 56.0562 75.138 56.048L75.1485 56.0623C75.1142 56.1892 75.0889 56.3889 75.0728 56.6612L75.0602 56.6768H74.9592L74.9409 56.6612C74.9424 56.649 74.9431 56.6382 74.9431 56.6293C74.9431 56.5166 74.9339 56.4093 74.9164 56.3067C74.8301 56.2693 74.7109 56.2456 74.5581 56.234C74.4052 56.2232 74.2903 56.2171 74.2138 56.2171C74.1058 56.2171 73.967 56.2245 73.7986 56.2395L73.7909 56.5573L73.7845 56.9212L73.7782 57.3253C73.9263 57.3335 74.0623 57.3375 74.1871 57.3375C74.3133 57.3375 74.4186 57.3335 74.5033 57.3253C74.5882 57.3178 74.638 57.309 74.6527 57.3009C74.6668 57.2921 74.678 57.2751 74.685 57.2507C74.6927 57.2262 74.699 57.1827 74.7046 57.1203L74.7131 56.9973L74.7292 56.9811H74.8238L74.8406 56.9973C74.8379 57.142 74.8344 57.2873 74.8302 57.4326L74.8406 57.8808L74.8238 57.8965H74.7292L74.7131 57.8808L74.6983 57.7613C74.6864 57.6683 74.6773 57.6133 74.6717 57.5949C74.6668 57.5773 74.6534 57.5616 74.6338 57.548C74.6142 57.5352 74.563 57.5243 74.4809 57.5162C74.3989 57.5087 74.286 57.5046 74.1422 57.5046C74.0623 57.5046 73.941 57.508 73.7782 57.5148C73.7713 57.6262 73.7678 57.8115 73.7678 58.0717C73.7678 58.3501 73.7713 58.5551 73.7782 58.6862H74.1563C74.4894 58.6862 74.6969 58.6822 74.7811 58.6746C74.8646 58.6665 74.9438 58.6468 75.0194 58.6169C75.0314 58.5864 75.0518 58.5158 75.0798 58.4051C75.1079 58.2937 75.124 58.2245 75.1281 58.1966L75.1485 58.183H75.2474L75.2635 58.1966C75.2516 58.2536 75.239 58.3534 75.2277 58.4954C75.2159 58.6373 75.2102 58.7589 75.2102 58.8594L75.1955 58.875C74.9339 58.8675 74.5918 58.8635 74.1689 58.8635L73.61 58.8594C73.4796 58.8594 73.3442 58.8648 73.2032 58.875L73.1864 58.8594V58.7935L73.2032 58.7738C73.284 58.7337 73.3302 58.7092 73.3415 58.6991C73.3533 58.6896 73.3632 58.5735 73.3702 58.3508C73.3779 58.1287 73.3814 57.9596 73.3814 57.8428V57.1128L73.38 56.6612C73.38 56.5628 73.3786 56.4826 73.3757 56.4215C73.373 56.3596 73.368 56.3155 73.361 56.289C73.354 56.2626 73.3463 56.2436 73.3379 56.2333C73.3288 56.2225 73.3141 56.2136 73.2944 56.2062C73.2748 56.1987 73.2405 56.1926 73.1928 56.1872L73.0364 56.1756L73.0203 56.1614V56.0623ZM75.9374 56.0623L75.9542 56.048C76.2045 56.0588 76.3995 56.0643 76.5391 56.0643C76.694 56.0643 76.9029 56.0595 77.1659 56.05C77.2635 56.0474 77.3335 56.0459 77.3778 56.0459C77.7242 56.0459 77.9591 56.1071 78.0825 56.2294C78.2052 56.3515 78.2669 56.4955 78.2669 56.6632C78.2669 56.7746 78.2367 56.8839 78.1765 56.9912C78.1161 57.0985 78.0278 57.1902 77.91 57.2669C77.7921 57.343 77.6295 57.4007 77.4226 57.4388C77.4612 57.4903 77.5306 57.58 77.6302 57.7076L77.9219 58.0811C78.0166 58.2047 78.1176 58.3351 78.2263 58.4722C78.3342 58.6095 78.4044 58.6875 78.4359 58.7052C78.4667 58.7228 78.4941 58.7337 78.5165 58.7379C78.5396 58.7419 78.5754 58.7439 78.6245 58.7439L78.6414 58.7596V58.8532L78.6225 58.8716C78.5565 58.8635 78.4787 58.8594 78.3882 58.8594C78.2915 58.8594 78.1849 58.8635 78.0699 58.8716C77.9752 58.7596 77.8265 58.5667 77.6239 58.2923C77.3882 57.9739 77.1478 57.6791 76.9009 57.4068L76.9212 57.3457C76.9928 57.3491 77.0482 57.3511 77.0881 57.3511C77.3251 57.3511 77.5103 57.2961 77.6449 57.1861C77.7788 57.0762 77.8462 56.9234 77.8462 56.7285C77.8462 56.5532 77.7858 56.4215 77.6653 56.3318C77.5446 56.2422 77.3819 56.1974 77.1766 56.1974C77.0328 56.1974 76.8967 56.2164 76.7698 56.255C76.7487 56.2844 76.739 56.5328 76.739 57.0014V57.9222L76.741 58.31C76.7424 58.4601 76.746 58.5572 76.753 58.6007C76.76 58.6448 76.7698 58.6739 76.7831 58.6882C76.7958 58.7032 76.8209 58.7154 76.8581 58.7249C76.8946 58.7351 76.9858 58.7426 77.1309 58.748L77.1478 58.7596V58.8594L77.1309 58.875C77.1238 58.875 77.004 58.8716 76.7698 58.8635C76.6723 58.8607 76.5966 58.8594 76.5411 58.8594C76.499 58.8594 76.3035 58.8648 75.9542 58.875L75.9374 58.8594V58.7596L75.9542 58.748C76.0812 58.7426 76.166 58.7357 76.2088 58.7283C76.2509 58.7201 76.2796 58.71 76.2937 58.6971C76.3084 58.6849 76.3203 58.6577 76.3288 58.6169C76.3378 58.5755 76.3427 58.4838 76.3442 58.342L76.3462 57.9222V57.0014L76.342 56.613C76.3406 56.4622 76.3371 56.3644 76.3308 56.321C76.3245 56.2769 76.3154 56.2476 76.302 56.2333C76.2894 56.2184 76.2642 56.2069 76.227 56.1974C76.1898 56.1879 76.0994 56.1811 75.9542 56.1756L75.9374 56.1614V56.0623ZM79.208 58.8736L79.1898 58.8552V58.7636L79.208 58.748C79.2922 58.7466 79.3588 58.7419 79.4086 58.7337C79.4584 58.7263 79.4906 58.7127 79.5053 58.6943C79.5194 58.6761 79.5292 58.6461 79.5341 58.6046C79.539 58.5633 79.5433 58.4709 79.5481 58.3263C79.5531 58.1817 79.5558 58.0784 79.5558 58.016V56.4086C79.5558 56.3407 79.5424 56.2905 79.5173 56.2579C79.492 56.2259 79.4577 56.2048 79.4134 56.1967C79.3699 56.1879 79.295 56.1831 79.1898 56.1818L79.1736 56.1655V56.0724L79.1898 56.0541C79.3791 56.0609 79.5026 56.0643 79.5614 56.0643C79.7002 56.0643 79.8139 56.0609 79.903 56.0541L80.5579 56.8778L81.5214 58.0478C81.6378 58.1898 81.7563 58.3243 81.877 58.4512V56.9118C81.877 56.8636 81.8748 56.7623 81.87 56.6062C81.865 56.4507 81.8594 56.3515 81.8524 56.3101C81.8454 56.268 81.8335 56.2402 81.8166 56.2252C81.7991 56.211 81.7668 56.1994 81.7199 56.1926C81.6728 56.1851 81.6083 56.1811 81.5277 56.1798L81.5116 56.1634V56.0724L81.5277 56.0541C81.6385 56.0609 81.7969 56.0643 82.0024 56.0643C82.1897 56.0643 82.3264 56.0609 82.4113 56.0541L82.4296 56.0724V56.1634L82.4134 56.1798C82.323 56.1811 82.2528 56.1858 82.2037 56.1947C82.1546 56.2028 82.1238 56.2171 82.1111 56.2375C82.0985 56.2572 82.0901 56.2864 82.0853 56.3251C82.081 56.3631 82.0761 56.4547 82.0712 56.5994C82.0663 56.7441 82.0642 56.848 82.0642 56.9118V57.8564L82.0663 58.4036C82.0683 58.583 82.0712 58.7623 82.074 58.9429C82.006 58.9205 81.8874 58.8927 81.7184 58.8594L81.5726 58.6923L81.135 58.1749L79.7423 56.49V58.016C79.7423 58.077 79.7452 58.1857 79.7494 58.342C79.7543 58.4987 79.7599 58.5932 79.7669 58.6265C79.7739 58.6597 79.7831 58.6829 79.7935 58.695C79.8048 58.7079 79.8286 58.7195 79.8644 58.7303C79.9008 58.7405 79.9759 58.7466 80.0895 58.748L80.1063 58.7636V58.8574L80.0895 58.8736C80.0187 58.8642 79.9037 58.8594 79.7445 58.8594C79.5404 58.8594 79.3616 58.8642 79.208 58.8736Z" fill="white"/>
<path d="M0.554467 50.237L0.486084 50.177V49.7805L0.554467 49.7179C0.927596 49.7126 1.16947 49.6944 1.2772 49.6605C1.385 49.6292 1.48221 49.5613 1.56627 49.4623C1.65043 49.3631 1.82123 49.0371 2.07885 48.4893L2.88832 46.7468L4.98312 42.0386C5.37731 41.1153 5.76902 40.1944 6.16063 39.2711H6.65993L9.94802 46.9452L10.3869 47.9676C10.5157 48.2598 10.6629 48.5754 10.8311 48.9171C10.9966 49.2562 11.1123 49.4596 11.1754 49.5197C11.2411 49.5797 11.32 49.6292 11.4146 49.6605C11.5093 49.6944 11.7221 49.7126 12.0506 49.7179L12.1111 49.7805V50.177L12.0506 50.237C11.5066 50.1926 11.0151 50.1691 10.5788 50.1691C9.72721 50.1952 8.87563 50.2187 8.02403 50.237L7.96104 50.177V49.7805L8.02403 49.7179C8.59972 49.7075 8.95705 49.684 9.1017 49.6449C9.24624 49.6083 9.31724 49.5197 9.31724 49.3813C9.31724 49.2692 9.2804 49.1232 9.20944 48.9379L8.2632 46.6086H3.80302L2.96459 48.5649C2.81474 48.9171 2.74121 49.1727 2.74121 49.337C2.74121 49.4649 2.80947 49.5588 2.94881 49.6187C3.08807 49.6813 3.43764 49.7126 3.99746 49.7179L4.06584 49.7805V50.177L4.00276 50.237C3.34041 50.1979 2.76216 50.177 2.26286 50.177C1.69776 50.177 1.13004 50.1979 0.554467 50.237ZM4.06584 45.9513H7.96104L6.02915 41.3421L4.06584 45.9513ZM14.629 47.5477L14.6921 47.4876H15.0679L15.131 47.5477C15.1573 48.1998 15.1915 48.5989 15.2335 48.7449C15.2783 48.8884 15.4175 49.0423 15.6514 49.2014C15.8827 49.3631 16.1956 49.4936 16.5819 49.5952C16.9709 49.697 17.3625 49.7492 17.7567 49.7492C18.3008 49.7492 18.7896 49.65 19.2233 49.4518C19.657 49.2509 19.9934 48.9614 20.2352 48.5754C20.477 48.1919 20.5979 47.7589 20.5979 47.2816C20.5979 46.9452 20.5402 46.6503 20.4245 46.4025C20.3088 46.1521 20.1484 45.9513 19.9382 45.8026C19.7306 45.6513 19.494 45.5392 19.226 45.4662C18.9605 45.3905 18.5637 45.3122 18.0327 45.2261C17.5202 45.1427 17.118 45.0697 16.8289 45.0044C16.5398 44.9366 16.2507 44.8349 15.9615 44.6966C15.6751 44.561 15.4359 44.3862 15.2414 44.1749C15.0496 43.9637 14.8971 43.7028 14.7814 43.395C14.6659 43.0872 14.6081 42.7559 14.6081 42.4064C14.6081 41.4517 14.9418 40.6718 15.6094 40.064C16.2744 39.4537 17.1706 39.1484 18.2955 39.1484C18.7423 39.1484 19.2286 39.2032 19.7542 39.3128C20.2799 39.4223 20.7609 39.584 21.1919 39.7979L21.2445 39.8918C21.1315 40.3587 21.0631 41.0266 21.0368 41.8925L20.9685 41.9551H20.5664L20.5059 41.9003C20.4954 41.29 20.4796 40.9039 20.4586 40.7474C20.4376 40.5883 20.2063 40.3926 19.7595 40.1579C19.3127 39.9231 18.8265 39.8057 18.3034 39.8057C17.8671 39.8057 17.4597 39.8944 17.0786 40.0666C16.7001 40.2388 16.4111 40.5127 16.2165 40.883C16.022 41.2561 15.9248 41.637 15.9248 42.0229C15.9248 42.3229 15.9826 42.589 16.1009 42.8211C16.2192 43.0533 16.3716 43.2359 16.5582 43.3715C16.7474 43.5072 16.9656 43.6063 17.2126 43.6741C17.4624 43.7393 17.9171 43.8202 18.5794 43.9193C19.4888 44.0445 20.1511 44.1983 20.5638 44.3809C20.9764 44.561 21.3076 44.8479 21.5572 45.2392C21.8043 45.6331 21.9305 46.1051 21.9305 46.6608C21.9305 47.7459 21.4837 48.651 20.5952 49.3735C19.7043 50.0987 18.624 50.4587 17.3572 50.4587C16.2928 50.4587 15.3623 50.2709 14.5608 49.8952L14.516 49.7936C14.5659 49.4727 14.6053 48.724 14.629 47.5477ZM27.2344 44.6445C28.5222 43.4889 29.4526 42.6256 30.0256 42.0569C30.5986 41.4882 31.0691 41.0213 31.4423 40.6509C31.8156 40.2832 32.0362 40.0431 32.1098 39.9362V39.4406L32.1861 39.378C32.5751 39.3989 33.0008 39.4093 33.4634 39.4093C33.5659 39.4093 33.9733 39.4014 34.6804 39.3858L34.7565 39.4562V39.8136L34.6961 39.8762C34.2178 39.8762 33.8919 39.9022 33.7184 39.957C33.5423 40.0092 33.2873 40.1736 32.9509 40.4448C32.6145 40.7188 32.2281 41.0526 31.7919 41.4491L28.6747 44.2766L33.311 48.5336C34.0548 49.2222 34.4701 49.5952 34.5621 49.6578C34.6514 49.7179 34.8381 49.7544 35.1193 49.7649L35.1745 49.8248V50.1457L35.1193 50.2083C34.8223 50.1874 34.5148 50.177 34.1941 50.177C34.0049 50.177 33.5896 50.1874 32.9483 50.2083C32.4804 49.7701 32.0705 49.3813 31.7209 49.0449C31.3686 48.7083 29.8732 47.3442 27.2344 44.9496V46.5773L27.2423 48.0667C27.2476 48.6432 27.2633 49.0162 27.2896 49.1831C27.3132 49.3527 27.3499 49.4649 27.4 49.5197C27.4499 49.577 27.5419 49.624 27.6812 49.6605C27.8204 49.6997 28.1621 49.7283 28.7063 49.7492L28.7666 49.7936V50.177L28.7063 50.237C28.6799 50.237 28.2279 50.2239 27.3499 50.1926C26.9847 50.1822 26.7008 50.177 26.4958 50.177C26.3355 50.177 25.6022 50.1979 24.2933 50.237L24.2302 50.177V49.7936L24.2933 49.7492C24.7716 49.7283 25.0897 49.7022 25.2474 49.6735C25.4077 49.6422 25.5128 49.6031 25.568 49.5535C25.6206 49.5065 25.6652 49.4022 25.6994 49.2457C25.7309 49.0866 25.752 48.7345 25.7546 48.1894L25.7625 46.5773V43.0402L25.7494 41.5481C25.7441 40.9691 25.7283 40.5936 25.7047 40.4266C25.6836 40.257 25.6469 40.1449 25.597 40.0901C25.5497 40.0327 25.455 39.9883 25.3184 39.9519C25.179 39.9153 24.8373 39.8893 24.2933 39.8683L24.2302 39.8136V39.4328L24.2933 39.378L25.2553 39.4093C25.8861 39.4302 26.3013 39.4406 26.4958 39.4406C26.6693 39.4406 27.4052 39.4197 28.7063 39.378L28.7666 39.4328V39.8136L28.7063 39.8683C28.3514 39.8788 28.0781 39.8944 27.8862 39.9127C27.6917 39.9335 27.5524 39.9727 27.4657 40.0275C27.3789 40.0849 27.3211 40.2153 27.2922 40.4214C27.2633 40.6274 27.2501 40.9143 27.2501 41.2822L27.2344 43.0402V44.6445ZM37.3901 39.4328L37.4506 39.378C39.2115 39.4093 40.339 39.4249 40.8306 39.4249C42.5153 39.4249 44.0134 39.4093 45.3276 39.378L45.367 39.4328C45.2383 39.9206 45.1436 40.6875 45.0831 41.7334L45.0359 41.7934H44.6574L44.5891 41.7334C44.5943 41.6865 44.5969 41.6447 44.5969 41.6108C44.5969 41.1778 44.5627 40.7657 44.4971 40.3718C44.1738 40.2284 43.7269 40.137 43.1541 40.0928C42.5811 40.0509 42.15 40.0275 41.8635 40.0275C41.4588 40.0275 40.9384 40.0562 40.3075 40.1135L40.2786 41.3343L40.255 42.7324L40.2313 44.2845C40.7859 44.3158 41.2958 44.3314 41.7636 44.3314C42.2367 44.3314 42.631 44.3158 42.949 44.2845C43.2671 44.2558 43.4536 44.2218 43.5088 44.1905C43.5614 44.1566 43.6035 44.0915 43.6297 43.9975C43.6587 43.9036 43.6823 43.7367 43.7033 43.4967L43.7348 43.0246L43.7953 42.962H44.1501L44.2132 43.0246C44.2027 43.5802 44.1895 44.1384 44.1738 44.6966L44.2132 46.4182L44.1501 46.4782H43.7953L43.7348 46.4182L43.6796 45.9591C43.635 45.6018 43.6008 45.3905 43.5798 45.32C43.5614 45.2522 43.5114 45.1922 43.4379 45.14C43.3643 45.0905 43.1724 45.0488 42.8649 45.0175C42.5574 44.9887 42.1342 44.9731 41.5954 44.9731C41.2957 44.9731 40.841 44.9861 40.2313 45.0122C40.2051 45.44 40.1919 46.1521 40.1919 47.1512C40.1919 48.2207 40.2051 49.0083 40.2313 49.5118H41.648C42.8964 49.5118 43.6744 49.4962 43.9897 49.4674C44.3026 49.4361 44.5996 49.3605 44.8834 49.2457C44.9281 49.1283 45.0044 48.8571 45.1095 48.4319C45.2146 48.0041 45.2751 47.7381 45.2909 47.6311L45.367 47.579H45.7377L45.7981 47.6311C45.7534 47.8502 45.7062 48.2336 45.664 48.7788C45.6194 49.324 45.5983 49.7909 45.5983 50.177L45.5431 50.237C44.5627 50.2083 43.2801 50.1926 41.6953 50.1926L39.6006 50.177C39.1116 50.177 38.6044 50.1979 38.0761 50.237L38.0131 50.177V49.9239L38.0761 49.8482C38.3784 49.6944 38.5518 49.6005 38.5939 49.5613C38.6386 49.5249 38.6754 49.0788 38.7017 48.2232C38.7306 47.3702 38.7437 46.7207 38.7437 46.2721V43.468L38.7385 41.7334C38.7385 41.3552 38.7332 41.0474 38.7227 40.8126C38.7121 40.5752 38.6938 40.4057 38.6675 40.3039C38.6411 40.2022 38.6123 40.1292 38.5808 40.0901C38.5466 40.0484 38.4914 40.0145 38.4177 39.9858C38.3442 39.957 38.2154 39.9335 38.0367 39.9127L37.4506 39.8683L37.3901 39.8136V39.4328ZM48.2845 39.4328L48.3476 39.378C49.6196 39.4197 50.3555 39.4406 50.55 39.4406C50.7235 39.4406 51.4594 39.4197 52.7604 39.378L52.8209 39.4328V39.8136L52.7604 39.8683C52.4057 39.8788 52.1322 39.8944 51.9404 39.9127C51.7459 39.9335 51.6066 39.9727 51.5198 40.0275C51.4332 40.0849 51.3753 40.2153 51.3464 40.4214C51.3175 40.6274 51.3043 40.9143 51.3043 41.2822L51.2885 43.0402V46.4182C51.2885 47.2633 51.2938 47.8528 51.3043 48.1894L51.3437 49.5118H52.9128C54.1665 49.5118 54.9471 49.4962 55.2573 49.4674C55.5674 49.4361 55.8671 49.3605 56.1562 49.2457C56.2114 49.1179 56.2929 48.8232 56.398 48.3667C56.5031 47.9076 56.5583 47.6416 56.5636 47.5711L56.6319 47.5111H57.0104L57.063 47.5711C57.0236 47.7745 56.9789 48.1684 56.9368 48.7553C56.8921 49.3423 56.8711 49.8144 56.8711 50.177L56.8106 50.237C55.8356 50.2083 54.5529 50.1926 52.9681 50.1926L50.7182 50.177C50.2057 50.177 49.6827 50.1979 49.1491 50.237L49.086 50.177V49.9239L49.1491 49.8482C49.4672 49.684 49.6407 49.5848 49.6722 49.5509C49.701 49.5144 49.7353 49.1858 49.7668 48.5649C49.801 47.9442 49.8167 47.1929 49.8167 46.319V43.0402L49.8036 41.5481C49.7982 40.9691 49.7826 40.5936 49.7589 40.4266C49.7379 40.257 49.701 40.1449 49.6511 40.0901C49.6038 40.0327 49.5092 39.9883 49.37 39.9519C49.2333 39.9153 48.8916 39.8893 48.3476 39.8683L48.2845 39.8136V39.4328ZM59.4574 39.4328L59.5204 39.378C60.7925 39.4197 61.5284 39.4406 61.7229 39.4406C61.8964 39.4406 62.6323 39.4197 63.9333 39.378L63.9938 39.4328V39.8136L63.9333 39.8683C63.5785 39.8788 63.3051 39.8944 63.1133 39.9127C62.9188 39.9335 62.7795 39.9727 62.6927 40.0275C62.6061 40.0849 62.5482 40.2153 62.5193 40.4214C62.4904 40.6274 62.4772 40.9143 62.4772 41.2822L62.4614 43.0402V46.4182C62.4614 47.2633 62.4667 47.8528 62.4772 48.1894L62.5166 49.5118H64.0858C65.3394 49.5118 66.12 49.4962 66.4302 49.4674C66.7403 49.4361 67.04 49.3605 67.3291 49.2457C67.3843 49.1179 67.4658 48.8232 67.5709 48.3667C67.676 47.9076 67.7312 47.6416 67.7365 47.5711L67.8048 47.5111H68.1833L68.2359 47.5711C68.1964 47.7745 68.1517 48.1684 68.1097 48.7553C68.065 49.3423 68.044 49.8144 68.044 50.177L67.9835 50.237C67.0085 50.2083 65.7258 50.1926 64.1409 50.1926L61.8911 50.177C61.3786 50.177 60.8556 50.1979 60.322 50.237L60.2589 50.177V49.9239L60.322 49.8482C60.64 49.684 60.8135 49.5848 60.8451 49.5509C60.8739 49.5144 60.9082 49.1858 60.9397 48.5649C60.9739 47.9442 60.9896 47.1929 60.9896 46.319V43.0402L60.9765 41.5481C60.9712 40.9691 60.9555 40.5936 60.9318 40.4266C60.9108 40.257 60.8739 40.1449 60.824 40.0901C60.7767 40.0327 60.6821 39.9883 60.5428 39.9519C60.4062 39.9153 60.0645 39.8893 59.5204 39.8683L59.4574 39.8136V39.4328ZM70.6854 50.237L70.6171 50.177V49.7805L70.6854 49.7179C71.0586 49.7126 71.3004 49.6944 71.4082 49.6605C71.516 49.6292 71.6132 49.5613 71.6972 49.4623C71.7814 49.3631 71.9522 49.0371 72.2098 48.4893L73.0193 46.7468L75.1141 42.0386C75.5083 41.1153 75.9 40.1944 76.2916 39.2711H76.7909L80.079 46.9452L80.5179 47.9676C80.6467 48.2598 80.7938 48.5754 80.9621 48.9171C81.1276 49.2562 81.2433 49.4596 81.3064 49.5197C81.3721 49.5797 81.451 49.6292 81.5456 49.6605C81.6402 49.6944 81.853 49.7126 82.1816 49.7179L82.2421 49.7805V50.177L82.1816 50.237C81.6375 50.1926 81.1461 50.1691 80.7098 50.1691C79.8582 50.1952 79.0066 50.2187 78.155 50.237L78.092 50.177V49.7805L78.155 49.7179C78.7307 49.7075 79.088 49.684 79.2327 49.6449C79.3772 49.6083 79.4482 49.5197 79.4482 49.3813C79.4482 49.2692 79.4114 49.1232 79.3404 48.9379L78.3942 46.6086H73.934L73.0956 48.5649C72.9457 48.9171 72.8722 49.1727 72.8722 49.337C72.8722 49.4649 72.9404 49.5588 73.0798 49.6187C73.219 49.6813 73.5686 49.7126 74.1284 49.7179L74.1968 49.7805V50.177L74.1337 50.237C73.4714 50.1979 72.8931 50.177 72.3938 50.177C71.8287 50.177 71.261 50.1979 70.6854 50.237ZM74.1968 45.9513H78.092L76.1601 41.3421L74.1968 45.9513Z" fill="white"/>
<path d="M30.4896 11.7484L41.1041 5.61882L51.6368 11.7484L56.5405 8.92882L41.1041 0L25.5859 8.92882L30.4896 11.7484Z" fill="#C9C9C9"/>
<path d="M41.1042 30.1075L51.7079 24.037L51.637 11.7493L56.5406 8.92969L56.5918 26.849L41.1043 35.7917L41.1042 30.1075Z" fill="#FBFBFB"/>
<path d="M41.104 30.1067L30.5017 23.986L30.4895 11.7493L25.5858 8.92969L25.6185 26.8578L41.104 35.7912L41.104 30.1067Z" fill="#E1E1E1"/>
<path d="M32.8392 22.5847L41.104 17.8219V8.17188L32.7371 12.9951V22.6419L32.8392 22.5847Z" fill="#FBFBFB"/>
<path d="M49.369 22.5928L41.1043 17.8219V8.17188L49.4712 12.9951L49.4548 22.6419L49.369 22.5928Z" fill="#E1E1E1"/>
<path d="M32.7371 22.6402L41.104 17.8223L49.4546 22.6402L41.104 27.4723L32.7371 22.6402Z" fill="#C9C9C9"/>
<mask id="mask0_829_742" style="mask-type:alpha" maskUnits="userSpaceOnUse" x="32" y="17" width="18" height="11">
<path d="M32.7371 22.6402L41.104 17.8223L49.4546 22.6402L41.104 27.4723L32.7371 22.6402Z" fill="url(#paint0_linear_829_742)"/>
</mask>
<g mask="url(#mask0_829_742)">
<path opacity="0.17" d="M32.7371 22.6402L41.104 17.8223L49.4546 22.6402L41.104 27.4723L32.7371 22.6402Z" fill="white"/>
</g>
<defs>
<linearGradient id="paint0_linear_829_742" x1="41.0958" y1="17.8223" x2="41.1142" y2="31.3074" gradientUnits="userSpaceOnUse">
<stop stop-color="#FFC40E"/>
<stop offset="0.1875" stop-color="#FFBC01"/>
<stop offset="0.395833" stop-color="#F9B200"/>
<stop offset="0.644361" stop-color="#F7AC04"/>
<stop offset="1" stop-color="#F59F0D"/>
</linearGradient>
</defs>
</svg>
