<svg width="91" height="68" viewBox="0 0 91 68" fill="none" xmlns="http://www.w3.org/2000/svg">
<path d="M0 64.6109L0.0178441 64.5946C0.537671 64.6039 0.870377 64.6085 1.01554 64.6085C1.51275 64.6085 1.95498 64.6039 2.3429 64.5946L2.35446 64.6109C2.31657 64.756 2.28855 64.9841 2.27075 65.2951L2.25676 65.3129H2.14504L2.12481 65.2951C2.12646 65.2811 2.12723 65.2688 2.12723 65.2586C2.12723 65.1299 2.11706 65.0073 2.09771 64.8901C2.00231 64.8474 1.87036 64.8203 1.7013 64.8071C1.5322 64.7947 1.40496 64.7877 1.32034 64.7877C1.20091 64.7877 1.04737 64.7963 0.861068 64.8133L0.852576 65.1764L0.845553 65.5922L0.838548 66.0538C1.00233 66.0632 1.1528 66.0678 1.29085 66.0678C1.43055 66.0678 1.54696 66.0632 1.64071 66.0538C1.73464 66.0452 1.78972 66.0352 1.806 66.0259C1.8215 66.0158 1.83397 65.9964 1.84172 65.9686C1.85026 65.9405 1.85728 65.8909 1.86338 65.8195L1.87279 65.6791L1.89058 65.6605H1.99528L2.01386 65.6791C2.01083 65.8444 2.00703 66.0104 2.0023 66.1764L2.01386 66.6884L1.99528 66.7063H1.89058L1.87279 66.6884L1.8565 66.5519C1.84325 66.4456 1.8332 66.3828 1.82696 66.3618C1.8215 66.3417 1.80673 66.3237 1.78513 66.3082C1.76334 66.2936 1.70675 66.2811 1.6159 66.2719C1.52522 66.2633 1.40028 66.2586 1.24122 66.2586C1.1528 66.2586 1.01861 66.2625 0.838548 66.2703C0.830935 66.3975 0.826975 66.6092 0.826975 66.9064C0.826975 67.2245 0.830935 67.4587 0.838548 67.6085H1.25677C1.62534 67.6085 1.85484 67.6039 1.94795 67.5953C2.04032 67.586 2.12802 67.5634 2.21172 67.5294C2.22493 67.4945 2.24744 67.4138 2.27849 67.2874C2.30954 67.1602 2.32735 67.081 2.33194 67.0492L2.35446 67.0337H2.46389L2.48168 67.0492C2.4686 67.1143 2.45457 67.2283 2.44214 67.3905C2.42902 67.5526 2.42279 67.6915 2.42279 67.8063L2.4065 67.8241C2.11705 67.8156 1.73858 67.811 1.27077 67.811L0.652421 67.8063C0.508132 67.8063 0.358433 67.8125 0.202448 67.8241L0.18387 67.8063V67.7311L0.202448 67.7086C0.291746 67.6628 0.342884 67.6348 0.35536 67.6233C0.368477 67.6124 0.379391 67.4797 0.387142 67.2253C0.395673 66.9716 0.399522 66.7785 0.399522 66.645V65.811L0.397963 65.2951C0.397963 65.1827 0.396452 65.0911 0.393287 65.0212C0.390214 64.9506 0.384753 64.9002 0.377002 64.8699C0.369205 64.8398 0.360683 64.818 0.351418 64.8063C0.341374 64.794 0.325082 64.7838 0.303296 64.7753C0.281557 64.7668 0.243629 64.7598 0.190839 64.7537L0.0178441 64.7404L0 64.7241V64.6109ZM3.20015 64.6109L3.21794 64.5946C3.59417 64.607 3.81056 64.6132 3.86807 64.6132C3.91999 64.6132 4.13729 64.607 4.52049 64.5946L4.53907 64.6109V64.7241L4.52049 64.7404C4.41578 64.7435 4.33502 64.7482 4.27838 64.7537C4.22178 64.7598 4.18067 64.7715 4.15435 64.7877C4.12876 64.8048 4.1116 64.8436 4.10307 64.9049C4.09528 64.9661 4.09075 65.0515 4.09075 65.1609L4.08602 65.6838V66.4061C4.08602 66.6442 4.09147 66.8188 4.10151 66.9305C4.11082 67.0414 4.13257 67.1353 4.16513 67.212C4.19774 67.2881 4.24732 67.354 4.31337 67.4099C4.38005 67.465 4.47544 67.51 4.60038 67.5449C4.72458 67.5797 4.86488 67.5969 5.02316 67.5969C5.18918 67.5969 5.34518 67.5744 5.4902 67.5278C5.63449 67.482 5.74466 67.4146 5.82075 67.3269C5.89592 67.2393 5.94555 67.1236 5.96963 66.9801C5.99288 66.8366 6.00456 66.638 6.00456 66.3835V65.6838C6.00456 65.5651 6.00292 65.4029 5.99912 65.1957C5.99517 64.9894 5.98591 64.8699 5.97201 64.8389C5.95724 64.808 5.93083 64.7847 5.89198 64.7684C5.85332 64.7529 5.74617 64.7435 5.57088 64.7404L5.5523 64.7218V64.6155L5.57088 64.5946C5.79506 64.607 5.9743 64.6132 6.10928 64.6132C6.22408 64.6132 6.40332 64.607 6.6453 64.5946L6.6663 64.6132V64.7218L6.6453 64.7404C6.50331 64.7435 6.41033 64.7489 6.3668 64.7575C6.32419 64.766 6.29389 64.7785 6.2761 64.7948C6.25903 64.8118 6.24582 64.8374 6.23729 64.8724C6.22954 64.9072 6.22329 65.0073 6.22022 65.1717L6.21398 65.6838V66.3743C6.21398 66.6503 6.2032 66.8676 6.1822 67.0267C6.16046 67.1857 6.11312 67.3167 6.0402 67.4184C5.96654 67.5208 5.87963 67.607 5.77877 67.676C5.67801 67.7442 5.54836 67.7978 5.39086 67.8351C5.23345 67.8715 5.06971 67.8902 4.89988 67.8902C4.68803 67.8902 4.50026 67.8669 4.33739 67.8203C4.17444 67.773 4.04643 67.7109 3.95254 67.6333C3.8588 67.5566 3.79124 67.475 3.75015 67.3889C3.70905 67.3037 3.6826 67.2028 3.67026 67.0871C3.65852 66.9708 3.65242 66.794 3.65242 66.5566V65.6838L3.64774 65.24C3.64618 65.0678 3.64223 64.9561 3.63526 64.9064C3.62838 64.8561 3.61743 64.8226 3.60344 64.8063C3.58881 64.7893 3.5616 64.7762 3.5205 64.7652C3.47941 64.7544 3.37851 64.7466 3.21794 64.7404L3.20015 64.7241V64.6109ZM7.30244 64.6109L7.32102 64.5946C7.59799 64.607 7.81359 64.6132 7.96806 64.6132C8.13946 64.6132 8.37062 64.6077 8.66158 64.5969C8.76945 64.5939 8.84697 64.5922 8.89596 64.5922C9.27915 64.5922 9.53907 64.6621 9.67556 64.8018C9.81132 64.9413 9.87951 65.1058 9.87951 65.2974C9.87951 65.4247 9.84617 65.5496 9.77953 65.6721C9.7127 65.7947 9.61501 65.8994 9.48476 65.9871C9.35432 66.074 9.17444 66.1399 8.94553 66.1834C8.98818 66.2423 9.06501 66.3447 9.17517 66.4905L9.49784 66.9173C9.60268 67.0585 9.71441 67.2074 9.83462 67.3641C9.95409 67.5208 10.0317 67.61 10.0666 67.6302C10.1006 67.6504 10.1309 67.6628 10.1557 67.6675C10.1813 67.6721 10.2209 67.6744 10.2752 67.6744L10.2939 67.6923V67.7993L10.2729 67.8203C10.2 67.811 10.1139 67.8063 10.0138 67.8063C9.90676 67.8063 9.7888 67.811 9.66157 67.8203C9.55686 67.6923 9.39239 67.472 9.1682 67.1585C8.90751 66.7948 8.6415 66.458 8.36834 66.1469L8.39086 66.0771C8.46997 66.081 8.53129 66.0833 8.57546 66.0833C8.83767 66.0833 9.04248 66.0204 9.19149 65.8948C9.33955 65.7692 9.41413 65.5946 9.41413 65.372C9.41413 65.1717 9.34734 65.0212 9.21402 64.9188C9.08055 64.8165 8.90049 64.7652 8.67328 64.7652C8.51427 64.7652 8.36374 64.787 8.22331 64.8311C8.20001 64.8646 8.18918 65.1485 8.18918 65.6838V66.7357L8.19147 67.1787C8.19298 67.3502 8.19693 67.4612 8.20473 67.5108C8.21248 67.5612 8.22331 67.5945 8.23803 67.6108C8.25207 67.6279 8.27991 67.6418 8.321 67.6527C8.36132 67.6643 8.4622 67.6729 8.62278 67.6791L8.6415 67.6923V67.8063L8.62278 67.8241C8.61502 67.8241 8.48244 67.8203 8.22331 67.811C8.11539 67.8079 8.03168 67.8063 7.97036 67.8063C7.9238 67.8063 7.70738 67.8125 7.32102 67.8241L7.30244 67.8063V67.6923L7.32102 67.6791C7.46145 67.6729 7.55534 67.6651 7.60267 67.6566C7.64922 67.6473 7.68105 67.6357 7.69655 67.621C7.71283 67.607 7.72595 67.5759 7.73535 67.5294C7.74544 67.482 7.75076 67.3773 7.75241 67.2152L7.7547 66.7357V65.6838L7.74999 65.24C7.74848 65.0678 7.74466 64.9561 7.73765 64.9064C7.73068 64.8561 7.72063 64.8226 7.70586 64.8063C7.69188 64.7893 7.66399 64.7762 7.62275 64.7652C7.5817 64.7544 7.48168 64.7466 7.32102 64.7404L7.30244 64.7241V64.6109ZM10.8711 67.8241L10.8509 67.8063V67.6884L10.8711 67.6698C10.9812 67.6683 11.0525 67.6628 11.0844 67.6527C11.1162 67.6433 11.1449 67.6233 11.1697 67.5937C11.1945 67.5643 11.245 67.4673 11.321 67.3044L11.5599 66.7862L12.1782 65.3859C12.2946 65.1113 12.4102 64.8374 12.5258 64.5628H12.6732L13.6437 66.8451L13.7733 67.1492C13.8113 67.2361 13.8547 67.33 13.9043 67.4316C13.9533 67.5325 13.9874 67.593 14.006 67.6108C14.0254 67.6287 14.0487 67.6433 14.0766 67.6527C14.1046 67.6628 14.1674 67.6683 14.2644 67.6698L14.2822 67.6884V67.8063L14.2644 67.8241C14.1038 67.811 13.9586 67.8041 13.8299 67.8041C13.5785 67.8118 13.3272 67.8188 13.0758 67.8241L13.0572 67.8063V67.6884L13.0758 67.6698C13.2458 67.6666 13.3513 67.6598 13.3939 67.6481C13.4366 67.6372 13.4575 67.6108 13.4575 67.5697C13.4575 67.5363 13.4467 67.493 13.4257 67.4379L13.1464 66.745H11.8299L11.5825 67.3269C11.5383 67.4316 11.5166 67.5076 11.5166 67.5566C11.5166 67.5945 11.5366 67.6225 11.5779 67.6403C11.619 67.6588 11.7221 67.6683 11.8874 67.6698L11.9075 67.6884V67.8063L11.8889 67.8241C11.6934 67.8125 11.5228 67.8063 11.3753 67.8063C11.2085 67.8063 11.041 67.8125 10.8711 67.8241ZM11.9075 66.5496H13.0572L12.487 65.1787L11.9075 66.5496ZM15.0254 67.0244L15.044 67.0065H15.155L15.1736 67.0244C15.1813 67.2183 15.1913 67.337 15.2038 67.3804C15.217 67.4231 15.2581 67.4689 15.3272 67.5161C15.3954 67.5643 15.4878 67.603 15.6018 67.6333C15.7167 67.6636 15.8322 67.6791 15.9486 67.6791C16.1091 67.6791 16.2534 67.6496 16.3814 67.5907C16.5094 67.5309 16.6088 67.4447 16.6801 67.33C16.7515 67.216 16.7872 67.0871 16.7872 66.9452C16.7872 66.8451 16.7701 66.7575 16.736 66.6838C16.7019 66.6092 16.6546 66.5496 16.5925 66.5053C16.5312 66.4604 16.4613 66.4269 16.3822 66.4053C16.3039 66.3828 16.1868 66.3595 16.03 66.3339C15.8788 66.3091 15.7601 66.2874 15.6747 66.2679C15.5894 66.2478 15.5041 66.2175 15.4187 66.1764C15.3341 66.1361 15.2636 66.084 15.2061 66.0212C15.1495 65.9584 15.1046 65.8809 15.0704 65.7893C15.0363 65.6978 15.0192 65.5992 15.0192 65.4952C15.0192 65.2113 15.1177 64.9794 15.3148 64.7986C15.5111 64.617 15.7756 64.5263 16.1076 64.5263C16.2394 64.5263 16.3829 64.5426 16.5381 64.5752C16.6934 64.6077 16.8352 64.6558 16.9624 64.7194L16.978 64.7474C16.9447 64.8862 16.9246 65.0848 16.9168 65.3425L16.8966 65.361H16.7778L16.7601 65.3448C16.757 65.1632 16.7523 65.0484 16.7461 65.0019C16.7398 64.9545 16.6716 64.8964 16.5397 64.8265C16.4079 64.7567 16.2644 64.7218 16.1099 64.7218C15.9812 64.7218 15.8609 64.7482 15.7485 64.7993C15.6368 64.8506 15.5514 64.932 15.494 65.0422C15.4365 65.1531 15.4079 65.2664 15.4079 65.3813C15.4079 65.4704 15.4249 65.5496 15.4598 65.6187C15.4948 65.6876 15.5397 65.7419 15.5948 65.7823C15.6506 65.8226 15.715 65.8521 15.788 65.8723C15.8617 65.8917 15.996 65.9157 16.1913 65.9453C16.4598 65.9824 16.6553 66.0282 16.7771 66.0825C16.8988 66.1361 16.9967 66.2213 17.0704 66.3378C17.1432 66.4549 17.1805 66.5954 17.1805 66.7605C17.1805 67.0833 17.0486 67.3525 16.7864 67.5674C16.5234 67.783 16.2046 67.8902 15.8307 67.8902C15.5164 67.8902 15.2419 67.8343 15.0052 67.7225L14.992 67.6923C15.0067 67.5969 15.0184 67.3743 15.0254 67.0244ZM17.878 64.5946L18.1619 64.6039C18.3481 64.6101 18.4707 64.6132 18.5281 64.6132C18.5793 64.6132 18.7966 64.607 19.1805 64.5946L19.1983 64.6109V64.7241L19.1805 64.7404C19.0758 64.7435 18.9951 64.7482 18.9384 64.7537C18.881 64.7598 18.84 64.7715 18.8144 64.7877C18.7888 64.8048 18.7716 64.8436 18.7631 64.9049C18.7546 64.9661 18.7507 65.0515 18.7507 65.1609L18.7461 65.6838V66.7357L18.7484 67.1787C18.75 67.3502 18.7546 67.4612 18.7624 67.5108C18.7693 67.5612 18.7801 67.5945 18.7949 67.6108C18.8097 67.6279 18.8369 67.6418 18.878 67.6527C18.9191 67.6643 19.02 67.6729 19.1805 67.6791L19.1983 67.6923V67.8063L19.1805 67.8241C19.1728 67.8241 19.0393 67.8203 18.7801 67.811C18.6724 67.8079 18.5885 67.8063 18.5281 67.8063C18.4808 67.8063 18.2644 67.8125 17.878 67.8241L17.8594 67.8063V67.6923L17.878 67.6791C18.0192 67.6729 18.113 67.6651 18.1596 67.6566C18.2069 67.6473 18.2379 67.6357 18.2542 67.621C18.2697 67.607 18.2829 67.5759 18.293 67.5294C18.3023 67.482 18.3085 67.3773 18.3093 67.2152L18.3116 66.7357V65.6838L18.3077 65.24C18.3062 65.0678 18.3015 64.9561 18.2945 64.9064C18.2884 64.8561 18.2775 64.8226 18.2627 64.8063C18.2489 64.7893 18.2209 64.7762 18.1805 64.7652C18.1394 64.7544 18.0386 64.7466 17.878 64.7404L17.8594 64.7241V64.6109L17.878 64.5946ZM19.8664 67.8241L19.8462 67.8063V67.6884L19.8664 67.6698C19.9765 67.6683 20.0478 67.6628 20.0796 67.6527C20.1114 67.6433 20.1402 67.6233 20.165 67.5937C20.1898 67.5643 20.2403 67.4673 20.3163 67.3044L20.5552 66.7862L21.1735 65.3859C21.2899 65.1113 21.4055 64.8374 21.5211 64.5628H21.6685L22.639 66.8451L22.7686 67.1492C22.8066 67.2361 22.85 67.33 22.8996 67.4316C22.9486 67.5325 22.9827 67.593 23.0013 67.6108C23.0207 67.6287 23.044 67.6433 23.0719 67.6527C23.0999 67.6628 23.1627 67.6683 23.2597 67.6698L23.2775 67.6884V67.8063L23.2597 67.8241C23.0991 67.811 22.9539 67.8041 22.8252 67.8041C22.5738 67.8118 22.3225 67.8188 22.0711 67.8241L22.0525 67.8063V67.6884L22.0711 67.6698C22.2411 67.6666 22.3466 67.6598 22.3892 67.6481C22.4319 67.6372 22.4528 67.6108 22.4528 67.5697C22.4528 67.5363 22.442 67.493 22.421 67.4379L22.1417 66.745H20.8252L20.5777 67.3269C20.5336 67.4316 20.5119 67.5076 20.5119 67.5566C20.5119 67.5945 20.5319 67.6225 20.5732 67.6403C20.6143 67.6588 20.7174 67.6683 20.8827 67.6698L20.9028 67.6884V67.8063L20.8842 67.8241C20.6886 67.8125 20.518 67.8063 20.3706 67.8063C20.2038 67.8063 20.0362 67.8125 19.8664 67.8241ZM20.9028 66.5496H22.0525L21.4823 65.1787L20.9028 66.5496ZM23.9912 67.8226L23.971 67.8016V67.6969L23.9912 67.6791C24.0844 67.6776 24.158 67.6721 24.2131 67.6628C24.2682 67.6543 24.3038 67.6388 24.3201 67.6178C24.3356 67.5969 24.3466 67.5627 24.3519 67.5153C24.3573 67.468 24.3621 67.3626 24.3674 67.1973C24.3729 67.0322 24.3759 66.9142 24.3759 66.8428V65.0066C24.3759 64.9289 24.3612 64.8716 24.3333 64.8343C24.3053 64.7978 24.2674 64.7737 24.2184 64.7645C24.1704 64.7544 24.0874 64.7489 23.971 64.7474L23.9532 64.7288V64.6225L23.971 64.6016C24.1805 64.6094 24.317 64.6132 24.3822 64.6132C24.5358 64.6132 24.6614 64.6094 24.76 64.6016L25.4846 65.5426L26.5505 66.8792C26.6792 67.0414 26.8104 67.195 26.9439 67.34V65.5814C26.9439 65.5263 26.9415 65.4107 26.9361 65.2323C26.9307 65.0547 26.9244 64.9413 26.9167 64.894C26.9089 64.8459 26.8958 64.8141 26.8771 64.797C26.8577 64.7808 26.822 64.7675 26.7701 64.7598C26.718 64.7512 26.6467 64.7466 26.5575 64.7451L26.5397 64.7264V64.6225L26.5575 64.6016C26.68 64.6094 26.8553 64.6132 27.0827 64.6132C27.2898 64.6132 27.4411 64.6094 27.535 64.6016L27.5552 64.6225V64.7264L27.5373 64.7451C27.4373 64.7466 27.3597 64.752 27.3053 64.7622C27.251 64.7714 27.2169 64.7877 27.2029 64.811C27.1889 64.8336 27.1796 64.8669 27.1743 64.9112C27.1696 64.9545 27.1641 65.0593 27.1587 65.2245C27.1533 65.3898 27.151 65.5085 27.151 65.5814V66.6605L27.1533 67.2857C27.1556 67.4906 27.1587 67.6954 27.1618 67.9017C27.0866 67.8761 26.9555 67.8444 26.7684 67.8063L26.6071 67.6155L26.123 67.0244L24.5823 65.0996V66.8428C24.5823 66.9125 24.5855 67.0367 24.5901 67.2152C24.5955 67.3943 24.6018 67.5023 24.6095 67.5403C24.6173 67.5782 24.6274 67.6047 24.6389 67.6185C24.6514 67.6333 24.6777 67.6465 24.7173 67.6588C24.7576 67.6706 24.8407 67.6776 24.9664 67.6791L24.985 67.6969V67.8041L24.9664 67.8226C24.888 67.8118 24.7608 67.8063 24.5847 67.8063C24.3589 67.8063 24.1611 67.8118 23.9912 67.8226ZM29.462 64.5946L29.7459 64.6039C29.932 64.6101 30.0547 64.6132 30.1121 64.6132C30.1632 64.6132 30.3805 64.607 30.7645 64.5946L30.7823 64.6109V64.7241L30.7645 64.7404C30.6598 64.7435 30.5791 64.7482 30.5224 64.7537C30.465 64.7598 30.4239 64.7715 30.3983 64.7877C30.3727 64.8048 30.3556 64.8436 30.3471 64.9049C30.3385 64.9661 30.3347 65.0515 30.3347 65.1609L30.33 65.6838V66.7357L30.3323 67.1787C30.3339 67.3502 30.3385 67.4612 30.3463 67.5108C30.3533 67.5612 30.3641 67.5945 30.3789 67.6108C30.3936 67.6279 30.4209 67.6418 30.462 67.6527C30.503 67.6643 30.6039 67.6729 30.7645 67.6791L30.7823 67.6923V67.8063L30.7645 67.8241C30.7567 67.8241 30.6232 67.8203 30.3641 67.811C30.2563 67.8079 30.1725 67.8063 30.1121 67.8063C30.0648 67.8063 29.8483 67.8125 29.462 67.8241L29.4434 67.8063V67.6923L29.462 67.6791C29.6032 67.6729 29.6969 67.6651 29.7435 67.6566C29.7908 67.6473 29.8219 67.6357 29.8381 67.621C29.8537 67.607 29.8669 67.5759 29.8769 67.5294C29.8863 67.482 29.8925 67.3773 29.8932 67.2152L29.8955 66.7357V65.6838L29.8917 65.24C29.8902 65.0678 29.8855 64.9561 29.8785 64.9064C29.8724 64.8561 29.8614 64.8226 29.8467 64.8063C29.8328 64.7893 29.8048 64.7762 29.7645 64.7652C29.7234 64.7544 29.6225 64.7466 29.462 64.7404L29.4434 64.7241V64.6109L29.462 64.5946ZM31.5 67.8226L31.4798 67.8016V67.6969L31.5 67.6791C31.5931 67.6776 31.6667 67.6721 31.7219 67.6628C31.777 67.6543 31.8126 67.6388 31.8288 67.6178C31.8444 67.5969 31.8553 67.5627 31.8607 67.5153C31.8661 67.468 31.8708 67.3626 31.8762 67.1973C31.8817 67.0322 31.8847 66.9142 31.8847 66.8428V65.0066C31.8847 64.9289 31.8699 64.8716 31.8421 64.8343C31.8141 64.7978 31.7762 64.7737 31.7272 64.7645C31.6791 64.7544 31.5962 64.7489 31.4798 64.7474L31.4619 64.7288V64.6225L31.4798 64.6016C31.6893 64.6094 31.8258 64.6132 31.8909 64.6132C32.0445 64.6132 32.1702 64.6094 32.2688 64.6016L32.9934 65.5426L34.0593 66.8792C34.188 67.0414 34.3192 67.195 34.4527 67.34V65.5814C34.4527 65.5263 34.4502 65.4107 34.4449 65.2323C34.4394 65.0547 34.4332 64.9413 34.4254 64.894C34.4177 64.8459 34.4045 64.8141 34.3859 64.797C34.3665 64.7808 34.3308 64.7675 34.2789 64.7598C34.2268 64.7512 34.1555 64.7466 34.0662 64.7451L34.0484 64.7264V64.6225L34.0662 64.6016C34.1888 64.6094 34.3641 64.6132 34.5914 64.6132C34.7986 64.6132 34.9499 64.6094 35.0438 64.6016L35.064 64.6225V64.7264L35.046 64.7451C34.946 64.7466 34.8684 64.752 34.8141 64.7622C34.7598 64.7714 34.7257 64.7877 34.7117 64.811C34.6977 64.8336 34.6884 64.8669 34.6831 64.9112C34.6783 64.9545 34.6729 65.0593 34.6675 65.2245C34.6621 65.3898 34.6598 65.5085 34.6598 65.5814V66.6605L34.6621 67.2857C34.6644 67.4906 34.6675 67.6954 34.6706 67.9017C34.5954 67.8761 34.4642 67.8444 34.2772 67.8063L34.1159 67.6155L33.6318 67.0244L32.0911 65.0996V66.8428C32.0911 66.9125 32.0943 67.0367 32.0988 67.2152C32.1043 67.3943 32.1105 67.5023 32.1183 67.5403C32.126 67.5782 32.1361 67.6047 32.1477 67.6185C32.1602 67.6333 32.1865 67.6465 32.2261 67.6588C32.2664 67.6706 32.3495 67.6776 32.4752 67.6791L32.4937 67.6969V67.8041L32.4752 67.8226C32.3968 67.8118 32.2695 67.8063 32.0935 67.8063C31.8677 67.8063 31.6698 67.8118 31.5 67.8226ZM35.7412 64.6109L35.759 64.5946C36.0212 64.607 36.2004 64.6132 36.2958 64.6132L37.3594 64.5899C37.6628 64.5899 37.9111 64.6187 38.1049 64.6753C38.299 64.7327 38.4711 64.8311 38.6216 64.9708C38.7729 65.1113 38.887 65.2741 38.9652 65.4596C39.0429 65.645 39.0824 65.8436 39.0824 66.0538C39.0824 66.2586 39.0468 66.4611 38.9754 66.6605C38.9041 66.8607 38.8032 67.0399 38.6721 67.198C38.541 67.3563 38.3912 67.4843 38.2244 67.5814C38.0569 67.6783 37.8885 67.7427 37.7209 67.7753C37.5526 67.8079 37.3804 67.8241 37.2051 67.8241C37.0864 67.8241 36.8637 67.8203 36.5364 67.811C36.4292 67.8079 36.3579 67.8063 36.323 67.8063C36.2183 67.8063 36.0918 67.8125 35.9436 67.8241L35.925 67.8063V67.7311L35.9436 67.7086C36.0328 67.6628 36.0841 67.6348 36.0964 67.6233C36.1096 67.6124 36.1205 67.4797 36.1282 67.2253C36.1367 66.9716 36.1415 66.7785 36.1415 66.645V65.811L36.1392 65.2951C36.1392 65.1827 36.1376 65.0911 36.1344 65.0212C36.1314 64.9506 36.1259 64.9002 36.1182 64.8699C36.1104 64.8398 36.1019 64.818 36.0926 64.8063C36.0825 64.794 36.0662 64.7838 36.0445 64.7753C36.0228 64.7668 35.9847 64.7598 35.9321 64.7537L35.759 64.7404L35.7412 64.7241V64.6109ZM36.582 67.5767C36.7365 67.607 36.9149 67.6225 37.1159 67.6225C37.4688 67.6225 37.7513 67.5634 37.963 67.4448C38.174 67.3269 38.3323 67.1516 38.437 66.9196C38.541 66.6884 38.5937 66.4269 38.5937 66.1361C38.5937 65.7071 38.4789 65.3742 38.25 65.1376C38.0212 64.9018 37.6612 64.7831 37.1686 64.7831C36.9654 64.7831 36.7698 64.7986 36.582 64.8288C36.5697 65.077 36.5635 65.358 36.5635 65.6698V66.3835L36.5682 67.0515C36.5682 67.1818 36.5727 67.3571 36.582 67.5767ZM39.7978 64.6109L39.8156 64.5946C40.1918 64.607 40.4082 64.6132 40.4657 64.6132C40.5177 64.6132 40.735 64.607 41.1182 64.5946L41.1367 64.6109V64.7241L41.1182 64.7404C41.0135 64.7435 40.9327 64.7482 40.8761 64.7537C40.8195 64.7598 40.7784 64.7715 40.752 64.7877C40.7264 64.8048 40.7093 64.8436 40.7008 64.9049C40.693 64.9661 40.6884 65.0515 40.6884 65.1609L40.6837 65.6838V66.4061C40.6837 66.6442 40.6891 66.8188 40.6992 66.9305C40.7085 67.0414 40.7302 67.1353 40.7628 67.212C40.7954 67.2881 40.845 67.354 40.911 67.4099C40.9777 67.465 41.0731 67.51 41.1981 67.5449C41.3222 67.5797 41.4626 67.5969 41.6208 67.5969C41.7869 67.5969 41.9429 67.5744 42.0879 67.5278C42.2322 67.482 42.3423 67.4146 42.4184 67.3269C42.4936 67.2393 42.5432 67.1236 42.5673 66.9801C42.5905 66.8366 42.6023 66.638 42.6023 66.3835V65.6838C42.6023 65.5651 42.6006 65.4029 42.5968 65.1957C42.5928 64.9894 42.5835 64.8699 42.5697 64.8389C42.5549 64.808 42.5285 64.7847 42.4897 64.7684C42.451 64.7529 42.3438 64.7435 42.1686 64.7404L42.15 64.7218V64.6155L42.1686 64.5946C42.3927 64.607 42.572 64.6132 42.707 64.6132C42.8217 64.6132 43.001 64.607 43.243 64.5946L43.264 64.6132V64.7218L43.243 64.7404C43.101 64.7435 43.008 64.7489 42.9645 64.7575C42.9218 64.766 42.8916 64.7785 42.8738 64.7948C42.8567 64.8118 42.8435 64.8374 42.835 64.8724C42.8272 64.9072 42.821 65.0073 42.8179 65.1717L42.8117 65.6838V66.3743C42.8117 66.6503 42.8008 66.8676 42.7799 67.0267C42.7581 67.1857 42.7108 67.3167 42.6379 67.4184C42.5642 67.5208 42.4773 67.607 42.3764 67.676C42.2757 67.7442 42.146 67.7978 41.9885 67.8351C41.8311 67.8715 41.6674 67.8902 41.4976 67.8902C41.2857 67.8902 41.098 67.8669 40.9351 67.8203C40.7721 67.773 40.6441 67.7109 40.5502 67.6333C40.4564 67.5566 40.3889 67.475 40.3478 67.3889C40.3067 67.3037 40.2803 67.2028 40.2679 67.0871C40.2562 66.9708 40.2501 66.794 40.2501 66.5566V65.6838L40.2454 65.24C40.2439 65.0678 40.2399 64.9561 40.233 64.9064C40.2261 64.8561 40.2151 64.8226 40.2011 64.8063C40.1865 64.7893 40.1593 64.7762 40.1182 64.7652C40.0771 64.7544 39.9762 64.7466 39.8156 64.7404L39.7978 64.7241V64.6109ZM43.9839 67.0244L44.0025 67.0065H44.1134L44.132 67.0244C44.1398 67.2183 44.1499 67.337 44.1623 67.3804C44.1755 67.4231 44.2166 67.4689 44.2857 67.5161C44.3539 67.5643 44.4463 67.603 44.5603 67.6333C44.6751 67.6636 44.7907 67.6791 44.9071 67.6791C45.0676 67.6791 45.2119 67.6496 45.3399 67.5907C45.4679 67.5309 45.5673 67.4447 45.6387 67.33C45.71 67.216 45.7457 67.0871 45.7457 66.9452C45.7457 66.8451 45.7286 66.7575 45.6945 66.6838C45.6604 66.6092 45.6131 66.5496 45.551 66.5053C45.4896 66.4604 45.4198 66.4269 45.3407 66.4053C45.2624 66.3828 45.1453 66.3595 44.9885 66.3339C44.8372 66.3091 44.7185 66.2874 44.6332 66.2679C44.5479 66.2478 44.4626 66.2175 44.3772 66.1764C44.2926 66.1361 44.2221 66.084 44.1646 66.0212C44.108 65.9584 44.0631 65.8809 44.0289 65.7893C43.9947 65.6978 43.9777 65.5992 43.9777 65.4952C43.9777 65.2113 44.0762 64.9794 44.2733 64.7986C44.4696 64.617 44.7341 64.5263 45.0661 64.5263C45.1979 64.5263 45.3415 64.5426 45.4967 64.5752C45.6519 64.6077 45.7937 64.6558 45.921 64.7194L45.9365 64.7474C45.9031 64.8862 45.8831 65.0848 45.8753 65.3425L45.855 65.361H45.7364L45.7185 65.3448C45.7155 65.1632 45.7108 65.0484 45.7046 65.0019C45.6983 64.9545 45.6301 64.8964 45.4982 64.8265C45.3664 64.7567 45.2228 64.7218 45.0684 64.7218C44.9397 64.7218 44.8194 64.7482 44.707 64.7993C44.5952 64.8506 44.5099 64.932 44.4525 65.0422C44.395 65.1531 44.3664 65.2664 44.3664 65.3813C44.3664 65.4704 44.3834 65.5496 44.4183 65.6187C44.4533 65.6876 44.4982 65.7419 44.5533 65.7823C44.6091 65.8226 44.6735 65.8521 44.7465 65.8723C44.8202 65.8917 44.9544 65.9157 45.1498 65.9453C45.4183 65.9824 45.6138 66.0282 45.7356 66.0825C45.8573 66.1361 45.9552 66.2213 46.0288 66.3378C46.1018 66.4549 46.139 66.5954 46.139 66.7605C46.139 67.0833 46.0071 67.3525 45.7449 67.5674C45.4819 67.783 45.1631 67.8902 44.7892 67.8902C44.4749 67.8902 44.2004 67.8343 43.9637 67.7225L43.9505 67.6923C43.9652 67.5969 43.977 67.3743 43.9839 67.0244ZM49.4454 64.5946L49.4664 64.6155C49.4524 64.7512 49.4454 64.9894 49.4454 65.3292L49.4276 65.3471H49.3206L49.3026 65.3269L49.2771 65.1174C49.2655 65.0057 49.2553 64.9367 49.2492 64.9119C49.2422 64.887 49.2313 64.8684 49.2158 64.8576C49.2011 64.8459 49.1514 64.8366 49.0684 64.8288C48.9846 64.8211 48.8916 64.8173 48.7891 64.8173H48.3594C48.3469 65.1602 48.3407 65.358 48.3407 65.4107V66.7357L48.3454 67.1787C48.3469 67.3502 48.3508 67.4612 48.3577 67.5123C48.3647 67.5627 48.3757 67.5961 48.3895 67.6116C48.4043 67.6279 48.4323 67.6418 48.4726 67.6527C48.5137 67.6643 48.6153 67.6729 48.7774 67.6791L48.793 67.6923V67.8063L48.7774 67.8241C48.3895 67.8125 48.1731 67.8063 48.1273 67.8063C48.0785 67.8063 47.8628 67.8125 47.4796 67.8241L47.4618 67.8063V67.6923L47.4796 67.6791C47.6223 67.6729 47.7163 67.6651 47.7628 67.6566C47.8085 67.6473 47.8395 67.6357 47.8558 67.621C47.8713 67.607 47.8846 67.5759 47.8954 67.5294C47.9063 67.482 47.9117 67.3773 47.9117 67.2152L47.9164 66.7357V65.4107C47.9164 65.3866 47.9101 65.1888 47.8978 64.8173H47.5587C47.4198 64.8173 47.2996 64.8203 47.1979 64.8265C47.0964 64.8328 47.0374 64.8483 47.0218 64.8731C47.0056 64.8979 46.9908 64.9794 46.9769 65.1174L46.9544 65.3269L46.9342 65.3471H46.8295L46.8117 65.3292C46.8085 64.9639 46.8016 64.7257 46.7907 64.6155L46.8117 64.5946C47.0754 64.607 47.5137 64.6132 48.1273 64.6132C48.7534 64.6132 49.1926 64.607 49.4454 64.5946ZM50.1048 64.6109L50.1234 64.5946C50.4004 64.607 50.616 64.6132 50.7704 64.6132C50.9418 64.6132 51.173 64.6077 51.4639 64.5969C51.5719 64.5939 51.6493 64.5922 51.6983 64.5922C52.0815 64.5922 52.3414 64.6621 52.478 64.8018C52.6137 64.9413 52.6819 65.1058 52.6819 65.2974C52.6819 65.4247 52.6486 65.5496 52.5819 65.6721C52.5151 65.7947 52.4174 65.8994 52.2871 65.9871C52.1567 66.074 51.9768 66.1399 51.7479 66.1834C51.7905 66.2423 51.8674 66.3447 51.9776 66.4905L52.3002 66.9173C52.405 67.0585 52.5168 67.2074 52.637 67.3641C52.7565 67.5208 52.834 67.61 52.8689 67.6302C52.903 67.6504 52.9333 67.6628 52.9581 67.6675C52.9837 67.6721 53.0232 67.6744 53.0776 67.6744L53.0962 67.6923V67.7993L53.0753 67.8203C53.0024 67.811 52.9162 67.8063 52.8161 67.8063C52.7091 67.8063 52.5912 67.811 52.464 67.8203C52.3593 67.6923 52.1947 67.472 51.9706 67.1585C51.7099 66.7948 51.4438 66.458 51.1707 66.1469L51.1932 66.0771C51.2724 66.081 51.3337 66.0833 51.3778 66.0833C51.6401 66.0833 51.8449 66.0204 51.9939 65.8948C52.142 65.7692 52.2165 65.5946 52.2165 65.372C52.2165 65.1717 52.1497 65.0212 52.0164 64.9188C51.8829 64.8165 51.7029 64.7652 51.4757 64.7652C51.3166 64.7652 51.1661 64.787 51.0257 64.8311C51.0024 64.8646 50.9916 65.1485 50.9916 65.6838V66.7357L50.9939 67.1787C50.9954 67.3502 50.9993 67.4612 51.0071 67.5108C51.0148 67.5612 51.0257 67.5945 51.0404 67.6108C51.0544 67.6279 51.0823 67.6418 51.1233 67.6527C51.1637 67.6643 51.2646 67.6729 51.4251 67.6791L51.4439 67.6923V67.8063L51.4251 67.8241C51.4174 67.8241 51.2848 67.8203 51.0257 67.811C50.9178 67.8079 50.834 67.8063 50.7727 67.8063C50.7262 67.8063 50.5098 67.8125 50.1234 67.8241L50.1048 67.8063V67.6923L50.1234 67.6791C50.2639 67.6729 50.3577 67.6651 50.4051 67.6566C50.4516 67.6473 50.4834 67.6357 50.499 67.621C50.5152 67.607 50.5283 67.5759 50.5378 67.5294C50.5478 67.482 50.5532 67.3773 50.5548 67.2152L50.5571 66.7357V65.6838L50.5524 65.24C50.5509 65.0678 50.547 64.9561 50.54 64.9064C50.533 64.8561 50.523 64.8226 50.5082 64.8063C50.4942 64.7893 50.4664 64.7762 50.4252 64.7652C50.3841 64.7544 50.2841 64.7466 50.1234 64.7404L50.1048 64.7241V64.6109ZM53.7076 64.5946L53.9916 64.6039C54.1777 64.6101 54.3003 64.6132 54.3577 64.6132C54.4089 64.6132 54.6262 64.607 55.0101 64.5946L55.0279 64.6109V64.7241L55.0101 64.7404C54.9054 64.7435 54.8247 64.7482 54.768 64.7537C54.7106 64.7598 54.6695 64.7715 54.644 64.7877C54.6184 64.8048 54.6012 64.8436 54.5927 64.9049C54.5842 64.9661 54.5804 65.0515 54.5804 65.1609L54.5757 65.6838V66.7357L54.578 67.1787C54.5796 67.3502 54.5842 67.4612 54.5919 67.5108C54.599 67.5612 54.6097 67.5945 54.6245 67.6108C54.6393 67.6279 54.6665 67.6418 54.7076 67.6527C54.7487 67.6643 54.8496 67.6729 55.0101 67.6791L55.0279 67.6923V67.8063L55.0101 67.8241C55.0024 67.8241 54.8689 67.8203 54.6097 67.811C54.502 67.8079 54.4182 67.8063 54.3577 67.8063C54.3104 67.8063 54.094 67.8125 53.7076 67.8241L53.689 67.8063V67.6923L53.7076 67.6791C53.8488 67.6729 53.9426 67.6651 53.9891 67.6566C54.0365 67.6473 54.0675 67.6357 54.0838 67.621C54.0993 67.607 54.1126 67.5759 54.1226 67.5294C54.1319 67.482 54.1381 67.3773 54.1389 67.2152L54.1412 66.7357V65.6838L54.1374 65.24C54.1358 65.0678 54.1311 64.9561 54.1241 64.9064C54.118 64.8561 54.1071 64.8226 54.0923 64.8063C54.0784 64.7893 54.0505 64.7762 54.0102 64.7652C53.9691 64.7544 53.8682 64.7466 53.7076 64.7404L53.689 64.7241V64.6109L53.7076 64.5946Z" fill="white"/>
<path d="M55.696 67.8242L55.6758 67.8064V67.6884L55.696 67.6698C55.806 67.6683 55.8774 67.6628 55.9092 67.6528C55.941 67.6434 55.9698 67.6233 55.9946 67.5937C56.0194 67.5643 56.0699 67.4673 56.1459 67.3044L56.3848 66.7863L57.0031 65.3859C57.1195 65.1113 57.235 64.8374 57.3507 64.5628H57.498L58.4687 66.8451L58.5982 67.1492C58.6362 67.2361 58.6796 67.33 58.7292 67.4317C58.7782 67.5326 58.8123 67.593 58.8308 67.6108C58.8503 67.6287 58.8736 67.6434 58.9015 67.6528C58.9295 67.6628 58.9923 67.6683 59.0892 67.6698L59.107 67.6884V67.8064L59.0892 67.8242C58.9287 67.811 58.7835 67.8041 58.6548 67.8041C58.4034 67.8118 58.1521 67.8188 57.9007 67.8242L57.8821 67.8064V67.6884L57.9007 67.6698C58.0707 67.6667 58.1761 67.6598 58.2188 67.6481C58.2615 67.6373 58.2824 67.6108 58.2824 67.5697C58.2824 67.5364 58.2716 67.493 58.2506 67.4379L57.9713 66.745H56.6548L56.4073 67.3269C56.3632 67.4317 56.3414 67.5076 56.3414 67.5566C56.3414 67.5945 56.3615 67.6225 56.4027 67.6403C56.4438 67.6589 56.547 67.6683 56.7123 67.6698L56.7324 67.6884V67.8064L56.7138 67.8242C56.5183 67.8126 56.3476 67.8064 56.2002 67.8064C56.0334 67.8064 55.8658 67.8126 55.696 67.8242ZM56.7324 66.5496H57.8821L57.3119 65.1788L56.7324 66.5496ZM59.7549 64.611L59.7735 64.5947C60.1489 64.607 60.3662 64.6132 60.4236 64.6132C60.4748 64.6132 60.692 64.607 61.076 64.5947L61.0938 64.611V64.7241L61.076 64.7404C60.9713 64.7435 60.8907 64.7482 60.8339 64.7537C60.7765 64.7598 60.7354 64.7715 60.7099 64.7878C60.6843 64.8048 60.6671 64.8436 60.6586 64.9049C60.6501 64.9661 60.6462 65.0515 60.6462 65.1609L60.6415 65.6838V66.6884C60.6415 66.9398 60.6431 67.1151 60.6462 67.2153L60.6578 67.6085H61.121C61.491 67.6085 61.7215 67.6039 61.813 67.5953C61.9045 67.586 61.9929 67.5635 62.0783 67.5294C62.0946 67.4913 62.1186 67.4037 62.1497 67.2679C62.1807 67.1314 62.197 67.0523 62.1985 67.0313L62.2188 67.0135H62.3305L62.346 67.0313C62.3343 67.0918 62.3212 67.209 62.3087 67.3836C62.2955 67.5582 62.2894 67.6985 62.2894 67.8064L62.2715 67.8242C61.9837 67.8156 61.605 67.811 61.1373 67.811L60.4732 67.8064C60.3219 67.8064 60.1676 67.8126 60.0101 67.8242L59.9914 67.8064V67.7312L60.0101 67.7086C60.1039 67.6598 60.1551 67.6303 60.1645 67.6202C60.173 67.6093 60.183 67.5116 60.1924 67.3269C60.2025 67.1422 60.2071 66.9188 60.2071 66.659V65.6838L60.2032 65.2401C60.2017 65.0678 60.197 64.9561 60.19 64.9065C60.1839 64.8561 60.173 64.8226 60.1582 64.8063C60.1444 64.7893 60.1163 64.7762 60.0752 64.7652C60.0349 64.7545 59.934 64.7467 59.7735 64.7404L59.7549 64.7241V64.611ZM67.3031 67.4224L67.217 67.6333C66.8803 67.8048 66.5212 67.8902 66.1395 67.8902C65.5925 67.8902 65.148 67.735 64.8066 67.4247C64.4645 67.1136 64.2938 66.7079 64.2938 66.206C64.2938 65.8607 64.3792 65.5589 64.5499 65.3006C64.7198 65.0422 64.9447 64.8491 65.2249 64.7211C65.5041 64.593 65.8182 64.5286 66.1666 64.5286C66.3682 64.5286 66.5678 64.5504 66.7647 64.5922C66.961 64.635 67.1255 64.6853 67.2573 64.7452L67.2736 64.7675C67.2388 64.8522 67.2061 65.0624 67.1759 65.3976L67.1596 65.4154H67.0534L67.0347 65.3976L67.0123 65.0104C66.9013 64.9228 66.7679 64.8544 66.6111 64.8048C66.4544 64.756 66.2908 64.7312 66.1215 64.7312C65.8648 64.7312 65.6359 64.7862 65.4328 64.8964C65.2294 65.0057 65.0719 65.1648 64.9595 65.3735C64.8477 65.5814 64.7919 65.8366 64.7919 66.1384C64.7919 66.4409 64.8578 66.7071 64.9897 66.9359C65.1208 67.1647 65.3008 67.3401 65.5289 67.4635C65.7571 67.586 66.0239 67.6473 66.3279 67.6473C66.4629 67.6473 66.5926 67.6341 66.7166 67.6085C66.8408 67.5829 66.9447 67.5511 67.0269 67.5131C67.1092 67.475 67.1883 67.4294 67.2643 67.3743L67.3031 67.4224ZM67.9968 66.2401C67.9968 66.0127 68.0293 65.801 68.0944 65.6039C68.1596 65.4069 68.2705 65.2245 68.4273 65.0578C68.584 64.8902 68.7733 64.7607 68.9943 64.6691C69.2155 64.5767 69.4653 64.5311 69.7446 64.5311C70.2613 64.5311 70.6724 64.6714 70.978 64.9531C71.2845 65.2338 71.4373 65.6178 71.4373 66.1043C71.4373 66.4464 71.3629 66.7544 71.2124 67.0267C71.0627 67.2998 70.8478 67.5116 70.5685 67.6628C70.2884 67.8149 69.9742 67.8902 69.6259 67.8902C69.3792 67.8902 69.1518 67.849 68.9439 67.7668C68.7368 67.6838 68.56 67.5612 68.4133 67.3976C68.2675 67.2338 68.1611 67.0445 68.0952 66.8289C68.0293 66.614 67.9968 66.4177 67.9968 66.2401ZM68.4692 66.0903C68.4692 66.2749 68.4994 66.4743 68.5592 66.6869C68.6189 66.9002 68.7081 67.0825 68.8268 67.2346C68.9462 67.3866 69.0837 67.4999 69.2387 67.5744C69.394 67.6488 69.5708 67.6861 69.7694 67.6861C70.0045 67.6861 70.2132 67.6318 70.3962 67.5248C70.5801 67.4169 70.7189 67.2501 70.8143 67.0235C70.9106 66.7971 70.9579 66.5426 70.9579 66.2609C70.9579 65.9546 70.9036 65.6784 70.7942 65.4309C70.6848 65.1842 70.5297 65.005 70.3279 64.8925C70.127 64.7808 69.9036 64.7241 69.6577 64.7241C69.29 64.7241 68.9998 64.8398 68.7872 65.0702C68.5755 65.3006 68.4692 65.6403 68.4692 66.0903ZM72.1511 67.8227L72.1308 67.8016V67.6969L72.1511 67.6791C72.2442 67.6776 72.3179 67.6721 72.3729 67.6628C72.428 67.6543 72.4637 67.6388 72.48 67.6178C72.4955 67.597 72.5064 67.5627 72.5117 67.5154C72.5172 67.4681 72.5219 67.3626 72.5273 67.1973C72.5328 67.0322 72.5358 66.9142 72.5358 66.8429V65.0066C72.5358 64.929 72.521 64.8716 72.4932 64.8344C72.4652 64.7979 72.4273 64.7738 72.3783 64.7645C72.3302 64.7545 72.2472 64.749 72.1308 64.7474L72.113 64.7289V64.6225L72.1308 64.6016C72.3404 64.6094 72.4769 64.6132 72.5421 64.6132C72.6956 64.6132 72.8213 64.6094 72.9199 64.6016L73.6445 65.5426L74.7104 66.8793C74.8391 67.0414 74.9703 67.195 75.1037 67.3401V65.5814C75.1037 65.5263 75.1013 65.4107 75.096 65.2323C75.0905 65.0547 75.0843 64.9414 75.0765 64.894C75.0688 64.8459 75.0556 64.8141 75.0369 64.7971C75.0176 64.7808 74.9819 64.7675 74.9299 64.7598C74.8779 64.7513 74.8065 64.7467 74.7174 64.7452L74.6995 64.7264V64.6225L74.7174 64.6016C74.8399 64.6094 75.0152 64.6132 75.2426 64.6132C75.4497 64.6132 75.6009 64.6094 75.6948 64.6016L75.715 64.6225V64.7264L75.6971 64.7452C75.5971 64.7467 75.5195 64.752 75.4652 64.7622C75.4109 64.7715 75.3768 64.7878 75.3628 64.8111C75.3488 64.8336 75.3395 64.8669 75.3341 64.9112C75.3294 64.9546 75.324 65.0593 75.3186 65.2245C75.3131 65.3898 75.3109 65.5085 75.3109 65.5814V66.6605L75.3131 67.2857C75.3154 67.4906 75.3186 67.6954 75.3217 67.9018C75.2465 67.8762 75.1153 67.8444 74.9283 67.8064L74.767 67.6155L74.2829 67.0244L72.7422 65.0996V66.8429C72.7422 66.9126 72.7453 67.0368 72.7499 67.2153C72.7554 67.3944 72.7616 67.5023 72.7694 67.5403C72.7772 67.5782 72.7872 67.6047 72.7988 67.6186C72.8112 67.6333 72.8376 67.6465 72.8771 67.6589C72.9175 67.6706 73.0006 67.6776 73.1263 67.6791L73.1448 67.6969V67.8041L73.1263 67.8227C73.0479 67.8118 72.9207 67.8064 72.7446 67.8064C72.5188 67.8064 72.3209 67.8118 72.1511 67.8227ZM79.4946 67.4224L79.4085 67.6333C79.0718 67.8048 78.7127 67.8902 78.331 67.8902C77.784 67.8902 77.3395 67.735 76.9981 67.4247C76.656 67.1136 76.4853 66.7079 76.4853 66.206C76.4853 65.8607 76.5707 65.5589 76.7414 65.3006C76.9112 65.0422 77.1362 64.8491 77.4163 64.7211C77.6956 64.593 78.0097 64.5286 78.3581 64.5286C78.5597 64.5286 78.7592 64.5504 78.9561 64.5922C79.1524 64.635 79.317 64.6853 79.4488 64.7452L79.4651 64.7675C79.4302 64.8522 79.3976 65.0624 79.3674 65.3976L79.351 65.4154H79.2448L79.2261 65.3976L79.2037 65.0104C79.0928 64.9228 78.9593 64.8544 78.8026 64.8048C78.6458 64.756 78.4822 64.7312 78.313 64.7312C78.0563 64.7312 77.8274 64.7862 77.6242 64.8964C77.4209 65.0057 77.2634 65.1648 77.1509 65.3735C77.0392 65.5814 76.9834 65.8366 76.9834 66.1384C76.9834 66.4409 77.0493 66.7071 77.1812 66.9359C77.3123 67.1647 77.4923 67.3401 77.7204 67.4635C77.9485 67.586 78.2153 67.6473 78.5194 67.6473C78.6544 67.6473 78.784 67.6341 78.9081 67.6085C79.0322 67.5829 79.1362 67.5511 79.2184 67.5131C79.3007 67.475 79.3798 67.4294 79.4557 67.3743L79.4946 67.4224ZM80.2448 64.611L80.2626 64.5947C80.7825 64.6039 81.1152 64.6085 81.2603 64.6085C81.7575 64.6085 82.1998 64.6039 82.5877 64.5947L82.5993 64.611C82.5614 64.756 82.5334 64.9841 82.5155 65.2952L82.5016 65.313H82.3899L82.3697 65.2952C82.3713 65.2812 82.372 65.2688 82.372 65.2586C82.372 65.1299 82.3619 65.0074 82.3425 64.8902C82.2471 64.8474 82.1152 64.8204 81.9461 64.8071C81.777 64.7948 81.6498 64.7878 81.5652 64.7878C81.4457 64.7878 81.2922 64.7963 81.1059 64.8134L81.0974 65.1765L81.0904 65.5922L81.0834 66.0538C81.2471 66.0632 81.3976 66.0678 81.5357 66.0678C81.6754 66.0678 81.7918 66.0632 81.8855 66.0538C81.9794 66.0453 82.0345 66.0352 82.0508 66.026C82.0664 66.0159 82.0788 65.9964 82.0866 65.9686C82.0951 65.9406 82.1021 65.8909 82.1082 65.8196L82.1176 65.6791L82.1354 65.6606H82.2401L82.2587 65.6791C82.2556 65.8444 82.2518 66.0104 82.2471 66.1764L82.2587 66.6884L82.2401 66.7064H82.1354L82.1176 66.6884L82.1013 66.5519C82.0881 66.4457 82.078 66.3828 82.0718 66.3618C82.0663 66.3417 82.0516 66.3238 82.0299 66.3083C82.0082 66.2936 81.9515 66.2811 81.8607 66.2719C81.77 66.2634 81.6451 66.2586 81.486 66.2586C81.3976 66.2586 81.2634 66.2626 81.0834 66.2703C81.0757 66.3976 81.0718 66.6093 81.0718 66.9065C81.0718 67.2245 81.0757 67.4588 81.0834 67.6085H81.5016C81.8701 67.6085 82.0997 67.6039 82.1928 67.5953C82.2852 67.586 82.3728 67.5635 82.4565 67.5294C82.4698 67.4945 82.4923 67.4139 82.5233 67.2874C82.5544 67.1602 82.5722 67.081 82.5768 67.0492L82.5993 67.0337H82.7087L82.7265 67.0492C82.7134 67.1144 82.6994 67.2283 82.6869 67.3906C82.6738 67.5526 82.6676 67.6916 82.6676 67.8064L82.6513 67.8242C82.3619 67.8156 81.9834 67.811 81.5156 67.811L80.8973 67.8064C80.753 67.8064 80.6032 67.8126 80.4473 67.8242L80.4287 67.8064V67.7312L80.4473 67.7086C80.5365 67.6628 80.5877 67.6348 80.6002 67.6233C80.6133 67.6125 80.6242 67.4798 80.632 67.2253C80.6405 66.9716 80.6443 66.7785 80.6443 66.645V65.811L80.6428 65.2952C80.6428 65.1827 80.6413 65.0911 80.6381 65.0213C80.635 64.9506 80.6296 64.9003 80.6218 64.8699C80.6141 64.8398 80.6055 64.8181 80.5962 64.8063C80.5862 64.794 80.5699 64.7838 80.5482 64.7753C80.5264 64.7668 80.4885 64.7598 80.4357 64.7537L80.2626 64.7404L80.2448 64.7241V64.611ZM83.472 64.611L83.4906 64.5947C83.7676 64.607 83.9832 64.6132 84.1377 64.6132C84.3091 64.6132 84.5402 64.6077 84.8312 64.5969C84.9391 64.5939 85.0166 64.5922 85.0656 64.5922C85.4488 64.5922 85.7087 64.6621 85.8452 64.8018C85.981 64.9414 86.0492 65.1058 86.0492 65.2974C86.0492 65.4247 86.0158 65.5496 85.9491 65.6721C85.8824 65.7948 85.7846 65.8995 85.6544 65.9872C85.524 66.074 85.3441 66.1399 85.1152 66.1835C85.1578 66.2424 85.2347 66.3448 85.3448 66.4906L85.6675 66.9173C85.7723 67.0585 85.884 67.2075 86.0042 67.3641C86.1237 67.5209 86.2013 67.61 86.2362 67.6302C86.2703 67.6504 86.3006 67.6628 86.3254 67.6675C86.3509 67.6721 86.3905 67.6744 86.4448 67.6744L86.4635 67.6924V67.7994L86.4426 67.8204C86.3696 67.811 86.2835 67.8064 86.1834 67.8064C86.0764 67.8064 85.9584 67.811 85.8312 67.8204C85.7265 67.6924 85.562 67.472 85.3378 67.1585C85.0771 66.7948 84.8111 66.458 84.5379 66.1469L84.5604 66.0771C84.6396 66.081 84.7009 66.0833 84.7451 66.0833C85.0073 66.0833 85.2121 66.0205 85.3611 65.8948C85.5092 65.7692 85.5837 65.5947 85.5837 65.372C85.5837 65.1717 85.517 65.0213 85.3836 64.9188C85.2502 64.8165 85.0702 64.7652 84.8429 64.7652C84.6839 64.7652 84.5334 64.787 84.3929 64.8311C84.3696 64.8646 84.3588 65.1485 84.3588 65.6838V66.7358L84.3611 67.1788C84.3626 67.3503 84.3666 67.4612 84.3743 67.5108C84.3821 67.5612 84.3929 67.5945 84.4077 67.6108C84.4217 67.628 84.4495 67.6419 84.4906 67.6528C84.531 67.6644 84.6319 67.6729 84.7924 67.6791L84.8111 67.6924V67.8064L84.7924 67.8242C84.7846 67.8242 84.6521 67.8204 84.3929 67.811C84.285 67.8079 84.2013 67.8064 84.14 67.8064C84.0934 67.8064 83.877 67.8126 83.4906 67.8242L83.472 67.8064V67.6924L83.4906 67.6791C83.6311 67.6729 83.725 67.6651 83.7723 67.6566C83.8189 67.6473 83.8507 67.6358 83.8662 67.621C83.8825 67.607 83.8956 67.5759 83.905 67.5294C83.9151 67.4821 83.9204 67.3774 83.9221 67.2153L83.9244 66.7358V65.6838L83.9196 65.2401C83.9181 65.0678 83.9143 64.9561 83.9073 64.9065C83.9003 64.8561 83.8902 64.8226 83.8755 64.8063C83.8615 64.7893 83.8336 64.7762 83.7924 64.7652C83.7513 64.7545 83.6513 64.7467 83.4906 64.7404L83.472 64.7241V64.611ZM87.0904 67.8227L87.0702 67.8016V67.6969L87.0904 67.6791C87.1835 67.6776 87.2571 67.6721 87.3122 67.6628C87.3673 67.6543 87.403 67.6388 87.4192 67.6178C87.4348 67.597 87.4457 67.5627 87.451 67.5154C87.4565 67.4681 87.4612 67.3626 87.4666 67.1973C87.4721 67.0322 87.4751 66.9142 87.4751 66.8429V65.0066C87.4751 64.929 87.4603 64.8716 87.4325 64.8344C87.4045 64.7979 87.3666 64.7738 87.3176 64.7645C87.2695 64.7545 87.1866 64.749 87.0702 64.7474L87.0523 64.7289V64.6225L87.0702 64.6016C87.2797 64.6094 87.4162 64.6132 87.4813 64.6132C87.6349 64.6132 87.7606 64.6094 87.8592 64.6016L88.5838 65.5426L89.6497 66.8793C89.7784 67.0414 89.9096 67.195 90.043 67.3401V65.5814C90.043 65.5263 90.0406 65.4107 90.0353 65.2323C90.0298 65.0547 90.0236 64.9414 90.0158 64.894C90.008 64.8459 89.9949 64.8141 89.9763 64.7971C89.9569 64.7808 89.9211 64.7675 89.8693 64.7598C89.8172 64.7513 89.7458 64.7467 89.6566 64.7452L89.6388 64.7264V64.6225L89.6566 64.6016C89.7792 64.6094 89.9545 64.6132 90.1818 64.6132C90.389 64.6132 90.5403 64.6094 90.6341 64.6016L90.6544 64.6225V64.7264L90.6364 64.7452C90.5364 64.7467 90.4588 64.752 90.4045 64.7622C90.3502 64.7715 90.3161 64.7878 90.3021 64.8111C90.2881 64.8336 90.2788 64.8669 90.2735 64.9112C90.2687 64.9546 90.2633 65.0593 90.2579 65.2245C90.2525 65.3898 90.2502 65.5085 90.2502 65.5814V66.6605L90.2525 67.2857C90.2547 67.4906 90.2579 67.6954 90.261 67.9018C90.1858 67.8762 90.0546 67.8444 89.8676 67.8064L89.7063 67.6155L89.2221 67.0244L87.6815 65.0996V66.8429C87.6815 66.9126 87.6847 67.0368 87.6892 67.2153C87.6947 67.3944 87.7009 67.5023 87.7087 67.5403C87.7164 67.5782 87.7265 67.6047 87.7381 67.6186C87.7506 67.6333 87.7769 67.6465 87.8165 67.6589C87.8568 67.6706 87.9398 67.6776 88.0655 67.6791L88.0841 67.6969V67.8041L88.0655 67.8227C87.9872 67.8118 87.8599 67.8064 87.6839 67.8064C87.458 67.8064 87.2602 67.8118 87.0904 67.8227Z" fill="white"/>
<path d="M0.0756528 57.9578L0 57.8892V57.4363L0.0756528 57.3648C0.488446 57.3588 0.75603 57.3379 0.875213 57.2992C0.994478 57.2635 1.10202 57.1859 1.19501 57.0728C1.28812 56.9595 1.47708 56.587 1.76208 55.9612L2.6576 53.9706L4.97508 48.5918C5.41117 47.537 5.84453 46.485 6.27776 45.4302H6.83014L10.4678 54.1972L10.9534 55.3652C11.0958 55.699 11.2586 56.0596 11.4448 56.4499C11.6278 56.8374 11.7558 57.0697 11.8257 57.1383C11.8983 57.2069 11.9856 57.2635 12.0903 57.2992C12.195 57.3379 12.4304 57.3588 12.7938 57.3648L12.8608 57.4363V57.8892L12.7938 57.9578C12.192 57.9071 11.6483 57.8803 11.1656 57.8803C10.2235 57.91 9.28137 57.9368 8.33925 57.9578L8.26957 57.8892V57.4363L8.33925 57.3648C8.97613 57.3529 9.37145 57.3261 9.53148 57.2814C9.69138 57.2396 9.76993 57.1383 9.76993 56.9803C9.76993 56.8522 9.72917 56.6854 9.65067 56.4737L8.60384 53.8127H3.66953L2.74198 56.0476C2.5762 56.4499 2.49485 56.7419 2.49485 56.9297C2.49485 57.0757 2.57037 57.183 2.72452 57.2514C2.87859 57.323 3.26531 57.3588 3.88464 57.3648L3.9603 57.4363V57.8892L3.89051 57.9578C3.15775 57.9131 2.51802 57.8892 1.96565 57.8892C1.34048 57.8892 0.712409 57.9131 0.0756528 57.9578ZM3.9603 53.0618H8.26957L6.13231 47.7962L3.9603 53.0618ZM15.6464 54.8855L15.7162 54.8169H16.1319L16.2017 54.8855C16.2308 55.6304 16.2687 56.0864 16.3151 56.2532C16.3646 56.4171 16.5187 56.593 16.7774 56.7748C17.0333 56.9595 17.3794 57.1085 17.8068 57.2246C18.2372 57.3409 18.6704 57.4005 19.1065 57.4005C19.7085 57.4005 20.2493 57.2872 20.729 57.0608C21.2088 56.8313 21.581 56.5005 21.8485 56.0596C22.1161 55.6215 22.2498 55.1268 22.2498 54.5815C22.2498 54.1972 22.1859 53.8603 22.0579 53.5773C21.93 53.2912 21.7525 53.0618 21.5199 52.8919C21.2902 52.719 21.0285 52.591 20.732 52.5075C20.4382 52.4211 19.9993 52.3317 19.4119 52.2333C18.8449 52.138 18.3999 52.0546 18.0801 51.98C17.7603 51.9026 17.4405 51.7863 17.1205 51.6284C16.8036 51.4734 16.539 51.2738 16.3239 51.0324C16.1116 50.7911 15.943 50.4931 15.815 50.1414C15.6871 49.7898 15.6232 49.4113 15.6232 49.0121C15.6232 47.9213 15.9924 47.0304 16.7309 46.3361C17.4667 45.6388 18.4581 45.2901 19.7026 45.2901C20.1969 45.2901 20.7349 45.3527 21.3164 45.4778C21.8979 45.603 22.43 45.7877 22.9069 46.0321L22.9651 46.1394C22.84 46.6728 22.7644 47.4357 22.7354 48.425L22.6597 48.4965H22.2149L22.148 48.4339C22.1364 47.7366 22.1189 47.2956 22.0956 47.1168C22.0724 46.935 21.8166 46.7115 21.3223 46.4434C20.8279 46.1751 20.29 46.041 19.7113 46.041C19.2286 46.041 18.778 46.1423 18.3563 46.339C17.9377 46.5357 17.6178 46.8486 17.4026 47.2717C17.1875 47.6979 17.0799 48.133 17.0799 48.5739C17.0799 48.9166 17.1438 49.2206 17.2747 49.4858C17.4056 49.7511 17.5742 49.9597 17.7806 50.1146C17.99 50.2696 18.2313 50.3828 18.5046 50.4602C18.7809 50.5347 19.2839 50.6272 20.0167 50.7404C21.0228 50.8834 21.7555 51.0592 22.212 51.2678C22.6684 51.4734 23.0349 51.8012 23.3111 52.2482C23.5844 52.6982 23.724 53.2375 23.724 53.8723C23.724 55.112 23.2297 56.1459 22.2468 56.9713C21.2612 57.7998 20.066 58.2111 18.6645 58.2111C17.487 58.2111 16.4576 57.9965 15.5708 57.5673L15.5213 57.4512C15.5765 57.0847 15.6202 56.2294 15.6464 54.8855ZM29.5917 51.5688C31.0164 50.2487 32.0458 49.2624 32.6797 48.6128C33.3136 47.9631 33.834 47.4297 34.247 47.0065C34.6599 46.5864 34.904 46.3122 34.9854 46.1901V45.6238L35.0698 45.5523C35.5001 45.5762 35.9712 45.5881 36.4829 45.5881C36.5963 45.5881 37.047 45.5791 37.8292 45.5613L37.9135 45.6417V46.05L37.8467 46.1215C37.3175 46.1215 36.9569 46.1512 36.765 46.2138C36.5701 46.2735 36.2881 46.4613 35.916 46.7711C35.5438 47.0841 35.1163 47.4655 34.6337 47.9184L31.1852 51.1486L36.3143 56.0118C37.1371 56.7985 37.5966 57.2246 37.6984 57.2962C37.7972 57.3648 38.0037 57.4065 38.3148 57.4184L38.3759 57.4869V57.8535L38.3148 57.925C37.9863 57.9011 37.646 57.8892 37.2913 57.8892C37.0819 57.8892 36.6225 57.9011 35.9131 57.925C35.3954 57.4244 34.9419 56.9803 34.5552 56.596C34.1654 56.2115 32.511 54.653 29.5917 51.9174V53.7769L29.6004 55.4784C29.6063 56.137 29.6237 56.5631 29.6528 56.7538C29.6789 56.9476 29.7196 57.0757 29.7749 57.1383C29.8301 57.2038 29.9319 57.2575 30.086 57.2992C30.2401 57.344 30.6181 57.3766 31.22 57.4005L31.2868 57.4512V57.8892L31.22 57.9578C31.1909 57.9578 30.6908 57.9429 29.7196 57.9071C29.3155 57.8952 29.0014 57.8892 28.7746 57.8892C28.5972 57.8892 27.786 57.9131 26.338 57.9578L26.2682 57.8892V57.4512L26.338 57.4005C26.8672 57.3766 27.219 57.3469 27.3935 57.3141C27.5708 57.2783 27.6871 57.2336 27.7482 57.177C27.8064 57.1233 27.8558 57.0042 27.8935 56.8254C27.9284 56.6436 27.9517 56.2414 27.9546 55.6186L27.9633 53.7769V49.7361L27.9489 48.0316C27.943 47.37 27.9256 46.941 27.8994 46.7503C27.8761 46.5565 27.8354 46.4284 27.7802 46.3658C27.7279 46.3003 27.6232 46.2496 27.472 46.2079C27.3178 46.1662 26.9398 46.1364 26.338 46.1125L26.2682 46.05V45.6149L26.338 45.5523L27.4022 45.5881C28.1001 45.612 28.5595 45.6238 28.7746 45.6238C28.9665 45.6238 29.7806 45.5999 31.22 45.5523L31.2868 45.6149V46.05L31.22 46.1125C30.8275 46.1244 30.5251 46.1423 30.3128 46.1632C30.0976 46.187 29.9435 46.2317 29.8476 46.2943C29.7516 46.3599 29.6877 46.5089 29.6556 46.7443C29.6237 46.9797 29.6091 47.3075 29.6091 47.7277L29.5917 49.7361V51.5688ZM40.8271 45.6149L40.8939 45.5523C42.8421 45.5881 44.0894 45.606 44.6332 45.606C46.497 45.606 48.1544 45.5881 49.6083 45.5523L49.6519 45.6149C49.5095 46.1722 49.4048 47.0483 49.3378 48.2432L49.2856 48.3117H48.8668L48.7913 48.2432C48.797 48.1896 48.7999 48.1419 48.7999 48.1031C48.7999 47.6085 48.7621 47.1377 48.6895 46.6877C48.3318 46.5238 47.8375 46.4195 47.2037 46.3689C46.5698 46.3211 46.0929 46.2943 45.776 46.2943C45.3282 46.2943 44.7525 46.3271 44.0545 46.3926L44.0226 47.7872L43.9964 49.3845L43.9703 51.1576C44.5838 51.1933 45.1478 51.2112 45.6655 51.2112C46.1888 51.2112 46.625 51.1933 46.9768 51.1576C47.3287 51.1248 47.5351 51.086 47.5962 51.0503C47.6543 51.0115 47.7009 50.9371 47.7299 50.8298C47.7619 50.7225 47.7881 50.5318 47.8113 50.2577L47.8462 49.7183L47.9131 49.6467H48.3056L48.3754 49.7183C48.3638 50.3529 48.3492 50.9907 48.3318 51.6284L48.3754 53.5952L48.3056 53.6637H47.9131L47.8462 53.5952L47.7851 53.0707C47.7357 52.6625 47.698 52.4211 47.6747 52.3406C47.6544 52.2632 47.599 52.1946 47.5177 52.135C47.4363 52.0783 47.224 52.0307 46.8838 51.995C46.5436 51.9621 46.0755 51.9442 45.4793 51.9442C45.1478 51.9442 44.6448 51.9592 43.9703 51.9889C43.9412 52.4776 43.9266 53.2912 43.9266 54.4325C43.9266 55.6543 43.9412 56.5542 43.9703 57.1293H45.5375C46.9186 57.1293 47.7794 57.1115 48.1282 57.0786C48.4743 57.0429 48.8029 56.9565 49.1169 56.8254C49.1663 56.6912 49.2507 56.3814 49.367 55.8956C49.4833 55.4069 49.5502 55.103 49.5676 54.9808L49.6519 54.9212H50.062L50.1287 54.9808C50.0794 55.2311 50.0271 55.6691 49.9804 56.292C49.9311 56.9148 49.9078 57.4482 49.9078 57.8892L49.8467 57.9578C48.7621 57.925 47.3431 57.9071 45.5899 57.9071L43.2725 57.8892C42.7315 57.8892 42.1704 57.9131 41.586 57.9578L41.5162 57.8892V57.6002L41.586 57.5137C41.9204 57.3379 42.1122 57.2306 42.1588 57.1859C42.2082 57.1443 42.2489 56.6346 42.278 55.6572C42.31 54.6828 42.3245 53.9408 42.3245 53.4282V50.2249L42.3187 48.2432C42.3187 47.8111 42.3129 47.4595 42.3013 47.1912C42.2896 46.9201 42.2692 46.7264 42.2402 46.6102C42.211 46.494 42.1791 46.4105 42.1442 46.3658C42.1065 46.3182 42.0454 46.2795 41.9639 46.2467C41.8825 46.2138 41.74 46.187 41.5424 46.1632L40.8939 46.1125L40.8271 46.05V45.6149ZM52.8795 45.6149L52.9493 45.5523C54.3565 45.5999 55.1707 45.6238 55.3859 45.6238C55.5778 45.6238 56.3919 45.5999 57.8312 45.5523L57.8981 45.6149V46.05L57.8312 46.1125C57.4387 46.1244 57.1363 46.1423 56.924 46.1632C56.7089 46.187 56.5547 46.2317 56.4587 46.2943C56.3629 46.3599 56.2988 46.5089 56.2669 46.7443C56.2349 46.9797 56.2203 47.3075 56.2203 47.7277L56.2029 49.7361V53.5952C56.2029 54.5607 56.2087 55.2341 56.2203 55.6186L56.264 57.1293H57.9999C59.3868 57.1293 60.2504 57.1115 60.5935 57.0786C60.9366 57.0429 61.2682 56.9565 61.588 56.8254C61.649 56.6793 61.7392 56.3426 61.8555 55.8211C61.9717 55.2967 62.0328 54.9928 62.0387 54.9123L62.1143 54.8437H62.533L62.5912 54.9123C62.5475 55.1447 62.4981 55.5946 62.4516 56.2651C62.4021 56.9357 62.3789 57.475 62.3789 57.8892L62.312 57.9578C61.2333 57.925 59.8143 57.9071 58.061 57.9071L55.5719 57.8892C55.005 57.8892 54.4263 57.9131 53.8361 57.9578L53.7662 57.8892V57.6002L53.8361 57.5137C54.1879 57.326 54.3798 57.2128 54.4147 57.1741C54.4466 57.1323 54.4845 56.7569 54.5194 56.0476C54.5572 55.3384 54.5746 54.4802 54.5746 53.4819V49.7361L54.56 48.0316C54.5542 47.37 54.5369 46.941 54.5107 46.7503C54.4874 46.5565 54.4466 46.4284 54.3914 46.3658C54.3391 46.3003 54.2344 46.2496 54.0803 46.2079C53.9291 46.1662 53.5511 46.1364 52.9493 46.1125L52.8795 46.05V45.6149ZM65.2401 45.6149L65.3098 45.5523C66.7171 45.5999 67.5312 45.6238 67.7465 45.6238C67.9384 45.6238 68.7526 45.5999 70.1918 45.5523L70.2588 45.6149V46.05L70.1918 46.1125C69.7993 46.1244 69.4969 46.1423 69.2846 46.1632C69.0695 46.187 68.9153 46.2317 68.8193 46.2943C68.7235 46.3599 68.6594 46.5089 68.6275 46.7443C68.5955 46.9797 68.5809 47.3075 68.5809 47.7277L68.5635 49.7361V53.5952C68.5635 54.5607 68.5693 55.2341 68.5809 55.6186L68.6246 57.1293H70.3605C71.7474 57.1293 72.611 57.1115 72.9541 57.0786C73.2973 57.0429 73.6288 56.9565 73.9486 56.8254C74.0097 56.6793 74.0998 56.3426 74.2161 55.8211C74.3324 55.2967 74.3934 54.9928 74.3993 54.9123L74.4749 54.8437H74.8936L74.9518 54.9123C74.9081 55.1447 74.8587 55.5946 74.8122 56.2651C74.7627 56.9357 74.7395 57.475 74.7395 57.8892L74.6726 57.9578C73.5939 57.925 72.1749 57.9071 70.4215 57.9071L67.9326 57.8892C67.3656 57.8892 66.7869 57.9131 66.1966 57.9578L66.1269 57.8892V57.6002L66.1966 57.5137C66.5485 57.326 66.7404 57.2128 66.7753 57.1741C66.8072 57.1323 66.8451 56.7569 66.88 56.0476C66.9178 55.3384 66.9352 54.4802 66.9352 53.4819V49.7361L66.9207 48.0316C66.9148 47.37 66.8974 46.941 66.8713 46.7503C66.848 46.5565 66.8072 46.4284 66.752 46.3658C66.6997 46.3003 66.595 46.2496 66.4409 46.2079C66.2897 46.1662 65.9117 46.1364 65.3098 46.1125L65.2401 46.05V45.6149ZM77.6617 57.9578L77.5861 57.8892V57.4363L77.6617 57.3648C78.0745 57.3588 78.3421 57.3379 78.4613 57.2992C78.5805 57.2635 78.6881 57.1859 78.7811 57.0728C78.8742 56.9595 79.0631 56.587 79.3482 55.9612L80.2437 53.9706L82.5611 48.5918C82.9972 47.537 83.4306 46.485 83.8638 45.4302H84.4162L88.0538 54.1972L88.5394 55.3652C88.6819 55.699 88.8447 56.0596 89.0308 56.4499C89.214 56.8374 89.3419 57.0697 89.4117 57.1383C89.4844 57.2069 89.5716 57.2635 89.6763 57.2992C89.781 57.3379 90.0165 57.3588 90.3799 57.3648L90.4468 57.4363V57.8892L90.3799 57.9578C89.778 57.9071 89.2344 57.8803 88.7517 57.8803C87.8096 57.91 86.8674 57.9368 85.9253 57.9578L85.8556 57.8892V57.4363L85.9253 57.3648C86.5622 57.3529 86.9575 57.3261 87.1176 57.2814C87.2775 57.2396 87.356 57.1383 87.356 56.9803C87.356 56.8522 87.3152 56.6854 87.2367 56.4737L86.1899 53.8127H81.2556L80.328 56.0476C80.1623 56.4499 80.0809 56.7419 80.0809 56.9297C80.0809 57.0757 80.1564 57.183 80.3106 57.2514C80.4647 57.323 80.8514 57.3588 81.4707 57.3648L81.5464 57.4363V57.8892L81.4766 57.9578C80.7438 57.9131 80.1041 57.8892 79.5517 57.8892C78.9266 57.8892 78.2985 57.9131 77.6617 57.9578ZM81.5464 53.0618H85.8556L83.7184 47.7962L81.5464 53.0618Z" fill="white"/>
<path d="M33.193 12.9973L44.9359 6.21612L56.5883 12.9973L62.0132 9.87798L44.9359 0L27.7681 9.87798L33.193 12.9973Z" fill="#C9C9C9"/>
<path d="M44.9355 33.307L56.6664 26.5912L56.588 12.9973L62.0129 9.87793L62.0694 29.7021L44.9356 39.5955L44.9355 33.307Z" fill="#FBFBFB"/>
<path d="M44.936 33.3061L33.2067 26.5347L33.1932 12.9973L27.7683 9.87793L27.8044 29.7118L44.936 39.5949L44.936 33.3061Z" fill="#E1E1E1"/>
<path d="M35.7927 24.9865L44.9361 19.7175V9.04163L35.6797 14.3776V25.0498L35.7927 24.9865Z" fill="#FBFBFB"/>
<path d="M54.0789 24.9955L44.9355 19.7175V9.04156L54.1919 14.3776L54.1738 25.0498L54.0789 24.9955Z" fill="#E1E1E1"/>
<path d="M35.6797 25.0476L44.936 19.7175L54.1743 25.0476L44.936 30.3934L35.6797 25.0476Z" fill="#C9C9C9"/>
<mask id="mask0_437_123" style="mask-type:alpha" maskUnits="userSpaceOnUse" x="35" y="19" width="20" height="12">
<path d="M35.6797 25.0476L44.936 19.7175L54.1743 25.0476L44.936 30.3934L35.6797 25.0476Z" fill="url(#paint0_linear_437_123)"/>
</mask>
<g mask="url(#mask0_437_123)">
<path opacity="0.17" d="M35.6797 25.0476L44.936 19.7175L54.1743 25.0476L44.936 30.3934L35.6797 25.0476Z" fill="white"/>
</g>
<defs>
<linearGradient id="paint0_linear_437_123" x1="44.927" y1="19.7175" x2="44.9474" y2="34.6362" gradientUnits="userSpaceOnUse">
<stop stop-color="#FFC40E"/>
<stop offset="0.1875" stop-color="#FFBC01"/>
<stop offset="0.395833" stop-color="#F9B200"/>
<stop offset="0.644361" stop-color="#F7AC04"/>
<stop offset="1" stop-color="#F59F0D"/>
</linearGradient>
</defs>
</svg>
